<svg width="740" height="771" viewBox="0 0 740 771" fill="none" xmlns="http://www.w3.org/2000/svg">
<g clip-path="url(#clip0_52_488)">
<path d="M256.851 386.361L471 262.722L685.149 386.361V633.639L471 757.278L256.851 633.639V386.361Z" stroke="black" stroke-width="2"/>
<path d="M238.635 425.426L428.061 266.478L660.426 351.053L703.365 594.574L513.939 753.521L281.574 668.947L238.635 425.426Z" stroke="black" stroke-width="2"/>
<path d="M227.479 467.061L386.426 277.635L629.947 320.574L714.521 552.939L555.574 742.365L312.053 699.426L227.479 467.061Z" stroke="black" stroke-width="2"/>
<path d="M223.722 510L347.361 295.851L594.639 295.851L718.278 510L594.639 724.149L347.361 724.149L223.722 510Z" stroke="black" stroke-width="2"/>
<path d="M227.479 552.939L312.053 320.574L555.574 277.635L714.521 467.061L629.947 699.426L386.426 742.365L227.479 552.939Z" stroke="black" stroke-width="2"/>
<path d="M238.635 594.574L281.574 351.053L513.939 266.479L703.365 425.426L660.426 668.947L428.061 753.521L238.635 594.574Z" stroke="black" stroke-width="2"/>
<path d="M256.851 633.639L256.851 386.361L471 262.722L685.149 386.361L685.149 633.639L471 757.278L256.851 633.639Z" stroke="black" stroke-width="2"/>
<path d="M281.574 668.947L238.635 425.426L428.061 266.479L660.426 351.053L703.365 594.574L513.939 753.521L281.574 668.947Z" stroke="black" stroke-width="2"/>
<path d="M312.053 699.426L227.479 467.061L386.426 277.635L629.947 320.574L714.521 552.939L555.574 742.365L312.053 699.426Z" stroke="black" stroke-width="2"/>
<path d="M347.361 724.149L223.722 510L347.361 295.851H594.639L718.278 510L594.639 724.149H347.361Z" stroke="black" stroke-width="2"/>
<path d="M386.425 742.366L227.478 552.94L312.052 320.574L555.574 277.635L714.521 467.061L629.947 699.426L386.425 742.366Z" stroke="black" stroke-width="2"/>
<path d="M428.631 753.521L239.205 594.574L282.144 351.053L514.51 266.479L703.936 425.426L660.996 668.947L428.631 753.521Z" stroke="black" stroke-width="2"/>
<path d="M84.3699 84.3697L285.592 1.0208L486.814 84.3697L570.163 285.592L486.814 486.814L285.592 570.163L84.3699 486.814L1.02104 285.592L84.3699 84.3697Z" stroke="black" stroke-width="2.20241"/>
<path d="M52.4852 122.368L236.177 5.34386L448.815 52.4847L565.84 236.176L518.699 448.815L335.007 565.839L122.369 518.698L5.34437 335.007L52.4852 122.368Z" stroke="black" stroke-width="2.20241"/>
<path d="M27.6828 165.327L188.263 18.1827L405.856 27.6831L553.001 188.263L543.5 405.857L382.921 553.001L165.327 543.501L18.1824 382.921L27.6828 165.327Z" stroke="black" stroke-width="2.20241"/>
<path d="M10.7174 211.939L143.306 39.1462L359.244 10.7174L532.037 143.306L560.466 359.244L427.877 532.037L211.939 560.466L39.1461 427.877L10.7174 211.939Z" stroke="black" stroke-width="2.20241"/>
<path d="M2.10384 260.79L102.673 67.5979L310.394 2.1038L503.586 102.673L569.08 310.394L468.511 503.586L260.79 569.08L67.5979 468.511L2.10384 260.79Z" stroke="black" stroke-width="2.20241"/>
<path d="M2.10384 310.394L67.5979 102.673L260.79 2.10391L468.511 67.598L569.08 260.79L503.586 468.511L310.394 569.08L102.673 503.586L2.10384 310.394Z" stroke="black" stroke-width="2.20241"/>
<path d="M10.7174 359.244L39.1461 143.307L211.939 10.7176L427.877 39.1464L560.466 211.94L532.037 427.877L359.244 560.466L143.306 532.038L10.7174 359.244Z" stroke="black" stroke-width="2.20241"/>
<path d="M27.6828 405.857L18.1824 188.263L165.327 27.6833L382.921 18.183L543.5 165.327L553.001 382.921L405.856 543.501L188.263 553.001L27.6828 405.857Z" stroke="black" stroke-width="2.20241"/>
<path d="M52.4852 448.815L5.34437 236.177L122.369 52.4852L335.007 5.34442L518.699 122.369L565.84 335.007L448.815 518.699L236.177 565.84L52.4852 448.815Z" stroke="black" stroke-width="2.20241"/>
<path d="M84.3699 486.814L1.02104 285.592L84.3699 84.3698L285.592 1.02094L486.814 84.3698L570.163 285.592L486.814 486.814L285.592 570.163L84.3699 486.814Z" stroke="black" stroke-width="2.20241"/>
<path d="M122.369 518.699L5.34411 335.007L52.4849 122.369L236.177 5.3444L448.815 52.4852L565.839 236.177L518.699 448.815L335.007 565.84L122.369 518.699Z" stroke="black" stroke-width="2.20241"/>
<path d="M165.983 543.501L18.839 382.921L28.3393 165.327L188.919 18.183L406.513 27.6834L553.657 188.263L544.157 405.857L383.577 553.001L165.983 543.501Z" stroke="black" stroke-width="2.20241"/>
</g>
<defs>
<clipPath id="clip0_52_488">
<rect width="740" height="771" fill="white"/>
</clipPath>
</defs>
</svg>
