<svg width="1070" height="689" viewBox="0 0 1070 689" fill="none" xmlns="http://www.w3.org/2000/svg">
<g clip-path="url(#clip0_5_22)">
<path d="M150.85 115.738C123.328 131.318 99.97 166.25 81.9143 218.863C46.4679 322.303 37.9065 483.035 60.8168 612.059C65.834 640.248 69.0487 653.245 78.0758 681.923C87.2534 711.079 91.5864 722.061 101.313 740.712C130.859 796.991 169.663 821.987 215.974 814.59C238.002 811.07 257.534 800.457 274.89 782.648C291.384 765.724 303.807 747.28 319.672 716.107C333.595 688.785 342.005 668.452 362.444 612.55C368.963 594.563 376.412 574.794 379.029 568.63L383.691 557.269L579.764 495.551L775.836 433.832L786.165 440.475C791.841 444.029 810.628 456.94 828.027 469.061C879.282 504.935 898.037 516.631 928.307 532.055C953.94 545 970.856 551.408 990.849 555.621C1016.93 561.071 1039.81 558.86 1060.71 548.692C1070.51 543.94 1078.14 538.651 1085.45 531.534C1131.07 487.407 1122.1 393.218 1060.77 271.035C1011.43 172.746 932.731 70.2995 857.066 5.59876C832.625 -15.2508 811.252 -29.9741 787.724 -42.3555C759.924 -56.8943 739.375 -62.5962 717.501 -61.9272C710.625 -61.7766 710.226 -61.6511 642.375 -40.5561C576.118 -19.9629 574.07 -19.2307 569.443 -16.1108C563.317 -11.9062 555.411 -2.50064 543.295 14.9715C532.374 30.6671 526.085 38.2502 520.647 42.4133C517.166 44.9974 512.806 46.4575 445.109 67.7665C377.413 89.0755 373.002 90.3763 368.669 90.2519C361.827 89.954 352.328 87.3404 334.385 80.7306C314.551 73.4028 302.683 70.2218 295.333 70.2589C289.913 70.3015 287.416 70.9999 223.412 91.234C162.493 110.41 156.643 112.426 150.85 115.738ZM717.317 46.3485C726.316 45.7046 735.683 49.8481 741.111 57.0701C744.085 60.9495 746.743 69.3937 746.527 74.2771C745.727 94.8418 723.545 107.34 705.9 97.2218C698.962 93.2769 696.038 89.5568 693.505 81.511C691.875 76.333 691.497 73.738 691.895 70.5482C692.987 62.3245 697.875 54.7446 705.037 50.2137C709.42 47.4332 711.334 46.8308 717.317 46.3485ZM233.426 241.653L242.328 269.933L270.635 261.023L298.941 252.113L304.7 270.963L310.353 289.759L282.261 298.514L254.114 307.374L262.906 335.863L271.644 364.458L252.821 370.645L233.894 376.778L224.867 348.1L215.84 319.421L187.533 328.332L159.227 337.242L153.334 318.521L147.441 299.801L175.748 290.891L204.055 281.98L195.153 253.7L186.251 225.421L205.388 219.397L224.525 213.373L233.426 241.653ZM673.587 130.157C682.826 129.438 693.052 134.362 698.052 141.894C701.042 146.381 703.283 156.007 702.534 161.146C701.642 166.942 698.039 173.592 693.554 177.718C688.103 182.674 679.147 185.405 671.895 184.361C665.83 183.468 658.887 179.787 654.84 175.283C650.713 170.803 647.403 160.288 648.166 154.357C649.287 145.949 654.553 137.9 661.871 133.583C665.93 131.166 668.028 130.594 673.587 130.157ZM808.516 89.9617C818.931 91.5866 826.746 98.3197 829.981 108.596C831.611 113.774 831.714 115.493 830.911 120.736C829.27 131.672 822.662 139.355 812.216 142.643C801.666 145.877 791.928 143.338 784.344 135.394C780.682 131.556 779.807 130.168 778.152 124.91C776.727 120.106 776.449 117.829 777.02 113.797C779.036 97.9279 792.695 87.5871 808.516 89.9617ZM764.589 174.533C770.469 175.396 777.043 179.018 781.17 183.498C785.711 188.46 788.83 197.81 788.058 204.269C787.321 210.279 783.818 217.248 779.279 221.479C776.053 224.596 774.559 225.416 768.738 227.249C762.917 229.081 761.222 229.264 756.713 228.582C741.341 226.241 730.708 211.114 734.031 196.059C735.124 190.9 739.887 182.922 743.636 180.078C748.138 176.56 759.078 173.729 764.589 174.533ZM437.487 390.179C457.982 388.193 479.444 399.298 489.998 417.515C496.571 428.929 498.667 443.942 495.614 457.073C493.699 465.468 487.645 476.304 481.434 482.462C474.281 489.529 468.269 493.26 459.02 496.171C438.632 502.676 417.26 497.146 402.747 481.664C396.127 474.555 393.406 469.808 390.577 460.542C384.213 440.044 389.72 419.398 405.386 404.573C413.958 396.447 425.332 391.378 437.487 390.179ZM658.199 320.705C669.85 319.577 683.878 323.216 693.573 329.795C704.287 337.104 710.976 346.381 715.038 359.286C719.597 374.049 718.125 387.47 710.432 401.449C703.339 414.276 693.152 422.561 679.093 426.898C664.955 431.261 650.911 430.078 638.099 423.342C625.182 416.551 617.063 407.462 612.132 394.305C608.49 384.682 607.652 376.453 609.284 366.046C611.71 350.923 622.418 335.382 635.658 327.888C641.959 324.241 651.049 321.379 658.199 320.705Z" fill="black" fill-opacity="0.1"/>
</g>
<defs>
<clipPath id="clip0_5_22">
<rect width="1070" height="689" fill="white"/>
</clipPath>
</defs>
</svg>
