<svg width="715" height="1200" viewBox="0 0 715 1200" fill="none" xmlns="http://www.w3.org/2000/svg">
<g clip-path="url(#clip0_35_2636)">
<path fill-rule="evenodd" clip-rule="evenodd" d="M538.983 699.501C536.358 702.277 532.282 704.819 528.183 706.239C511.096 712.153 508.957 713.187 507.24 716.35C504.573 721.26 505.071 717.712 507.8 712.36C511.543 705.019 510.646 703.371 505.956 708.966C503.647 711.719 498.122 716.255 493.678 719.046C489.235 721.836 484.01 725.442 482.066 727.059C479.449 729.237 477.582 729.844 474.864 729.402C471.274 728.82 471.122 728.999 467.864 737.592C466.032 742.423 463.581 747.552 462.417 748.99C460.381 751.504 460.147 751.529 456.151 749.656C453.868 748.585 449.904 746.428 447.342 744.859C440.964 740.958 430.639 739.086 423.974 740.623C411.858 743.417 406.15 749.313 396.153 769.36C387.222 787.27 383 798.096 383 803.087C383 814.823 394.113 842.886 402.763 852.99C405.078 855.696 409.689 859.081 413.247 860.688C419.235 863.393 420.92 863.557 442.598 863.559C464.998 863.56 465.698 863.485 469.497 860.677C472.134 858.729 473.168 858.391 472.689 859.638C471.717 862.171 462.746 917.43 461.12 930.895C459.506 944.272 459.448 947.814 460.872 946.3C462.607 944.454 465.8 928.419 465.805 921.523C465.807 918.023 467.732 904.63 470.082 891.76C476.2 858.238 477.734 832.534 474.913 810.784L472.789 794.411L476.634 785.662C479.416 779.329 481.518 776.299 484.239 774.695C486.308 773.475 491.624 769.075 496.052 764.919C501.891 759.438 505.026 757.349 507.452 757.32C509.294 757.299 513.62 756.307 517.066 755.116L523.333 752.951L515.016 761.707C506.37 770.809 502.762 776.615 499.908 786.017C497.722 793.221 497.77 797.478 500.13 805.422C502.592 813.712 507.754 818.662 516.957 821.556C520.821 822.772 523.31 823.99 522.49 824.263C521.671 824.536 521 825.645 521 826.727C521 828.295 520.641 828.181 519.228 826.164C518.253 824.772 515.959 823.269 514.128 822.821C504.651 820.506 499.324 813.352 497.079 799.926L496.082 793.96L495.788 799.96C495.266 810.619 495.787 815.029 498.099 819.539C502.236 827.604 508.621 831.76 516.878 831.76C521.58 831.76 522.416 833.759 518.161 834.827C514.221 835.816 505.549 833.305 500.989 829.855C489.058 820.831 489.732 793.481 502.402 772.439C504.633 768.736 505.814 766.092 505.028 766.564C504.192 767.065 504.283 766.579 505.246 765.39C506.647 763.663 506.64 763.36 505.197 763.36C504.264 763.36 501.092 765.833 498.15 768.856C495.207 771.879 490.627 775.638 487.971 777.21C483.993 779.566 482.467 781.641 479.308 788.987L475.474 797.903L477.216 808.531C481.142 832.487 479.053 863.007 471.024 898.96C467.751 913.612 467.661 924.593 470.714 936.715C471.786 940.972 471.794 949.127 470.748 970.966C469.993 986.731 469.063 1000.44 468.684 1001.43C468.303 1002.42 464.57 1004.37 460.387 1005.76C456.204 1007.16 452.214 1008.98 451.519 1009.82C449.901 1011.76 432.44 1039.36 424.689 1052.22C419.217 1061.3 418.254 1062.27 412.573 1064.4C409.178 1065.68 398.57 1069.67 389 1073.27C368.529 1080.97 358.272 1085.97 354.375 1090.15C352.309 1092.37 348.529 1103.4 340.275 1131.3C334.074 1152.26 329 1170.12 329 1170.99C329 1171.85 329.81 1172.56 330.8 1172.56C331.79 1172.56 332.6 1171.57 332.6 1170.37C332.6 1169.16 334.267 1162.55 336.304 1155.67C356.09 1088.86 355.72 1089.76 363.393 1089.76C367.897 1089.76 379.222 1096.12 391.942 1105.79C396.408 1109.18 403.755 1114.66 408.27 1117.96C431.403 1134.87 444.336 1149.25 451.682 1166.23C453.476 1170.38 455.119 1172.53 456.516 1172.54C458.323 1172.56 458.014 1171.38 454.394 1164.46C444.424 1145.39 440.473 1140.3 426.8 1128.84C419.54 1122.76 411.71 1116.51 409.4 1114.95C407.09 1113.4 402.906 1110.05 400.102 1107.52C394.171 1102.16 379.094 1092.12 372.222 1088.95C369.603 1087.75 367.448 1086.44 367.431 1086.05C367.386 1085.02 371.684 1083.2 393.8 1074.86C421.144 1064.55 422.986 1064.07 427.078 1066.2C431.061 1068.28 448.502 1085.23 461.182 1099.36C472.251 1111.69 510.094 1158.9 515.284 1166.86C517.485 1170.23 519.902 1172.56 521.202 1172.56C522.411 1172.56 523.4 1172.2 523.4 1171.77C523.4 1169.68 482.535 1117.85 466.308 1099.36C454.952 1086.42 437.042 1068.61 430.07 1063.34C426.44 1060.59 426.228 1060.06 427.296 1056.43C428.462 1052.46 449.809 1018.11 454.016 1013.44C456.085 1011.14 463.369 1008.16 466.924 1008.16C467.72 1008.16 466.442 1009.98 464.085 1012.2C459.18 1016.83 458.572 1020.95 461.9 1027.04C463.056 1029.15 473.643 1042.46 485.43 1056.61C514.554 1091.59 513.398 1089.84 511.633 1096.44C510.844 1099.38 510.145 1103.81 510.078 1106.28L509.954 1110.76L508.897 1106.56C508.315 1104.25 508.161 1099.54 508.555 1096.08L509.27 1089.81L496.863 1074.48C490.04 1066.06 479.193 1052.82 472.761 1045.06C466.328 1037.31 460.24 1029.37 459.232 1027.42C456.12 1021.4 457.155 1014.03 461.404 1011.98C462.832 1011.29 463.46 1010.69 462.8 1010.64C459.784 1010.45 453.765 1015.71 450.318 1021.55C448.237 1025.08 442.5 1034.17 437.568 1041.76C432.636 1049.35 428.6 1056.3 428.6 1057.2C428.6 1058.1 430.894 1060.79 433.7 1063.19C461.191 1086.67 513.372 1148.01 522.904 1168.06C524.918 1172.29 525.369 1172.56 530.522 1172.55C535.903 1172.54 536.16 1172.36 545 1162.2C549.95 1156.51 555.08 1150.77 556.4 1149.43C558.39 1147.42 558.448 1147.13 556.746 1147.73C554.624 1148.47 541.183 1139.3 539.197 1135.75C538.64 1134.76 537.78 1134.06 537.284 1134.2C535.149 1134.8 529.227 1128.87 526.741 1123.64C524.466 1118.85 524.038 1115.93 524.024 1105.06C524.013 1096.98 523.556 1092.3 522.804 1092.55C522.141 1092.76 520.778 1098.84 519.772 1106.05C518.558 1114.77 517.639 1118.39 517.03 1116.85C516.528 1115.58 516.466 1112.2 516.896 1109.34C517.326 1106.47 517.299 1100.6 516.837 1096.29C516.039 1088.84 515.545 1087.87 506.922 1076.81C501.931 1070.4 491.264 1057.33 483.219 1047.76C475.173 1038.19 467.97 1029.19 467.211 1027.77C466.135 1025.75 466.23 1024.04 467.641 1020.04C471.8 1008.25 472.946 999.294 473.752 972.232C474.206 957 474.801 944.761 475.075 945.035C475.348 945.309 476.059 949.499 476.653 954.346C477.247 959.194 478.053 965.32 478.444 967.96C478.922 971.187 478.779 972.215 478.008 971.099C477.237 969.985 476.626 974.523 476.15 984.899C475.76 993.402 474.543 1004.95 473.448 1010.56C472.352 1016.17 471.231 1022.11 470.956 1023.76C470.563 1026.12 472.52 1029.23 480.152 1038.38C491.994 1052.56 495.488 1054.92 504.942 1055.08C517.299 1055.29 519.165 1057.1 507.2 1057.28C498.498 1057.4 496.857 1057.7 498.754 1058.8C500.049 1059.55 503.019 1060.29 505.354 1060.44C519.325 1061.33 519.405 1061.36 511.494 1062.07C507.255 1062.45 503.595 1063.35 503.36 1064.06C502.843 1065.64 516.882 1084.69 522.777 1090.42C526.599 1094.13 527 1095.14 527 1101.12C527 1108.54 533.128 1129.38 536.013 1131.77C536.996 1132.59 537.8 1132.94 537.8 1132.56C537.8 1132.17 541.42 1134.6 545.845 1137.95C550.27 1141.29 555.13 1144.6 556.645 1145.29C558.16 1145.98 559.389 1147.13 559.377 1147.85C559.364 1148.57 554.656 1154.29 548.916 1160.56C539.647 1170.68 538.782 1172 541.195 1172.35C543.039 1172.62 544.76 1171.66 546.556 1169.37C548.01 1167.51 552.402 1162.58 556.314 1158.42L563.428 1150.84L569.534 1151.6C576.488 1152.47 577.657 1151.66 582.292 1142.69C584.208 1138.99 585.178 1134.63 585.562 1127.99C585.862 1122.8 586.579 1118.56 587.154 1118.56C587.73 1118.56 588.2 1122.71 588.2 1127.78C588.2 1136.55 587.964 1137.36 583.226 1144.63C577.389 1153.59 575.469 1154.85 569.254 1153.86C564.717 1153.14 564.476 1153.29 556.615 1162.08C552.206 1167 548.6 1171.38 548.6 1171.8C548.6 1172.22 556.323 1172.56 565.764 1172.56H582.928L586.834 1163.01C591.234 1152.24 597.469 1128.08 598.574 1117.51C599.523 1108.42 596.937 1100.51 589.562 1089.93L584 1081.96L584.415 1056.76C584.898 1027.57 584.721 1027.02 573.47 1022.7C568.956 1020.96 568.04 1020.27 570.2 1020.25C575.306 1020.19 583.088 1024.47 585.168 1028.5C586.828 1031.71 586.984 1035.4 586.294 1055.29L585.495 1078.36L589.975 1084.96C592.438 1088.59 595.789 1094.19 597.421 1097.41C599.181 1100.87 600.828 1102.81 601.47 1102.17C602.803 1100.84 607.4 1074.43 607.4 1068.11C607.4 1063.29 609.21 1060.41 609.39 1064.95C609.446 1066.38 608.192 1077.01 606.603 1088.56C602.163 1120.82 596.554 1143.9 588.267 1164C585.092 1171.7 584.952 1172.56 586.879 1172.56C590.214 1172.56 597.039 1153.79 603.024 1128.16C607.974 1106.96 612.896 1073.94 611.89 1068.68C611.22 1065.16 611.406 1065.13 615.548 1068.05C617.337 1069.3 624.079 1073.39 630.53 1077.13C636.981 1080.87 643.018 1085.11 643.946 1086.55C645.596 1089.1 649.597 1106.67 658.546 1150.66C661.68 1166.06 663.483 1172.56 664.623 1172.56C665.692 1172.56 666.031 1171.64 665.614 1169.86C665.268 1168.37 664.22 1163.11 663.286 1158.16C660.15 1141.53 650.508 1096.42 648.637 1089.64L646.785 1082.92L633.552 1075.24C613.969 1063.87 612.951 1062.76 600.13 1038.76C593.942 1027.17 587.712 1016.59 586.284 1015.25C584.546 1013.62 580.478 1012.3 573.973 1011.26C562.988 1009.5 560.564 1008.07 560.841 1003.53C561.236 997.062 560.586 997.157 598.303 998.065C628.762 998.799 634.497 998.643 643.4 996.845C656.311 994.237 662.48 990.901 665.638 984.82C667.728 980.794 668.926 979.917 674.038 978.671C677.317 977.872 681.62 976.629 683.6 975.909C685.58 975.189 691.492 973.793 696.738 972.808C707.99 970.696 712.5 967.546 709.116 964.162C707.239 962.284 706.264 962.29 694.154 964.248C687.03 965.4 678.888 967.163 676.062 968.165C670.438 970.159 667.4 969.666 667.4 966.76C667.4 965.728 668.539 961.527 669.931 957.421C675.02 942.414 671.154 919.879 659.334 895.661C655.149 887.086 654.769 885.433 654.393 874.17L653.988 861.97L660.55 857.771C666.64 853.876 678.925 842.886 694.992 826.96C699.328 822.661 703.316 817.012 706.425 810.76L711.2 801.16V786.16C711.2 773.23 710.84 770.411 708.594 765.73C704.565 757.339 699.913 754.165 690.736 753.547C686.814 753.283 686.622 753.111 688.611 751.642C689.902 750.689 692.646 750.234 695.3 750.535C697.776 750.816 699.8 750.6 699.8 750.057C699.8 748.953 694.638 747.923 686.8 747.465C681.736 747.168 681.546 747.005 679.404 741.16C678.195 737.86 676.49 733.377 675.616 731.197C674.236 727.757 674.294 726.771 676.058 723.697C678.301 719.789 677.906 719.55 672.379 721.477C670.245 722.221 668.577 723.658 668.547 724.777C668.518 725.868 667.786 724.775 666.92 722.35C666.054 719.925 663.624 715.768 661.521 713.112C659.418 710.457 656.798 705.691 655.7 702.522L653.703 696.76L652.82 701.56C651.522 708.627 651.638 717.729 653.094 722.973C653.798 725.509 654.163 727.798 653.902 728.057C653.642 728.317 651.433 724.937 648.992 720.546L644.554 712.563L646.977 709.984C650.456 706.282 649.982 705.639 645.238 707.621C638.386 710.484 636.321 709.438 642.8 706.386C650.997 702.525 646.527 702.532 633.175 706.401C627.404 708.073 622.436 709.197 622.137 708.897C621.837 708.597 623.124 707.412 624.996 706.264C633.194 701.235 637.4 698.16 637.4 697.197C637.4 695.515 636.128 695.899 623.566 701.381C608.352 708.021 602.827 709.339 589.768 709.447C583.956 709.495 576.442 709.929 573.073 710.41C569.029 710.988 566.952 710.856 566.962 710.022C567.031 704.643 566.797 704.446 562.483 706.248C560.218 707.194 553.874 708.858 548.383 709.947C542.893 711.034 536.78 713.045 534.8 714.414C531.261 716.861 531.271 716.825 535.401 712.231C537.712 709.662 540.208 706.462 540.949 705.12C542.306 702.661 544.329 694.925 543.595 695.001C543.378 695.023 541.303 697.048 538.983 699.501ZM621.14 706.865C620.514 707.472 616.798 710.111 612.885 712.727C606.766 716.819 605.312 717.325 602.5 716.345C600.367 715.601 597.585 715.648 594.496 716.481C591.424 717.307 587.721 717.373 583.953 716.67C574.514 714.906 570.427 716.196 562.4 723.474C553.779 731.291 551.695 732.202 542.822 732.022C536.811 731.901 536.499 731.783 540.2 731.033C546.614 729.732 553.612 725.686 560.787 719.129L567.29 713.185L585.846 712.725C602.234 712.319 605.38 711.899 612.8 709.131C622.755 705.415 622.588 705.461 621.14 706.865ZM630.2 711.796C628.93 712.641 629.99 712.794 633.8 712.314L639.2 711.634L635.889 713.541C634.068 714.589 629.748 715.608 626.289 715.805C622.83 716.001 617.726 717.331 614.948 718.761C609.398 721.615 607.4 721.986 607.4 720.16C607.4 719.5 607.992 718.96 608.715 718.96C609.438 718.96 611.647 717.809 613.622 716.401C617.424 713.695 625.584 710.763 629.6 710.658C631.594 710.607 631.695 710.8 630.2 711.796ZM644.707 719.86C646.809 722.995 652.1 729.267 656.464 733.797C664.65 742.293 663.988 742.452 651.697 734.952C645.27 731.029 644.751 730.915 639.097 732.167C635.853 732.885 628.34 736.239 622.4 739.62C609.703 746.849 603.699 747.861 591.822 744.772C572.701 739.801 556.621 738.251 547.1 740.463C541.652 741.727 541.406 741.239 546.234 738.742C548.233 737.709 551.292 735.265 553.032 733.312C556.582 729.327 558.2 728.825 558.2 731.706C558.2 733.314 558.518 733.39 560.028 732.137C561.555 730.869 561.732 730.943 561.099 732.591C560.665 733.722 560.938 734.56 561.742 734.56C562.512 734.56 562.85 735.031 562.494 735.607C562.138 736.183 565.212 737.035 569.323 737.5C573.435 737.964 582.2 739.653 588.8 741.251C595.4 742.849 602.42 744.156 604.4 744.155C606.486 744.155 612.442 741.663 618.564 738.229C624.373 734.97 630.938 731.706 633.153 730.975C635.862 730.081 637.806 728.328 639.091 725.622C641.904 719.693 641.554 718.96 635.919 718.96H630.837L635.019 716.628C637.318 715.347 639.579 714.267 640.042 714.228C640.506 714.191 642.604 716.724 644.707 719.86ZM643.414 737.929C645.649 739.739 646.262 741.885 647.103 750.829C648.373 764.317 647.329 787.197 645.068 795.438C643.924 799.608 641.752 803.392 638.596 806.707C633.968 811.573 633.696 811.681 627.792 810.983C620.241 810.088 607.705 804.571 606.004 801.395C604.376 798.352 605.73 785.733 608.259 780.393C610.648 775.347 616.579 770.813 623.524 768.723C628.256 767.298 629.192 767.322 630.778 768.91C631.78 769.912 632.6 771.947 632.6 773.431C632.6 777.553 636.374 787.776 638.505 789.429C640.148 790.702 640 790.903 637.4 790.945C635.75 790.973 628.368 791.315 620.994 791.707C608.673 792.361 607.623 792.603 608.026 794.694C608.266 795.945 608.756 797.441 609.112 798.018C610.524 800.302 618.254 802.96 623.481 802.96C626.517 802.96 629 803.5 629 804.16C629 804.82 628.37 805.36 627.6 805.36C626.83 805.36 626.502 805.661 626.87 806.031C628.075 807.234 635.527 803.335 638.766 799.807C643.485 794.667 643.992 791.662 640.852 787.417C638.426 784.135 633.44 768.215 634.49 767.098C635.548 765.971 642.518 769.986 643.434 772.251C644.358 774.537 644.455 774.468 644.524 771.487C644.748 761.844 620.805 761.613 612.8 771.181L610.4 774.051L610.764 763.005C610.964 756.93 611.313 751.384 611.541 750.679C611.926 749.491 630.949 738.078 635 736.605C638.36 735.382 640.728 735.755 643.414 737.929ZM440.022 745.266C443.63 746.535 448.071 748.779 449.892 750.253C452.181 752.11 452.461 752.643 450.8 751.986C441.093 748.146 438.295 747.565 432.129 748.105C421.197 749.064 413.802 753.36 406.94 762.738C405.982 764.046 407.9 763.068 411.2 760.565C420.439 753.558 426.946 750.945 435.205 750.927C439.167 750.917 443.437 751.485 444.693 752.188C446.414 753.151 444.908 753.318 438.594 752.867C427.958 752.105 422.821 754.279 411.01 764.535C403.563 771.004 401.606 773.615 396.28 784.2C392.902 790.913 389.835 798.286 389.463 800.583C387.771 811.032 397.485 836.611 407.487 848.045C415.578 857.293 420.877 858.76 446.209 858.76C460.489 858.76 466.202 859.128 464.809 859.96C463.693 860.627 454.269 861.157 443.6 861.155C421.218 861.15 414.748 859.573 407.368 852.325C397.866 842.993 388.402 821.766 386.948 806.521C386.199 798.685 388.76 791.362 400.035 769.092C412.022 745.416 422.569 739.132 440.022 745.266ZM587.955 746.986C594.751 748.621 601.076 750.593 602.01 751.368C603.322 752.458 603.565 754.998 603.076 762.569C602.559 770.607 602.709 771.94 603.919 770.016C604.729 768.727 605.644 763.744 605.952 758.943C606.26 754.14 606.982 750.502 607.556 750.856C609.555 752.092 608.581 765.343 605.662 776.614C604.047 782.854 602.606 791.035 602.46 794.794C602.21 801.217 602.05 801.55 599.8 800.346C598.462 799.63 594.451 799.339 590.703 799.687C587.017 800.031 584.644 800.062 585.433 799.758C586.22 799.453 586.588 798.484 586.251 797.604C585.913 796.723 586.213 795.646 586.918 795.21C588.652 794.139 588.504 790.145 586.514 784.36C585.607 781.72 584.479 776.16 584.008 772.006L583.152 764.452L586.576 765.207C588.459 765.621 590.72 766.186 591.601 766.461C592.484 766.738 592.976 766.289 592.7 765.461C591.564 762.051 580.821 759.519 569.6 760.014C560.386 760.422 557.572 761.082 550.443 764.509C541.106 768.999 525.798 783.307 521.625 791.447L519.25 796.079L524.37 800.621C530.388 805.962 538.455 809.009 546.114 808.835L551.6 808.71L543.2 806.668C538.58 805.545 533.72 803.944 532.4 803.11C529.627 801.359 529.184 801.277 545.563 805.561C555.027 808.038 567.118 808.162 573.097 805.842C576.513 804.517 574.644 806.849 569.342 810.522C565.693 813.052 562.429 813.947 553.045 814.993C546.591 815.712 538.766 817.074 535.656 818.017C528.043 820.327 521.392 820.158 515.551 817.504C502.17 811.426 498.117 795.246 506.048 779.569C512.319 767.176 529.878 750.505 542 745.437C547.242 743.244 549.744 742.996 561.8 743.471C570.65 743.819 580.033 745.08 587.955 746.986ZM654.879 768.76C653.899 772.06 652.744 776.79 652.312 779.273C651.882 781.756 650.965 784.134 650.277 784.56C649.443 785.075 649.284 783.769 649.8 780.646C650.226 778.068 650.593 769.75 650.616 762.16L650.656 748.36L653.659 755.56C656.538 762.466 656.588 763.005 654.879 768.76ZM444.895 757.235C453.43 761.112 458.577 770.745 454.513 775.235C452.061 777.943 452.094 780.012 454.633 782.817C456.558 784.944 456.542 785.019 454.333 784.233C453.05 783.775 450.904 782.421 449.566 781.222C446.023 778.048 437.528 775.356 431.149 775.386C419.041 775.444 410.013 783.539 408.746 795.475C408.212 800.515 408.304 800.82 409.566 798.16C410.348 796.51 412.113 792.791 413.488 789.897C414.864 787.001 417.84 783.221 420.1 781.497C425.576 777.321 434.912 777.219 443.901 781.239L450.201 784.056L444.744 788.86C430.592 801.317 428.36 822.579 440.12 832.903C445.882 837.964 447.666 837.491 442.974 832.147C437.174 825.54 435.422 820.375 436.104 811.885C436.789 803.346 440.242 797.107 447.92 790.535C453.945 785.377 456.418 785.125 461.673 789.135C468.914 794.657 470.29 798.394 472.357 818.142C474.459 838.241 474.135 840.382 468.247 845.337C456.38 855.322 433.732 854.092 419.293 842.679C409.44 834.889 404.68 822.25 404.629 803.733C404.581 786.275 409.542 771.852 418.597 763.121C426.987 755.031 435.732 753.073 444.895 757.235ZM699.358 759.154C701.046 760.259 703.86 764.223 705.613 767.962C711.58 780.69 709.543 800.281 700.828 813.979C696.859 820.218 665.174 850.506 656.09 856.746L650.286 860.731L650.991 868.746C651.681 876.576 651.66 876.658 650.035 872.328C649.12 869.891 647.269 866.381 645.919 864.528C644.569 862.675 642.11 857.529 640.454 853.09C637.573 845.368 637.538 844.971 639.651 843.839C641.436 842.885 642.117 843.225 643.204 845.609C644.234 847.87 644.204 848.581 643.075 848.655C641.961 848.727 641.95 848.892 643.033 849.333C643.82 849.653 644.208 850.585 643.893 851.406C643.579 852.226 644.127 854.755 645.114 857.028L646.906 861.16L646.953 856.66C646.978 854.185 646.534 852.16 645.967 852.16C644.726 852.16 645.674 846.379 647.054 845.526C647.586 845.197 648.721 848.04 649.575 851.844C650.977 858.085 651.234 858.465 652.198 855.736C652.814 853.998 655.231 851.758 657.884 850.468C668.186 845.457 685.719 826.147 696.106 808.373C699.444 802.661 700.924 800.994 701.269 802.561C702.031 806.029 704.61 792.719 704.516 785.801C704.469 782.368 703.968 778.48 703.4 777.16L702.369 774.76L702.217 777.16C702.121 778.689 701.289 777.645 699.927 774.286C697.274 767.747 693.336 764.771 686.822 764.387C681.326 764.063 680.482 762.949 684.217 760.95C689.301 758.23 701.126 762.885 702.838 768.281C703.268 769.635 703.878 770.482 704.193 770.166C704.509 769.851 703.65 767.4 702.283 764.722C700.27 760.776 698.853 759.598 694.822 758.512C692.086 757.775 688.845 757.434 687.622 757.755C686.299 758.1 685.704 757.839 686.154 757.11C687.205 755.411 695.638 756.715 699.358 759.154ZM427.4 763.242C428.39 763.798 431.335 764.637 433.944 765.106C436.554 765.576 440.716 766.995 443.197 768.259C449.092 771.268 451.172 771.223 448.389 768.148C447.189 766.822 443.497 764.932 440.185 763.948C433.653 762.007 424.276 761.49 427.4 763.242ZM578.502 763.307C580.173 764.201 580.827 766.621 581.464 774.263C581.914 779.657 582.847 785.128 583.538 786.418C584.229 787.709 584.616 788.941 584.397 789.156C584.179 789.37 579.837 790.404 574.75 791.453C564.814 793.501 524.6 794.229 524.6 792.36C524.6 791.811 529.267 786.683 534.97 780.966C544.736 771.179 552.33 766.174 561.8 763.282C566.144 761.956 576.004 761.97 578.502 763.307ZM692.473 770.037C699.549 775.991 700.768 790.6 695.17 802.36C688.207 816.991 667.545 841.188 657.748 846.186C655.189 847.492 652.873 848.56 652.602 848.56C651.663 848.56 650.604 839.146 651.33 837.255C651.8 836.028 653.535 835.36 656.247 835.36C661.078 835.36 667.436 832.635 670.5 829.251C672.534 827.002 672.397 827.008 666.97 829.408C663.864 830.782 659.602 831.738 657.5 831.533C654.195 831.21 653.536 830.563 652.644 826.765C652.076 824.349 649.72 820.162 647.409 817.462L643.206 812.551L646.497 802.669C650.374 791.026 653.478 787.535 662.7 784.444C674.452 780.505 678.222 783.641 678.174 797.316C678.145 805.427 675.986 811.368 669.802 820.355C667.016 824.406 666.547 825.76 667.93 825.76C668.946 825.76 671.704 822.855 674.061 819.304C681.379 808.284 683.539 796.727 680.089 787.06C678.523 782.673 678.554 782.56 681.333 782.56C686.678 782.56 693.649 786.433 694.214 789.719C694.544 791.634 694.676 791.226 694.569 788.619C694.338 782.956 689.018 779.92 677.68 778.978L669.2 778.273L677.895 776.709C686.022 775.247 689.088 773.849 686.919 772.593C685.778 771.933 674.853 773.481 671.6 774.765C670.28 775.287 671.371 774.1 674.025 772.128C682.348 765.945 686.984 765.419 692.473 770.037ZM404.431 780.789C397.971 799.887 401.68 828.978 412.082 840.795C419.665 849.409 433.695 855.76 445.144 855.76C451.504 855.76 464.109 852.687 467.98 850.192L470.761 848.399L468.67 851.589C465.924 855.781 462.454 856.974 450.573 857.813C428.99 859.336 408.997 848.789 400.677 831.493C395.172 820.047 393.814 814.84 393.807 805.131C393.798 794.92 395.722 793.374 396.073 803.309C396.218 807.407 396.843 813.034 397.462 815.812C398.524 820.577 404.175 834.16 405.096 834.16C405.33 834.16 404.143 829.704 402.459 824.26C397.17 807.15 398.383 782.769 404.94 774.431C407.054 771.743 406.918 773.435 404.431 780.789ZM583.849 793.923C582.667 797.002 572.556 802.819 566.913 803.665C558.205 804.971 545.238 803.313 533.6 799.404L522.8 795.777L535.4 796.411C542.33 796.761 550.243 797.622 552.985 798.327C559.917 800.107 568.328 799.06 576.8 795.36C580.76 793.631 584.118 792.204 584.263 792.189C584.407 792.173 584.221 792.953 583.849 793.923ZM639.055 793.905C638.07 796.473 628.873 800.562 624.121 800.544C621.854 800.536 617.3 799.181 614 797.535C609.262 795.169 608.757 794.673 611.6 795.168C624.007 797.331 628.557 797.244 633.272 794.759C638.959 791.76 639.933 791.616 639.055 793.905ZM591.2 804.762C587.24 805.501 581.469 807.244 578.377 808.632C574.446 810.397 572.938 810.673 573.369 809.551C574.758 805.935 590.097 801.377 596 802.828C597.47 803.189 595.61 803.939 591.2 804.762ZM608.721 807.923C615.888 810.319 614.797 810.803 602.262 810.781C595.518 810.769 586.76 811.18 582.8 811.693C574.327 812.791 575.938 811.146 585.985 808.444C593.865 806.323 603.291 806.109 608.721 807.923ZM601.16 815.2C602.808 816.847 602.964 825.135 601.491 832.756C600.939 835.614 600.913 837.504 601.432 836.956C603.229 835.062 604.725 827.229 604.563 820.565C604.382 813.135 606.031 813.193 607.032 820.653C607.47 823.924 606.63 828.981 604.375 836.645C601.48 846.484 601.158 849.199 601.734 858.856C602.334 868.909 604.452 882.651 607.546 896.551C608.206 899.517 613.014 912.241 618.229 924.828C625.036 941.261 628.232 950.706 629.562 958.33C630.579 964.169 631.275 969.057 631.106 969.191C626.383 972.951 600.03 975.73 568.952 975.747C551.612 975.756 543.642 976.247 538.352 977.629C534.34 978.679 529.459 979.176 527.233 978.763C521.886 977.77 515.318 970.866 510.355 961.023L506.311 952.999L507.175 940.325C507.891 929.801 508.603 926.591 511.364 921.406C513.193 917.97 515.059 913.468 515.509 911.4C515.96 909.333 518.161 905.501 520.401 902.884C522.64 900.268 525.4 895.75 526.536 892.843C527.67 889.937 530.838 884.05 533.576 879.76C536.314 875.47 540.589 868.319 543.075 863.871C545.56 859.421 548.887 854.765 550.465 853.523C552.043 852.282 558.614 849.208 565.068 846.693C578.001 841.651 578.061 841.621 577.188 840.748C576.85 840.411 572.328 841.014 567.136 842.087C547.279 846.195 528.405 841.648 528.238 832.716C528.169 829.035 530.943 824.543 534.733 822.201C537.423 820.539 544.102 819.226 558.828 817.463C593.222 813.346 598.996 813.036 601.16 815.2ZM638.97 816.586C648.992 820.774 652.465 831.792 645.416 837.041C642.559 839.167 639.945 839.627 628.616 839.995L615.2 840.431L624.2 843.595L633.2 846.76L637.069 854.56C639.198 858.85 643.14 867.49 645.83 873.76C648.52 880.03 653.1 890.02 656.006 895.96C662.877 910.007 668.65 928.601 669.42 939.16C669.949 946.431 669.565 948.769 666.561 956.56L663.091 965.56L657.145 966.265C653.876 966.653 647.8 967.401 643.646 967.926C639.33 968.472 636.22 968.428 636.391 967.821C636.951 965.831 634.9 953.58 632.398 943.96C631.024 938.68 625.839 925.18 620.875 913.96C610.124 889.661 606.568 877.591 605.028 860.179C603.949 847.979 604.057 846.647 606.824 837.979C608.67 832.203 609.775 825.891 609.784 821.077L609.8 813.395L622.413 814.167C629.35 814.591 636.8 815.68 638.97 816.586ZM467.265 825.072C463.064 832.097 457.588 837.409 450.206 841.625C444.626 844.812 443.953 846.407 448.77 845.026C455.025 843.232 459.502 840.267 464.462 834.633C468.664 829.858 472.926 820.486 471.529 819.089C471.294 818.854 469.375 821.545 467.265 825.072ZM546.507 823.33C542.151 824.364 539.448 826.281 537.675 829.594C536.721 831.375 537.2 832.545 540.048 835.392C542.01 837.354 544.587 838.96 545.775 838.96C547.636 838.96 547.567 838.702 545.268 837.091C543.8 836.064 542.6 834.444 542.6 833.491C542.6 832.539 542.194 831.895 541.7 832.06C541.206 832.224 540.53 831.82 540.2 831.16C539.012 828.784 548.618 825.443 557.047 825.299C564.148 825.178 564.889 824.967 562.618 823.702C559.71 822.083 552.463 821.916 546.507 823.33ZM622.531 823.149C622.195 823.692 624.728 824.262 628.16 824.415C636.331 824.781 639.794 827.059 639.818 832.087C639.832 835.029 640.117 835.527 641 834.16C642.931 831.173 642.36 828.21 639.254 825.106C636.843 822.694 635.115 822.16 629.725 822.16C626.104 822.16 622.867 822.605 622.531 823.149ZM525.022 830.26C524.131 837.573 527.559 841.639 537.992 845.643C542.836 847.501 546.944 849.108 547.12 849.211C547.297 849.316 545.677 852.42 543.52 856.111C541.364 859.803 535.599 869.739 530.71 878.191C525.822 886.644 519.826 896.607 517.388 900.33C514.951 904.054 510.92 912.154 508.432 918.33C504.213 928.807 503.901 930.444 503.772 942.76L503.632 955.96L508.999 966.16C517.233 981.81 536.86 1000.15 549.955 1004.43C555.706 1006.31 557.757 1008.84 558.812 1015.36C560.838 1027.87 567.99 1042.91 575.481 1050.4C580.484 1055.4 582.667 1061.61 579.063 1060.58C573.866 1059.1 564.315 1058.65 557.277 1059.55C552.813 1060.13 550.195 1060.08 550.837 1059.44C551.431 1058.85 555.564 1057.91 560.019 1057.36C564.476 1056.8 568.924 1055.55 569.907 1054.57C571.486 1052.99 571.346 1052.32 568.683 1048.77C564.214 1042.81 561.151 1036.19 558.222 1026.15C556.779 1021.2 555.292 1016.35 554.916 1015.36C554.54 1014.37 554.18 1012.8 554.116 1011.87C554.049 1010.91 550.644 1009.05 546.168 1007.54C537.064 1004.47 531.991 1001.98 524.876 997.117C519.618 993.52 514.34 984.567 507.854 968.239C505.333 961.895 503.51 959.249 502.413 960.346C502.179 960.581 503.006 962.931 504.253 965.567C507.453 972.336 507.072 973.642 503.552 967.96C501.596 964.801 500.798 962.133 501.22 960.155C501.62 958.278 500.096 952.426 497.157 944.555C492.204 931.291 488.089 915.303 489.92 916.434C490.514 916.801 491 918.041 491 919.191C491 920.34 491.464 921.793 492.032 922.42C492.6 923.047 494.068 926.427 495.295 929.931C498.232 938.322 500.6 940.41 500.6 934.609C500.6 928.776 508.09 909.609 514.062 900.16C524.864 883.067 528.259 877.503 534.559 866.56C538.168 860.29 542.329 853.863 543.804 852.276C545.78 850.152 545.956 849.597 544.473 850.165C543.367 850.59 540.354 849.863 537.778 848.549C535.203 847.235 532.778 846.16 532.39 846.16C532.002 846.16 533.334 848.557 535.35 851.487C538.567 856.162 538.844 857.19 537.615 859.887C536.845 861.577 535.735 862.96 535.148 862.96C534.531 862.96 534.536 862.145 535.161 861.029C535.95 859.62 534.937 857.104 531.416 851.729C528.762 847.675 525.763 843.387 524.752 842.196C522.286 839.296 521.451 828.173 523.598 826.812C524.479 826.253 525.284 825.789 525.386 825.778C525.488 825.768 525.325 827.785 525.022 830.26ZM618.702 828.123C612.349 830.693 605.115 844.427 606.86 850.608C607.766 853.821 607.838 853.746 608.587 848.836C609.016 846.017 610.465 842.237 611.805 840.436C613.981 837.511 615.196 837.094 623.121 836.55C632.516 835.903 637.4 834.036 637.4 831.088C637.4 827.556 624.974 825.586 618.702 828.123ZM550.267 829.263C544.832 831.615 546.397 836.86 553.03 838.525C554.715 838.948 561.198 838.935 567.436 838.497L578.779 837.699L582.709 841.63C585.573 844.495 586.87 847.11 587.496 851.283C588.416 857.416 590.6 857.956 590.6 852.051C590.6 844.355 584.763 836.014 576.333 831.663C570.57 828.688 554.925 827.248 550.267 829.263ZM624.856 853.66C626.072 857.674 630.224 864.16 631.579 864.16C633.315 864.16 631.57 859.36 628.2 854.86C624.774 850.287 623.72 849.909 624.856 853.66ZM572.661 860.104C573.528 867.234 575.832 873.76 577.484 873.76C577.978 873.76 577.641 870.655 576.734 866.86C575.828 863.065 575.066 859.389 575.043 858.689C575.019 857.991 574.281 856.435 573.402 855.233C572.034 853.362 571.927 854.064 572.661 860.104ZM566.3 855.246C564.837 856.731 565.273 865.927 566.912 868.169C568.191 869.919 568.368 869.357 568.06 864.498C567.492 855.48 567.261 854.271 566.3 855.246ZM636.2 872.425C636.2 873.011 638.005 876.117 640.21 879.325C642.416 882.534 644.848 887.05 645.615 889.36C646.382 891.67 648.135 895.18 649.512 897.16C651.91 900.613 651.988 900.637 651.416 897.76C650.353 892.414 644.385 879.363 641.151 875.309C638.044 871.415 636.2 870.341 636.2 872.425ZM619.503 882.76C619.599 891.559 621.613 895.413 621.697 886.96C621.734 883.33 621.24 879.55 620.6 878.56C619.767 877.272 619.455 878.466 619.503 882.76ZM634.594 882.16C635.715 885.13 638.331 889.72 640.408 892.36C644.968 898.157 649.922 911.095 648.028 912.267C647.197 912.78 647.164 913.32 647.936 913.797C648.591 914.202 649.476 916.294 649.902 918.447C650.328 920.599 651.526 923.44 652.567 924.76C654.385 927.067 654.433 927.021 653.816 923.56C653.462 921.58 652.6 917.8 651.901 915.16C651.201 912.52 650.338 908.395 649.984 905.994C649.632 903.593 648.026 899.813 646.417 897.594C644.809 895.375 642.178 891.125 640.573 888.148C638.966 885.172 636.506 881.392 635.104 879.748L632.558 876.76L634.594 882.16ZM627.8 879.981C627.8 882.132 632.678 891.76 633.769 891.76C634.293 891.76 633.63 888.79 632.292 885.16C630.066 879.114 627.8 876.503 627.8 879.981ZM534.465 883.06C531.957 886.662 529.08 894.239 529.906 895.066C530.191 895.351 531.892 892.428 533.688 888.571C535.482 884.715 537.174 881.155 537.446 880.66C538.722 878.343 536.51 880.123 534.465 883.06ZM551.9 880.627C554.046 880.894 557.554 880.894 559.7 880.627C561.846 880.362 560.09 880.144 555.8 880.144C551.51 880.144 549.754 880.362 551.9 880.627ZM480.015 884.26C479.246 886.174 478.628 896.381 478.544 908.56C478.423 926.161 478.76 930.592 480.622 935.938C483.393 943.89 484.5 943.229 482.623 934.743C480.687 925.998 479.508 894.73 481.075 893.76C481.866 893.272 482.529 899.814 482.976 912.485C483.352 923.196 484.186 933.85 484.827 936.16C485.623 939.03 485.784 931.812 485.332 913.36C484.97 898.51 484.188 885.414 483.595 884.26C482.896 882.903 482.965 882.16 483.788 882.16C486.363 882.16 487.552 889.083 487.292 902.548C487.144 910.144 487.62 922.03 488.349 928.96C490.362 948.102 491.018 962.712 489.831 961.979C489.25 961.62 488.121 959.309 487.321 956.843C486.522 954.377 483.708 948.04 481.068 942.76C471.676 923.976 470.233 915.966 473.502 900.76C474.523 896.009 475.266 894.376 475.686 895.96C476.035 897.28 476.384 895.645 476.461 892.327C476.538 889.008 477.441 885.094 478.468 883.627C480.997 880.017 481.617 880.271 480.015 884.26ZM542.323 885.707C541.494 888.66 541.989 890.37 543.297 889.063C543.68 888.679 543.805 887.105 543.572 885.563L543.151 882.76L542.323 885.707ZM588.218 888.989C588.229 892.163 588.76 895.57 589.4 896.56C590.227 897.839 590.569 896.382 590.582 891.531C590.592 887.775 590.06 884.368 589.4 883.96C588.663 883.504 588.207 885.443 588.218 888.989ZM612.933 886.96C613.728 891.589 618.53 903.119 625.428 916.96C630.508 927.156 636.854 946.857 638.084 956.26C638.538 959.724 639.38 962.56 639.955 962.56C641.845 962.56 641.046 952.723 638.748 947.692C637.509 944.979 635.942 940.6 635.266 937.96C631.93 924.923 628.288 913.271 627.724 913.835C627.379 914.182 625.328 910.986 623.168 906.733C621.008 902.482 618.736 898.691 618.121 898.311C617.504 897.93 616.96 896.435 616.911 894.989C616.862 893.543 615.784 890.2 614.517 887.56L612.212 882.76L612.933 886.96ZM544.657 892.648C541.629 899.771 541.213 902.142 542.133 907.007C542.938 911.259 543.139 910.81 545.166 900.227C546.358 893.994 547.164 888.724 546.955 888.515C546.746 888.306 545.713 890.166 544.657 892.648ZM553.543 893.491C552.804 896.423 552.222 900.339 552.248 902.191L552.296 905.56L553.894 902.56C555.964 898.677 557.514 888.16 556.016 888.16C555.394 888.16 554.281 890.559 553.543 893.491ZM565.52 895.06C565.611 900.325 565.867 901.249 566.6 898.96C567.996 894.603 567.996 888.16 566.6 888.16C565.926 888.16 565.453 891.18 565.52 895.06ZM573.994 893.86C570.934 899.969 569.692 905.329 571.474 904.735C572.234 904.482 574.147 901.097 575.727 897.214C579.028 889.099 578.972 889.36 577.424 889.36C576.778 889.36 575.234 891.385 573.994 893.86ZM599.68 898.06C599.2 902.514 599.223 907.914 599.73 910.06L600.65 913.96L601.483 910.36C602.628 905.415 602.631 895.271 601.491 892.36C600.819 890.645 600.302 892.273 599.68 898.06ZM622.938 898.06C624.073 903.065 628.878 912.214 628.947 909.505C629.022 906.605 624.231 894.16 623.04 894.16C622.497 894.16 622.45 895.914 622.938 898.06ZM533.104 897.034C532.34 897.954 531.237 901.6 530.653 905.134C530.068 908.668 528.48 913.99 527.121 916.96C524.438 922.83 523.832 927.175 525.874 925.914C527.413 924.963 529.209 920.443 530.625 913.96C531.202 911.32 532.464 906.055 533.428 902.26C535.302 894.895 535.272 894.421 533.104 897.034ZM635 898.491C635 900.477 635.848 903.149 636.884 904.431C638.658 906.622 638.731 906.481 638.128 902.063C637.308 896.053 635 893.417 635 898.491ZM591.334 901.621C589.081 906.819 588.79 914.041 590.786 915.274C591.628 915.796 591.846 915.605 591.34 914.787C590.883 914.047 591.381 910.443 592.447 906.777C594.775 898.767 594.043 895.373 591.334 901.621ZM582.652 900.76C581.397 903.023 579.508 918.16 580.48 918.16C581.548 918.16 584.727 904.695 584.373 901.674C584.007 898.561 583.902 898.506 582.652 900.76ZM560.119 902.809C557.026 907.53 555.351 913.391 556.708 914.748C557.516 915.556 558.751 913.477 560.449 908.448C563.194 900.317 563.077 898.295 560.119 902.809ZM655.004 902.279C655.381 903.774 656.164 905.291 656.745 905.65C658.387 906.664 657.987 904.469 656.06 901.889C654.381 899.641 654.344 899.656 655.004 902.279ZM536.726 910.086C535.003 919.68 535.383 922.675 537.759 918.235C538.504 916.845 538.953 912.343 538.756 908.233L538.4 900.76L536.726 910.086ZM523.531 905.976C522.139 907.931 521 911.052 521 912.912C521 916.117 521.084 916.17 522.613 913.927C524.528 911.113 527.211 903.571 526.537 902.896C526.275 902.635 524.923 904.021 523.531 905.976ZM626.023 930.76C630.764 943.444 630.41 946.775 625.576 934.96C623.012 928.69 619.291 920.05 617.308 915.76C615.325 911.47 613.351 906.61 612.921 904.96C611.752 900.467 622.918 922.458 626.023 930.76ZM604.586 905.748C603.511 908.922 605.853 918.778 608.133 920.67C610.412 922.561 610.382 918.532 608.072 912.484C607.122 909.996 606.146 906.88 605.904 905.56C605.48 903.251 605.43 903.258 604.586 905.748ZM546.5 912.899C544.736 918.708 544.502 927.01 546.13 926.003C547.542 925.131 548.938 916.205 548.402 911.489C548.012 908.068 547.954 908.111 546.5 912.899ZM569.875 913.873C567.666 920.17 567.122 925.92 568.836 924.862C570.398 923.896 572.872 914.109 572.382 910.836C572.031 908.499 571.562 909.066 569.875 913.873ZM654.228 910.18C654.212 911.401 656.424 917.071 659.142 922.78C662.49 929.811 664.422 935.835 665.133 941.451C665.71 946.011 666.456 950.016 666.792 950.351C668.082 951.641 667.291 938.865 665.727 933.16C663.76 925.983 654.267 907.013 654.228 910.18ZM634.347 912.16C635.607 916.864 637.59 920.376 639.369 921.059C640.678 921.561 640.634 920.803 639.144 917.223C638.124 914.767 636.445 911.95 635.415 910.96C633.733 909.343 633.625 909.466 634.347 912.16ZM585.367 913.957C584.406 916.462 584.4 923.891 585.356 927.46C586.736 932.609 588.2 930.123 588.182 922.66C588.162 914.665 586.759 910.329 585.367 913.957ZM596.169 916.012C595.764 917.524 595.425 920.892 595.417 923.5C595.393 930.186 597.592 927.401 597.956 920.283C598.276 914.02 597.316 911.727 596.169 916.012ZM516.248 920.681C513.573 926.577 512.883 932.757 515.154 930.486C516.69 928.95 520.074 916.834 519.208 915.969C518.898 915.657 517.564 917.778 516.248 920.681ZM575.166 923.02C574.267 926.683 573.777 930.733 574.077 932.02C575.053 936.208 577.554 927.935 577.156 921.833L576.8 916.36L575.166 923.02ZM612.836 924.46C613.303 927.264 614.373 930.91 615.216 932.56C617.548 937.127 625.086 956.765 625.808 960.16C626.16 961.81 626.161 959.968 625.813 956.067C625.447 951.975 623.527 945.12 621.273 939.867C619.125 934.858 616.43 928.195 615.284 925.06C612.702 917.993 611.722 917.753 612.836 924.46ZM633.97 923.56C634.684 926.2 636.224 930.25 637.392 932.56C638.559 934.87 639.9 939.595 640.37 943.061C641.304 949.935 643.4 950.515 643.4 943.902C643.4 939.21 638.479 926.236 635.002 921.76L632.672 918.76L633.97 923.56ZM558.418 925.021C557.112 928.366 556.603 932.267 556.886 936.76C557.156 941.047 559.224 936.185 560.095 929.215C561.007 921.913 560.312 920.175 558.418 925.021ZM643.696 924.46C644.001 925.285 645.182 928.795 646.322 932.26C648.606 939.207 651.331 941.021 649.935 934.665C648.798 929.483 645.628 922.96 644.25 922.96C643.641 922.96 643.393 923.635 643.696 924.46ZM604.233 929.346C605.35 938.027 607.665 940.872 607.035 932.789C606.762 929.285 605.852 925.775 605.014 924.989C603.788 923.841 603.636 924.696 604.233 929.346ZM535.1 926.958C533.658 930.481 533.968 942.871 535.462 941.377C536.166 940.674 536.564 936.718 536.362 932.437C536.133 927.575 535.67 925.566 535.1 926.958ZM519.326 930.275C518.388 932.521 517.238 936.52 516.77 939.16C516.007 943.473 516.109 943.777 517.774 942.16C519.5 940.483 522.572 927.751 521.51 926.675C521.247 926.41 520.264 928.03 519.326 930.275ZM566.204 933.444C565.002 936.9 564.248 940.68 564.529 941.844C565.351 945.255 569.197 935.35 568.762 930.939C568.408 927.345 568.284 927.467 566.204 933.444ZM655.903 931.599C656.192 934.039 657.328 937.931 658.426 940.246C659.904 943.359 660.241 946.246 659.722 951.336C659.233 956.137 659.402 957.838 660.279 956.961C662.148 955.092 663.273 942.16 661.568 942.16C660.816 942.16 660.186 940.945 660.169 939.46C660.151 937.974 659.066 934.6 657.757 931.96L655.376 927.16L655.903 931.599ZM547.4 936.16C547.4 939.46 547.94 942.16 548.6 942.16C549.26 942.16 549.8 939.46 549.8 936.16C549.8 932.86 549.26 930.16 548.6 930.16C547.94 930.16 547.4 932.86 547.4 936.16ZM590.949 933.76C588.952 939.696 588.651 942.712 590.019 943.066C591.522 943.455 593.256 936.891 592.748 932.733C592.376 929.677 592.309 929.716 590.949 933.76ZM611.067 933.447C611.03 935.585 612.019 940.015 613.264 943.293C614.509 946.57 615.184 949.457 614.764 949.709C614.343 949.96 614.613 950.026 615.362 949.854C616.142 949.674 617.304 952.449 618.081 956.351C619.91 965.524 621.762 968.338 621.77 961.96C621.774 959.32 620.432 954.271 618.788 950.741C617.145 947.211 615.77 943.431 615.733 942.341C615.696 941.251 614.647 937.93 613.4 934.96C611.139 929.572 611.134 929.568 611.067 933.447ZM580.742 935.674C580.273 936.397 579.54 939.165 579.115 941.824C578.149 947.865 580.534 950.059 581.643 944.151C582.554 939.294 581.97 933.787 580.742 935.674ZM524.66 939.76C524.653 942.07 525.441 946.66 526.412 949.96L528.178 955.96L527.74 948.024C527.25 939.136 524.684 932.251 524.66 939.76ZM597.988 938.938C596.27 943.12 596.172 951.354 597.83 952.378C598.506 952.797 598.953 952.693 598.825 952.149C598.695 951.605 599.004 948.658 599.51 945.6C600.016 942.543 600.194 939.033 599.904 937.8C599.466 935.932 599.148 936.12 597.988 938.938ZM603.292 943.764C602.406 949.677 603.481 954.192 605.149 951.561C606.496 949.433 606.486 940.078 605.134 939.243C604.549 938.88 603.72 940.915 603.292 943.764ZM537.807 942.747C536.53 945.131 536.497 946.684 537.638 950.494C538.424 953.115 539.592 955.583 540.234 955.98C541.96 957.048 541.648 952.648 539.659 947.887C538.362 944.782 538.266 943.374 539.28 942.36C540.027 941.613 540.362 940.722 540.022 940.381C539.682 940.042 538.686 941.106 537.807 942.747ZM645.446 951.497C644.988 959.117 645.189 963.576 646.028 964.36C646.933 965.205 647.112 964.228 646.632 961.06C646.256 958.577 646.455 956.56 647.076 956.56C648.482 956.56 648.576 941.333 647.174 940.468C646.61 940.119 645.832 945.082 645.446 951.497ZM509.156 946.96C509.09 950.59 509.56 954.37 510.2 955.36C511.677 957.645 511.713 952.145 510.268 945.16L509.276 940.36L509.156 946.96ZM651.931 945.76C651.985 950.745 652.081 950.909 653.18 947.905C653.982 945.713 653.962 943.949 653.121 942.505C652.128 940.798 651.885 941.461 651.931 945.76ZM486.469 962.664C490.204 970.624 496.012 989.233 494.462 988.275C492.193 986.872 483.374 967.722 481.239 959.56C478.302 948.333 478.317 943.128 481.266 950.664C482.45 953.692 484.791 959.092 486.469 962.664ZM519.884 951.989C519.838 955.745 520.34 959.152 521 959.56C522.475 960.472 522.475 950.992 521 947.56C520.256 945.829 519.945 947.064 519.884 951.989ZM550.556 948.46C549.48 952.48 549.651 957.76 550.86 957.76C552.144 957.76 553.362 953.562 553.383 949.06C553.404 945.083 551.565 944.693 550.556 948.46ZM559.4 951.061C559.4 957.168 560.38 960.437 561.926 959.482C563.146 958.728 563.326 952.498 562.244 948.46C561.033 943.944 559.4 945.438 559.4 951.061ZM570.218 953.86C570.231 959.532 570.585 961.42 571.4 960.16C572.937 957.78 572.937 945.76 571.4 945.76C570.717 945.76 570.208 949.247 570.218 953.86ZM584.128 948.858C582.943 951.947 583.298 961.36 584.6 961.36C585.267 961.36 585.8 958.159 585.8 954.16C585.8 946.779 585.406 945.528 584.128 948.858ZM654.92 951.16C653.31 957.865 653.223 958.956 654.252 959.592C655.484 960.353 657.038 952.92 656.304 949.78C655.914 948.115 655.568 948.461 654.92 951.16ZM591.8 958.818C591.8 962.118 592.34 965.152 593 965.56C593.739 966.017 594.2 963.996 594.2 960.301C594.2 957.001 593.66 953.968 593 953.56C592.261 953.103 591.8 955.123 591.8 958.818ZM607.442 955.281C605.905 958.153 605.803 968.172 607.302 969.099C607.916 969.479 608.578 966.067 608.802 961.367C609.02 956.74 609.084 952.956 608.942 952.957C608.8 952.959 608.126 954.004 607.442 955.281ZM499.111 969.641C498.56 971.995 500.966 977.944 502.267 977.445C503.096 977.127 506.214 979.987 509.204 983.813C515.287 991.591 517.981 996.16 516.486 996.16C515.35 996.16 508.29 988.879 504.399 983.698C502.605 981.309 501.8 980.844 501.8 982.198C501.8 983.277 501.322 984.16 500.74 984.16C500.157 984.16 499.287 985.374 498.807 986.86C497.97 989.454 496.568 981.933 494.056 961.36L493.25 954.76L496.264 961.841C497.923 965.735 499.203 969.245 499.111 969.641ZM531.253 956.473C530.127 958.296 531.416 963.449 533.803 966.663C535.546 969.011 535.611 968.844 534.885 963.875C533.934 957.363 532.504 954.45 531.253 956.473ZM542.493 963.167C541.023 969.738 541.716 973.095 543.847 969.725C544.941 967.995 545.497 956.56 544.486 956.56C544.203 956.56 543.307 959.533 542.493 963.167ZM577.542 963.989C577.464 967.745 577.94 971.152 578.6 971.56C579.985 972.417 579.985 966.204 578.6 960.76C577.843 957.785 577.659 958.344 577.542 963.989ZM650.968 960.624C651.288 963.75 656.02 965.368 658.269 963.119C659.596 961.792 660.15 961.733 660.609 962.871C660.963 963.748 661.25 963.497 661.305 962.26C661.406 960.015 658.434 959.363 657.2 961.36C655.983 963.329 652.023 962.719 651.357 960.46C650.83 958.673 650.773 958.697 650.968 960.624ZM515.376 961.758C515.829 962.967 516.2 964.41 516.2 964.966C516.2 966.611 522.25 973.306 525.03 974.737C526.97 975.736 526.676 975.067 523.832 972.01C521.76 969.783 519.715 966.793 519.286 965.368C518.858 963.942 517.617 962.052 516.529 961.168C514.804 959.766 514.657 959.842 515.376 961.758ZM612.2 964.261C612.2 969.389 613.225 972.16 615.121 972.16C616.24 972.16 616.296 970.752 615.355 966.16C613.945 959.272 612.2 958.223 612.2 964.261ZM527.005 965.803C526.998 969.538 529.494 974.56 531.355 974.56C533.142 974.56 532.502 972.265 529.18 966.76C527.23 963.527 527.008 963.43 527.005 965.803ZM565.4 967.36C565.4 969.34 565.94 970.96 566.6 970.96C567.26 970.96 567.8 969.34 567.8 967.36C567.8 965.38 567.26 963.76 566.6 963.76C565.94 963.76 565.4 965.38 565.4 967.36ZM707 966.279C707 967.44 705.08 968.014 693.2 970.401C687.92 971.461 681.17 973.065 678.2 973.963C666.976 977.359 654.172 980.556 652.125 980.475C649.209 980.358 659.307 975.99 666.085 974.437C669.118 973.741 673.49 972.394 675.8 971.442C679.492 969.921 701.474 965.434 705.5 965.38C706.326 965.369 707 965.773 707 966.279ZM553.63 969.838C552.819 971.135 550.728 972.221 548.89 972.299C546.687 972.393 546.325 972.625 547.795 973.006C550.984 973.829 555.429 972.459 556.215 970.409C557.265 967.672 555.26 967.228 553.63 969.838ZM596.032 968.507C595.642 969.138 594.616 969.384 593.754 969.053C592.891 968.722 591.492 969.285 590.646 970.305C588.996 972.293 589.678 972.535 593.817 971.425C595.256 971.039 596.725 969.966 597.079 969.041C597.812 967.133 597.105 966.772 596.032 968.507ZM665.991 969.606C668.212 971.014 658.046 974.55 627.2 983.099C610.429 987.747 596.568 988.721 575.719 986.715C568.393 986.01 555.164 984.784 546.321 983.989C522.72 981.87 529.602 980.405 568.4 979.291C600.754 978.363 617.158 976.743 639.405 972.276C657.908 968.561 663.464 968.003 665.991 969.606ZM662.6 982.439C662.6 986.796 654.858 991.577 644.6 993.555C630.826 996.209 624.18 996.377 589.58 994.943C555.337 993.523 553.572 993.331 542.6 989.837C529.687 985.726 529.822 984.286 542.868 986.995C552.728 989.045 578.672 990.781 598.4 990.713C608.8 990.677 614.4 989.956 624.8 987.31C632.06 985.464 643.13 983.538 649.4 983.031C655.67 982.524 661.204 982.03 661.7 981.934C662.196 981.838 662.6 982.066 662.6 982.439ZM639.2 989.163C633.26 990.424 625.43 991.947 621.8 992.545C615.93 993.515 616.262 993.564 624.8 992.992C634.636 992.332 648.958 989.801 650.268 988.492C651.926 986.833 649.459 986.983 639.2 989.163ZM582.8 1017.1C585.283 1018.7 607.7 1059.46 607.096 1061.27C606.908 1061.83 602.482 1054.3 597.259 1044.53C582.716 1017.32 583.38 1018.17 575.644 1016.57C571.99 1015.81 569 1014.9 569 1014.54C569 1013.39 580.31 1015.49 582.8 1017.1ZM574.874 1041.76C576.852 1044.42 577.185 1045.32 575.785 1044.22C573.39 1042.33 566.596 1031.12 566.665 1029.16C566.688 1028.5 567.842 1030.12 569.229 1032.76C570.616 1035.4 573.157 1039.45 574.874 1041.76ZM580.627 1041.46C580.326 1042.61 580.078 1041.67 580.078 1039.36C580.078 1037.05 580.326 1036.11 580.627 1037.26C580.929 1038.41 580.929 1040.31 580.627 1041.46ZM581.016 1072.75L581.031 1083.16L587.058 1092.16C592.32 1100.02 596.732 1110.31 596.536 1114.28C596.503 1114.98 594.12 1110.7 591.242 1104.76C588.364 1098.82 584.505 1092.61 582.666 1090.96L579.321 1087.96L581.467 1091.38C584.748 1096.61 588.213 1107.64 588.087 1112.45C587.986 1116.33 587.74 1115.97 585.643 1108.96C584.36 1104.67 582.502 1098.73 581.514 1095.76C579.381 1089.35 578.755 1086.53 577.512 1077.76C576.472 1070.44 575.223 1066.8 573.288 1065.48C572.58 1064.99 567.307 1064.59 561.571 1064.58C555.835 1064.57 550.869 1064.12 550.536 1063.58C550.203 1063.04 556.921 1062.54 565.465 1062.47L581 1062.34L581.016 1072.75ZM421.4 1069.83C421.4 1070.1 424.23 1072.12 427.689 1074.33C431.148 1076.55 435.873 1079.95 438.189 1081.89C442.238 1085.29 442.216 1085.23 437.6 1080.27C431.367 1073.56 421.4 1067.15 421.4 1069.83ZM639.37 1090.66C638.172 1097.91 638.466 1107.51 639.814 1105.2C641.518 1102.29 642.801 1086.16 641.329 1086.16C640.66 1086.16 639.78 1088.19 639.37 1090.66ZM582.865 1116.29C583.537 1122.85 581.618 1142.56 580.446 1141.14C580.274 1140.93 579.836 1130.5 579.472 1117.96C578.869 1097.16 578.954 1095.74 580.432 1101.76C581.324 1105.39 582.418 1111.93 582.865 1116.29ZM533.866 1105.06C536.959 1111.71 544.388 1120.16 546.523 1119.46C547.335 1119.2 548.584 1116.6 549.298 1113.69L550.596 1108.39L551.398 1114.24C551.839 1117.46 552.218 1121.77 552.241 1123.83C552.308 1129.95 556.144 1136.46 561.615 1139.72C564.357 1141.36 566.6 1142.46 566.6 1142.16C566.6 1141.87 564.188 1137.1 561.241 1131.56C557.305 1124.16 555.692 1119.58 555.165 1114.32C554.404 1106.73 555.96 1107.13 557.61 1114.96C559.51 1123.97 567.855 1137.76 571.408 1137.76C573.181 1137.76 573.811 1136.56 574.401 1132.06C575.654 1122.52 577.226 1120.55 577.318 1128.4C577.408 1135.94 575.401 1146.97 573.752 1147.99C572.272 1148.9 556.549 1140.8 549.274 1135.37C540.775 1129.03 537.133 1124.87 534.14 1118.1C531.62 1112.41 529.092 1099.36 530.508 1099.36C530.896 1099.36 532.407 1101.92 533.866 1105.06ZM514.4 1111.77C514.4 1122.3 514.634 1123.35 518.251 1129.17C520.879 1133.39 521.572 1135.36 520.437 1135.36C517.976 1135.36 513.994 1129.74 512.47 1124.1C510.686 1117.51 511.914 1100.52 514.171 1100.56C514.297 1100.57 514.4 1105.61 514.4 1111.77ZM394.998 1113.63C395.806 1115.21 398.028 1121.12 399.934 1126.76C403.915 1138.53 404.451 1149.45 401.624 1161.16C399.615 1169.48 399.392 1172.56 400.8 1172.56C402.706 1172.56 406.184 1149.2 405.468 1141.2C404.601 1131.53 399.64 1116.63 396.177 1113.31L393.528 1110.76L394.998 1113.63ZM595.314 1119.36C596.127 1123.89 592.964 1138.53 591.728 1135.95C591.416 1135.29 591.344 1129.7 591.568 1123.51C591.994 1111.82 593.631 1110.01 595.314 1119.36ZM536.107 1117.66C538.874 1122.56 543.262 1127.2 548.845 1131.14C555.044 1135.52 554.965 1135.39 545.628 1125.89C536.085 1116.19 534.5 1114.82 536.107 1117.66ZM528.447 1132.65C529.962 1134.27 533.818 1136.93 537.019 1138.56C543.639 1141.93 543.733 1143.32 537.219 1141.52C527.66 1138.88 520.93 1130.71 521.056 1121.9C521.11 1118.09 521.186 1118.15 523.404 1123.83C524.664 1127.05 526.933 1131.02 528.447 1132.65ZM648.532 1123.96C648.688 1126.06 648.248 1127.46 647.472 1127.32C646.677 1127.17 646.333 1128.38 646.616 1130.32C646.878 1132.1 647.043 1137.71 646.984 1142.79C646.882 1151.64 647.019 1152.12 650.239 1154.19C652.088 1155.38 654.553 1157.44 655.718 1158.76C657.813 1161.13 657.83 1161.13 657.249 1158.16C651.958 1131.12 647.874 1115.09 648.532 1123.96ZM412.062 1124.14C415.054 1127.52 417.541 1138.72 418.945 1155.16C419.622 1163.08 420.181 1170.24 420.188 1171.06C420.194 1171.89 420.819 1172.56 421.576 1172.56C423.213 1172.56 422.133 1148.53 419.996 1137.38C418.605 1130.13 414.906 1123.36 411.8 1122.38C410.364 1121.92 410.416 1122.28 412.062 1124.14ZM487.55 1137.28C500.208 1154.62 510.406 1168.07 512.478 1170.16C517.442 1175.16 511.454 1166.11 498.356 1148.82C482.179 1127.47 474.048 1118.79 487.55 1137.28ZM633.835 1137.16C633.814 1143.1 632.988 1152.55 632 1158.16C629.806 1170.61 629.77 1172.56 631.734 1172.56C635.371 1172.56 638.472 1134.22 635.276 1128.76C634.13 1126.8 633.866 1128.34 633.835 1137.16ZM463.986 1135.38C462.818 1137.27 480.216 1172.56 482.316 1172.56C485.028 1172.56 482.722 1167.39 466.344 1136.77C465.346 1134.91 464.565 1134.45 463.986 1135.38ZM483.753 1144.42C482.97 1145.36 481.714 1145.76 480.964 1145.31C480.214 1144.86 481.066 1146.35 482.858 1148.63C484.65 1150.9 489.24 1157.19 493.058 1162.6C498.823 1170.77 500.56 1172.45 503.3 1172.5C507.159 1172.57 507.084 1172.81 504.861 1167.49C502.968 1162.96 496.296 1154.12 489.49 1147.13C485.866 1143.41 484.951 1142.97 483.753 1144.42ZM608.874 1157.07C596.978 1169.97 595.148 1172.56 597.918 1172.56C599.376 1172.56 610.294 1161.77 617.344 1153.36C621.751 1148.1 621.853 1148.06 621.168 1151.56L620.463 1155.16L622.29 1152.16L624.115 1149.16L624.158 1152.83C624.182 1154.96 622.435 1159.43 620 1163.48C615.645 1170.71 615.016 1172.56 616.918 1172.56C619.945 1172.56 627.733 1157.34 627.774 1151.34C627.8 1147.5 625.245 1143.76 622.587 1143.76C621.795 1143.76 615.624 1149.75 608.874 1157.07ZM339.45 1155.8C335.258 1169.56 335.214 1172.56 339.2 1172.56C341.503 1172.56 342.207 1171.93 342.229 1169.86C342.262 1166.83 343.207 1155.97 343.952 1150.08C344.919 1142.43 342.638 1145.32 339.45 1155.8ZM371.332 1151.86C369.424 1154.34 365.301 1160.01 362.17 1164.46L356.479 1172.56H360.739C364.317 1172.56 365 1172.14 365 1169.94C365 1166.89 373.946 1152.67 376.477 1151.7C381.231 1149.87 382.958 1153.42 382.983 1165.06C382.993 1169.25 383.529 1172.56 384.2 1172.56C385.876 1172.56 385.724 1155.02 384.02 1151.78C380.858 1145.77 376.002 1145.8 371.332 1151.86ZM638.893 1155.03C638.072 1159.35 637.404 1164.13 637.408 1165.63C637.416 1168.19 637.566 1168.13 639.774 1164.78C643.099 1159.74 643.776 1155.46 641.956 1151L640.386 1147.16L638.893 1155.03ZM477.8 1151.35C477.8 1151.82 480.027 1156.79 482.749 1162.38C487.506 1172.16 487.856 1172.56 491.749 1172.56C493.977 1172.56 495.8 1172.2 495.8 1171.77C495.8 1171.34 493.675 1168.23 491.077 1164.87C485.988 1158.28 477.8 1149.95 477.8 1151.35ZM645.5 1166.72C643.026 1168.74 641 1170.88 641 1171.48C641 1173.73 646.699 1172.43 649.4 1169.56C653.244 1165.47 655.339 1165.74 651.727 1169.86C650.137 1171.67 649.611 1172.49 650.558 1171.66C652.616 1169.87 654.646 1169.67 653.6 1171.36C653.179 1172.04 654.188 1172.56 655.929 1172.56C659.62 1172.56 659.697 1171.92 656.613 1166.86C653.671 1162.03 651.27 1162 645.5 1166.72ZM626.878 1168.96C626.878 1171.27 627.126 1172.21 627.427 1171.06C627.729 1169.91 627.729 1168.01 627.427 1166.86C627.126 1165.71 626.878 1166.65 626.878 1168.96Z" fill="black" fill-opacity="0.12"/>
<path d="M341.507 418.626L540.897 281.981L541.725 283.176L559.158 308.153L359.549 444.92L341.507 418.626ZM390.116 488.988C413.099 473.238 408.163 454.517 397.073 435.667L454.007 397.63C466.936 414.253 481.854 426.114 502.225 412.156L525.247 445.724L492.312 468.308L485.159 456.808C486.6 454.334 487.429 451.456 487.429 448.386C487.429 439.128 479.914 431.613 470.656 431.613C461.4 431.613 453.909 439.128 453.909 448.386C453.909 457.644 461.401 465.134 470.657 465.134C470.81 465.134 470.97 465.114 471.121 465.11L478.861 477.537L458.378 491.551L440.018 462.107L426.175 470.724L433.45 482.396L420.804 490.281L432.596 509.227L413.111 522.58L390.114 488.986L390.116 488.988ZM538.576 250.439C538.584 250.196 538.594 249.948 538.625 249.704C538.707 249.058 538.847 248.414 539.064 247.728C539.932 244.985 542.241 241.946 545.266 239.817C548.289 237.689 551.896 236.567 554.739 236.692C557.58 236.817 559.69 237.674 561.868 240.794L603.639 300.633C605.431 303.198 605.475 305.107 604.543 307.761C603.611 310.414 601.214 313.482 598.122 315.671C595.029 317.859 591.357 319.071 588.6 319.039C585.843 319.007 584.079 318.343 582.179 315.621L540.409 255.759C539.018 253.77 538.518 252.121 538.577 250.439L538.576 250.439ZM573.073 205.954C573.393 186.928 580.511 170.404 594.362 160.911C613.688 147.669 641.044 151.639 664.896 168.431C668.583 166.995 672.583 166.185 676.761 166.185C694.919 166.185 709.818 181.083 709.818 199.242C709.818 205.988 707.767 212.282 704.251 217.528C718.695 251.284 714.184 286.332 691.14 302.121C669.828 316.727 638.865 310.624 613.553 289.329L579.154 240.037C575.164 229.087 573.139 218.107 573.074 207.81C573.071 207.192 573.064 206.568 573.074 205.955L573.073 205.954ZM658.328 199.241C658.328 209.509 666.492 217.674 676.761 217.674C687.029 217.674 695.218 209.51 695.218 199.242C695.218 188.974 687.029 180.785 676.761 180.785C666.493 180.785 658.328 188.974 658.328 199.242L658.328 199.241Z" fill="black" fill-opacity="0.12"/>
<g opacity="0.12" clip-path="url(#clip1_35_2636)">
<path d="M393.776 588.744L367.733 558.041C359.455 563.334 348.336 561.83 341.805 554.129L119.581 742.616C126.113 750.317 125.783 761.532 119.211 768.835L145.252 799.537C153.531 794.245 164.649 795.749 171.181 803.45C177.713 811.151 177.383 822.366 170.811 829.669L196.852 860.372C205.13 855.079 216.249 856.583 222.781 864.284L445.005 675.797C438.473 668.096 438.803 656.88 445.375 649.577L419.334 618.875C411.055 624.167 399.937 622.663 393.405 614.962C386.873 607.262 387.204 596.046 393.776 588.744Z" fill="black"/>
<path d="M225.198 832.362L376.905 703.68L303.184 616.767L151.477 745.449L225.198 832.362Z" fill="#7A7473"/>
<path d="M240.832 697.031L265.507 712.269L287.624 693.509L280.758 721.686L305.434 736.924L276.514 739.1L269.647 767.277L258.641 740.445L229.721 742.622L251.838 723.863L240.832 697.031Z" fill="black"/>
<path opacity="0.1" d="M191.339 853.875L321.175 611.791L303.422 602.27L309.514 585.972L306.297 584.247L119.581 742.616C126.113 750.317 125.783 761.532 119.211 768.836L145.253 799.538C153.53 794.246 164.65 795.75 171.182 803.451C177.714 811.152 177.384 822.367 170.811 829.67L191.339 853.875Z" fill="#7A7473"/>
<path d="M212.409 558.369L176.93 539.341C171.167 547.298 160.27 549.972 151.371 545.2L13.6448 801.992C22.543 806.765 26.3453 817.322 22.9054 826.526L58.3837 845.554C64.1471 837.597 75.0446 834.923 83.9428 839.696C92.841 844.468 96.6432 855.025 93.2034 864.229L128.682 883.257C134.445 875.301 145.343 872.626 154.241 877.399L291.966 620.607C283.067 615.835 279.265 605.277 282.705 596.073L247.228 577.045C241.464 585.002 230.567 587.676 221.668 582.904C212.77 578.129 208.969 567.574 212.409 558.369Z" fill="black"/>
<path d="M141.048 594.97C140.575 594.843 140.109 594.66 139.659 594.419L128.252 588.301C125.102 586.612 123.917 582.689 125.608 579.539C127.296 576.39 131.22 575.205 134.37 576.895L145.776 583.013C148.927 584.702 150.111 588.625 148.42 591.775C146.974 594.474 143.884 595.73 141.048 594.97Z" fill="#7A7473"/>
<path d="M235.275 645.505C234.803 645.379 234.337 645.196 233.886 644.955L210.329 632.32C207.179 630.631 205.995 626.708 207.685 623.558C209.374 620.408 213.295 619.223 216.447 620.914L240.004 633.549C243.154 635.237 244.339 639.161 242.648 642.31C241.202 645.01 238.112 646.266 235.275 645.505ZM188.162 620.238C187.69 620.111 187.224 619.928 186.773 619.687L163.216 607.052C160.066 605.363 158.882 601.44 160.572 598.29C162.261 595.14 166.183 593.955 169.334 595.646L192.891 608.281C196.041 609.97 197.225 613.893 195.535 617.043C194.088 619.742 190.999 620.998 188.162 620.238Z" fill="#7A7473"/>
<path d="M270.239 664.259C269.766 664.132 269.3 663.949 268.849 663.708L257.443 657.59C254.293 655.901 253.108 651.978 254.799 648.828C256.487 645.679 260.411 644.494 263.561 646.184L274.967 652.302C278.118 653.991 279.302 657.914 277.611 661.064C276.164 663.763 273.075 665.019 270.239 664.259Z" fill="#7A7473"/>
<path d="M144.811 846.82L238.846 671.514L138.414 617.641L44.3787 792.947L144.811 846.82Z" fill="#7A7473"/>
<path d="M109.767 715.158L138.309 720.296L152.016 694.74L155.949 723.472L184.491 728.611L158.38 741.231L162.312 769.964L142.241 749.03L116.13 761.65L129.837 736.092L109.767 715.158Z" fill="black"/>
<path d="M316.132 597.701C314.904 597.372 313.761 596.68 312.877 595.637L304.505 585.765C302.192 583.039 302.528 578.955 305.254 576.643C307.98 574.331 312.065 574.667 314.376 577.392L322.749 587.264C325.061 589.99 324.726 594.074 322 596.386C320.316 597.814 318.114 598.232 316.132 597.701Z" fill="#7A7473"/>
<path d="M385.296 679.244C384.068 678.915 382.925 678.222 382.041 677.18L364.75 656.794C362.437 654.068 362.773 649.984 365.499 647.673C368.225 645.36 372.309 645.696 374.621 648.422L391.912 668.808C394.225 671.534 393.889 675.618 391.163 677.929C389.479 679.356 387.278 679.775 385.296 679.244ZM350.714 638.472C349.487 638.143 348.344 637.45 347.46 636.408L330.169 616.022C327.856 613.296 328.192 609.212 330.918 606.901C333.644 604.589 337.729 604.925 340.04 607.65L357.331 628.036C359.643 630.762 359.308 634.847 356.582 637.158C354.898 638.585 352.697 639.003 350.714 638.472Z" fill="#7A7473"/>
<path d="M410.958 709.501C409.73 709.172 408.588 708.479 407.704 707.437L399.331 697.565C397.018 694.839 397.354 690.755 400.08 688.443C402.806 686.131 406.891 686.467 409.202 689.192L417.575 699.064C419.887 701.79 419.552 705.874 416.826 708.186C415.143 709.613 412.94 710.032 410.958 709.501Z" fill="#7A7473"/>
</g>
</g>
<defs>
<clipPath id="clip0_35_2636">
<rect width="714.24" height="1200" fill="white"/>
</clipPath>
<clipPath id="clip1_35_2636">
<rect width="383.999" height="383.999" fill="white" transform="translate(99.3862 482) rotate(15)"/>
</clipPath>
</defs>
</svg>
