<svg width="715" height="1383" viewBox="0 0 715 1383" fill="none" xmlns="http://www.w3.org/2000/svg">
<g clip-path="url(#clip0_50_3053)">
<rect width="715" height="1383" fill="white"/>
<path fill-rule="evenodd" clip-rule="evenodd" d="M538.983 909.501C536.358 912.277 532.282 914.819 528.183 916.239C511.096 922.153 508.957 923.187 507.24 926.35C504.573 931.26 505.071 927.712 507.8 922.36C511.543 915.019 510.646 913.371 505.956 918.966C503.647 921.719 498.122 926.255 493.678 929.046C489.235 931.836 484.01 935.442 482.066 937.059C479.449 939.237 477.582 939.844 474.864 939.402C471.274 938.82 471.122 938.999 467.864 947.592C466.032 952.423 463.581 957.552 462.417 958.99C460.381 961.504 460.147 961.529 456.151 959.656C453.868 958.585 449.904 956.428 447.342 954.859C440.964 950.958 430.639 949.086 423.974 950.623C411.858 953.417 406.15 959.313 396.153 979.36C387.222 997.27 383 1008.1 383 1013.09C383 1024.82 394.113 1052.89 402.763 1062.99C405.078 1065.7 409.689 1069.08 413.247 1070.69C419.235 1073.39 420.92 1073.56 442.598 1073.56C464.998 1073.56 465.698 1073.49 469.497 1070.68C472.134 1068.73 473.168 1068.39 472.689 1069.64C471.717 1072.17 462.746 1127.43 461.12 1140.9C459.506 1154.27 459.448 1157.81 460.872 1156.3C462.607 1154.45 465.8 1138.42 465.805 1131.52C465.807 1128.02 467.732 1114.63 470.082 1101.76C476.2 1068.24 477.734 1042.53 474.913 1020.78L472.789 1004.41L476.634 995.662C479.416 989.329 481.518 986.299 484.239 984.695C486.308 983.475 491.624 979.075 496.052 974.919C501.891 969.438 505.026 967.349 507.452 967.32C509.294 967.299 513.62 966.307 517.066 965.116L523.333 962.951L515.016 971.707C506.37 980.809 502.762 986.615 499.908 996.017C497.722 1003.22 497.77 1007.48 500.13 1015.42C502.592 1023.71 507.754 1028.66 516.957 1031.56C520.821 1032.77 523.31 1033.99 522.49 1034.26C521.671 1034.54 521 1035.64 521 1036.73C521 1038.3 520.641 1038.18 519.228 1036.16C518.253 1034.77 515.959 1033.27 514.128 1032.82C504.651 1030.51 499.324 1023.35 497.079 1009.93L496.082 1003.96L495.788 1009.96C495.266 1020.62 495.787 1025.03 498.099 1029.54C502.236 1037.6 508.621 1041.76 516.878 1041.76C521.58 1041.76 522.416 1043.76 518.161 1044.83C514.221 1045.82 505.549 1043.31 500.989 1039.86C489.058 1030.83 489.732 1003.48 502.402 982.439C504.633 978.736 505.814 976.092 505.028 976.564C504.192 977.065 504.283 976.579 505.246 975.39C506.647 973.663 506.64 973.36 505.197 973.36C504.264 973.36 501.092 975.833 498.15 978.856C495.207 981.879 490.627 985.638 487.971 987.21C483.993 989.566 482.467 991.641 479.308 998.987L475.474 1007.9L477.216 1018.53C481.142 1042.49 479.053 1073.01 471.024 1108.96C467.751 1123.61 467.661 1134.59 470.714 1146.72C471.786 1150.97 471.794 1159.13 470.748 1180.97C469.993 1196.73 469.063 1210.44 468.684 1211.43C468.303 1212.42 464.57 1214.37 460.387 1215.76C456.204 1217.16 452.214 1218.98 451.519 1219.82C449.901 1221.76 432.44 1249.36 424.689 1262.22C419.217 1271.3 418.254 1272.27 412.573 1274.4C409.178 1275.68 398.57 1279.67 389 1283.27C368.529 1290.97 358.272 1295.97 354.375 1300.15C352.309 1302.37 348.529 1313.4 340.275 1341.3C334.074 1362.26 329 1380.12 329 1380.99C329 1381.85 329.81 1382.56 330.8 1382.56C331.79 1382.56 332.6 1381.57 332.6 1380.37C332.6 1379.16 334.267 1372.55 336.304 1365.67C356.09 1298.86 355.72 1299.76 363.393 1299.76C367.897 1299.76 379.222 1306.12 391.942 1315.79C396.408 1319.18 403.755 1324.66 408.27 1327.96C431.403 1344.87 444.336 1359.25 451.682 1376.23C453.476 1380.38 455.119 1382.53 456.516 1382.54C458.323 1382.56 458.014 1381.38 454.394 1374.46C444.424 1355.39 440.473 1350.3 426.8 1338.84C419.54 1332.76 411.71 1326.51 409.4 1324.95C407.09 1323.4 402.906 1320.05 400.102 1317.52C394.171 1312.16 379.094 1302.12 372.222 1298.95C369.603 1297.75 367.448 1296.44 367.431 1296.05C367.386 1295.02 371.684 1293.2 393.8 1284.86C421.144 1274.55 422.986 1274.07 427.078 1276.2C431.061 1278.28 448.502 1295.23 461.182 1309.36C472.251 1321.69 510.094 1368.9 515.284 1376.86C517.485 1380.23 519.902 1382.56 521.202 1382.56C522.411 1382.56 523.4 1382.2 523.4 1381.77C523.4 1379.68 482.535 1327.85 466.308 1309.36C454.952 1296.42 437.042 1278.61 430.07 1273.34C426.44 1270.59 426.228 1270.06 427.296 1266.43C428.462 1262.46 449.809 1228.11 454.016 1223.44C456.085 1221.14 463.369 1218.16 466.924 1218.16C467.72 1218.16 466.442 1219.98 464.085 1222.2C459.18 1226.83 458.572 1230.95 461.9 1237.04C463.056 1239.15 473.643 1252.46 485.43 1266.61C514.554 1301.59 513.398 1299.84 511.633 1306.44C510.844 1309.38 510.145 1313.81 510.078 1316.28L509.954 1320.76L508.897 1316.56C508.315 1314.25 508.161 1309.54 508.555 1306.08L509.27 1299.81L496.863 1284.48C490.04 1276.06 479.193 1262.82 472.761 1255.06C466.328 1247.31 460.24 1239.37 459.232 1237.42C456.12 1231.4 457.155 1224.03 461.404 1221.98C462.832 1221.29 463.46 1220.69 462.8 1220.64C459.784 1220.45 453.765 1225.71 450.318 1231.55C448.237 1235.08 442.5 1244.17 437.568 1251.76C432.636 1259.35 428.6 1266.3 428.6 1267.2C428.6 1268.1 430.894 1270.79 433.7 1273.19C461.191 1296.67 513.372 1358.01 522.904 1378.06C524.918 1382.29 525.369 1382.56 530.522 1382.55C535.903 1382.54 536.16 1382.36 545 1372.2C549.95 1366.51 555.08 1360.77 556.4 1359.43C558.39 1357.42 558.448 1357.13 556.746 1357.73C554.624 1358.47 541.183 1349.3 539.197 1345.75C538.64 1344.76 537.78 1344.06 537.284 1344.2C535.149 1344.8 529.227 1338.87 526.741 1333.64C524.466 1328.85 524.038 1325.93 524.024 1315.06C524.013 1306.98 523.556 1302.3 522.804 1302.55C522.141 1302.76 520.778 1308.84 519.772 1316.05C518.558 1324.77 517.639 1328.39 517.03 1326.85C516.528 1325.58 516.466 1322.2 516.896 1319.34C517.326 1316.47 517.299 1310.6 516.837 1306.29C516.039 1298.84 515.545 1297.87 506.922 1286.81C501.931 1280.4 491.264 1267.33 483.219 1257.76C475.173 1248.19 467.97 1239.19 467.211 1237.77C466.135 1235.75 466.23 1234.04 467.641 1230.04C471.8 1218.25 472.946 1209.29 473.752 1182.23C474.206 1167 474.801 1154.76 475.075 1155.03C475.348 1155.31 476.059 1159.5 476.653 1164.35C477.247 1169.19 478.053 1175.32 478.444 1177.96C478.922 1181.19 478.779 1182.21 478.008 1181.1C477.237 1179.99 476.626 1184.52 476.15 1194.9C475.76 1203.4 474.543 1214.95 473.448 1220.56C472.352 1226.17 471.231 1232.11 470.956 1233.76C470.563 1236.12 472.52 1239.23 480.152 1248.38C491.994 1262.56 495.488 1264.92 504.942 1265.08C517.299 1265.29 519.165 1267.1 507.2 1267.28C498.498 1267.4 496.857 1267.7 498.754 1268.8C500.049 1269.55 503.019 1270.29 505.354 1270.44C519.325 1271.33 519.405 1271.36 511.494 1272.07C507.255 1272.45 503.595 1273.35 503.36 1274.06C502.843 1275.64 516.882 1294.69 522.777 1300.42C526.599 1304.13 527 1305.14 527 1311.12C527 1318.54 533.128 1339.38 536.013 1341.77C536.996 1342.59 537.8 1342.94 537.8 1342.56C537.8 1342.17 541.42 1344.6 545.845 1347.95C550.27 1351.29 555.13 1354.6 556.645 1355.29C558.16 1355.98 559.389 1357.13 559.377 1357.85C559.364 1358.57 554.656 1364.29 548.916 1370.56C539.647 1380.68 538.782 1382 541.195 1382.35C543.039 1382.62 544.76 1381.66 546.556 1379.37C548.01 1377.51 552.402 1372.58 556.314 1368.42L563.428 1360.84L569.534 1361.6C576.488 1362.47 577.657 1361.66 582.292 1352.69C584.208 1348.99 585.178 1344.63 585.562 1337.99C585.862 1332.8 586.579 1328.56 587.154 1328.56C587.73 1328.56 588.2 1332.71 588.2 1337.78C588.2 1346.55 587.964 1347.36 583.226 1354.63C577.389 1363.59 575.469 1364.85 569.254 1363.86C564.717 1363.14 564.476 1363.29 556.615 1372.08C552.206 1377 548.6 1381.38 548.6 1381.8C548.6 1382.22 556.323 1382.56 565.764 1382.56H582.928L586.834 1373.01C591.234 1362.24 597.469 1338.08 598.574 1327.51C599.523 1318.42 596.937 1310.51 589.562 1299.93L584 1291.96L584.415 1266.76C584.898 1237.57 584.721 1237.02 573.47 1232.7C568.956 1230.96 568.04 1230.27 570.2 1230.25C575.306 1230.19 583.088 1234.47 585.168 1238.5C586.828 1241.71 586.984 1245.4 586.294 1265.29L585.495 1288.36L589.975 1294.96C592.438 1298.59 595.789 1304.19 597.421 1307.41C599.181 1310.87 600.828 1312.81 601.47 1312.17C602.803 1310.84 607.4 1284.43 607.4 1278.11C607.4 1273.29 609.21 1270.41 609.39 1274.95C609.446 1276.38 608.192 1287.01 606.603 1298.56C602.163 1330.82 596.554 1353.9 588.267 1374C585.092 1381.7 584.952 1382.56 586.879 1382.56C590.214 1382.56 597.039 1363.79 603.024 1338.16C607.974 1316.96 612.896 1283.94 611.89 1278.68C611.22 1275.16 611.406 1275.13 615.548 1278.05C617.337 1279.3 624.079 1283.39 630.53 1287.13C636.981 1290.87 643.018 1295.11 643.946 1296.55C645.596 1299.1 649.597 1316.67 658.546 1360.66C661.68 1376.06 663.483 1382.56 664.623 1382.56C665.692 1382.56 666.031 1381.64 665.614 1379.86C665.268 1378.37 664.22 1373.11 663.286 1368.16C660.15 1351.53 650.508 1306.42 648.637 1299.64L646.785 1292.92L633.552 1285.24C613.969 1273.87 612.951 1272.76 600.13 1248.76C593.942 1237.17 587.712 1226.59 586.284 1225.25C584.546 1223.62 580.478 1222.3 573.973 1221.26C562.988 1219.5 560.564 1218.07 560.841 1213.53C561.236 1207.06 560.586 1207.16 598.303 1208.07C628.762 1208.8 634.497 1208.64 643.4 1206.84C656.311 1204.24 662.48 1200.9 665.638 1194.82C667.728 1190.79 668.926 1189.92 674.038 1188.67C677.317 1187.87 681.62 1186.63 683.6 1185.91C685.58 1185.19 691.492 1183.79 696.738 1182.81C707.99 1180.7 712.5 1177.55 709.116 1174.16C707.239 1172.28 706.264 1172.29 694.154 1174.25C687.03 1175.4 678.888 1177.16 676.062 1178.16C670.438 1180.16 667.4 1179.67 667.4 1176.76C667.4 1175.73 668.539 1171.53 669.931 1167.42C675.02 1152.41 671.154 1129.88 659.334 1105.66C655.149 1097.09 654.769 1095.43 654.393 1084.17L653.988 1071.97L660.55 1067.77C666.64 1063.88 678.925 1052.89 694.992 1036.96C699.328 1032.66 703.316 1027.01 706.425 1020.76L711.2 1011.16V996.16C711.2 983.23 710.84 980.411 708.594 975.73C704.565 967.339 699.913 964.165 690.736 963.547C686.814 963.283 686.622 963.111 688.611 961.642C689.902 960.689 692.646 960.234 695.3 960.535C697.776 960.816 699.8 960.6 699.8 960.057C699.8 958.953 694.638 957.923 686.8 957.465C681.736 957.168 681.546 957.005 679.404 951.16C678.195 947.86 676.49 943.377 675.616 941.197C674.236 937.757 674.294 936.771 676.058 933.697C678.301 929.789 677.906 929.55 672.379 931.477C670.245 932.221 668.577 933.658 668.547 934.777C668.518 935.868 667.786 934.775 666.92 932.35C666.054 929.925 663.624 925.768 661.521 923.112C659.418 920.457 656.798 915.691 655.7 912.522L653.703 906.76L652.82 911.56C651.522 918.627 651.638 927.729 653.094 932.973C653.798 935.509 654.163 937.798 653.902 938.057C653.642 938.317 651.433 934.937 648.992 930.546L644.554 922.563L646.977 919.984C650.456 916.282 649.982 915.639 645.238 917.621C638.386 920.484 636.321 919.438 642.8 916.386C650.997 912.525 646.527 912.532 633.175 916.401C627.404 918.073 622.436 919.197 622.137 918.897C621.837 918.597 623.124 917.412 624.996 916.264C633.194 911.235 637.4 908.16 637.4 907.197C637.4 905.515 636.128 905.899 623.566 911.381C608.352 918.021 602.827 919.339 589.768 919.447C583.956 919.495 576.442 919.929 573.073 920.41C569.029 920.988 566.952 920.856 566.962 920.022C567.031 914.643 566.797 914.446 562.483 916.248C560.218 917.194 553.874 918.858 548.383 919.947C542.893 921.034 536.78 923.045 534.8 924.414C531.261 926.861 531.271 926.825 535.401 922.231C537.712 919.662 540.208 916.462 540.949 915.12C542.306 912.661 544.329 904.925 543.595 905.001C543.378 905.023 541.303 907.048 538.983 909.501ZM621.14 916.865C620.514 917.472 616.798 920.111 612.885 922.727C606.766 926.819 605.312 927.325 602.5 926.345C600.367 925.601 597.585 925.648 594.496 926.481C591.424 927.307 587.721 927.373 583.953 926.67C574.514 924.906 570.427 926.196 562.4 933.474C553.779 941.291 551.695 942.202 542.822 942.022C536.811 941.901 536.499 941.783 540.2 941.033C546.614 939.732 553.612 935.686 560.787 929.129L567.29 923.185L585.846 922.725C602.234 922.319 605.38 921.899 612.8 919.131C622.755 915.415 622.588 915.461 621.14 916.865ZM630.2 921.796C628.93 922.641 629.99 922.794 633.8 922.314L639.2 921.634L635.889 923.541C634.068 924.589 629.748 925.608 626.289 925.805C622.83 926.001 617.726 927.331 614.948 928.761C609.398 931.615 607.4 931.986 607.4 930.16C607.4 929.5 607.992 928.96 608.715 928.96C609.438 928.96 611.647 927.809 613.622 926.401C617.424 923.695 625.584 920.763 629.6 920.658C631.594 920.607 631.695 920.8 630.2 921.796ZM644.707 929.86C646.809 932.995 652.1 939.267 656.464 943.797C664.65 952.293 663.988 952.452 651.697 944.952C645.27 941.029 644.751 940.915 639.097 942.167C635.853 942.885 628.34 946.239 622.4 949.62C609.703 956.849 603.699 957.861 591.822 954.772C572.701 949.801 556.621 948.251 547.1 950.463C541.652 951.727 541.406 951.239 546.234 948.742C548.233 947.709 551.292 945.265 553.032 943.312C556.582 939.327 558.2 938.825 558.2 941.706C558.2 943.314 558.518 943.39 560.028 942.137C561.555 940.869 561.732 940.943 561.099 942.591C560.665 943.722 560.938 944.56 561.742 944.56C562.512 944.56 562.85 945.031 562.494 945.607C562.138 946.183 565.212 947.035 569.323 947.5C573.435 947.964 582.2 949.653 588.8 951.251C595.4 952.849 602.42 954.156 604.4 954.155C606.486 954.155 612.442 951.663 618.564 948.229C624.373 944.97 630.938 941.706 633.153 940.975C635.862 940.081 637.806 938.328 639.091 935.622C641.904 929.693 641.554 928.96 635.919 928.96H630.837L635.019 926.628C637.318 925.347 639.579 924.267 640.042 924.228C640.506 924.191 642.604 926.724 644.707 929.86ZM643.414 947.929C645.649 949.739 646.262 951.885 647.103 960.829C648.373 974.317 647.329 997.197 645.068 1005.44C643.924 1009.61 641.752 1013.39 638.596 1016.71C633.968 1021.57 633.696 1021.68 627.792 1020.98C620.241 1020.09 607.705 1014.57 606.004 1011.39C604.376 1008.35 605.73 995.733 608.259 990.393C610.648 985.347 616.579 980.813 623.524 978.723C628.256 977.298 629.192 977.322 630.778 978.91C631.78 979.912 632.6 981.947 632.6 983.431C632.6 987.553 636.374 997.776 638.505 999.429C640.148 1000.7 640 1000.9 637.4 1000.95C635.75 1000.97 628.368 1001.31 620.994 1001.71C608.673 1002.36 607.623 1002.6 608.026 1004.69C608.266 1005.94 608.756 1007.44 609.112 1008.02C610.524 1010.3 618.254 1012.96 623.481 1012.96C626.517 1012.96 629 1013.5 629 1014.16C629 1014.82 628.37 1015.36 627.6 1015.36C626.83 1015.36 626.502 1015.66 626.87 1016.03C628.075 1017.23 635.527 1013.34 638.766 1009.81C643.485 1004.67 643.992 1001.66 640.852 997.417C638.426 994.135 633.44 978.215 634.49 977.098C635.548 975.971 642.518 979.986 643.434 982.251C644.358 984.537 644.455 984.468 644.524 981.487C644.748 971.844 620.805 971.613 612.8 981.181L610.4 984.051L610.764 973.005C610.964 966.93 611.313 961.384 611.541 960.679C611.926 959.491 630.949 948.078 635 946.605C638.36 945.382 640.728 945.755 643.414 947.929ZM440.022 955.266C443.63 956.535 448.071 958.779 449.892 960.253C452.181 962.11 452.461 962.643 450.8 961.986C441.093 958.146 438.295 957.565 432.129 958.105C421.197 959.064 413.802 963.36 406.94 972.738C405.982 974.046 407.9 973.068 411.2 970.565C420.439 963.558 426.946 960.945 435.205 960.927C439.167 960.917 443.437 961.485 444.693 962.188C446.414 963.151 444.908 963.318 438.594 962.867C427.958 962.105 422.821 964.279 411.01 974.535C403.563 981.004 401.606 983.615 396.28 994.2C392.902 1000.91 389.835 1008.29 389.463 1010.58C387.771 1021.03 397.485 1046.61 407.487 1058.04C415.578 1067.29 420.877 1068.76 446.209 1068.76C460.489 1068.76 466.202 1069.13 464.809 1069.96C463.693 1070.63 454.269 1071.16 443.6 1071.15C421.218 1071.15 414.748 1069.57 407.368 1062.33C397.866 1052.99 388.402 1031.77 386.948 1016.52C386.199 1008.69 388.76 1001.36 400.035 979.092C412.022 955.416 422.569 949.132 440.022 955.266ZM587.955 956.986C594.751 958.621 601.076 960.593 602.01 961.368C603.322 962.458 603.565 964.998 603.076 972.569C602.559 980.607 602.709 981.94 603.919 980.016C604.729 978.727 605.644 973.744 605.952 968.943C606.26 964.14 606.982 960.502 607.556 960.856C609.555 962.092 608.581 975.343 605.662 986.614C604.047 992.854 602.606 1001.04 602.46 1004.79C602.21 1011.22 602.05 1011.55 599.8 1010.35C598.462 1009.63 594.451 1009.34 590.703 1009.69C587.017 1010.03 584.644 1010.06 585.433 1009.76C586.22 1009.45 586.588 1008.48 586.251 1007.6C585.913 1006.72 586.213 1005.65 586.918 1005.21C588.652 1004.14 588.504 1000.14 586.514 994.36C585.607 991.72 584.479 986.16 584.008 982.006L583.152 974.452L586.576 975.207C588.459 975.621 590.72 976.186 591.601 976.461C592.484 976.738 592.976 976.289 592.7 975.461C591.564 972.051 580.821 969.519 569.6 970.014C560.386 970.422 557.572 971.082 550.443 974.509C541.106 978.999 525.798 993.307 521.625 1001.45L519.25 1006.08L524.37 1010.62C530.388 1015.96 538.455 1019.01 546.114 1018.83L551.6 1018.71L543.2 1016.67C538.58 1015.54 533.72 1013.94 532.4 1013.11C529.627 1011.36 529.184 1011.28 545.563 1015.56C555.027 1018.04 567.118 1018.16 573.097 1015.84C576.513 1014.52 574.644 1016.85 569.342 1020.52C565.693 1023.05 562.429 1023.95 553.045 1024.99C546.591 1025.71 538.766 1027.07 535.656 1028.02C528.043 1030.33 521.392 1030.16 515.551 1027.5C502.17 1021.43 498.117 1005.25 506.048 989.569C512.319 977.176 529.878 960.505 542 955.437C547.242 953.244 549.744 952.996 561.8 953.471C570.65 953.819 580.033 955.08 587.955 956.986ZM654.879 978.76C653.899 982.06 652.744 986.79 652.312 989.273C651.882 991.756 650.965 994.134 650.277 994.56C649.443 995.075 649.284 993.769 649.8 990.646C650.226 988.068 650.593 979.75 650.616 972.16L650.656 958.36L653.659 965.56C656.538 972.466 656.588 973.005 654.879 978.76ZM444.895 967.235C453.43 971.112 458.577 980.745 454.513 985.235C452.061 987.943 452.094 990.012 454.633 992.817C456.558 994.944 456.542 995.019 454.333 994.233C453.05 993.775 450.904 992.421 449.566 991.222C446.023 988.048 437.528 985.356 431.149 985.386C419.041 985.444 410.013 993.539 408.746 1005.48C408.212 1010.52 408.304 1010.82 409.566 1008.16C410.348 1006.51 412.113 1002.79 413.488 999.897C414.864 997.001 417.84 993.221 420.1 991.497C425.576 987.321 434.912 987.219 443.901 991.239L450.201 994.056L444.744 998.86C430.592 1011.32 428.36 1032.58 440.12 1042.9C445.882 1047.96 447.666 1047.49 442.974 1042.15C437.174 1035.54 435.422 1030.38 436.104 1021.89C436.789 1013.35 440.242 1007.11 447.92 1000.53C453.945 995.377 456.418 995.125 461.673 999.135C468.914 1004.66 470.29 1008.39 472.357 1028.14C474.459 1048.24 474.135 1050.38 468.247 1055.34C456.38 1065.32 433.732 1064.09 419.293 1052.68C409.44 1044.89 404.68 1032.25 404.629 1013.73C404.581 996.275 409.542 981.852 418.597 973.121C426.987 965.031 435.732 963.073 444.895 967.235ZM699.358 969.154C701.046 970.259 703.86 974.223 705.613 977.962C711.58 990.69 709.543 1010.28 700.828 1023.98C696.859 1030.22 665.174 1060.51 656.09 1066.75L650.286 1070.73L650.991 1078.75C651.681 1086.58 651.66 1086.66 650.035 1082.33C649.12 1079.89 647.269 1076.38 645.919 1074.53C644.569 1072.68 642.11 1067.53 640.454 1063.09C637.573 1055.37 637.538 1054.97 639.651 1053.84C641.436 1052.88 642.117 1053.22 643.204 1055.61C644.234 1057.87 644.204 1058.58 643.075 1058.65C641.961 1058.73 641.95 1058.89 643.033 1059.33C643.82 1059.65 644.208 1060.59 643.893 1061.41C643.579 1062.23 644.127 1064.76 645.114 1067.03L646.906 1071.16L646.953 1066.66C646.978 1064.19 646.534 1062.16 645.967 1062.16C644.726 1062.16 645.674 1056.38 647.054 1055.53C647.586 1055.2 648.721 1058.04 649.575 1061.84C650.977 1068.09 651.234 1068.46 652.198 1065.74C652.814 1064 655.231 1061.76 657.884 1060.47C668.186 1055.46 685.719 1036.15 696.106 1018.37C699.444 1012.66 700.924 1010.99 701.269 1012.56C702.031 1016.03 704.61 1002.72 704.516 995.801C704.469 992.368 703.968 988.48 703.4 987.16L702.369 984.76L702.217 987.16C702.121 988.689 701.289 987.645 699.927 984.286C697.274 977.747 693.336 974.771 686.822 974.387C681.326 974.063 680.482 972.949 684.217 970.95C689.301 968.23 701.126 972.885 702.838 978.281C703.268 979.635 703.878 980.482 704.193 980.166C704.509 979.851 703.65 977.4 702.283 974.722C700.27 970.776 698.853 969.598 694.822 968.512C692.086 967.775 688.845 967.434 687.622 967.755C686.299 968.1 685.704 967.839 686.154 967.11C687.205 965.411 695.638 966.715 699.358 969.154ZM427.4 973.242C428.39 973.798 431.335 974.637 433.944 975.106C436.554 975.576 440.716 976.995 443.197 978.259C449.092 981.268 451.172 981.223 448.389 978.148C447.189 976.822 443.497 974.932 440.185 973.948C433.653 972.007 424.276 971.49 427.4 973.242ZM578.502 973.307C580.173 974.201 580.827 976.621 581.464 984.263C581.914 989.657 582.847 995.128 583.538 996.418C584.229 997.709 584.616 998.941 584.397 999.156C584.179 999.37 579.837 1000.4 574.75 1001.45C564.814 1003.5 524.6 1004.23 524.6 1002.36C524.6 1001.81 529.267 996.683 534.97 990.966C544.736 981.179 552.33 976.174 561.8 973.282C566.144 971.956 576.004 971.97 578.502 973.307ZM692.473 980.037C699.549 985.991 700.768 1000.6 695.17 1012.36C688.207 1026.99 667.545 1051.19 657.748 1056.19C655.189 1057.49 652.873 1058.56 652.602 1058.56C651.663 1058.56 650.604 1049.15 651.33 1047.25C651.8 1046.03 653.535 1045.36 656.247 1045.36C661.078 1045.36 667.436 1042.63 670.5 1039.25C672.534 1037 672.397 1037.01 666.97 1039.41C663.864 1040.78 659.602 1041.74 657.5 1041.53C654.195 1041.21 653.536 1040.56 652.644 1036.77C652.076 1034.35 649.72 1030.16 647.409 1027.46L643.206 1022.55L646.497 1012.67C650.374 1001.03 653.478 997.535 662.7 994.444C674.452 990.505 678.222 993.641 678.174 1007.32C678.145 1015.43 675.986 1021.37 669.802 1030.35C667.016 1034.41 666.547 1035.76 667.93 1035.76C668.946 1035.76 671.704 1032.85 674.061 1029.3C681.379 1018.28 683.539 1006.73 680.089 997.06C678.523 992.673 678.554 992.56 681.333 992.56C686.678 992.56 693.649 996.433 694.214 999.719C694.544 1001.63 694.676 1001.23 694.569 998.619C694.338 992.956 689.018 989.92 677.68 988.978L669.2 988.273L677.895 986.709C686.022 985.247 689.088 983.849 686.919 982.593C685.778 981.933 674.853 983.481 671.6 984.765C670.28 985.287 671.371 984.1 674.025 982.128C682.348 975.945 686.984 975.419 692.473 980.037ZM404.431 990.789C397.971 1009.89 401.68 1038.98 412.082 1050.79C419.665 1059.41 433.695 1065.76 445.144 1065.76C451.504 1065.76 464.109 1062.69 467.98 1060.19L470.761 1058.4L468.67 1061.59C465.924 1065.78 462.454 1066.97 450.573 1067.81C428.99 1069.34 408.997 1058.79 400.677 1041.49C395.172 1030.05 393.814 1024.84 393.807 1015.13C393.798 1004.92 395.722 1003.37 396.073 1013.31C396.218 1017.41 396.843 1023.03 397.462 1025.81C398.524 1030.58 404.175 1044.16 405.096 1044.16C405.33 1044.16 404.143 1039.7 402.459 1034.26C397.17 1017.15 398.383 992.769 404.94 984.431C407.054 981.743 406.918 983.435 404.431 990.789ZM583.849 1003.92C582.667 1007 572.556 1012.82 566.913 1013.67C558.205 1014.97 545.238 1013.31 533.6 1009.4L522.8 1005.78L535.4 1006.41C542.33 1006.76 550.243 1007.62 552.985 1008.33C559.917 1010.11 568.328 1009.06 576.8 1005.36C580.76 1003.63 584.118 1002.2 584.263 1002.19C584.407 1002.17 584.221 1002.95 583.849 1003.92ZM639.055 1003.9C638.07 1006.47 628.873 1010.56 624.121 1010.54C621.854 1010.54 617.3 1009.18 614 1007.53C609.262 1005.17 608.757 1004.67 611.6 1005.17C624.007 1007.33 628.557 1007.24 633.272 1004.76C638.959 1001.76 639.933 1001.62 639.055 1003.9ZM591.2 1014.76C587.24 1015.5 581.469 1017.24 578.377 1018.63C574.446 1020.4 572.938 1020.67 573.369 1019.55C574.758 1015.93 590.097 1011.38 596 1012.83C597.47 1013.19 595.61 1013.94 591.2 1014.76ZM608.721 1017.92C615.888 1020.32 614.797 1020.8 602.262 1020.78C595.518 1020.77 586.76 1021.18 582.8 1021.69C574.327 1022.79 575.938 1021.15 585.985 1018.44C593.865 1016.32 603.291 1016.11 608.721 1017.92ZM601.16 1025.2C602.808 1026.85 602.964 1035.13 601.491 1042.76C600.939 1045.61 600.913 1047.5 601.432 1046.96C603.229 1045.06 604.725 1037.23 604.563 1030.56C604.382 1023.13 606.031 1023.19 607.032 1030.65C607.47 1033.92 606.63 1038.98 604.375 1046.64C601.48 1056.48 601.158 1059.2 601.734 1068.86C602.334 1078.91 604.452 1092.65 607.546 1106.55C608.206 1109.52 613.014 1122.24 618.229 1134.83C625.036 1151.26 628.232 1160.71 629.562 1168.33C630.579 1174.17 631.275 1179.06 631.106 1179.19C626.383 1182.95 600.03 1185.73 568.952 1185.75C551.612 1185.76 543.642 1186.25 538.352 1187.63C534.34 1188.68 529.459 1189.18 527.233 1188.76C521.886 1187.77 515.318 1180.87 510.355 1171.02L506.311 1163L507.175 1150.32C507.891 1139.8 508.603 1136.59 511.364 1131.41C513.193 1127.97 515.059 1123.47 515.509 1121.4C515.96 1119.33 518.161 1115.5 520.401 1112.88C522.64 1110.27 525.4 1105.75 526.536 1102.84C527.67 1099.94 530.838 1094.05 533.576 1089.76C536.314 1085.47 540.589 1078.32 543.075 1073.87C545.56 1069.42 548.887 1064.76 550.465 1063.52C552.043 1062.28 558.614 1059.21 565.068 1056.69C578.001 1051.65 578.061 1051.62 577.188 1050.75C576.85 1050.41 572.328 1051.01 567.136 1052.09C547.279 1056.19 528.405 1051.65 528.238 1042.72C528.169 1039.03 530.943 1034.54 534.733 1032.2C537.423 1030.54 544.102 1029.23 558.828 1027.46C593.222 1023.35 598.996 1023.04 601.16 1025.2ZM638.97 1026.59C648.992 1030.77 652.465 1041.79 645.416 1047.04C642.559 1049.17 639.945 1049.63 628.616 1050L615.2 1050.43L624.2 1053.6L633.2 1056.76L637.069 1064.56C639.198 1068.85 643.14 1077.49 645.83 1083.76C648.52 1090.03 653.1 1100.02 656.006 1105.96C662.877 1120.01 668.65 1138.6 669.42 1149.16C669.949 1156.43 669.565 1158.77 666.561 1166.56L663.091 1175.56L657.145 1176.27C653.876 1176.65 647.8 1177.4 643.646 1177.93C639.33 1178.47 636.22 1178.43 636.391 1177.82C636.951 1175.83 634.9 1163.58 632.398 1153.96C631.024 1148.68 625.839 1135.18 620.875 1123.96C610.124 1099.66 606.568 1087.59 605.028 1070.18C603.949 1057.98 604.057 1056.65 606.824 1047.98C608.67 1042.2 609.775 1035.89 609.784 1031.08L609.8 1023.39L622.413 1024.17C629.35 1024.59 636.8 1025.68 638.97 1026.59ZM467.265 1035.07C463.064 1042.1 457.588 1047.41 450.206 1051.62C444.626 1054.81 443.953 1056.41 448.77 1055.03C455.025 1053.23 459.502 1050.27 464.462 1044.63C468.664 1039.86 472.926 1030.49 471.529 1029.09C471.294 1028.85 469.375 1031.55 467.265 1035.07ZM546.507 1033.33C542.151 1034.36 539.448 1036.28 537.675 1039.59C536.721 1041.37 537.2 1042.54 540.048 1045.39C542.01 1047.35 544.587 1048.96 545.775 1048.96C547.636 1048.96 547.567 1048.7 545.268 1047.09C543.8 1046.06 542.6 1044.44 542.6 1043.49C542.6 1042.54 542.194 1041.9 541.7 1042.06C541.206 1042.22 540.53 1041.82 540.2 1041.16C539.012 1038.78 548.618 1035.44 557.047 1035.3C564.148 1035.18 564.889 1034.97 562.618 1033.7C559.71 1032.08 552.463 1031.92 546.507 1033.33ZM622.531 1033.15C622.195 1033.69 624.728 1034.26 628.16 1034.41C636.331 1034.78 639.794 1037.06 639.818 1042.09C639.832 1045.03 640.117 1045.53 641 1044.16C642.931 1041.17 642.36 1038.21 639.254 1035.11C636.843 1032.69 635.115 1032.16 629.725 1032.16C626.104 1032.16 622.867 1032.6 622.531 1033.15ZM525.022 1040.26C524.131 1047.57 527.559 1051.64 537.992 1055.64C542.836 1057.5 546.944 1059.11 547.12 1059.21C547.297 1059.32 545.677 1062.42 543.52 1066.11C541.364 1069.8 535.599 1079.74 530.71 1088.19C525.822 1096.64 519.826 1106.61 517.388 1110.33C514.951 1114.05 510.92 1122.15 508.432 1128.33C504.213 1138.81 503.901 1140.44 503.772 1152.76L503.632 1165.96L508.999 1176.16C517.233 1191.81 536.86 1210.15 549.955 1214.43C555.706 1216.31 557.757 1218.84 558.812 1225.36C560.838 1237.87 567.99 1252.91 575.481 1260.4C580.484 1265.4 582.667 1271.61 579.063 1270.58C573.866 1269.1 564.315 1268.65 557.277 1269.55C552.813 1270.13 550.195 1270.08 550.837 1269.44C551.431 1268.85 555.564 1267.91 560.019 1267.36C564.476 1266.8 568.924 1265.55 569.907 1264.57C571.486 1262.99 571.346 1262.32 568.683 1258.77C564.214 1252.81 561.151 1246.19 558.222 1236.15C556.779 1231.2 555.292 1226.35 554.916 1225.36C554.54 1224.37 554.18 1222.8 554.116 1221.87C554.049 1220.91 550.644 1219.05 546.168 1217.54C537.064 1214.47 531.991 1211.98 524.876 1207.12C519.618 1203.52 514.34 1194.57 507.854 1178.24C505.333 1171.89 503.51 1169.25 502.413 1170.35C502.179 1170.58 503.006 1172.93 504.253 1175.57C507.453 1182.34 507.072 1183.64 503.552 1177.96C501.596 1174.8 500.798 1172.13 501.22 1170.15C501.62 1168.28 500.096 1162.43 497.157 1154.55C492.204 1141.29 488.089 1125.3 489.92 1126.43C490.514 1126.8 491 1128.04 491 1129.19C491 1130.34 491.464 1131.79 492.032 1132.42C492.6 1133.05 494.068 1136.43 495.295 1139.93C498.232 1148.32 500.6 1150.41 500.6 1144.61C500.6 1138.78 508.09 1119.61 514.062 1110.16C524.864 1093.07 528.259 1087.5 534.559 1076.56C538.168 1070.29 542.329 1063.86 543.804 1062.28C545.78 1060.15 545.956 1059.6 544.473 1060.17C543.367 1060.59 540.354 1059.86 537.778 1058.55C535.203 1057.23 532.778 1056.16 532.39 1056.16C532.002 1056.16 533.334 1058.56 535.35 1061.49C538.567 1066.16 538.844 1067.19 537.615 1069.89C536.845 1071.58 535.735 1072.96 535.148 1072.96C534.531 1072.96 534.536 1072.14 535.161 1071.03C535.95 1069.62 534.937 1067.1 531.416 1061.73C528.762 1057.68 525.763 1053.39 524.752 1052.2C522.286 1049.3 521.451 1038.17 523.598 1036.81C524.479 1036.25 525.284 1035.79 525.386 1035.78C525.488 1035.77 525.325 1037.79 525.022 1040.26ZM618.702 1038.12C612.349 1040.69 605.115 1054.43 606.86 1060.61C607.766 1063.82 607.838 1063.75 608.587 1058.84C609.016 1056.02 610.465 1052.24 611.805 1050.44C613.981 1047.51 615.196 1047.09 623.121 1046.55C632.516 1045.9 637.4 1044.04 637.4 1041.09C637.4 1037.56 624.974 1035.59 618.702 1038.12ZM550.267 1039.26C544.832 1041.61 546.397 1046.86 553.03 1048.53C554.715 1048.95 561.198 1048.93 567.436 1048.5L578.779 1047.7L582.709 1051.63C585.573 1054.5 586.87 1057.11 587.496 1061.28C588.416 1067.42 590.6 1067.96 590.6 1062.05C590.6 1054.35 584.763 1046.01 576.333 1041.66C570.57 1038.69 554.925 1037.25 550.267 1039.26ZM624.856 1063.66C626.072 1067.67 630.224 1074.16 631.579 1074.16C633.315 1074.16 631.57 1069.36 628.2 1064.86C624.774 1060.29 623.72 1059.91 624.856 1063.66ZM572.661 1070.1C573.528 1077.23 575.832 1083.76 577.484 1083.76C577.978 1083.76 577.641 1080.66 576.734 1076.86C575.828 1073.07 575.066 1069.39 575.043 1068.69C575.019 1067.99 574.281 1066.44 573.402 1065.23C572.034 1063.36 571.927 1064.06 572.661 1070.1ZM566.3 1065.25C564.837 1066.73 565.273 1075.93 566.912 1078.17C568.191 1079.92 568.368 1079.36 568.06 1074.5C567.492 1065.48 567.261 1064.27 566.3 1065.25ZM636.2 1082.43C636.2 1083.01 638.005 1086.12 640.21 1089.33C642.416 1092.53 644.848 1097.05 645.615 1099.36C646.382 1101.67 648.135 1105.18 649.512 1107.16C651.91 1110.61 651.988 1110.64 651.416 1107.76C650.353 1102.41 644.385 1089.36 641.151 1085.31C638.044 1081.41 636.2 1080.34 636.2 1082.43ZM619.503 1092.76C619.599 1101.56 621.613 1105.41 621.697 1096.96C621.734 1093.33 621.24 1089.55 620.6 1088.56C619.767 1087.27 619.455 1088.47 619.503 1092.76ZM634.594 1092.16C635.715 1095.13 638.331 1099.72 640.408 1102.36C644.968 1108.16 649.922 1121.1 648.028 1122.27C647.197 1122.78 647.164 1123.32 647.936 1123.8C648.591 1124.2 649.476 1126.29 649.902 1128.45C650.328 1130.6 651.526 1133.44 652.567 1134.76C654.385 1137.07 654.433 1137.02 653.816 1133.56C653.462 1131.58 652.6 1127.8 651.901 1125.16C651.201 1122.52 650.338 1118.4 649.984 1115.99C649.632 1113.59 648.026 1109.81 646.417 1107.59C644.809 1105.38 642.178 1101.12 640.573 1098.15C638.966 1095.17 636.506 1091.39 635.104 1089.75L632.558 1086.76L634.594 1092.16ZM627.8 1089.98C627.8 1092.13 632.678 1101.76 633.769 1101.76C634.293 1101.76 633.63 1098.79 632.292 1095.16C630.066 1089.11 627.8 1086.5 627.8 1089.98ZM534.465 1093.06C531.957 1096.66 529.08 1104.24 529.906 1105.07C530.191 1105.35 531.892 1102.43 533.688 1098.57C535.482 1094.71 537.174 1091.16 537.446 1090.66C538.722 1088.34 536.51 1090.12 534.465 1093.06ZM551.9 1090.63C554.046 1090.89 557.554 1090.89 559.7 1090.63C561.846 1090.36 560.09 1090.14 555.8 1090.14C551.51 1090.14 549.754 1090.36 551.9 1090.63ZM480.015 1094.26C479.246 1096.17 478.628 1106.38 478.544 1118.56C478.423 1136.16 478.76 1140.59 480.622 1145.94C483.393 1153.89 484.5 1153.23 482.623 1144.74C480.687 1136 479.508 1104.73 481.075 1103.76C481.866 1103.27 482.529 1109.81 482.976 1122.48C483.352 1133.2 484.186 1143.85 484.827 1146.16C485.623 1149.03 485.784 1141.81 485.332 1123.36C484.97 1108.51 484.188 1095.41 483.595 1094.26C482.896 1092.9 482.965 1092.16 483.788 1092.16C486.363 1092.16 487.552 1099.08 487.292 1112.55C487.144 1120.14 487.62 1132.03 488.349 1138.96C490.362 1158.1 491.018 1172.71 489.831 1171.98C489.25 1171.62 488.121 1169.31 487.321 1166.84C486.522 1164.38 483.708 1158.04 481.068 1152.76C471.676 1133.98 470.233 1125.97 473.502 1110.76C474.523 1106.01 475.266 1104.38 475.686 1105.96C476.035 1107.28 476.384 1105.65 476.461 1102.33C476.538 1099.01 477.441 1095.09 478.468 1093.63C480.997 1090.02 481.617 1090.27 480.015 1094.26ZM542.323 1095.71C541.494 1098.66 541.989 1100.37 543.297 1099.06C543.68 1098.68 543.805 1097.1 543.572 1095.56L543.151 1092.76L542.323 1095.71ZM588.218 1098.99C588.229 1102.16 588.76 1105.57 589.4 1106.56C590.227 1107.84 590.569 1106.38 590.582 1101.53C590.592 1097.77 590.06 1094.37 589.4 1093.96C588.663 1093.5 588.207 1095.44 588.218 1098.99ZM612.933 1096.96C613.728 1101.59 618.53 1113.12 625.428 1126.96C630.508 1137.16 636.854 1156.86 638.084 1166.26C638.538 1169.72 639.38 1172.56 639.955 1172.56C641.845 1172.56 641.046 1162.72 638.748 1157.69C637.509 1154.98 635.942 1150.6 635.266 1147.96C631.93 1134.92 628.288 1123.27 627.724 1123.83C627.379 1124.18 625.328 1120.99 623.168 1116.73C621.008 1112.48 618.736 1108.69 618.121 1108.31C617.504 1107.93 616.96 1106.43 616.911 1104.99C616.862 1103.54 615.784 1100.2 614.517 1097.56L612.212 1092.76L612.933 1096.96ZM544.657 1102.65C541.629 1109.77 541.213 1112.14 542.133 1117.01C542.938 1121.26 543.139 1120.81 545.166 1110.23C546.358 1103.99 547.164 1098.72 546.955 1098.51C546.746 1098.31 545.713 1100.17 544.657 1102.65ZM553.543 1103.49C552.804 1106.42 552.222 1110.34 552.248 1112.19L552.296 1115.56L553.894 1112.56C555.964 1108.68 557.514 1098.16 556.016 1098.16C555.394 1098.16 554.281 1100.56 553.543 1103.49ZM565.52 1105.06C565.611 1110.33 565.867 1111.25 566.6 1108.96C567.996 1104.6 567.996 1098.16 566.6 1098.16C565.926 1098.16 565.453 1101.18 565.52 1105.06ZM573.994 1103.86C570.934 1109.97 569.692 1115.33 571.474 1114.74C572.234 1114.48 574.147 1111.1 575.727 1107.21C579.028 1099.1 578.972 1099.36 577.424 1099.36C576.778 1099.36 575.234 1101.39 573.994 1103.86ZM599.68 1108.06C599.2 1112.51 599.223 1117.91 599.73 1120.06L600.65 1123.96L601.483 1120.36C602.628 1115.41 602.631 1105.27 601.491 1102.36C600.819 1100.64 600.302 1102.27 599.68 1108.06ZM622.938 1108.06C624.073 1113.06 628.878 1122.21 628.947 1119.51C629.022 1116.6 624.231 1104.16 623.04 1104.16C622.497 1104.16 622.45 1105.91 622.938 1108.06ZM533.104 1107.03C532.34 1107.95 531.237 1111.6 530.653 1115.13C530.068 1118.67 528.48 1123.99 527.121 1126.96C524.438 1132.83 523.832 1137.18 525.874 1135.91C527.413 1134.96 529.209 1130.44 530.625 1123.96C531.202 1121.32 532.464 1116.06 533.428 1112.26C535.302 1104.9 535.272 1104.42 533.104 1107.03ZM635 1108.49C635 1110.48 635.848 1113.15 636.884 1114.43C638.658 1116.62 638.731 1116.48 638.128 1112.06C637.308 1106.05 635 1103.42 635 1108.49ZM591.334 1111.62C589.081 1116.82 588.79 1124.04 590.786 1125.27C591.628 1125.8 591.846 1125.6 591.34 1124.79C590.883 1124.05 591.381 1120.44 592.447 1116.78C594.775 1108.77 594.043 1105.37 591.334 1111.62ZM582.652 1110.76C581.397 1113.02 579.508 1128.16 580.48 1128.16C581.548 1128.16 584.727 1114.69 584.373 1111.67C584.007 1108.56 583.902 1108.51 582.652 1110.76ZM560.119 1112.81C557.026 1117.53 555.351 1123.39 556.708 1124.75C557.516 1125.56 558.751 1123.48 560.449 1118.45C563.194 1110.32 563.077 1108.29 560.119 1112.81ZM655.004 1112.28C655.381 1113.77 656.164 1115.29 656.745 1115.65C658.387 1116.66 657.987 1114.47 656.06 1111.89C654.381 1109.64 654.344 1109.66 655.004 1112.28ZM536.726 1120.09C535.003 1129.68 535.383 1132.68 537.759 1128.24C538.504 1126.84 538.953 1122.34 538.756 1118.23L538.4 1110.76L536.726 1120.09ZM523.531 1115.98C522.139 1117.93 521 1121.05 521 1122.91C521 1126.12 521.084 1126.17 522.613 1123.93C524.528 1121.11 527.211 1113.57 526.537 1112.9C526.275 1112.64 524.923 1114.02 523.531 1115.98ZM626.023 1140.76C630.764 1153.44 630.41 1156.77 625.576 1144.96C623.012 1138.69 619.291 1130.05 617.308 1125.76C615.325 1121.47 613.351 1116.61 612.921 1114.96C611.752 1110.47 622.918 1132.46 626.023 1140.76ZM604.586 1115.75C603.511 1118.92 605.853 1128.78 608.133 1130.67C610.412 1132.56 610.382 1128.53 608.072 1122.48C607.122 1120 606.146 1116.88 605.904 1115.56C605.48 1113.25 605.43 1113.26 604.586 1115.75ZM546.5 1122.9C544.736 1128.71 544.502 1137.01 546.13 1136C547.542 1135.13 548.938 1126.2 548.402 1121.49C548.012 1118.07 547.954 1118.11 546.5 1122.9ZM569.875 1123.87C567.666 1130.17 567.122 1135.92 568.836 1134.86C570.398 1133.9 572.872 1124.11 572.382 1120.84C572.031 1118.5 571.562 1119.07 569.875 1123.87ZM654.228 1120.18C654.212 1121.4 656.424 1127.07 659.142 1132.78C662.49 1139.81 664.422 1145.83 665.133 1151.45C665.71 1156.01 666.456 1160.02 666.792 1160.35C668.082 1161.64 667.291 1148.86 665.727 1143.16C663.76 1135.98 654.267 1117.01 654.228 1120.18ZM634.347 1122.16C635.607 1126.86 637.59 1130.38 639.369 1131.06C640.678 1131.56 640.634 1130.8 639.144 1127.22C638.124 1124.77 636.445 1121.95 635.415 1120.96C633.733 1119.34 633.625 1119.47 634.347 1122.16ZM585.367 1123.96C584.406 1126.46 584.4 1133.89 585.356 1137.46C586.736 1142.61 588.2 1140.12 588.182 1132.66C588.162 1124.67 586.759 1120.33 585.367 1123.96ZM596.169 1126.01C595.764 1127.52 595.425 1130.89 595.417 1133.5C595.393 1140.19 597.592 1137.4 597.956 1130.28C598.276 1124.02 597.316 1121.73 596.169 1126.01ZM516.248 1130.68C513.573 1136.58 512.883 1142.76 515.154 1140.49C516.69 1138.95 520.074 1126.83 519.208 1125.97C518.898 1125.66 517.564 1127.78 516.248 1130.68ZM575.166 1133.02C574.267 1136.68 573.777 1140.73 574.077 1142.02C575.053 1146.21 577.554 1137.93 577.156 1131.83L576.8 1126.36L575.166 1133.02ZM612.836 1134.46C613.303 1137.26 614.373 1140.91 615.216 1142.56C617.548 1147.13 625.086 1166.76 625.808 1170.16C626.16 1171.81 626.161 1169.97 625.813 1166.07C625.447 1161.97 623.527 1155.12 621.273 1149.87C619.125 1144.86 616.43 1138.2 615.284 1135.06C612.702 1127.99 611.722 1127.75 612.836 1134.46ZM633.97 1133.56C634.684 1136.2 636.224 1140.25 637.392 1142.56C638.559 1144.87 639.9 1149.6 640.37 1153.06C641.304 1159.93 643.4 1160.52 643.4 1153.9C643.4 1149.21 638.479 1136.24 635.002 1131.76L632.672 1128.76L633.97 1133.56ZM558.418 1135.02C557.112 1138.37 556.603 1142.27 556.886 1146.76C557.156 1151.05 559.224 1146.18 560.095 1139.22C561.007 1131.91 560.312 1130.17 558.418 1135.02ZM643.696 1134.46C644.001 1135.29 645.182 1138.8 646.322 1142.26C648.606 1149.21 651.331 1151.02 649.935 1144.66C648.798 1139.48 645.628 1132.96 644.25 1132.96C643.641 1132.96 643.393 1133.64 643.696 1134.46ZM604.233 1139.35C605.35 1148.03 607.665 1150.87 607.035 1142.79C606.762 1139.28 605.852 1135.77 605.014 1134.99C603.788 1133.84 603.636 1134.7 604.233 1139.35ZM535.1 1136.96C533.658 1140.48 533.968 1152.87 535.462 1151.38C536.166 1150.67 536.564 1146.72 536.362 1142.44C536.133 1137.57 535.67 1135.57 535.1 1136.96ZM519.326 1140.27C518.388 1142.52 517.238 1146.52 516.77 1149.16C516.007 1153.47 516.109 1153.78 517.774 1152.16C519.5 1150.48 522.572 1137.75 521.51 1136.67C521.247 1136.41 520.264 1138.03 519.326 1140.27ZM566.204 1143.44C565.002 1146.9 564.248 1150.68 564.529 1151.84C565.351 1155.25 569.197 1145.35 568.762 1140.94C568.408 1137.34 568.284 1137.47 566.204 1143.44ZM655.903 1141.6C656.192 1144.04 657.328 1147.93 658.426 1150.25C659.904 1153.36 660.241 1156.25 659.722 1161.34C659.233 1166.14 659.402 1167.84 660.279 1166.96C662.148 1165.09 663.273 1152.16 661.568 1152.16C660.816 1152.16 660.186 1150.95 660.169 1149.46C660.151 1147.97 659.066 1144.6 657.757 1141.96L655.376 1137.16L655.903 1141.6ZM547.4 1146.16C547.4 1149.46 547.94 1152.16 548.6 1152.16C549.26 1152.16 549.8 1149.46 549.8 1146.16C549.8 1142.86 549.26 1140.16 548.6 1140.16C547.94 1140.16 547.4 1142.86 547.4 1146.16ZM590.949 1143.76C588.952 1149.7 588.651 1152.71 590.019 1153.07C591.522 1153.45 593.256 1146.89 592.748 1142.73C592.376 1139.68 592.309 1139.72 590.949 1143.76ZM611.067 1143.45C611.03 1145.58 612.019 1150.02 613.264 1153.29C614.509 1156.57 615.184 1159.46 614.764 1159.71C614.343 1159.96 614.613 1160.03 615.362 1159.85C616.142 1159.67 617.304 1162.45 618.081 1166.35C619.91 1175.52 621.762 1178.34 621.77 1171.96C621.774 1169.32 620.432 1164.27 618.788 1160.74C617.145 1157.21 615.77 1153.43 615.733 1152.34C615.696 1151.25 614.647 1147.93 613.4 1144.96C611.139 1139.57 611.134 1139.57 611.067 1143.45ZM580.742 1145.67C580.273 1146.4 579.54 1149.16 579.115 1151.82C578.149 1157.86 580.534 1160.06 581.643 1154.15C582.554 1149.29 581.97 1143.79 580.742 1145.67ZM524.66 1149.76C524.653 1152.07 525.441 1156.66 526.412 1159.96L528.178 1165.96L527.74 1158.02C527.25 1149.14 524.684 1142.25 524.66 1149.76ZM597.988 1148.94C596.27 1153.12 596.172 1161.35 597.83 1162.38C598.506 1162.8 598.953 1162.69 598.825 1162.15C598.695 1161.6 599.004 1158.66 599.51 1155.6C600.016 1152.54 600.194 1149.03 599.904 1147.8C599.466 1145.93 599.148 1146.12 597.988 1148.94ZM603.292 1153.76C602.406 1159.68 603.481 1164.19 605.149 1161.56C606.496 1159.43 606.486 1150.08 605.134 1149.24C604.549 1148.88 603.72 1150.92 603.292 1153.76ZM537.807 1152.75C536.53 1155.13 536.497 1156.68 537.638 1160.49C538.424 1163.11 539.592 1165.58 540.234 1165.98C541.96 1167.05 541.648 1162.65 539.659 1157.89C538.362 1154.78 538.266 1153.37 539.28 1152.36C540.027 1151.61 540.362 1150.72 540.022 1150.38C539.682 1150.04 538.686 1151.11 537.807 1152.75ZM645.446 1161.5C644.988 1169.12 645.189 1173.58 646.028 1174.36C646.933 1175.2 647.112 1174.23 646.632 1171.06C646.256 1168.58 646.455 1166.56 647.076 1166.56C648.482 1166.56 648.576 1151.33 647.174 1150.47C646.61 1150.12 645.832 1155.08 645.446 1161.5ZM509.156 1156.96C509.09 1160.59 509.56 1164.37 510.2 1165.36C511.677 1167.64 511.713 1162.14 510.268 1155.16L509.276 1150.36L509.156 1156.96ZM651.931 1155.76C651.985 1160.74 652.081 1160.91 653.18 1157.91C653.982 1155.71 653.962 1153.95 653.121 1152.51C652.128 1150.8 651.885 1151.46 651.931 1155.76ZM486.469 1172.66C490.204 1180.62 496.012 1199.23 494.462 1198.27C492.193 1196.87 483.374 1177.72 481.239 1169.56C478.302 1158.33 478.317 1153.13 481.266 1160.66C482.45 1163.69 484.791 1169.09 486.469 1172.66ZM519.884 1161.99C519.838 1165.74 520.34 1169.15 521 1169.56C522.475 1170.47 522.475 1160.99 521 1157.56C520.256 1155.83 519.945 1157.06 519.884 1161.99ZM550.556 1158.46C549.48 1162.48 549.651 1167.76 550.86 1167.76C552.144 1167.76 553.362 1163.56 553.383 1159.06C553.404 1155.08 551.565 1154.69 550.556 1158.46ZM559.4 1161.06C559.4 1167.17 560.38 1170.44 561.926 1169.48C563.146 1168.73 563.326 1162.5 562.244 1158.46C561.033 1153.94 559.4 1155.44 559.4 1161.06ZM570.218 1163.86C570.231 1169.53 570.585 1171.42 571.4 1170.16C572.937 1167.78 572.937 1155.76 571.4 1155.76C570.717 1155.76 570.208 1159.25 570.218 1163.86ZM584.128 1158.86C582.943 1161.95 583.298 1171.36 584.6 1171.36C585.267 1171.36 585.8 1168.16 585.8 1164.16C585.8 1156.78 585.406 1155.53 584.128 1158.86ZM654.92 1161.16C653.31 1167.87 653.223 1168.96 654.252 1169.59C655.484 1170.35 657.038 1162.92 656.304 1159.78C655.914 1158.12 655.568 1158.46 654.92 1161.16ZM591.8 1168.82C591.8 1172.12 592.34 1175.15 593 1175.56C593.739 1176.02 594.2 1174 594.2 1170.3C594.2 1167 593.66 1163.97 593 1163.56C592.261 1163.1 591.8 1165.12 591.8 1168.82ZM607.442 1165.28C605.905 1168.15 605.803 1178.17 607.302 1179.1C607.916 1179.48 608.578 1176.07 608.802 1171.37C609.02 1166.74 609.084 1162.96 608.942 1162.96C608.8 1162.96 608.126 1164 607.442 1165.28ZM499.111 1179.64C498.56 1182 500.966 1187.94 502.267 1187.44C503.096 1187.13 506.214 1189.99 509.204 1193.81C515.287 1201.59 517.981 1206.16 516.486 1206.16C515.35 1206.16 508.29 1198.88 504.399 1193.7C502.605 1191.31 501.8 1190.84 501.8 1192.2C501.8 1193.28 501.322 1194.16 500.74 1194.16C500.157 1194.16 499.287 1195.37 498.807 1196.86C497.97 1199.45 496.568 1191.93 494.056 1171.36L493.25 1164.76L496.264 1171.84C497.923 1175.73 499.203 1179.24 499.111 1179.64ZM531.253 1166.47C530.127 1168.3 531.416 1173.45 533.803 1176.66C535.546 1179.01 535.611 1178.84 534.885 1173.87C533.934 1167.36 532.504 1164.45 531.253 1166.47ZM542.493 1173.17C541.023 1179.74 541.716 1183.09 543.847 1179.72C544.941 1177.99 545.497 1166.56 544.486 1166.56C544.203 1166.56 543.307 1169.53 542.493 1173.17ZM577.542 1173.99C577.464 1177.74 577.94 1181.15 578.6 1181.56C579.985 1182.42 579.985 1176.2 578.6 1170.76C577.843 1167.78 577.659 1168.34 577.542 1173.99ZM650.968 1170.62C651.288 1173.75 656.02 1175.37 658.269 1173.12C659.596 1171.79 660.15 1171.73 660.609 1172.87C660.963 1173.75 661.25 1173.5 661.305 1172.26C661.406 1170.01 658.434 1169.36 657.2 1171.36C655.983 1173.33 652.023 1172.72 651.357 1170.46C650.83 1168.67 650.773 1168.7 650.968 1170.62ZM515.376 1171.76C515.829 1172.97 516.2 1174.41 516.2 1174.97C516.2 1176.61 522.25 1183.31 525.03 1184.74C526.97 1185.74 526.676 1185.07 523.832 1182.01C521.76 1179.78 519.715 1176.79 519.286 1175.37C518.858 1173.94 517.617 1172.05 516.529 1171.17C514.804 1169.77 514.657 1169.84 515.376 1171.76ZM612.2 1174.26C612.2 1179.39 613.225 1182.16 615.121 1182.16C616.24 1182.16 616.296 1180.75 615.355 1176.16C613.945 1169.27 612.2 1168.22 612.2 1174.26ZM527.005 1175.8C526.998 1179.54 529.494 1184.56 531.355 1184.56C533.142 1184.56 532.502 1182.27 529.18 1176.76C527.23 1173.53 527.008 1173.43 527.005 1175.8ZM565.4 1177.36C565.4 1179.34 565.94 1180.96 566.6 1180.96C567.26 1180.96 567.8 1179.34 567.8 1177.36C567.8 1175.38 567.26 1173.76 566.6 1173.76C565.94 1173.76 565.4 1175.38 565.4 1177.36ZM707 1176.28C707 1177.44 705.08 1178.01 693.2 1180.4C687.92 1181.46 681.17 1183.06 678.2 1183.96C666.976 1187.36 654.172 1190.56 652.125 1190.47C649.209 1190.36 659.307 1185.99 666.085 1184.44C669.118 1183.74 673.49 1182.39 675.8 1181.44C679.492 1179.92 701.474 1175.43 705.5 1175.38C706.326 1175.37 707 1175.77 707 1176.28ZM553.63 1179.84C552.819 1181.13 550.728 1182.22 548.89 1182.3C546.687 1182.39 546.325 1182.63 547.795 1183.01C550.984 1183.83 555.429 1182.46 556.215 1180.41C557.265 1177.67 555.26 1177.23 553.63 1179.84ZM596.032 1178.51C595.642 1179.14 594.616 1179.38 593.754 1179.05C592.891 1178.72 591.492 1179.28 590.646 1180.3C588.996 1182.29 589.678 1182.54 593.817 1181.43C595.256 1181.04 596.725 1179.97 597.079 1179.04C597.812 1177.13 597.105 1176.77 596.032 1178.51ZM665.991 1179.61C668.212 1181.01 658.046 1184.55 627.2 1193.1C610.429 1197.75 596.568 1198.72 575.719 1196.71C568.393 1196.01 555.164 1194.78 546.321 1193.99C522.72 1191.87 529.602 1190.4 568.4 1189.29C600.754 1188.36 617.158 1186.74 639.405 1182.28C657.908 1178.56 663.464 1178 665.991 1179.61ZM662.6 1192.44C662.6 1196.8 654.858 1201.58 644.6 1203.55C630.826 1206.21 624.18 1206.38 589.58 1204.94C555.337 1203.52 553.572 1203.33 542.6 1199.84C529.687 1195.73 529.822 1194.29 542.868 1197C552.728 1199.04 578.672 1200.78 598.4 1200.71C608.8 1200.68 614.4 1199.96 624.8 1197.31C632.06 1195.46 643.13 1193.54 649.4 1193.03C655.67 1192.52 661.204 1192.03 661.7 1191.93C662.196 1191.84 662.6 1192.07 662.6 1192.44ZM639.2 1199.16C633.26 1200.42 625.43 1201.95 621.8 1202.55C615.93 1203.51 616.262 1203.56 624.8 1202.99C634.636 1202.33 648.958 1199.8 650.268 1198.49C651.926 1196.83 649.459 1196.98 639.2 1199.16ZM582.8 1227.1C585.283 1228.7 607.7 1269.46 607.096 1271.27C606.908 1271.83 602.482 1264.3 597.259 1254.53C582.716 1227.32 583.38 1228.17 575.644 1226.57C571.99 1225.81 569 1224.9 569 1224.54C569 1223.39 580.31 1225.49 582.8 1227.1ZM574.874 1251.76C576.852 1254.42 577.185 1255.32 575.785 1254.22C573.39 1252.33 566.596 1241.12 566.665 1239.16C566.688 1238.5 567.842 1240.12 569.229 1242.76C570.616 1245.4 573.157 1249.45 574.874 1251.76ZM580.627 1251.46C580.326 1252.61 580.078 1251.67 580.078 1249.36C580.078 1247.05 580.326 1246.11 580.627 1247.26C580.929 1248.41 580.929 1250.31 580.627 1251.46ZM581.016 1282.75L581.031 1293.16L587.058 1302.16C592.32 1310.02 596.732 1320.31 596.536 1324.28C596.503 1324.98 594.12 1320.7 591.242 1314.76C588.364 1308.82 584.505 1302.61 582.666 1300.96L579.321 1297.96L581.467 1301.38C584.748 1306.61 588.213 1317.64 588.087 1322.45C587.986 1326.33 587.74 1325.97 585.643 1318.96C584.36 1314.67 582.502 1308.73 581.514 1305.76C579.381 1299.35 578.755 1296.53 577.512 1287.76C576.472 1280.44 575.223 1276.8 573.288 1275.48C572.58 1274.99 567.307 1274.59 561.571 1274.58C555.835 1274.57 550.869 1274.12 550.536 1273.58C550.203 1273.04 556.921 1272.54 565.465 1272.47L581 1272.34L581.016 1282.75ZM421.4 1279.83C421.4 1280.1 424.23 1282.12 427.689 1284.33C431.148 1286.55 435.873 1289.95 438.189 1291.89C442.238 1295.29 442.216 1295.23 437.6 1290.27C431.367 1283.56 421.4 1277.15 421.4 1279.83ZM639.37 1300.66C638.172 1307.91 638.466 1317.51 639.814 1315.2C641.518 1312.29 642.801 1296.16 641.329 1296.16C640.66 1296.16 639.78 1298.19 639.37 1300.66ZM582.865 1326.29C583.537 1332.85 581.618 1352.56 580.446 1351.14C580.274 1350.93 579.836 1340.5 579.472 1327.96C578.869 1307.16 578.954 1305.74 580.432 1311.76C581.324 1315.39 582.418 1321.93 582.865 1326.29ZM533.866 1315.06C536.959 1321.71 544.388 1330.16 546.523 1329.46C547.335 1329.2 548.584 1326.6 549.298 1323.69L550.596 1318.39L551.398 1324.24C551.839 1327.46 552.218 1331.77 552.241 1333.83C552.308 1339.95 556.144 1346.46 561.615 1349.72C564.357 1351.36 566.6 1352.46 566.6 1352.16C566.6 1351.87 564.188 1347.1 561.241 1341.56C557.305 1334.16 555.692 1329.58 555.165 1324.32C554.404 1316.73 555.96 1317.13 557.61 1324.96C559.51 1333.97 567.855 1347.76 571.408 1347.76C573.181 1347.76 573.811 1346.56 574.401 1342.06C575.654 1332.52 577.226 1330.55 577.318 1338.4C577.408 1345.94 575.401 1356.97 573.752 1357.99C572.272 1358.9 556.549 1350.8 549.274 1345.37C540.775 1339.03 537.133 1334.87 534.14 1328.1C531.62 1322.41 529.092 1309.36 530.508 1309.36C530.896 1309.36 532.407 1311.92 533.866 1315.06ZM514.4 1321.77C514.4 1332.3 514.634 1333.35 518.251 1339.17C520.879 1343.39 521.572 1345.36 520.437 1345.36C517.976 1345.36 513.994 1339.74 512.47 1334.1C510.686 1327.51 511.914 1310.52 514.171 1310.56C514.297 1310.57 514.4 1315.61 514.4 1321.77ZM394.998 1323.63C395.806 1325.21 398.028 1331.12 399.934 1336.76C403.915 1348.53 404.451 1359.45 401.624 1371.16C399.615 1379.48 399.392 1382.56 400.8 1382.56C402.706 1382.56 406.184 1359.2 405.468 1351.2C404.601 1341.53 399.64 1326.63 396.177 1323.31L393.528 1320.76L394.998 1323.63ZM595.314 1329.36C596.127 1333.89 592.964 1348.53 591.728 1345.95C591.416 1345.29 591.344 1339.7 591.568 1333.51C591.994 1321.82 593.631 1320.01 595.314 1329.36ZM536.107 1327.66C538.874 1332.56 543.262 1337.2 548.845 1341.14C555.044 1345.52 554.965 1345.39 545.628 1335.89C536.085 1326.19 534.5 1324.82 536.107 1327.66ZM528.447 1342.65C529.962 1344.27 533.818 1346.93 537.019 1348.56C543.639 1351.93 543.733 1353.32 537.219 1351.52C527.66 1348.88 520.93 1340.71 521.056 1331.9C521.11 1328.09 521.186 1328.15 523.404 1333.83C524.664 1337.05 526.933 1341.02 528.447 1342.65ZM648.532 1333.96C648.688 1336.06 648.248 1337.46 647.472 1337.32C646.677 1337.17 646.333 1338.38 646.616 1340.32C646.878 1342.1 647.043 1347.71 646.984 1352.79C646.882 1361.64 647.019 1362.12 650.239 1364.19C652.088 1365.38 654.553 1367.44 655.718 1368.76C657.813 1371.13 657.83 1371.13 657.249 1368.16C651.958 1341.12 647.874 1325.09 648.532 1333.96ZM412.062 1334.14C415.054 1337.52 417.541 1348.72 418.945 1365.16C419.622 1373.08 420.181 1380.24 420.188 1381.06C420.194 1381.89 420.819 1382.56 421.576 1382.56C423.213 1382.56 422.133 1358.53 419.996 1347.38C418.605 1340.13 414.906 1333.36 411.8 1332.38C410.364 1331.92 410.416 1332.28 412.062 1334.14ZM487.55 1347.28C500.208 1364.62 510.406 1378.07 512.478 1380.16C517.442 1385.16 511.454 1376.11 498.356 1358.82C482.179 1337.47 474.048 1328.79 487.55 1347.28ZM633.835 1347.16C633.814 1353.1 632.988 1362.55 632 1368.16C629.806 1380.61 629.77 1382.56 631.734 1382.56C635.371 1382.56 638.472 1344.22 635.276 1338.76C634.13 1336.8 633.866 1338.34 633.835 1347.16ZM463.986 1345.38C462.818 1347.27 480.216 1382.56 482.316 1382.56C485.028 1382.56 482.722 1377.39 466.344 1346.77C465.346 1344.91 464.565 1344.45 463.986 1345.38ZM483.753 1354.42C482.97 1355.36 481.714 1355.76 480.964 1355.31C480.214 1354.86 481.066 1356.35 482.858 1358.63C484.65 1360.9 489.24 1367.19 493.058 1372.6C498.823 1380.77 500.56 1382.45 503.3 1382.5C507.159 1382.57 507.084 1382.81 504.861 1377.49C502.968 1372.96 496.296 1364.12 489.49 1357.13C485.866 1353.41 484.951 1352.97 483.753 1354.42ZM608.874 1367.07C596.978 1379.97 595.148 1382.56 597.918 1382.56C599.376 1382.56 610.294 1371.77 617.344 1363.36C621.751 1358.1 621.853 1358.06 621.168 1361.56L620.463 1365.16L622.29 1362.16L624.115 1359.16L624.158 1362.83C624.182 1364.96 622.435 1369.43 620 1373.48C615.645 1380.71 615.016 1382.56 616.918 1382.56C619.945 1382.56 627.733 1367.34 627.774 1361.35C627.8 1357.5 625.245 1353.76 622.587 1353.76C621.795 1353.76 615.624 1359.75 608.874 1367.07ZM339.45 1365.8C335.258 1379.56 335.214 1382.56 339.2 1382.56C341.503 1382.56 342.207 1381.93 342.229 1379.86C342.262 1376.83 343.207 1365.97 343.952 1360.08C344.919 1352.43 342.638 1355.32 339.45 1365.8ZM371.332 1361.86C369.424 1364.34 365.301 1370.01 362.17 1374.46L356.479 1382.56H360.739C364.317 1382.56 365 1382.14 365 1379.94C365 1376.89 373.946 1362.67 376.477 1361.7C381.231 1359.87 382.958 1363.42 382.983 1375.06C382.993 1379.25 383.529 1382.56 384.2 1382.56C385.876 1382.56 385.724 1365.02 384.02 1361.78C380.858 1355.77 376.002 1355.8 371.332 1361.86ZM638.893 1365.03C638.072 1369.35 637.404 1374.13 637.408 1375.63C637.416 1378.19 637.566 1378.13 639.774 1374.78C643.099 1369.74 643.776 1365.46 641.956 1361L640.386 1357.16L638.893 1365.03ZM477.8 1361.35C477.8 1361.82 480.027 1366.79 482.749 1372.38C487.506 1382.16 487.856 1382.56 491.749 1382.56C493.977 1382.56 495.8 1382.2 495.8 1381.77C495.8 1381.34 493.675 1378.23 491.077 1374.87C485.988 1368.28 477.8 1359.95 477.8 1361.35ZM645.5 1376.72C643.026 1378.74 641 1380.88 641 1381.48C641 1383.73 646.699 1382.43 649.4 1379.56C653.244 1375.47 655.339 1375.74 651.727 1379.86C650.137 1381.67 649.611 1382.49 650.558 1381.66C652.616 1379.87 654.646 1379.67 653.6 1381.36C653.179 1382.04 654.188 1382.56 655.929 1382.56C659.62 1382.56 659.697 1381.92 656.613 1376.86C653.671 1372.03 651.27 1372 645.5 1376.72ZM626.878 1378.96C626.878 1381.27 627.126 1382.21 627.427 1381.06C627.729 1379.91 627.729 1378.01 627.427 1376.86C627.126 1375.71 626.878 1376.65 626.878 1378.96Z" fill="black" fill-opacity="0.12"/>
<path d="M341.507 628.626L540.897 491.981L541.725 493.176L559.158 518.153L359.549 654.92L341.507 628.626ZM390.116 698.988C413.099 683.238 408.163 664.517 397.073 645.667L454.007 607.63C466.936 624.253 481.854 636.114 502.225 622.157L525.247 655.724L492.312 678.308L485.159 666.808C486.6 664.334 487.429 661.456 487.429 658.386C487.429 649.128 479.914 641.613 470.656 641.613C461.4 641.613 453.909 649.128 453.909 658.386C453.909 667.644 461.401 675.134 470.657 675.134C470.81 675.134 470.97 675.114 471.121 675.11L478.861 687.537L458.378 701.551L440.018 672.107L426.175 680.724L433.45 692.396L420.803 700.281L432.596 719.227L413.111 732.58L390.114 698.986L390.116 698.988ZM538.576 460.439C538.584 460.196 538.594 459.948 538.625 459.704C538.707 459.058 538.847 458.414 539.064 457.728C539.932 454.985 542.241 451.946 545.266 449.817C548.289 447.689 551.896 446.567 554.739 446.692C557.58 446.817 559.69 447.674 561.868 450.794L603.639 510.633C605.431 513.198 605.475 515.107 604.543 517.761C603.611 520.414 601.214 523.482 598.122 525.671C595.028 527.859 591.357 529.071 588.6 529.039C585.843 529.007 584.079 528.343 582.179 525.621L540.409 465.759C539.018 463.77 538.518 462.121 538.577 460.439L538.576 460.439ZM573.073 415.954C573.393 396.928 580.511 380.404 594.362 370.911C613.688 357.669 641.044 361.639 664.896 378.431C668.583 376.995 672.583 376.185 676.761 376.185C694.919 376.185 709.818 391.083 709.818 409.242C709.818 415.988 707.767 422.282 704.251 427.528C718.695 461.284 714.184 496.332 691.14 512.121C669.828 526.727 638.865 520.624 613.553 499.329L579.154 450.037C575.164 439.087 573.139 428.107 573.074 417.81C573.071 417.192 573.064 416.568 573.074 415.955L573.073 415.954ZM658.328 409.241C658.328 419.509 666.492 427.674 676.761 427.674C687.029 427.674 695.218 419.51 695.218 409.242C695.218 398.974 687.029 390.785 676.761 390.785C666.493 390.785 658.328 398.974 658.328 409.242L658.328 409.241Z" fill="black" fill-opacity="0.12"/>
<g opacity="0.12" clip-path="url(#clip1_50_3053)">
<path d="M393.776 798.744L367.733 768.041C359.455 773.334 348.336 771.83 341.805 764.129L119.581 952.616C126.113 960.317 125.783 971.532 119.211 978.835L145.252 1009.54C153.531 1004.24 164.649 1005.75 171.181 1013.45C177.713 1021.15 177.383 1032.37 170.811 1039.67L196.852 1070.37C205.13 1065.08 216.249 1066.58 222.781 1074.28L445.005 885.797C438.473 878.096 438.803 866.88 445.375 859.577L419.334 828.875C411.055 834.167 399.937 832.663 393.405 824.962C386.873 817.262 387.204 806.046 393.776 798.744Z" fill="black"/>
<path d="M225.198 1042.36L376.905 913.68L303.184 826.767L151.477 955.449L225.198 1042.36Z" fill="#7A7473"/>
<path d="M240.832 907.031L265.507 922.269L287.624 903.509L280.758 931.686L305.434 946.924L276.514 949.1L269.647 977.277L258.641 950.445L229.721 952.622L251.838 933.863L240.832 907.031Z" fill="black"/>
<path opacity="0.1" d="M191.339 1063.87L321.175 821.791L303.422 812.27L309.514 795.972L306.297 794.247L119.581 952.616C126.113 960.317 125.783 971.532 119.211 978.836L145.253 1009.54C153.53 1004.25 164.65 1005.75 171.182 1013.45C177.714 1021.15 177.384 1032.37 170.811 1039.67L191.339 1063.87Z" fill="#7A7473"/>
<path d="M212.409 768.369L176.93 749.341C171.167 757.298 160.27 759.972 151.371 755.2L13.6448 1011.99C22.543 1016.76 26.3453 1027.32 22.9054 1036.53L58.3837 1055.55C64.1471 1047.6 75.0446 1044.92 83.9428 1049.7C92.841 1054.47 96.6432 1065.03 93.2033 1074.23L128.682 1093.26C134.445 1085.3 145.343 1082.63 154.241 1087.4L291.966 830.607C283.067 825.835 279.265 815.277 282.705 806.073L247.228 787.045C241.464 795.002 230.567 797.676 221.668 792.904C212.77 788.129 208.969 777.574 212.409 768.369Z" fill="black"/>
<path d="M141.048 804.97C140.575 804.843 140.109 804.66 139.659 804.419L128.252 798.301C125.102 796.612 123.917 792.689 125.608 789.539C127.296 786.39 131.22 785.205 134.37 786.895L145.776 793.013C148.927 794.702 150.111 798.625 148.42 801.775C146.974 804.474 143.884 805.73 141.048 804.97Z" fill="#7A7473"/>
<path d="M235.275 855.505C234.803 855.379 234.337 855.196 233.886 854.955L210.329 842.32C207.179 840.631 205.995 836.708 207.685 833.558C209.374 830.408 213.295 829.223 216.447 830.914L240.004 843.549C243.154 845.237 244.339 849.161 242.648 852.31C241.202 855.01 238.112 856.266 235.275 855.505ZM188.162 830.238C187.69 830.111 187.224 829.928 186.773 829.687L163.216 817.052C160.066 815.363 158.882 811.44 160.572 808.29C162.261 805.14 166.183 803.955 169.334 805.646L192.891 818.281C196.041 819.97 197.225 823.893 195.535 827.043C194.088 829.742 190.999 830.998 188.162 830.238Z" fill="#7A7473"/>
<path d="M270.239 874.259C269.766 874.132 269.3 873.949 268.849 873.708L257.443 867.59C254.293 865.901 253.108 861.978 254.799 858.828C256.487 855.679 260.411 854.494 263.561 856.184L274.967 862.302C278.118 863.991 279.302 867.914 277.611 871.064C276.164 873.763 273.075 875.019 270.239 874.259Z" fill="#7A7473"/>
<path d="M144.811 1056.82L238.846 881.514L138.414 827.641L44.3787 1002.95L144.811 1056.82Z" fill="#7A7473"/>
<path d="M109.767 925.158L138.309 930.296L152.016 904.74L155.949 933.472L184.491 938.611L158.38 951.231L162.312 979.964L142.241 959.03L116.13 971.65L129.837 946.092L109.767 925.158Z" fill="black"/>
<path d="M316.132 807.701C314.904 807.372 313.761 806.68 312.877 805.637L304.505 795.765C302.192 793.039 302.528 788.955 305.254 786.643C307.98 784.331 312.065 784.667 314.376 787.392L322.749 797.264C325.061 799.99 324.726 804.074 322 806.386C320.316 807.814 318.114 808.232 316.132 807.701Z" fill="#7A7473"/>
<path d="M385.296 889.244C384.068 888.915 382.925 888.222 382.041 887.18L364.75 866.794C362.437 864.068 362.773 859.984 365.499 857.673C368.225 855.36 372.309 855.696 374.621 858.422L391.912 878.808C394.225 881.534 393.889 885.618 391.163 887.929C389.479 889.356 387.278 889.775 385.296 889.244ZM350.714 848.472C349.487 848.143 348.344 847.45 347.46 846.408L330.169 826.022C327.856 823.296 328.192 819.212 330.918 816.901C333.644 814.589 337.729 814.925 340.04 817.65L357.331 838.036C359.643 840.762 359.308 844.847 356.582 847.158C354.898 848.585 352.697 849.003 350.714 848.472Z" fill="#7A7473"/>
<path d="M410.958 919.501C409.73 919.172 408.588 918.479 407.704 917.437L399.331 907.565C397.018 904.839 397.354 900.755 400.08 898.443C402.806 896.131 406.891 896.467 409.202 899.192L417.575 909.064C419.887 911.79 419.552 915.874 416.826 918.186C415.143 919.613 412.94 920.032 410.958 919.501Z" fill="#7A7473"/>
</g>
</g>
<defs>
<clipPath id="clip0_50_3053">
<rect width="715" height="1383" fill="white"/>
</clipPath>
<clipPath id="clip1_50_3053">
<rect width="383.999" height="383.999" fill="white" transform="translate(99.3862 692) rotate(15)"/>
</clipPath>
</defs>
</svg>
