<svg width="1698" height="1000" viewBox="0 0 1698 1000" fill="none" xmlns="http://www.w3.org/2000/svg">
<path fill-rule="evenodd" clip-rule="evenodd" d="M1462.98 445.501C1460.36 448.277 1456.28 450.819 1452.18 452.239C1435.1 458.153 1432.96 459.187 1431.24 462.35C1428.57 467.26 1429.07 463.712 1431.8 458.36C1435.54 451.019 1434.65 449.371 1429.96 454.966C1427.65 457.719 1422.12 462.255 1417.68 465.046C1413.23 467.836 1408.01 471.442 1406.07 473.059C1403.45 475.237 1401.58 475.844 1398.86 475.402C1395.27 474.82 1395.12 474.999 1391.86 483.592C1390.03 488.423 1387.58 493.552 1386.42 494.99C1384.38 497.504 1384.15 497.529 1380.15 495.656C1377.87 494.585 1373.9 492.428 1371.34 490.859C1364.96 486.958 1354.64 485.086 1347.97 486.623C1335.86 489.417 1330.15 495.313 1320.15 515.36C1311.22 533.27 1307 544.096 1307 549.087C1307 560.823 1318.11 588.886 1326.76 598.99C1329.08 601.696 1333.69 605.081 1337.25 606.688C1343.24 609.393 1344.92 609.557 1366.6 609.559C1389 609.56 1389.7 609.485 1393.5 606.677C1396.13 604.729 1397.17 604.391 1396.69 605.638C1395.72 608.171 1386.75 663.43 1385.12 676.895C1383.51 690.272 1383.45 693.814 1384.87 692.3C1386.61 690.454 1389.8 674.419 1389.8 667.523C1389.81 664.023 1391.73 650.63 1394.08 637.76C1400.2 604.238 1401.73 578.534 1398.91 556.784L1396.79 540.411L1400.63 531.662C1403.42 525.329 1405.52 522.299 1408.24 520.695C1410.31 519.475 1415.62 515.075 1420.05 510.919C1425.89 505.438 1429.03 503.349 1431.45 503.32C1433.29 503.299 1437.62 502.307 1441.07 501.116L1447.33 498.951L1439.02 507.707C1430.37 516.809 1426.76 522.615 1423.91 532.017C1421.72 539.221 1421.77 543.478 1424.13 551.422C1426.59 559.712 1431.75 564.662 1440.96 567.556C1444.82 568.772 1447.31 569.99 1446.49 570.263C1445.67 570.536 1445 571.645 1445 572.727C1445 574.295 1444.64 574.181 1443.23 572.164C1442.25 570.772 1439.96 569.269 1438.13 568.821C1428.65 566.506 1423.32 559.352 1421.08 545.926L1420.08 539.96L1419.79 545.96C1419.27 556.619 1419.79 561.029 1422.1 565.539C1426.24 573.604 1432.62 577.76 1440.88 577.76C1445.58 577.76 1446.42 579.759 1442.16 580.827C1438.22 581.816 1429.55 579.305 1424.99 575.855C1413.06 566.831 1413.73 539.481 1426.4 518.439C1428.63 514.736 1429.81 512.092 1429.03 512.564C1428.19 513.065 1428.28 512.579 1429.25 511.39C1430.65 509.663 1430.64 509.36 1429.2 509.36C1428.26 509.36 1425.09 511.833 1422.15 514.856C1419.21 517.879 1414.63 521.638 1411.97 523.21C1407.99 525.566 1406.47 527.641 1403.31 534.987L1399.47 543.903L1401.22 554.531C1405.14 578.487 1403.05 609.007 1395.02 644.96C1391.75 659.612 1391.66 670.593 1394.71 682.715C1395.79 686.972 1395.79 695.127 1394.75 716.966C1393.99 732.731 1393.06 746.441 1392.68 747.431C1392.3 748.423 1388.57 750.373 1384.39 751.765C1380.2 753.157 1376.21 754.979 1375.52 755.816C1373.9 757.765 1356.44 785.365 1348.69 798.221C1343.22 807.298 1342.25 808.268 1336.57 810.403C1333.18 811.678 1322.57 815.668 1313 819.268C1292.53 826.969 1282.27 831.97 1278.38 836.15C1276.31 838.367 1272.53 849.397 1264.28 877.295C1258.07 898.259 1253 916.12 1253 916.985C1253 917.852 1253.81 918.56 1254.8 918.56C1255.79 918.56 1256.6 917.575 1256.6 916.37C1256.6 915.165 1258.27 908.549 1260.3 901.67C1280.09 834.861 1279.72 835.76 1287.39 835.76C1291.9 835.76 1303.22 842.117 1315.94 851.788C1320.41 855.183 1327.76 860.66 1332.27 863.96C1355.4 880.869 1368.34 895.25 1375.68 912.235C1377.48 916.383 1379.12 918.526 1380.52 918.539C1382.32 918.557 1382.01 917.383 1378.39 910.46C1368.42 891.394 1364.47 886.295 1350.8 874.841C1343.54 868.761 1335.71 862.511 1333.4 860.954C1331.09 859.397 1326.91 856.051 1324.1 853.519C1318.17 848.162 1303.09 838.123 1296.22 834.955C1293.6 833.747 1291.45 832.442 1291.43 832.053C1291.39 831.025 1295.68 829.201 1317.8 820.863C1345.14 810.554 1346.99 810.075 1351.08 812.205C1355.06 814.276 1372.5 831.232 1385.18 845.36C1396.25 857.691 1434.09 904.905 1439.28 912.86C1441.49 916.232 1443.9 918.56 1445.2 918.56C1446.41 918.56 1447.4 918.203 1447.4 917.767C1447.4 915.677 1406.54 863.852 1390.31 845.36C1378.95 832.419 1361.04 814.615 1354.07 809.336C1350.44 806.588 1350.23 806.059 1351.3 802.426C1352.46 798.457 1373.81 764.115 1378.02 759.437C1380.08 757.137 1387.37 754.16 1390.92 754.16C1391.72 754.16 1390.44 755.979 1388.09 758.201C1383.18 762.827 1382.57 766.953 1385.9 773.036C1387.06 775.148 1397.64 788.457 1409.43 802.613C1438.55 837.593 1437.4 835.838 1435.63 842.435C1434.84 845.383 1434.14 849.812 1434.08 852.277L1433.95 856.76L1432.9 852.56C1432.31 850.25 1432.16 845.536 1432.55 842.084L1433.27 835.809L1420.86 820.484C1414.04 812.056 1403.19 798.817 1396.76 791.063C1390.33 783.31 1384.24 775.372 1383.23 773.422C1380.12 767.403 1381.16 760.033 1385.4 757.978C1386.83 757.287 1387.46 756.688 1386.8 756.645C1383.78 756.453 1377.77 761.711 1374.32 767.551C1372.24 771.076 1366.5 780.17 1361.57 787.76C1356.64 795.35 1352.6 802.297 1352.6 803.197C1352.6 804.097 1354.89 806.794 1357.7 809.189C1385.19 832.669 1437.37 894.014 1446.9 914.06C1448.92 918.292 1449.37 918.56 1454.52 918.551C1459.9 918.543 1460.16 918.359 1469 908.2C1473.95 902.511 1479.08 896.765 1480.4 895.431C1482.39 893.421 1482.45 893.129 1480.75 893.728C1478.62 894.473 1465.18 885.302 1463.2 881.755C1462.64 880.759 1461.78 880.059 1461.28 880.198C1459.15 880.799 1453.23 874.869 1450.74 869.639C1448.47 864.853 1448.04 861.932 1448.02 851.059C1448.01 842.983 1447.56 838.304 1446.8 838.55C1446.14 838.765 1444.78 844.84 1443.77 852.051C1442.56 860.77 1441.64 864.387 1441.03 862.851C1440.53 861.581 1440.47 858.201 1440.9 855.338C1441.33 852.475 1441.3 846.604 1440.84 842.293C1440.04 834.844 1439.54 833.872 1430.92 822.807C1425.93 816.401 1415.26 803.33 1407.22 793.76C1399.17 784.19 1391.97 775.193 1391.21 773.768C1390.13 771.747 1390.23 770.043 1391.64 766.043C1395.8 754.255 1396.95 745.294 1397.75 718.232C1398.21 703 1398.8 690.761 1399.07 691.035C1399.35 691.309 1400.06 695.499 1400.65 700.346C1401.25 705.194 1402.05 711.32 1402.44 713.96C1402.92 717.187 1402.78 718.215 1402.01 717.099C1401.24 715.985 1400.63 720.523 1400.15 730.899C1399.76 739.402 1398.54 750.95 1397.45 756.56C1396.35 762.17 1395.23 768.11 1394.96 769.76C1394.56 772.121 1396.52 775.231 1404.15 784.377C1415.99 798.565 1419.49 800.919 1428.94 801.08C1441.3 801.289 1443.17 803.104 1431.2 803.277C1422.5 803.403 1420.86 803.698 1422.75 804.799C1424.05 805.55 1427.02 806.287 1429.35 806.437C1443.32 807.334 1443.41 807.356 1435.49 808.067C1431.26 808.448 1427.6 809.345 1427.36 810.061C1426.84 811.636 1440.88 830.691 1446.78 836.416C1450.6 840.129 1451 841.144 1451 847.124C1451 854.537 1457.13 875.377 1460.01 877.771C1461 878.587 1461.8 878.939 1461.8 878.555C1461.8 878.17 1465.42 880.597 1469.84 883.946C1474.27 887.294 1479.13 890.6 1480.64 891.29C1482.16 891.98 1483.39 893.133 1483.38 893.853C1483.36 894.572 1478.66 900.29 1472.92 906.56C1463.65 916.683 1462.78 918.003 1465.19 918.351C1467.04 918.616 1468.76 917.659 1470.56 915.365C1472.01 913.509 1476.4 908.582 1480.31 904.415L1487.43 896.841L1493.53 897.603C1500.49 898.472 1501.66 897.657 1506.29 888.693C1508.21 884.989 1509.18 880.628 1509.56 873.993C1509.86 868.804 1510.58 864.56 1511.15 864.56C1511.73 864.56 1512.2 868.707 1512.2 873.776C1512.2 882.555 1511.96 883.355 1507.23 890.627C1501.39 899.587 1499.47 900.855 1493.25 899.861C1488.72 899.135 1488.48 899.291 1480.61 908.077C1476.21 913.001 1472.6 917.375 1472.6 917.795C1472.6 918.215 1480.32 918.56 1489.76 918.56H1506.93L1510.83 909.007C1515.23 898.245 1521.47 874.081 1522.57 863.506C1523.52 854.421 1520.94 846.507 1513.56 835.934L1508 827.96L1508.42 802.76C1508.9 773.566 1508.72 773.02 1497.47 768.695C1492.96 766.959 1492.04 766.275 1494.2 766.249C1499.31 766.187 1507.09 770.475 1509.17 774.496C1510.83 777.71 1510.98 781.4 1510.29 801.291L1509.5 824.36L1513.97 830.96C1516.44 834.59 1519.79 840.19 1521.42 843.406C1523.18 846.874 1524.83 848.812 1525.47 848.17C1526.8 846.837 1531.4 820.435 1531.4 814.112C1531.4 809.287 1533.21 806.409 1533.39 810.947C1533.45 812.385 1532.19 823.01 1530.6 834.56C1526.16 866.824 1520.55 889.9 1512.27 909.995C1509.09 917.698 1508.95 918.56 1510.88 918.56C1514.21 918.56 1521.04 899.787 1527.02 874.16C1531.97 852.961 1536.9 819.938 1535.89 814.676C1535.22 811.165 1535.41 811.132 1539.55 814.046C1541.34 815.303 1548.08 819.393 1554.53 823.133C1560.98 826.874 1567.02 831.11 1567.95 832.547C1569.6 835.103 1573.6 852.674 1582.55 896.66C1585.68 912.061 1587.48 918.56 1588.62 918.56C1589.69 918.56 1590.03 917.639 1589.61 915.86C1589.27 914.374 1588.22 909.11 1587.29 904.16C1584.15 887.528 1574.51 842.425 1572.64 835.64L1570.79 828.92L1557.55 821.24C1537.97 809.875 1536.95 808.763 1524.13 784.757C1517.94 773.17 1511.71 762.592 1510.28 761.251C1508.55 759.619 1504.48 758.299 1497.97 757.257C1486.99 755.498 1484.56 754.072 1484.84 749.533C1485.24 743.062 1484.59 743.157 1522.3 744.065C1552.76 744.799 1558.5 744.643 1567.4 742.845C1580.31 740.237 1586.48 736.901 1589.64 730.82C1591.73 726.794 1592.93 725.917 1598.04 724.671C1601.32 723.872 1605.62 722.629 1607.6 721.909C1609.58 721.189 1615.49 719.793 1620.74 718.808C1631.99 716.696 1636.5 713.546 1633.12 710.162C1631.24 708.284 1630.26 708.29 1618.15 710.248C1611.03 711.4 1602.89 713.163 1600.06 714.165C1594.44 716.159 1591.4 715.666 1591.4 712.76C1591.4 711.728 1592.54 707.527 1593.93 703.421C1599.02 688.414 1595.15 665.879 1583.33 641.661C1579.15 633.086 1578.77 631.433 1578.39 620.17L1577.99 607.97L1584.55 603.771C1590.64 599.876 1602.92 588.886 1618.99 572.96C1623.33 568.661 1627.32 563.012 1630.43 556.76L1635.2 547.16V532.16C1635.2 519.23 1634.84 516.411 1632.59 511.73C1628.57 503.339 1623.91 500.165 1614.74 499.547C1610.81 499.283 1610.62 499.111 1612.61 497.642C1613.9 496.689 1616.65 496.234 1619.3 496.535C1621.78 496.816 1623.8 496.6 1623.8 496.057C1623.8 494.953 1618.64 493.923 1610.8 493.465C1605.74 493.168 1605.55 493.005 1603.4 487.16C1602.2 483.86 1600.49 479.377 1599.62 477.197C1598.24 473.757 1598.29 472.771 1600.06 469.697C1602.3 465.789 1601.91 465.55 1596.38 467.477C1594.25 468.221 1592.58 469.658 1592.55 470.777C1592.52 471.868 1591.79 470.775 1590.92 468.35C1590.05 465.925 1587.62 461.768 1585.52 459.112C1583.42 456.457 1580.8 451.691 1579.7 448.522L1577.7 442.76L1576.82 447.56C1575.52 454.627 1575.64 463.729 1577.09 468.973C1577.8 471.509 1578.16 473.798 1577.9 474.057C1577.64 474.317 1575.43 470.937 1572.99 466.546L1568.55 458.563L1570.98 455.984C1574.46 452.282 1573.98 451.639 1569.24 453.621C1562.39 456.484 1560.32 455.438 1566.8 452.386C1575 448.525 1570.53 448.532 1557.17 452.401C1551.4 454.073 1546.44 455.197 1546.14 454.897C1545.84 454.597 1547.12 453.412 1549 452.264C1557.19 447.235 1561.4 444.16 1561.4 443.197C1561.4 441.515 1560.13 441.899 1547.57 447.381C1532.35 454.021 1526.83 455.339 1513.77 455.447C1507.96 455.495 1500.44 455.929 1497.07 456.41C1493.03 456.988 1490.95 456.856 1490.96 456.022C1491.03 450.643 1490.8 450.446 1486.48 452.248C1484.22 453.194 1477.87 454.858 1472.38 455.947C1466.89 457.034 1460.78 459.045 1458.8 460.414C1455.26 462.861 1455.27 462.825 1459.4 458.231C1461.71 455.662 1464.21 452.462 1464.95 451.12C1466.31 448.661 1468.33 440.925 1467.59 441.001C1467.38 441.023 1465.3 443.048 1462.98 445.501ZM1545.14 452.865C1544.51 453.472 1540.8 456.111 1536.89 458.727C1530.77 462.819 1529.31 463.325 1526.5 462.345C1524.37 461.601 1521.59 461.648 1518.5 462.481C1515.42 463.307 1511.72 463.373 1507.95 462.67C1498.51 460.906 1494.43 462.196 1486.4 469.474C1477.78 477.291 1475.69 478.202 1466.82 478.022C1460.81 477.901 1460.5 477.783 1464.2 477.033C1470.61 475.732 1477.61 471.686 1484.79 465.129L1491.29 459.185L1509.85 458.725C1526.23 458.319 1529.38 457.899 1536.8 455.131C1546.76 451.415 1546.59 451.461 1545.14 452.865ZM1554.2 457.796C1552.93 458.641 1553.99 458.794 1557.8 458.314L1563.2 457.634L1559.89 459.541C1558.07 460.589 1553.75 461.608 1550.29 461.805C1546.83 462.001 1541.73 463.331 1538.95 464.761C1533.4 467.615 1531.4 467.986 1531.4 466.16C1531.4 465.5 1531.99 464.96 1532.72 464.96C1533.44 464.96 1535.65 463.809 1537.62 462.401C1541.42 459.695 1549.58 456.763 1553.6 456.658C1555.59 456.607 1555.7 456.8 1554.2 457.796ZM1568.71 465.86C1570.81 468.995 1576.1 475.267 1580.46 479.797C1588.65 488.293 1587.99 488.452 1575.7 480.952C1569.27 477.029 1568.75 476.915 1563.1 478.167C1559.85 478.885 1552.34 482.239 1546.4 485.62C1533.7 492.849 1527.7 493.861 1515.82 490.772C1496.7 485.801 1480.62 484.251 1471.1 486.463C1465.65 487.727 1465.41 487.239 1470.23 484.742C1472.23 483.709 1475.29 481.265 1477.03 479.312C1480.58 475.327 1482.2 474.825 1482.2 477.706C1482.2 479.314 1482.52 479.39 1484.03 478.137C1485.56 476.869 1485.73 476.943 1485.1 478.591C1484.66 479.722 1484.94 480.56 1485.74 480.56C1486.51 480.56 1486.85 481.031 1486.49 481.607C1486.14 482.183 1489.21 483.035 1493.32 483.5C1497.44 483.964 1506.2 485.653 1512.8 487.251C1519.4 488.849 1526.42 490.156 1528.4 490.155C1530.49 490.155 1536.44 487.663 1542.56 484.229C1548.37 480.97 1554.94 477.706 1557.15 476.975C1559.86 476.081 1561.81 474.328 1563.09 471.622C1565.9 465.693 1565.55 464.96 1559.92 464.96H1554.84L1559.02 462.628C1561.32 461.347 1563.58 460.267 1564.04 460.228C1564.51 460.191 1566.6 462.724 1568.71 465.86ZM1567.41 483.929C1569.65 485.739 1570.26 487.885 1571.1 496.829C1572.37 510.317 1571.33 533.197 1569.07 541.438C1567.92 545.608 1565.75 549.392 1562.6 552.707C1557.97 557.573 1557.7 557.681 1551.79 556.983C1544.24 556.088 1531.7 550.571 1530 547.395C1528.38 544.352 1529.73 531.733 1532.26 526.393C1534.65 521.347 1540.58 516.813 1547.52 514.723C1552.26 513.298 1553.19 513.322 1554.78 514.91C1555.78 515.912 1556.6 517.947 1556.6 519.431C1556.6 523.553 1560.37 533.776 1562.51 535.429C1564.15 536.702 1564 536.903 1561.4 536.945C1559.75 536.973 1552.37 537.315 1544.99 537.707C1532.67 538.361 1531.62 538.603 1532.03 540.694C1532.27 541.945 1532.76 543.441 1533.11 544.018C1534.52 546.302 1542.25 548.96 1547.48 548.96C1550.52 548.96 1553 549.5 1553 550.16C1553 550.82 1552.37 551.36 1551.6 551.36C1550.83 551.36 1550.5 551.661 1550.87 552.031C1552.07 553.234 1559.53 549.335 1562.77 545.807C1567.49 540.667 1567.99 537.662 1564.85 533.417C1562.43 530.135 1557.44 514.215 1558.49 513.098C1559.55 511.971 1566.52 515.986 1567.43 518.251C1568.36 520.537 1568.45 520.468 1568.52 517.487C1568.75 507.844 1544.81 507.613 1536.8 517.181L1534.4 520.051L1534.76 509.005C1534.96 502.93 1535.31 497.384 1535.54 496.679C1535.93 495.491 1554.95 484.078 1559 482.605C1562.36 481.382 1564.73 481.755 1567.41 483.929ZM1364.02 491.266C1367.63 492.535 1372.07 494.779 1373.89 496.253C1376.18 498.11 1376.46 498.643 1374.8 497.986C1365.09 494.146 1362.29 493.565 1356.13 494.105C1345.2 495.064 1337.8 499.36 1330.94 508.738C1329.98 510.046 1331.9 509.068 1335.2 506.565C1344.44 499.558 1350.95 496.945 1359.2 496.927C1363.17 496.917 1367.44 497.485 1368.69 498.188C1370.41 499.151 1368.91 499.318 1362.59 498.867C1351.96 498.105 1346.82 500.279 1335.01 510.535C1327.56 517.004 1325.61 519.615 1320.28 530.2C1316.9 536.913 1313.84 544.286 1313.46 546.583C1311.77 557.032 1321.49 582.611 1331.49 594.045C1339.58 603.293 1344.88 604.76 1370.21 604.76C1384.49 604.76 1390.2 605.128 1388.81 605.96C1387.69 606.627 1378.27 607.157 1367.6 607.155C1345.22 607.15 1338.75 605.573 1331.37 598.325C1321.87 588.993 1312.4 567.766 1310.95 552.521C1310.2 544.685 1312.76 537.362 1324.04 515.092C1336.02 491.416 1346.57 485.132 1364.02 491.266ZM1511.96 492.986C1518.75 494.621 1525.08 496.593 1526.01 497.368C1527.32 498.458 1527.56 500.998 1527.08 508.569C1526.56 516.607 1526.71 517.94 1527.92 516.016C1528.73 514.727 1529.64 509.744 1529.95 504.943C1530.26 500.14 1530.98 496.502 1531.56 496.856C1533.56 498.092 1532.58 511.343 1529.66 522.614C1528.05 528.854 1526.61 537.035 1526.46 540.794C1526.21 547.217 1526.05 547.55 1523.8 546.346C1522.46 545.63 1518.45 545.339 1514.7 545.687C1511.02 546.031 1508.64 546.062 1509.43 545.758C1510.22 545.453 1510.59 544.484 1510.25 543.604C1509.91 542.723 1510.21 541.646 1510.92 541.21C1512.65 540.139 1512.5 536.145 1510.51 530.36C1509.61 527.72 1508.48 522.16 1508.01 518.006L1507.15 510.452L1510.58 511.207C1512.46 511.621 1514.72 512.186 1515.6 512.461C1516.48 512.738 1516.98 512.289 1516.7 511.461C1515.56 508.051 1504.82 505.519 1493.6 506.014C1484.39 506.422 1481.57 507.082 1474.44 510.509C1465.11 514.999 1449.8 529.307 1445.63 537.447L1443.25 542.079L1448.37 546.621C1454.39 551.962 1462.46 555.009 1470.11 554.835L1475.6 554.71L1467.2 552.668C1462.58 551.545 1457.72 549.944 1456.4 549.11C1453.63 547.359 1453.18 547.277 1469.56 551.561C1479.03 554.038 1491.12 554.162 1497.1 551.842C1500.51 550.517 1498.64 552.849 1493.34 556.522C1489.69 559.052 1486.43 559.947 1477.04 560.993C1470.59 561.712 1462.77 563.074 1459.66 564.017C1452.04 566.327 1445.39 566.158 1439.55 563.504C1426.17 557.426 1422.12 541.246 1430.05 525.569C1436.32 513.176 1453.88 496.505 1466 491.437C1471.24 489.244 1473.74 488.996 1485.8 489.471C1494.65 489.819 1504.03 491.08 1511.96 492.986ZM1578.88 514.76C1577.9 518.06 1576.74 522.79 1576.31 525.273C1575.88 527.756 1574.96 530.134 1574.28 530.56C1573.44 531.075 1573.28 529.769 1573.8 526.646C1574.23 524.068 1574.59 515.75 1574.62 508.16L1574.66 494.36L1577.66 501.56C1580.54 508.466 1580.59 509.005 1578.88 514.76ZM1368.89 503.235C1377.43 507.112 1382.58 516.745 1378.51 521.235C1376.06 523.943 1376.09 526.012 1378.63 528.817C1380.56 530.944 1380.54 531.019 1378.33 530.233C1377.05 529.775 1374.9 528.421 1373.57 527.222C1370.02 524.048 1361.53 521.356 1355.15 521.386C1343.04 521.444 1334.01 529.539 1332.75 541.475C1332.21 546.515 1332.3 546.82 1333.57 544.16C1334.35 542.51 1336.11 538.791 1337.49 535.897C1338.86 533.001 1341.84 529.221 1344.1 527.497C1349.58 523.321 1358.91 523.219 1367.9 527.239L1374.2 530.056L1368.74 534.86C1354.59 547.317 1352.36 568.579 1364.12 578.903C1369.88 583.964 1371.67 583.491 1366.97 578.147C1361.17 571.54 1359.42 566.375 1360.1 557.885C1360.79 549.346 1364.24 543.107 1371.92 536.535C1377.95 531.377 1380.42 531.125 1385.67 535.135C1392.91 540.657 1394.29 544.394 1396.36 564.142C1398.46 584.241 1398.14 586.382 1392.25 591.337C1380.38 601.322 1357.73 600.092 1343.29 588.679C1333.44 580.889 1328.68 568.25 1328.63 549.733C1328.58 532.275 1333.54 517.852 1342.6 509.121C1350.99 501.031 1359.73 499.073 1368.89 503.235ZM1623.36 505.154C1625.05 506.259 1627.86 510.223 1629.61 513.962C1635.58 526.69 1633.54 546.281 1624.83 559.979C1620.86 566.218 1589.17 596.506 1580.09 602.746L1574.29 606.731L1574.99 614.746C1575.68 622.576 1575.66 622.658 1574.03 618.328C1573.12 615.891 1571.27 612.381 1569.92 610.528C1568.57 608.675 1566.11 603.529 1564.45 599.09C1561.57 591.368 1561.54 590.971 1563.65 589.839C1565.44 588.885 1566.12 589.225 1567.2 591.609C1568.23 593.87 1568.2 594.581 1567.07 594.655C1565.96 594.727 1565.95 594.892 1567.03 595.333C1567.82 595.653 1568.21 596.585 1567.89 597.406C1567.58 598.226 1568.13 600.755 1569.11 603.028L1570.91 607.16L1570.95 602.66C1570.98 600.185 1570.53 598.16 1569.97 598.16C1568.73 598.16 1569.67 592.379 1571.05 591.526C1571.59 591.197 1572.72 594.04 1573.58 597.844C1574.98 604.085 1575.23 604.465 1576.2 601.736C1576.81 599.998 1579.23 597.758 1581.88 596.468C1592.19 591.457 1609.72 572.147 1620.11 554.373C1623.44 548.661 1624.92 546.994 1625.27 548.561C1626.03 552.029 1628.61 538.719 1628.52 531.801C1628.47 528.368 1627.97 524.48 1627.4 523.16L1626.37 520.76L1626.22 523.16C1626.12 524.689 1625.29 523.645 1623.93 520.286C1621.27 513.747 1617.34 510.771 1610.82 510.387C1605.33 510.063 1604.48 508.949 1608.22 506.95C1613.3 504.23 1625.13 508.885 1626.84 514.281C1627.27 515.635 1627.88 516.482 1628.19 516.166C1628.51 515.851 1627.65 513.4 1626.28 510.722C1624.27 506.776 1622.85 505.598 1618.82 504.512C1616.09 503.775 1612.85 503.434 1611.62 503.755C1610.3 504.1 1609.7 503.839 1610.15 503.11C1611.2 501.411 1619.64 502.715 1623.36 505.154ZM1351.4 509.242C1352.39 509.798 1355.33 510.637 1357.94 511.106C1360.55 511.576 1364.72 512.995 1367.2 514.259C1373.09 517.268 1375.17 517.223 1372.39 514.148C1371.19 512.822 1367.5 510.932 1364.18 509.948C1357.65 508.007 1348.28 507.49 1351.4 509.242ZM1502.5 509.307C1504.17 510.201 1504.83 512.621 1505.46 520.263C1505.91 525.657 1506.85 531.128 1507.54 532.418C1508.23 533.709 1508.62 534.941 1508.4 535.156C1508.18 535.37 1503.84 536.404 1498.75 537.453C1488.81 539.501 1448.6 540.229 1448.6 538.36C1448.6 537.811 1453.27 532.683 1458.97 526.966C1468.74 517.179 1476.33 512.174 1485.8 509.282C1490.14 507.956 1500 507.97 1502.5 509.307ZM1616.47 516.037C1623.55 521.991 1624.77 536.6 1619.17 548.36C1612.21 562.991 1591.55 587.188 1581.75 592.186C1579.19 593.492 1576.87 594.56 1576.6 594.56C1575.66 594.56 1574.6 585.146 1575.33 583.255C1575.8 582.028 1577.54 581.36 1580.25 581.36C1585.08 581.36 1591.44 578.635 1594.5 575.251C1596.53 573.002 1596.4 573.008 1590.97 575.408C1587.86 576.782 1583.6 577.738 1581.5 577.533C1578.2 577.21 1577.54 576.563 1576.64 572.765C1576.08 570.349 1573.72 566.162 1571.41 563.462L1567.21 558.551L1570.5 548.669C1574.37 537.026 1577.48 533.535 1586.7 530.444C1598.45 526.505 1602.22 529.641 1602.17 543.316C1602.14 551.427 1599.99 557.368 1593.8 566.355C1591.02 570.406 1590.55 571.76 1591.93 571.76C1592.95 571.76 1595.7 568.855 1598.06 565.304C1605.38 554.284 1607.54 542.727 1604.09 533.06C1602.52 528.673 1602.55 528.56 1605.33 528.56C1610.68 528.56 1617.65 532.433 1618.21 535.719C1618.54 537.634 1618.68 537.226 1618.57 534.619C1618.34 528.956 1613.02 525.92 1601.68 524.978L1593.2 524.273L1601.9 522.709C1610.02 521.247 1613.09 519.849 1610.92 518.593C1609.78 517.933 1598.85 519.481 1595.6 520.765C1594.28 521.287 1595.37 520.1 1598.03 518.128C1606.35 511.945 1610.98 511.419 1616.47 516.037ZM1328.43 526.789C1321.97 545.887 1325.68 574.978 1336.08 586.795C1343.66 595.409 1357.7 601.76 1369.14 601.76C1375.5 601.76 1388.11 598.687 1391.98 596.192L1394.76 594.399L1392.67 597.589C1389.92 601.781 1386.45 602.974 1374.57 603.813C1352.99 605.336 1333 594.789 1324.68 577.493C1319.17 566.047 1317.81 560.84 1317.81 551.131C1317.8 540.92 1319.72 539.374 1320.07 549.309C1320.22 553.407 1320.84 559.034 1321.46 561.812C1322.52 566.577 1328.18 580.16 1329.1 580.16C1329.33 580.16 1328.14 575.704 1326.46 570.26C1321.17 553.15 1322.38 528.769 1328.94 520.431C1331.05 517.743 1330.92 519.435 1328.43 526.789ZM1507.85 539.923C1506.67 543.002 1496.56 548.819 1490.91 549.665C1482.2 550.971 1469.24 549.313 1457.6 545.404L1446.8 541.777L1459.4 542.411C1466.33 542.761 1474.24 543.622 1476.98 544.327C1483.92 546.107 1492.33 545.06 1500.8 541.36C1504.76 539.631 1508.12 538.204 1508.26 538.189C1508.41 538.173 1508.22 538.953 1507.85 539.923ZM1563.05 539.905C1562.07 542.473 1552.87 546.562 1548.12 546.544C1545.85 546.536 1541.3 545.181 1538 543.535C1533.26 541.169 1532.76 540.673 1535.6 541.168C1548.01 543.331 1552.56 543.244 1557.27 540.759C1562.96 537.76 1563.93 537.616 1563.05 539.905ZM1515.2 550.762C1511.24 551.501 1505.47 553.244 1502.38 554.632C1498.45 556.397 1496.94 556.673 1497.37 555.551C1498.76 551.935 1514.1 547.377 1520 548.828C1521.47 549.189 1519.61 549.939 1515.2 550.762ZM1532.72 553.923C1539.89 556.319 1538.8 556.803 1526.26 556.781C1519.52 556.769 1510.76 557.18 1506.8 557.693C1498.33 558.791 1499.94 557.146 1509.98 554.444C1517.87 552.323 1527.29 552.109 1532.72 553.923ZM1525.16 561.2C1526.81 562.847 1526.96 571.135 1525.49 578.756C1524.94 581.614 1524.91 583.504 1525.43 582.956C1527.23 581.062 1528.73 573.229 1528.56 566.565C1528.38 559.135 1530.03 559.193 1531.03 566.653C1531.47 569.924 1530.63 574.981 1528.37 582.645C1525.48 592.484 1525.16 595.199 1525.73 604.856C1526.33 614.909 1528.45 628.651 1531.55 642.551C1532.21 645.517 1537.01 658.241 1542.23 670.828C1549.04 687.261 1552.23 696.706 1553.56 704.33C1554.58 710.169 1555.28 715.057 1555.11 715.191C1550.38 718.951 1524.03 721.73 1492.95 721.747C1475.61 721.756 1467.64 722.247 1462.35 723.629C1458.34 724.679 1453.46 725.176 1451.23 724.763C1445.89 723.77 1439.32 716.866 1434.35 707.023L1430.31 698.999L1431.17 686.325C1431.89 675.801 1432.6 672.591 1435.36 667.406C1437.19 663.97 1439.06 659.468 1439.51 657.4C1439.96 655.333 1442.16 651.501 1444.4 648.884C1446.64 646.268 1449.4 641.75 1450.54 638.843C1451.67 635.937 1454.84 630.05 1457.58 625.76C1460.31 621.47 1464.59 614.319 1467.08 609.871C1469.56 605.421 1472.89 600.765 1474.46 599.523C1476.04 598.282 1482.61 595.208 1489.07 592.693C1502 587.651 1502.06 587.621 1501.19 586.748C1500.85 586.411 1496.33 587.014 1491.14 588.087C1471.28 592.195 1452.41 587.648 1452.24 578.716C1452.17 575.035 1454.94 570.543 1458.73 568.201C1461.42 566.539 1468.1 565.226 1482.83 563.463C1517.22 559.346 1523 559.036 1525.16 561.2ZM1562.97 562.586C1572.99 566.774 1576.46 577.792 1569.42 583.041C1566.56 585.167 1563.95 585.627 1552.62 585.995L1539.2 586.431L1548.2 589.595L1557.2 592.76L1561.07 600.56C1563.2 604.85 1567.14 613.49 1569.83 619.76C1572.52 626.03 1577.1 636.02 1580.01 641.96C1586.88 656.007 1592.65 674.601 1593.42 685.16C1593.95 692.431 1593.56 694.769 1590.56 702.56L1587.09 711.56L1581.14 712.265C1577.88 712.653 1571.8 713.401 1567.65 713.926C1563.33 714.472 1560.22 714.428 1560.39 713.821C1560.95 711.831 1558.9 699.58 1556.4 689.96C1555.02 684.68 1549.84 671.18 1544.87 659.96C1534.12 635.661 1530.57 623.591 1529.03 606.179C1527.95 593.979 1528.06 592.647 1530.82 583.979C1532.67 578.203 1533.77 571.891 1533.78 567.077L1533.8 559.395L1546.41 560.167C1553.35 560.591 1560.8 561.68 1562.97 562.586ZM1391.27 571.072C1387.06 578.097 1381.59 583.409 1374.21 587.625C1368.63 590.812 1367.95 592.407 1372.77 591.026C1379.03 589.232 1383.5 586.267 1388.46 580.633C1392.66 575.858 1396.93 566.486 1395.53 565.089C1395.29 564.854 1393.37 567.545 1391.27 571.072ZM1470.51 569.33C1466.15 570.364 1463.45 572.281 1461.68 575.594C1460.72 577.375 1461.2 578.545 1464.05 581.392C1466.01 583.354 1468.59 584.96 1469.78 584.96C1471.64 584.96 1471.57 584.702 1469.27 583.091C1467.8 582.064 1466.6 580.444 1466.6 579.491C1466.6 578.539 1466.19 577.895 1465.7 578.06C1465.21 578.224 1464.53 577.82 1464.2 577.16C1463.01 574.784 1472.62 571.443 1481.05 571.299C1488.15 571.178 1488.89 570.967 1486.62 569.702C1483.71 568.083 1476.46 567.916 1470.51 569.33ZM1546.53 569.149C1546.19 569.692 1548.73 570.262 1552.16 570.415C1560.33 570.781 1563.79 573.059 1563.82 578.087C1563.83 581.029 1564.12 581.527 1565 580.16C1566.93 577.173 1566.36 574.21 1563.25 571.106C1560.84 568.694 1559.12 568.16 1553.72 568.16C1550.1 568.16 1546.87 568.605 1546.53 569.149ZM1449.02 576.26C1448.13 583.573 1451.56 587.639 1461.99 591.643C1466.84 593.501 1470.94 595.108 1471.12 595.211C1471.3 595.316 1469.68 598.42 1467.52 602.111C1465.36 605.803 1459.6 615.739 1454.71 624.191C1449.82 632.644 1443.83 642.607 1441.39 646.33C1438.95 650.054 1434.92 658.154 1432.43 664.33C1428.21 674.807 1427.9 676.444 1427.77 688.76L1427.63 701.96L1433 712.16C1441.23 727.81 1460.86 746.149 1473.95 750.427C1479.71 752.307 1481.76 754.838 1482.81 761.36C1484.84 773.873 1491.99 788.909 1499.48 796.401C1504.48 801.404 1506.67 807.608 1503.06 806.579C1497.87 805.096 1488.32 804.646 1481.28 805.555C1476.81 806.131 1474.19 806.085 1474.84 805.443C1475.43 804.849 1479.56 803.909 1484.02 803.357C1488.48 802.804 1492.92 801.549 1493.91 800.567C1495.49 798.987 1495.35 798.322 1492.68 794.771C1488.21 788.815 1485.15 782.188 1482.22 772.145C1480.78 767.204 1479.29 762.35 1478.92 761.36C1478.54 760.37 1478.18 758.801 1478.12 757.874C1478.05 756.911 1474.64 755.055 1470.17 753.543C1461.06 750.469 1455.99 747.985 1448.88 743.117C1443.62 739.52 1438.34 730.567 1431.85 714.239C1429.33 707.895 1427.51 705.249 1426.41 706.346C1426.18 706.581 1427.01 708.931 1428.25 711.567C1431.45 718.336 1431.07 719.642 1427.55 713.96C1425.6 710.801 1424.8 708.133 1425.22 706.155C1425.62 704.278 1424.1 698.426 1421.16 690.555C1416.2 677.291 1412.09 661.303 1413.92 662.434C1414.51 662.801 1415 664.041 1415 665.191C1415 666.34 1415.46 667.793 1416.03 668.42C1416.6 669.047 1418.07 672.427 1419.29 675.931C1422.23 684.322 1424.6 686.41 1424.6 680.609C1424.6 674.776 1432.09 655.609 1438.06 646.16C1448.86 629.067 1452.26 623.503 1458.56 612.56C1462.17 606.29 1466.33 599.863 1467.8 598.276C1469.78 596.152 1469.96 595.597 1468.47 596.165C1467.37 596.59 1464.35 595.863 1461.78 594.549C1459.2 593.235 1456.78 592.16 1456.39 592.16C1456 592.16 1457.33 594.557 1459.35 597.487C1462.57 602.162 1462.84 603.19 1461.62 605.887C1460.84 607.577 1459.73 608.96 1459.15 608.96C1458.53 608.96 1458.54 608.145 1459.16 607.029C1459.95 605.62 1458.94 603.104 1455.42 597.729C1452.76 593.675 1449.76 589.387 1448.75 588.196C1446.29 585.296 1445.45 574.173 1447.6 572.812C1448.48 572.253 1449.28 571.789 1449.39 571.778C1449.49 571.768 1449.32 573.785 1449.02 576.26ZM1542.7 574.123C1536.35 576.693 1529.12 590.427 1530.86 596.608C1531.77 599.821 1531.84 599.746 1532.59 594.836C1533.02 592.017 1534.46 588.237 1535.81 586.436C1537.98 583.511 1539.2 583.094 1547.12 582.55C1556.52 581.903 1561.4 580.036 1561.4 577.088C1561.4 573.556 1548.97 571.586 1542.7 574.123ZM1474.27 575.263C1468.83 577.615 1470.4 582.86 1477.03 584.525C1478.72 584.948 1485.2 584.935 1491.44 584.497L1502.78 583.699L1506.71 587.63C1509.57 590.495 1510.87 593.11 1511.5 597.283C1512.42 603.416 1514.6 603.956 1514.6 598.051C1514.6 590.355 1508.76 582.014 1500.33 577.663C1494.57 574.688 1478.93 573.248 1474.27 575.263ZM1548.86 599.66C1550.07 603.674 1554.22 610.16 1555.58 610.16C1557.32 610.16 1555.57 605.36 1552.2 600.86C1548.77 596.287 1547.72 595.909 1548.86 599.66ZM1496.66 606.104C1497.53 613.234 1499.83 619.76 1501.48 619.76C1501.98 619.76 1501.64 616.655 1500.73 612.86C1499.83 609.065 1499.07 605.389 1499.04 604.689C1499.02 603.991 1498.28 602.435 1497.4 601.233C1496.03 599.362 1495.93 600.064 1496.66 606.104ZM1490.3 601.246C1488.84 602.731 1489.27 611.927 1490.91 614.169C1492.19 615.919 1492.37 615.357 1492.06 610.498C1491.49 601.48 1491.26 600.271 1490.3 601.246ZM1560.2 618.425C1560.2 619.011 1562 622.117 1564.21 625.325C1566.42 628.534 1568.85 633.05 1569.62 635.36C1570.38 637.67 1572.14 641.18 1573.51 643.16C1575.91 646.613 1575.99 646.637 1575.42 643.76C1574.35 638.414 1568.39 625.363 1565.15 621.309C1562.04 617.415 1560.2 616.341 1560.2 618.425ZM1543.5 628.76C1543.6 637.559 1545.61 641.413 1545.7 632.96C1545.73 629.33 1545.24 625.55 1544.6 624.56C1543.77 623.272 1543.46 624.466 1543.5 628.76ZM1558.59 628.16C1559.72 631.13 1562.33 635.72 1564.41 638.36C1568.97 644.157 1573.92 657.095 1572.03 658.267C1571.2 658.78 1571.16 659.32 1571.94 659.797C1572.59 660.202 1573.48 662.294 1573.9 664.447C1574.33 666.599 1575.53 669.44 1576.57 670.76C1578.38 673.067 1578.43 673.021 1577.82 669.56C1577.46 667.58 1576.6 663.8 1575.9 661.16C1575.2 658.52 1574.34 654.395 1573.98 651.994C1573.63 649.593 1572.03 645.813 1570.42 643.594C1568.81 641.375 1566.18 637.125 1564.57 634.148C1562.97 631.172 1560.51 627.392 1559.1 625.748L1556.56 622.76L1558.59 628.16ZM1551.8 625.981C1551.8 628.132 1556.68 637.76 1557.77 637.76C1558.29 637.76 1557.63 634.79 1556.29 631.16C1554.07 625.114 1551.8 622.503 1551.8 625.981ZM1458.47 629.06C1455.96 632.662 1453.08 640.239 1453.91 641.066C1454.19 641.351 1455.89 638.428 1457.69 634.571C1459.48 630.715 1461.17 627.155 1461.45 626.66C1462.72 624.343 1460.51 626.123 1458.47 629.06ZM1475.9 626.627C1478.05 626.894 1481.55 626.894 1483.7 626.627C1485.85 626.362 1484.09 626.144 1479.8 626.144C1475.51 626.144 1473.75 626.362 1475.9 626.627ZM1404.02 630.26C1403.25 632.174 1402.63 642.381 1402.54 654.56C1402.42 672.161 1402.76 676.592 1404.62 681.938C1407.39 689.89 1408.5 689.229 1406.62 680.743C1404.69 671.998 1403.51 640.73 1405.07 639.76C1405.87 639.272 1406.53 645.814 1406.98 658.485C1407.35 669.196 1408.19 679.85 1408.83 682.16C1409.62 685.03 1409.78 677.812 1409.33 659.36C1408.97 644.51 1408.19 631.414 1407.59 630.26C1406.9 628.903 1406.96 628.16 1407.79 628.16C1410.36 628.16 1411.55 635.083 1411.29 648.548C1411.14 656.144 1411.62 668.03 1412.35 674.96C1414.36 694.102 1415.02 708.712 1413.83 707.979C1413.25 707.62 1412.12 705.309 1411.32 702.843C1410.52 700.377 1407.71 694.04 1405.07 688.76C1395.68 669.976 1394.23 661.966 1397.5 646.76C1398.52 642.009 1399.27 640.376 1399.69 641.96C1400.03 643.28 1400.38 641.645 1400.46 638.327C1400.54 635.008 1401.44 631.094 1402.47 629.627C1405 626.017 1405.62 626.271 1404.02 630.26ZM1466.32 631.707C1465.49 634.66 1465.99 636.37 1467.3 635.063C1467.68 634.679 1467.8 633.105 1467.57 631.563L1467.15 628.76L1466.32 631.707ZM1512.22 634.989C1512.23 638.163 1512.76 641.57 1513.4 642.56C1514.23 643.839 1514.57 642.382 1514.58 637.531C1514.59 633.775 1514.06 630.368 1513.4 629.96C1512.66 629.504 1512.21 631.443 1512.22 634.989ZM1536.93 632.96C1537.73 637.589 1542.53 649.119 1549.43 662.96C1554.51 673.156 1560.85 692.857 1562.08 702.26C1562.54 705.724 1563.38 708.56 1563.95 708.56C1565.84 708.56 1565.05 698.723 1562.75 693.692C1561.51 690.979 1559.94 686.6 1559.27 683.96C1555.93 670.923 1552.29 659.271 1551.72 659.835C1551.38 660.182 1549.33 656.986 1547.17 652.733C1545.01 648.482 1542.74 644.691 1542.12 644.311C1541.5 643.93 1540.96 642.435 1540.91 640.989C1540.86 639.543 1539.78 636.2 1538.52 633.56L1536.21 628.76L1536.93 632.96ZM1468.66 638.648C1465.63 645.771 1465.21 648.142 1466.13 653.007C1466.94 657.259 1467.14 656.81 1469.17 646.227C1470.36 639.994 1471.16 634.724 1470.95 634.515C1470.75 634.306 1469.71 636.166 1468.66 638.648ZM1477.54 639.491C1476.8 642.423 1476.22 646.339 1476.25 648.191L1476.3 651.56L1477.89 648.56C1479.96 644.677 1481.51 634.16 1480.02 634.16C1479.39 634.16 1478.28 636.559 1477.54 639.491ZM1489.52 641.06C1489.61 646.325 1489.87 647.249 1490.6 644.96C1492 640.603 1492 634.16 1490.6 634.16C1489.93 634.16 1489.45 637.18 1489.52 641.06ZM1497.99 639.86C1494.93 645.969 1493.69 651.329 1495.47 650.735C1496.23 650.482 1498.15 647.097 1499.73 643.214C1503.03 635.099 1502.97 635.36 1501.42 635.36C1500.78 635.36 1499.23 637.385 1497.99 639.86ZM1523.68 644.06C1523.2 648.514 1523.22 653.914 1523.73 656.06L1524.65 659.96L1525.48 656.36C1526.63 651.415 1526.63 641.271 1525.49 638.36C1524.82 636.645 1524.3 638.273 1523.68 644.06ZM1546.94 644.06C1548.07 649.065 1552.88 658.214 1552.95 655.505C1553.02 652.605 1548.23 640.16 1547.04 640.16C1546.5 640.16 1546.45 641.914 1546.94 644.06ZM1457.1 643.034C1456.34 643.954 1455.24 647.6 1454.65 651.134C1454.07 654.668 1452.48 659.99 1451.12 662.96C1448.44 668.83 1447.83 673.175 1449.87 671.914C1451.41 670.963 1453.21 666.443 1454.63 659.96C1455.2 657.32 1456.46 652.055 1457.43 648.26C1459.3 640.895 1459.27 640.421 1457.1 643.034ZM1559 644.491C1559 646.477 1559.85 649.149 1560.88 650.431C1562.66 652.622 1562.73 652.481 1562.13 648.063C1561.31 642.053 1559 639.417 1559 644.491ZM1515.33 647.621C1513.08 652.819 1512.79 660.041 1514.79 661.274C1515.63 661.796 1515.85 661.605 1515.34 660.787C1514.88 660.047 1515.38 656.443 1516.45 652.777C1518.77 644.767 1518.04 641.373 1515.33 647.621ZM1506.65 646.76C1505.4 649.023 1503.51 664.16 1504.48 664.16C1505.55 664.16 1508.73 650.695 1508.37 647.674C1508.01 644.561 1507.9 644.506 1506.65 646.76ZM1484.12 648.809C1481.03 653.53 1479.35 659.391 1480.71 660.748C1481.52 661.556 1482.75 659.477 1484.45 654.448C1487.19 646.317 1487.08 644.295 1484.12 648.809ZM1579 648.279C1579.38 649.774 1580.16 651.291 1580.75 651.65C1582.39 652.664 1581.99 650.469 1580.06 647.889C1578.38 645.641 1578.34 645.656 1579 648.279ZM1460.73 656.086C1459 665.68 1459.38 668.675 1461.76 664.235C1462.5 662.845 1462.95 658.343 1462.76 654.233L1462.4 646.76L1460.73 656.086ZM1447.53 651.976C1446.14 653.931 1445 657.052 1445 658.912C1445 662.117 1445.08 662.17 1446.61 659.927C1448.53 657.113 1451.21 649.571 1450.54 648.896C1450.28 648.635 1448.92 650.021 1447.53 651.976ZM1550.02 676.76C1554.76 689.444 1554.41 692.775 1549.58 680.96C1547.01 674.69 1543.29 666.05 1541.31 661.76C1539.32 657.47 1537.35 652.61 1536.92 650.96C1535.75 646.467 1546.92 668.458 1550.02 676.76ZM1528.59 651.748C1527.51 654.922 1529.85 664.778 1532.13 666.67C1534.41 668.561 1534.38 664.532 1532.07 658.484C1531.12 655.996 1530.15 652.88 1529.9 651.56C1529.48 649.251 1529.43 649.258 1528.59 651.748ZM1470.5 658.899C1468.74 664.708 1468.5 673.01 1470.13 672.003C1471.54 671.131 1472.94 662.205 1472.4 657.489C1472.01 654.068 1471.95 654.111 1470.5 658.899ZM1493.87 659.873C1491.67 666.17 1491.12 671.92 1492.84 670.862C1494.4 669.896 1496.87 660.109 1496.38 656.836C1496.03 654.499 1495.56 655.066 1493.87 659.873ZM1578.23 656.18C1578.21 657.401 1580.42 663.071 1583.14 668.78C1586.49 675.811 1588.42 681.835 1589.13 687.451C1589.71 692.011 1590.46 696.016 1590.79 696.351C1592.08 697.641 1591.29 684.865 1589.73 679.16C1587.76 671.983 1578.27 653.013 1578.23 656.18ZM1558.35 658.16C1559.61 662.864 1561.59 666.376 1563.37 667.059C1564.68 667.561 1564.63 666.803 1563.14 663.223C1562.12 660.767 1560.44 657.95 1559.42 656.96C1557.73 655.343 1557.62 655.466 1558.35 658.16ZM1509.37 659.957C1508.41 662.462 1508.4 669.891 1509.36 673.46C1510.74 678.609 1512.2 676.123 1512.18 668.66C1512.16 660.665 1510.76 656.329 1509.37 659.957ZM1520.17 662.012C1519.76 663.524 1519.43 666.892 1519.42 669.5C1519.39 676.186 1521.59 673.401 1521.96 666.283C1522.28 660.02 1521.32 657.727 1520.17 662.012ZM1440.25 666.681C1437.57 672.577 1436.88 678.757 1439.15 676.486C1440.69 674.95 1444.07 662.834 1443.21 661.969C1442.9 661.657 1441.56 663.778 1440.25 666.681ZM1499.17 669.02C1498.27 672.683 1497.78 676.733 1498.08 678.02C1499.05 682.208 1501.55 673.935 1501.16 667.833L1500.8 662.36L1499.17 669.02ZM1536.84 670.46C1537.3 673.264 1538.37 676.91 1539.22 678.56C1541.55 683.127 1549.09 702.765 1549.81 706.16C1550.16 707.81 1550.16 705.968 1549.81 702.067C1549.45 697.975 1547.53 691.12 1545.27 685.867C1543.13 680.858 1540.43 674.195 1539.28 671.06C1536.7 663.993 1535.72 663.753 1536.84 670.46ZM1557.97 669.56C1558.68 672.2 1560.22 676.25 1561.39 678.56C1562.56 680.87 1563.9 685.595 1564.37 689.061C1565.3 695.935 1567.4 696.515 1567.4 689.902C1567.4 685.21 1562.48 672.236 1559 667.76L1556.67 664.76L1557.97 669.56ZM1482.42 671.021C1481.11 674.366 1480.6 678.267 1480.89 682.76C1481.16 687.047 1483.22 682.185 1484.09 675.215C1485.01 667.913 1484.31 666.175 1482.42 671.021ZM1567.7 670.46C1568 671.285 1569.18 674.795 1570.32 678.26C1572.61 685.207 1575.33 687.021 1573.94 680.665C1572.8 675.483 1569.63 668.96 1568.25 668.96C1567.64 668.96 1567.39 669.635 1567.7 670.46ZM1528.23 675.346C1529.35 684.027 1531.67 686.872 1531.04 678.789C1530.76 675.285 1529.85 671.775 1529.01 670.989C1527.79 669.841 1527.64 670.696 1528.23 675.346ZM1459.1 672.958C1457.66 676.481 1457.97 688.871 1459.46 687.377C1460.17 686.674 1460.56 682.718 1460.36 678.437C1460.13 673.575 1459.67 671.566 1459.1 672.958ZM1443.33 676.275C1442.39 678.521 1441.24 682.52 1440.77 685.16C1440.01 689.473 1440.11 689.777 1441.77 688.16C1443.5 686.483 1446.57 673.751 1445.51 672.675C1445.25 672.41 1444.26 674.03 1443.33 676.275ZM1490.2 679.444C1489 682.9 1488.25 686.68 1488.53 687.844C1489.35 691.255 1493.2 681.35 1492.76 676.939C1492.41 673.345 1492.28 673.467 1490.2 679.444ZM1579.9 677.599C1580.19 680.039 1581.33 683.931 1582.43 686.246C1583.9 689.359 1584.24 692.246 1583.72 697.336C1583.23 702.137 1583.4 703.838 1584.28 702.961C1586.15 701.092 1587.27 688.16 1585.57 688.16C1584.82 688.16 1584.19 686.945 1584.17 685.46C1584.15 683.974 1583.07 680.6 1581.76 677.96L1579.38 673.16L1579.9 677.599ZM1471.4 682.16C1471.4 685.46 1471.94 688.16 1472.6 688.16C1473.26 688.16 1473.8 685.46 1473.8 682.16C1473.8 678.86 1473.26 676.16 1472.6 676.16C1471.94 676.16 1471.4 678.86 1471.4 682.16ZM1514.95 679.76C1512.95 685.696 1512.65 688.712 1514.02 689.066C1515.52 689.455 1517.26 682.891 1516.75 678.733C1516.38 675.677 1516.31 675.716 1514.95 679.76ZM1535.07 679.447C1535.03 681.585 1536.02 686.015 1537.26 689.293C1538.51 692.57 1539.18 695.457 1538.76 695.709C1538.34 695.96 1538.61 696.026 1539.36 695.854C1540.14 695.674 1541.3 698.449 1542.08 702.351C1543.91 711.524 1545.76 714.338 1545.77 707.96C1545.77 705.32 1544.43 700.271 1542.79 696.741C1541.15 693.211 1539.77 689.431 1539.73 688.341C1539.7 687.251 1538.65 683.93 1537.4 680.96C1535.14 675.572 1535.13 675.568 1535.07 679.447ZM1504.74 681.674C1504.27 682.397 1503.54 685.165 1503.11 687.824C1502.15 693.865 1504.53 696.059 1505.64 690.151C1506.55 685.294 1505.97 679.787 1504.74 681.674ZM1448.66 685.76C1448.65 688.07 1449.44 692.66 1450.41 695.96L1452.18 701.96L1451.74 694.024C1451.25 685.136 1448.68 678.251 1448.66 685.76ZM1521.99 684.938C1520.27 689.12 1520.17 697.354 1521.83 698.378C1522.51 698.797 1522.95 698.693 1522.82 698.149C1522.7 697.605 1523 694.658 1523.51 691.6C1524.02 688.543 1524.19 685.033 1523.9 683.8C1523.47 681.932 1523.15 682.12 1521.99 684.938ZM1527.29 689.764C1526.41 695.677 1527.48 700.192 1529.15 697.561C1530.5 695.433 1530.49 686.078 1529.13 685.243C1528.55 684.88 1527.72 686.915 1527.29 689.764ZM1461.81 688.747C1460.53 691.131 1460.5 692.684 1461.64 696.494C1462.42 699.115 1463.59 701.583 1464.23 701.98C1465.96 703.048 1465.65 698.648 1463.66 693.887C1462.36 690.782 1462.27 689.374 1463.28 688.36C1464.03 687.613 1464.36 686.722 1464.02 686.381C1463.68 686.042 1462.69 687.106 1461.81 688.747ZM1569.45 697.497C1568.99 705.117 1569.19 709.576 1570.03 710.36C1570.93 711.205 1571.11 710.228 1570.63 707.06C1570.26 704.577 1570.46 702.56 1571.08 702.56C1572.48 702.56 1572.58 687.333 1571.17 686.468C1570.61 686.119 1569.83 691.082 1569.45 697.497ZM1433.16 692.96C1433.09 696.59 1433.56 700.37 1434.2 701.36C1435.68 703.645 1435.71 698.145 1434.27 691.16L1433.28 686.36L1433.16 692.96ZM1575.93 691.76C1575.98 696.745 1576.08 696.909 1577.18 693.905C1577.98 691.713 1577.96 689.949 1577.12 688.505C1576.13 686.798 1575.89 687.461 1575.93 691.76ZM1410.47 708.664C1414.2 716.624 1420.01 735.233 1418.46 734.275C1416.19 732.872 1407.37 713.722 1405.24 705.56C1402.3 694.333 1402.32 689.128 1405.27 696.664C1406.45 699.692 1408.79 705.092 1410.47 708.664ZM1443.88 697.989C1443.84 701.745 1444.34 705.152 1445 705.56C1446.47 706.472 1446.47 696.992 1445 693.56C1444.26 691.829 1443.95 693.064 1443.88 697.989ZM1474.56 694.46C1473.48 698.48 1473.65 703.76 1474.86 703.76C1476.14 703.76 1477.36 699.562 1477.38 695.06C1477.4 691.083 1475.57 690.693 1474.56 694.46ZM1483.4 697.061C1483.4 703.168 1484.38 706.437 1485.93 705.482C1487.15 704.728 1487.33 698.498 1486.24 694.46C1485.03 689.944 1483.4 691.438 1483.4 697.061ZM1494.22 699.86C1494.23 705.532 1494.59 707.42 1495.4 706.16C1496.94 703.78 1496.94 691.76 1495.4 691.76C1494.72 691.76 1494.21 695.247 1494.22 699.86ZM1508.13 694.858C1506.94 697.947 1507.3 707.36 1508.6 707.36C1509.27 707.36 1509.8 704.159 1509.8 700.16C1509.8 692.779 1509.41 691.528 1508.13 694.858ZM1578.92 697.16C1577.31 703.865 1577.22 704.956 1578.25 705.592C1579.48 706.353 1581.04 698.92 1580.3 695.78C1579.91 694.115 1579.57 694.461 1578.92 697.16ZM1515.8 704.818C1515.8 708.118 1516.34 711.152 1517 711.56C1517.74 712.017 1518.2 709.996 1518.2 706.301C1518.2 703.001 1517.66 699.968 1517 699.56C1516.26 699.103 1515.8 701.123 1515.8 704.818ZM1531.44 701.281C1529.9 704.153 1529.8 714.172 1531.3 715.099C1531.92 715.479 1532.58 712.067 1532.8 707.367C1533.02 702.74 1533.08 698.956 1532.94 698.957C1532.8 698.959 1532.13 700.004 1531.44 701.281ZM1423.11 715.641C1422.56 717.995 1424.97 723.944 1426.27 723.445C1427.1 723.127 1430.21 725.987 1433.2 729.813C1439.29 737.591 1441.98 742.16 1440.49 742.16C1439.35 742.16 1432.29 734.879 1428.4 729.698C1426.61 727.309 1425.8 726.844 1425.8 728.198C1425.8 729.277 1425.32 730.16 1424.74 730.16C1424.16 730.16 1423.29 731.374 1422.81 732.86C1421.97 735.454 1420.57 727.933 1418.06 707.36L1417.25 700.76L1420.26 707.841C1421.92 711.735 1423.2 715.245 1423.11 715.641ZM1455.25 702.473C1454.13 704.296 1455.42 709.449 1457.8 712.663C1459.55 715.011 1459.61 714.844 1458.89 709.875C1457.93 703.363 1456.5 700.45 1455.25 702.473ZM1466.49 709.167C1465.02 715.738 1465.72 719.095 1467.85 715.725C1468.94 713.995 1469.5 702.56 1468.49 702.56C1468.2 702.56 1467.31 705.533 1466.49 709.167ZM1501.54 709.989C1501.46 713.745 1501.94 717.152 1502.6 717.56C1503.98 718.417 1503.98 712.204 1502.6 706.76C1501.84 703.785 1501.66 704.344 1501.54 709.989ZM1574.97 706.624C1575.29 709.75 1580.02 711.368 1582.27 709.119C1583.6 707.792 1584.15 707.733 1584.61 708.871C1584.96 709.748 1585.25 709.497 1585.31 708.26C1585.41 706.015 1582.43 705.363 1581.2 707.36C1579.98 709.329 1576.02 708.719 1575.36 706.46C1574.83 704.673 1574.77 704.697 1574.97 706.624ZM1439.38 707.758C1439.83 708.967 1440.2 710.41 1440.2 710.966C1440.2 712.611 1446.25 719.306 1449.03 720.737C1450.97 721.736 1450.68 721.067 1447.83 718.01C1445.76 715.783 1443.71 712.793 1443.29 711.368C1442.86 709.942 1441.62 708.052 1440.53 707.168C1438.8 705.766 1438.66 705.842 1439.38 707.758ZM1536.2 710.261C1536.2 715.389 1537.22 718.16 1539.12 718.16C1540.24 718.16 1540.3 716.752 1539.35 712.16C1537.94 705.272 1536.2 704.223 1536.2 710.261ZM1451 711.803C1451 715.538 1453.49 720.56 1455.35 720.56C1457.14 720.56 1456.5 718.265 1453.18 712.76C1451.23 709.527 1451.01 709.43 1451 711.803ZM1489.4 713.36C1489.4 715.34 1489.94 716.96 1490.6 716.96C1491.26 716.96 1491.8 715.34 1491.8 713.36C1491.8 711.38 1491.26 709.76 1490.6 709.76C1489.94 709.76 1489.4 711.38 1489.4 713.36ZM1631 712.279C1631 713.44 1629.08 714.014 1617.2 716.401C1611.92 717.461 1605.17 719.065 1602.2 719.963C1590.98 723.359 1578.17 726.556 1576.13 726.475C1573.21 726.358 1583.31 721.99 1590.08 720.437C1593.12 719.741 1597.49 718.394 1599.8 717.442C1603.49 715.921 1625.47 711.434 1629.5 711.38C1630.33 711.369 1631 711.773 1631 712.279ZM1477.63 715.838C1476.82 717.135 1474.73 718.221 1472.89 718.299C1470.69 718.393 1470.32 718.625 1471.79 719.006C1474.98 719.829 1479.43 718.459 1480.22 716.409C1481.27 713.672 1479.26 713.228 1477.63 715.838ZM1520.03 714.507C1519.64 715.138 1518.62 715.384 1517.75 715.053C1516.89 714.722 1515.49 715.285 1514.65 716.305C1513 718.293 1513.68 718.535 1517.82 717.425C1519.26 717.039 1520.72 715.966 1521.08 715.041C1521.81 713.133 1521.11 712.772 1520.03 714.507ZM1589.99 715.606C1592.21 717.014 1582.05 720.55 1551.2 729.099C1534.43 733.747 1520.57 734.721 1499.72 732.715C1492.39 732.01 1479.16 730.784 1470.32 729.989C1446.72 727.87 1453.6 726.405 1492.4 725.291C1524.75 724.363 1541.16 722.743 1563.41 718.276C1581.91 714.561 1587.46 714.003 1589.99 715.606ZM1586.6 728.439C1586.6 732.796 1578.86 737.577 1568.6 739.555C1554.83 742.209 1548.18 742.377 1513.58 740.943C1479.34 739.523 1477.57 739.331 1466.6 735.837C1453.69 731.726 1453.82 730.286 1466.87 732.995C1476.73 735.045 1502.67 736.781 1522.4 736.713C1532.8 736.677 1538.4 735.956 1548.8 733.31C1556.06 731.464 1567.13 729.538 1573.4 729.031C1579.67 728.524 1585.2 728.03 1585.7 727.934C1586.2 727.838 1586.6 728.066 1586.6 728.439ZM1563.2 735.163C1557.26 736.424 1549.43 737.947 1545.8 738.545C1539.93 739.515 1540.26 739.564 1548.8 738.992C1558.64 738.332 1572.96 735.801 1574.27 734.492C1575.93 732.833 1573.46 732.983 1563.2 735.163ZM1506.8 763.096C1509.28 764.698 1531.7 805.459 1531.1 807.272C1530.91 807.835 1526.48 800.3 1521.26 790.527C1506.72 763.316 1507.38 764.175 1499.64 762.569C1495.99 761.81 1493 760.897 1493 760.539C1493 759.393 1504.31 761.488 1506.8 763.096ZM1498.87 787.76C1500.85 790.421 1501.19 791.321 1499.78 790.219C1497.39 788.333 1490.6 777.116 1490.66 775.16C1490.69 774.5 1491.84 776.12 1493.23 778.76C1494.62 781.4 1497.16 785.45 1498.87 787.76ZM1504.63 787.46C1504.33 788.614 1504.08 787.67 1504.08 785.36C1504.08 783.05 1504.33 782.105 1504.63 783.26C1504.93 784.414 1504.93 786.305 1504.63 787.46ZM1505.02 818.75L1505.03 829.16L1511.06 838.16C1516.32 846.019 1520.73 856.313 1520.54 860.278C1520.5 860.983 1518.12 856.7 1515.24 850.76C1512.36 844.82 1508.51 838.61 1506.67 836.96L1503.32 833.96L1505.47 837.379C1508.75 842.609 1512.21 853.636 1512.09 858.448C1511.99 862.325 1511.74 861.974 1509.64 854.96C1508.36 850.67 1506.5 844.73 1505.51 841.76C1503.38 835.348 1502.75 832.531 1501.51 823.76C1500.47 816.437 1499.22 812.804 1497.29 811.478C1496.58 810.993 1491.31 810.589 1485.57 810.578C1479.83 810.568 1474.87 810.119 1474.54 809.579C1474.2 809.041 1480.92 808.541 1489.46 808.469L1505 808.339L1505.02 818.75ZM1345.4 815.835C1345.4 816.095 1348.23 818.121 1351.69 820.335C1355.15 822.549 1359.87 825.951 1362.19 827.895C1366.24 831.293 1366.22 831.231 1361.6 826.268C1355.37 819.565 1345.4 813.146 1345.4 815.835ZM1563.37 836.66C1562.17 843.909 1562.47 853.515 1563.81 851.205C1565.52 848.288 1566.8 832.16 1565.33 832.16C1564.66 832.16 1563.78 834.185 1563.37 836.66ZM1506.86 862.286C1507.54 868.853 1505.62 888.562 1504.45 887.138C1504.27 886.93 1503.84 876.5 1503.47 863.96C1502.87 843.16 1502.95 841.739 1504.43 847.76C1505.32 851.39 1506.42 857.926 1506.86 862.286ZM1457.87 851.06C1460.96 857.705 1468.39 866.159 1470.52 865.463C1471.34 865.198 1472.58 862.598 1473.3 859.685L1474.6 854.39L1475.4 860.242C1475.84 863.462 1476.22 867.775 1476.24 869.828C1476.31 875.955 1480.14 882.461 1485.62 885.723C1488.36 887.359 1490.6 888.457 1490.6 888.164C1490.6 887.87 1488.19 883.097 1485.24 877.557C1481.3 870.157 1479.69 865.583 1479.17 860.321C1478.4 852.727 1479.96 853.133 1481.61 860.96C1483.51 869.972 1491.86 883.76 1495.41 883.76C1497.18 883.76 1497.81 882.562 1498.4 878.06C1499.65 868.525 1501.23 866.553 1501.32 874.401C1501.41 881.943 1499.4 892.971 1497.75 893.989C1496.27 894.904 1480.55 886.798 1473.27 881.371C1464.77 875.029 1461.13 870.874 1458.14 864.105C1455.62 858.407 1453.09 845.36 1454.51 845.36C1454.9 845.36 1456.41 847.924 1457.87 851.06ZM1438.4 857.773C1438.4 868.297 1438.63 869.351 1442.25 875.168C1444.88 879.394 1445.57 881.36 1444.44 881.36C1441.98 881.36 1437.99 875.735 1436.47 870.103C1434.69 863.511 1435.91 846.52 1438.17 846.565C1438.3 846.567 1438.4 851.611 1438.4 857.773ZM1319 859.631C1319.81 861.211 1322.03 867.117 1323.93 872.757C1327.91 884.535 1328.45 895.45 1325.62 907.16C1323.62 915.478 1323.39 918.56 1324.8 918.56C1326.71 918.56 1330.18 895.202 1329.47 887.199C1328.6 877.532 1323.64 862.635 1320.18 859.307L1317.53 856.76L1319 859.631ZM1519.31 865.364C1520.13 869.893 1516.96 884.528 1515.73 881.948C1515.42 881.294 1515.34 875.697 1515.57 869.509C1515.99 857.821 1517.63 856.007 1519.31 865.364ZM1460.11 863.66C1462.87 868.557 1467.26 873.201 1472.84 877.142C1479.04 881.517 1478.96 881.389 1469.63 871.894C1460.09 862.189 1458.5 860.818 1460.11 863.66ZM1452.45 878.645C1453.96 880.269 1457.82 882.931 1461.02 884.559C1467.64 887.929 1467.73 889.317 1461.22 887.518C1451.66 884.878 1444.93 876.71 1445.06 867.898C1445.11 864.087 1445.19 864.149 1447.4 869.827C1448.66 873.053 1450.93 877.022 1452.45 878.645ZM1572.53 869.96C1572.69 872.063 1572.25 873.459 1571.47 873.317C1570.68 873.172 1570.33 874.378 1570.62 876.317C1570.88 878.101 1571.04 883.714 1570.98 888.793C1570.88 897.64 1571.02 898.115 1574.24 900.191C1576.09 901.384 1578.55 903.439 1579.72 904.76C1581.81 907.132 1581.83 907.126 1581.25 904.16C1575.96 877.121 1571.87 861.093 1572.53 869.96ZM1336.06 870.136C1339.05 873.515 1341.54 884.723 1342.94 901.16C1343.62 909.08 1344.18 916.235 1344.19 917.06C1344.19 917.885 1344.82 918.56 1345.58 918.56C1347.21 918.56 1346.13 894.531 1344 883.383C1342.61 876.13 1338.91 869.356 1335.8 868.377C1334.36 867.923 1334.42 868.28 1336.06 870.136ZM1411.55 883.283C1424.21 900.623 1434.41 914.074 1436.48 916.16C1441.44 921.158 1435.45 912.11 1422.36 894.821C1406.18 873.467 1398.05 864.785 1411.55 883.283ZM1557.83 883.16C1557.81 889.1 1556.99 898.55 1556 904.16C1553.81 916.615 1553.77 918.56 1555.73 918.56C1559.37 918.56 1562.47 880.223 1559.28 874.76C1558.13 872.799 1557.87 874.336 1557.83 883.16ZM1387.99 881.383C1386.82 883.273 1404.22 918.56 1406.32 918.56C1409.03 918.56 1406.72 913.391 1390.34 882.771C1389.35 880.906 1388.57 880.445 1387.99 881.383ZM1407.75 890.416C1406.97 891.361 1405.71 891.764 1404.96 891.313C1404.21 890.861 1405.07 892.353 1406.86 894.626C1408.65 896.9 1413.24 903.187 1417.06 908.597C1422.82 916.767 1424.56 918.447 1427.3 918.497C1431.16 918.571 1431.08 918.812 1428.86 913.492C1426.97 908.96 1420.3 900.122 1413.49 893.129C1409.87 889.406 1408.95 888.974 1407.75 890.416ZM1532.87 903.07C1520.98 915.971 1519.15 918.56 1521.92 918.56C1523.38 918.56 1534.29 907.768 1541.34 899.36C1545.75 894.104 1545.85 894.056 1545.17 897.56L1544.46 901.16L1546.29 898.16L1548.11 895.16L1548.16 898.831C1548.18 900.958 1546.43 905.433 1544 909.476C1539.65 916.707 1539.02 918.56 1540.92 918.56C1543.94 918.56 1551.73 903.341 1551.77 897.345C1551.8 893.497 1549.25 889.76 1546.59 889.76C1545.8 889.76 1539.62 895.75 1532.87 903.07ZM1263.45 901.798C1259.26 915.565 1259.21 918.56 1263.2 918.56C1265.5 918.56 1266.21 917.932 1266.23 915.86C1266.26 912.827 1267.21 901.973 1267.95 896.081C1268.92 888.428 1266.64 891.323 1263.45 901.798ZM1295.33 897.86C1293.42 900.335 1289.3 906.005 1286.17 910.46L1280.48 918.56H1284.74C1288.32 918.56 1289 918.141 1289 915.944C1289 912.891 1297.95 898.667 1300.48 897.697C1305.23 895.873 1306.96 899.42 1306.98 911.06C1306.99 915.249 1307.53 918.56 1308.2 918.56C1309.88 918.56 1309.72 901.018 1308.02 897.781C1304.86 891.773 1300 891.805 1295.33 897.86ZM1562.89 901.027C1562.07 905.355 1561.4 910.126 1561.41 911.629C1561.42 914.186 1561.57 914.132 1563.77 910.784C1567.1 905.738 1567.78 901.465 1565.96 897.004L1564.39 893.156L1562.89 901.027ZM1401.8 897.349C1401.8 897.823 1404.03 902.788 1406.75 908.385C1411.51 918.165 1411.86 918.56 1415.75 918.56C1417.98 918.56 1419.8 918.205 1419.8 917.77C1419.8 917.337 1417.67 914.231 1415.08 910.87C1409.99 904.285 1401.8 895.947 1401.8 897.349ZM1569.5 912.717C1567.03 914.738 1565 916.88 1565 917.476C1565 919.735 1570.7 918.435 1573.4 915.56C1577.24 911.468 1579.34 911.738 1575.73 915.86C1574.14 917.674 1573.61 918.485 1574.56 917.66C1576.62 915.867 1578.65 915.667 1577.6 917.36C1577.18 918.04 1578.19 918.56 1579.93 918.56C1583.62 918.56 1583.7 917.918 1580.61 912.86C1577.67 908.035 1575.27 908.003 1569.5 912.717ZM1550.88 914.96C1550.88 917.27 1551.13 918.214 1551.43 917.06C1551.73 915.905 1551.73 914.014 1551.43 912.86C1551.13 911.705 1550.88 912.65 1550.88 914.96Z" fill="black" fill-opacity="0.12"/>
<path d="M1066.51 359.344L1265.9 222.698L1266.73 223.894L1284.16 248.87L1084.55 385.638L1066.51 359.344ZM1115.12 429.706C1138.1 413.956 1133.16 395.235 1122.07 376.385L1179.01 338.348C1191.94 354.971 1206.85 366.832 1227.23 352.874L1250.25 386.442L1217.31 409.026L1210.16 397.526C1211.6 395.052 1212.43 392.174 1212.43 389.104C1212.43 379.846 1204.91 372.331 1195.66 372.331C1186.4 372.331 1178.91 379.846 1178.91 389.104C1178.91 398.362 1186.4 405.852 1195.66 405.852C1195.81 405.852 1195.97 405.832 1196.12 405.828L1203.86 418.255L1183.38 432.269L1165.02 402.825L1151.17 411.442L1158.45 423.114L1145.8 430.999L1157.6 449.945L1138.11 463.298L1115.11 429.704L1115.12 429.706ZM1263.58 191.156C1263.58 190.914 1263.59 190.666 1263.63 190.422C1263.71 189.776 1263.85 189.131 1264.06 188.445C1264.93 185.703 1267.24 182.664 1270.27 180.535C1273.29 178.407 1276.9 177.285 1279.74 177.41C1282.58 177.535 1284.69 178.392 1286.87 181.512L1328.64 241.351C1330.43 243.916 1330.48 245.825 1329.54 248.479C1328.61 251.132 1326.21 254.2 1323.12 256.389C1320.03 258.577 1316.36 259.789 1313.6 259.756C1310.84 259.725 1309.08 259.061 1307.18 256.339L1265.41 196.477C1264.02 194.488 1263.52 192.838 1263.58 191.156L1263.58 191.156ZM1298.07 146.672C1298.39 127.645 1305.51 111.122 1319.36 101.629C1338.69 88.3868 1366.04 92.3571 1389.9 109.148C1393.58 107.713 1397.58 106.902 1401.76 106.902C1419.92 106.902 1434.82 121.801 1434.82 139.959C1434.82 146.706 1432.77 153 1429.25 158.245C1443.69 192.002 1439.18 227.05 1416.14 242.839C1394.83 257.445 1363.87 251.342 1338.55 230.047L1304.15 180.755C1300.16 169.805 1298.14 158.825 1298.07 148.528C1298.07 147.909 1298.06 147.286 1298.07 146.673L1298.07 146.672ZM1383.33 139.959C1383.33 150.227 1391.49 158.391 1401.76 158.391C1412.03 158.391 1420.22 150.227 1420.22 139.959C1420.22 129.692 1412.03 121.503 1401.76 121.503C1391.49 121.503 1383.33 129.692 1383.33 139.959L1383.33 139.959Z" fill="black" fill-opacity="0.12"/>
<g opacity="0.12" clip-path="url(#clip0_32_2042)">
<path d="M996.776 481.744L970.733 451.041C962.455 456.334 951.336 454.83 944.805 447.129L722.581 635.616C729.113 643.317 728.783 654.532 722.211 661.835L748.252 692.537C756.531 687.245 767.649 688.749 774.181 696.45C780.713 704.151 780.383 715.366 773.811 722.669L799.852 753.372C808.13 748.079 819.249 749.583 825.781 757.284L1048 568.797C1041.47 561.096 1041.8 549.88 1048.37 542.577L1022.33 511.875C1014.06 517.167 1002.94 515.663 996.405 507.962C989.873 500.262 990.204 489.046 996.776 481.744Z" fill="black"/>
<path d="M828.198 725.362L979.905 596.68L906.184 509.767L754.477 638.449L828.198 725.362Z" fill="#7A7473"/>
<path d="M843.832 590.031L868.507 605.269L890.624 586.509L883.758 614.686L908.434 629.924L879.514 632.1L872.647 660.277L861.641 633.445L832.721 635.622L854.838 616.863L843.832 590.031Z" fill="black"/>
<path opacity="0.1" d="M794.339 746.875L924.175 504.791L906.422 495.27L912.514 478.972L909.297 477.247L722.581 635.616C729.113 643.317 728.783 654.532 722.211 661.836L748.253 692.538C756.53 687.246 767.65 688.75 774.182 696.451C780.714 704.152 780.384 715.367 773.811 722.67L794.339 746.875Z" fill="#7A7473"/>
<path d="M815.409 451.369L779.93 432.341C774.167 440.298 763.27 442.972 754.371 438.2L616.645 694.992C625.543 699.765 629.345 710.322 625.905 719.526L661.384 738.554C667.147 730.597 678.045 727.923 686.943 732.696C695.841 737.468 699.643 748.025 696.203 757.229L731.682 776.257C737.445 768.301 748.343 765.626 757.241 770.399L894.966 513.607C886.067 508.835 882.265 498.277 885.705 489.073L850.228 470.045C844.464 478.002 833.567 480.676 824.668 475.904C815.77 471.129 811.969 460.574 815.409 451.369Z" fill="black"/>
<path d="M744.048 487.97C743.575 487.843 743.109 487.66 742.659 487.419L731.252 481.301C728.102 479.612 726.917 475.689 728.608 472.539C730.296 469.39 734.22 468.205 737.37 469.895L748.776 476.013C751.927 477.702 753.111 481.625 751.42 484.775C749.974 487.474 746.884 488.73 744.048 487.97Z" fill="#7A7473"/>
<path d="M838.275 538.505C837.803 538.379 837.337 538.196 836.886 537.955L813.329 525.32C810.179 523.631 808.995 519.708 810.685 516.558C812.374 513.408 816.295 512.223 819.447 513.914L843.004 526.549C846.154 528.237 847.339 532.161 845.648 535.31C844.202 538.01 841.112 539.266 838.275 538.505ZM791.162 513.238C790.69 513.111 790.224 512.928 789.773 512.687L766.216 500.052C763.066 498.363 761.882 494.44 763.572 491.29C765.261 488.14 769.183 486.955 772.334 488.646L795.891 501.281C799.041 502.97 800.225 506.893 798.535 510.043C797.088 512.742 793.999 513.998 791.162 513.238Z" fill="#7A7473"/>
<path d="M873.239 557.259C872.766 557.132 872.3 556.949 871.849 556.708L860.443 550.59C857.293 548.901 856.108 544.978 857.799 541.828C859.487 538.679 863.411 537.494 866.561 539.184L877.967 545.302C881.118 546.991 882.302 550.914 880.611 554.064C879.164 556.763 876.075 558.019 873.239 557.259Z" fill="#7A7473"/>
<path d="M747.811 739.82L841.846 564.514L741.414 510.641L647.379 685.947L747.811 739.82Z" fill="#7A7473"/>
<path d="M712.767 608.158L741.309 613.296L755.016 587.74L758.949 616.472L787.491 621.611L761.38 634.231L765.312 662.964L745.241 642.03L719.13 654.65L732.837 629.092L712.767 608.158Z" fill="black"/>
<path d="M919.132 490.701C917.904 490.372 916.761 489.68 915.877 488.637L907.505 478.765C905.192 476.039 905.528 471.955 908.254 469.643C910.98 467.331 915.065 467.667 917.376 470.392L925.749 480.264C928.061 482.99 927.726 487.074 925 489.386C923.316 490.814 921.114 491.232 919.132 490.701Z" fill="#7A7473"/>
<path d="M988.296 572.244C987.068 571.915 985.925 571.222 985.041 570.18L967.75 549.794C965.437 547.068 965.773 542.984 968.499 540.673C971.225 538.36 975.309 538.696 977.621 541.422L994.912 561.808C997.225 564.534 996.889 568.618 994.163 570.929C992.479 572.356 990.278 572.775 988.296 572.244ZM953.714 531.472C952.487 531.143 951.344 530.45 950.46 529.408L933.169 509.022C930.856 506.296 931.192 502.212 933.918 499.901C936.644 497.589 940.729 497.925 943.04 500.65L960.331 521.036C962.643 523.762 962.308 527.847 959.582 530.158C957.898 531.585 955.697 532.003 953.714 531.472Z" fill="#7A7473"/>
<path d="M1013.96 602.501C1012.73 602.172 1011.59 601.479 1010.7 600.437L1002.33 590.565C1000.02 587.839 1000.35 583.755 1003.08 581.443C1005.81 579.131 1009.89 579.467 1012.2 582.192L1020.58 592.064C1022.89 594.79 1022.55 598.874 1019.83 601.186C1018.14 602.613 1015.94 603.032 1013.96 602.501Z" fill="#7A7473"/>
</g>
<defs>
<clipPath id="clip0_32_2042">
<rect width="383.999" height="383.999" fill="white" transform="translate(702.386 375) rotate(15)"/>
</clipPath>
</defs>
</svg>
