<svg width="1698" height="1000" viewBox="0 0 1698 1000" fill="none" xmlns="http://www.w3.org/2000/svg">
<g opacity="0.12">
<path d="M1055.72 304.8C1058.02 309.7 1063.72 319.4 1063.72 319.4L1129.22 211.1L1065.22 255.7C1061.42 258.2 1058.32 261.7 1056.12 265.7C1050.22 278 1050.12 292.3 1055.72 304.8Z" fill="url(#paint0_linear_35_2367)"/>
<path d="M1029.72 340.4C1031.22 361.4 1041.62 380.7 1058.32 393.4L1129.02 442.7C1129.02 442.7 1084.82 378.9 1047.42 315.5C1043.62 308.8 1041.12 301.5 1039.92 293.9C1039.42 290.5 1039.42 287 1039.92 283.5C1038.92 285.3 1037.02 289 1037.02 289C1033.22 296.7 1030.62 305 1029.42 313.5C1028.82 322.4 1028.82 331.5 1029.72 340.4Z" fill="#A0A8D4"/>
<path d="M1210.12 349C1207.82 344.1 1202.12 334.4 1202.12 334.4L1136.62 442.7L1200.52 398.1C1204.32 395.6 1207.42 392.1 1209.62 388.1C1215.62 375.7 1215.72 361.4 1210.12 349Z" fill="url(#paint1_linear_35_2367)"/>
<path d="M1236.12 313.3C1234.62 292.3 1224.22 273 1207.52 260.3L1136.82 211C1136.82 211 1181.02 274.8 1218.42 338.2C1222.22 344.9 1224.72 352.2 1225.92 359.8C1226.42 363.2 1226.42 366.7 1225.92 370.2C1226.92 368.4 1228.82 364.7 1228.82 364.7C1232.62 357 1235.22 348.7 1236.42 340.2C1237.02 331.3 1237.02 322.3 1236.12 313.3Z" fill="#A0A8D4"/>
<path d="M1056.12 265.7C1058.32 261.7 1061.42 258.2 1065.22 255.7L1129.12 211.1L1063.62 319.4C1063.62 319.4 1057.92 309.7 1055.62 304.8C1050.02 292.3 1050.22 278 1056.12 265.7ZM1029.72 340.4C1031.22 361.4 1041.62 380.7 1058.32 393.4L1129.02 442.7C1129.02 442.7 1084.82 378.9 1047.42 315.5C1043.62 308.8 1041.12 301.5 1039.92 293.9C1039.42 290.5 1039.42 287 1039.92 283.5C1038.92 285.3 1037.02 289 1037.02 289C1033.22 296.7 1030.62 305 1029.42 313.5C1028.82 322.4 1028.82 331.5 1029.72 340.4ZM1210.02 349C1207.72 344.1 1202.02 334.4 1202.02 334.4L1136.62 442.7L1200.52 398.1C1204.32 395.6 1207.42 392.1 1209.62 388.1C1215.52 375.8 1215.72 361.5 1210.02 349ZM1236.02 313.4C1234.52 292.4 1224.12 273.1 1207.42 260.4L1136.82 211.1C1136.82 211.1 1181.02 274.9 1218.42 338.3C1222.22 345 1224.72 352.3 1225.92 359.9C1226.42 363.3 1226.42 366.8 1225.92 370.3C1226.92 368.5 1228.82 364.8 1228.82 364.8C1232.62 357.1 1235.22 348.8 1236.42 340.3C1237.12 331.3 1237.12 322.3 1236.22 313.3L1236.02 313.4Z" fill="black"/>
</g>
<path opacity="0.12" d="M1303.82 387.9V268.1C1303.82 267.8 1304.12 267.5 1304.42 267.5H1380.52C1380.82 267.5 1381.12 267.8 1381.12 268.1V283.4C1381.12 283.7 1380.82 284 1380.52 284H1322.22V319.3H1371.92C1372.22 319.3 1372.52 319.6 1372.52 319.9V335C1372.52 335.3 1372.22 335.6 1371.92 335.6H1322.22V372H1380.62C1380.92 372 1381.22 372.3 1381.22 372.6V387.9C1381.22 388.2 1380.92 388.5 1380.62 388.5H1304.52C1304.12 388.5 1303.82 388.3 1303.82 387.9ZM1493.22 388.2L1437.52 303.4V387.9C1437.52 388.2 1437.22 388.5 1436.92 388.5H1419.72C1419.42 388.5 1419.12 388.2 1419.12 387.9V268.2C1419.12 267.9 1419.42 267.6 1419.72 267.6H1435.62C1435.82 267.6 1436.02 267.7 1436.12 267.9L1491.92 352.6V268.3C1491.92 268 1492.22 267.7 1492.52 267.7H1509.72C1510.02 267.7 1510.32 268 1510.32 268.3V388C1510.32 388.3 1510.02 388.6 1509.72 388.6H1493.82C1493.52 388.5 1493.32 388.4 1493.22 388.2ZM1566.52 365.3V371C1573.92 372.6 1581.42 373.5 1588.92 373.6C1596.32 373.4 1603.72 372.6 1611.02 371V343.9L1548.72 322.1C1548.52 322 1548.32 321.8 1548.32 321.5V271.7C1548.32 271.4 1548.42 271.2 1548.72 271.1C1561.72 267.5 1575.12 265.5 1588.62 265.4C1602.12 265.6 1615.62 267.5 1628.72 271.1C1629.02 271.2 1629.12 271.4 1629.12 271.7V290.5C1629.12 290.8 1628.82 291.1 1628.52 291.1H1611.62C1611.32 291.1 1611.02 290.8 1611.02 290.5V284.8C1603.62 283.2 1596.12 282.3 1588.62 282.2C1581.22 282.3 1573.82 283.2 1566.52 284.8L1566.62 310.4L1628.72 332.1C1628.92 332.2 1629.12 332.4 1629.12 332.7V384.1C1629.12 384.4 1629.02 384.6 1628.72 384.7C1615.72 388.3 1602.32 390.3 1588.82 390.4C1575.32 390.2 1561.82 388.3 1548.72 384.7C1548.42 384.6 1548.32 384.4 1548.32 384.1V365.3C1548.32 365 1548.62 364.7 1548.92 364.7H1565.72C1566.02 364.6 1566.42 364.8 1566.52 365.1C1566.52 365.2 1566.52 365.2 1566.52 365.3Z" fill="black"/>
<g opacity="0.12" clip-path="url(#clip0_35_2367)">
<path d="M781 307.667C744.74 307.667 709.294 318.419 679.145 338.564C648.996 358.709 625.498 387.342 611.622 420.842C597.746 454.341 594.115 491.204 601.189 526.767C608.263 562.33 625.724 594.997 651.364 620.637C677.003 646.276 709.67 663.737 745.233 670.811C780.797 677.885 817.659 674.254 851.159 660.378C884.658 646.502 913.291 623.004 933.436 592.855C953.581 562.706 964.333 527.26 964.333 491C964.444 466.894 959.777 443.004 950.603 420.711C941.428 398.418 927.928 378.164 910.882 361.118C893.836 344.072 873.582 330.572 851.289 321.398C828.996 312.223 805.106 307.557 781 307.667ZM915.167 424.334H874.333C869.485 400.956 861.052 378.468 849.333 357.667C877.662 372.521 900.67 395.82 915.167 424.334ZM931 491C930.9 502.235 929.502 513.42 926.833 524.334H879.333C880.167 513.5 881 502.667 881 491C881 479.334 880.167 468.5 879.333 457.667H926.833C929.502 468.58 930.9 479.766 931 491ZM631 491C631.1 479.766 632.498 468.58 635.167 457.667H682.667C681.833 468.5 681 479.334 681 491C681 502.667 681.833 513.5 682.667 524.334H635.167C632.498 513.42 631.1 502.235 631 491ZM714.333 491C714.333 479.334 715.167 468.5 716 457.667H764.333V524.334H716C715.167 513.5 714.333 502.667 714.333 491ZM797.667 346.834C808.026 355.288 816.536 365.784 822.667 377.667C830.626 392.34 836.515 408.045 840.167 424.334H797.667V346.834ZM764.333 346.834V424.334H721.833C725.485 408.045 731.374 392.34 739.333 377.667C745.464 365.784 753.974 355.288 764.333 346.834ZM764.333 557.667V635.167C753.974 626.712 745.464 616.217 739.333 604.334C731.374 589.66 725.485 573.956 721.833 557.667H764.333ZM797.667 635.167V557.667H840.167C836.515 573.956 830.626 589.66 822.667 604.334C816.536 616.217 808.026 626.712 797.667 635.167ZM797.667 524.334V457.667H846C846.833 468.5 847.667 479.334 847.667 491C847.667 502.667 846.833 513.5 846 524.334H797.667ZM712.667 357.667C700.948 378.468 692.515 400.956 687.667 424.334H646.833C661.33 395.82 684.337 372.521 712.667 357.667ZM646.833 557.667H687.667C692.515 581.045 700.948 603.532 712.667 624.334C684.337 609.479 661.33 586.181 646.833 557.667ZM849.333 624.334C861.052 603.532 869.485 581.045 874.333 557.667H915.167C900.67 586.181 877.662 609.479 849.333 624.334Z" fill="black"/>
</g>
<g opacity="0.12">
<path d="M1458.89 599.047H1121.11C1103.93 599.047 1090 612.976 1090 630.158V665.52C1090 667.973 1091.99 669.964 1094.44 669.964H1485.56C1488.01 669.964 1490 667.974 1490 665.52V630.158C1490 612.976 1476.07 599.047 1458.89 599.047ZM1146.1 644.534C1140.56 644.534 1136.07 640.045 1136.07 634.506C1136.07 628.968 1140.56 624.478 1146.1 624.478C1151.64 624.478 1156.13 628.968 1156.13 634.506C1156.13 640.045 1151.64 644.534 1146.1 644.534ZM1178.25 644.534C1172.71 644.534 1168.22 640.045 1168.22 634.506C1168.22 628.968 1172.71 624.478 1178.25 624.478C1183.79 624.478 1188.28 628.968 1188.28 634.506C1188.28 640.045 1183.79 644.534 1178.25 644.534ZM1210.4 644.534C1204.86 644.534 1200.37 640.045 1200.37 634.506C1200.37 628.968 1204.86 624.478 1210.4 624.478C1215.94 624.478 1220.43 628.968 1220.43 634.506C1220.43 640.045 1215.94 644.534 1210.4 644.534Z" fill="black"/>
<path d="M1485.56 687.742H1094.44C1091.99 687.742 1090 689.732 1090 692.187V913.842C1090 931.024 1103.93 944.953 1121.11 944.953H1458.89C1476.07 944.953 1490 931.024 1490 913.842V692.187C1490 689.732 1488.01 687.742 1485.56 687.742ZM1229.22 795.151L1213.71 843.024C1211.4 850.145 1201.8 851.423 1197.75 845.056L1185.84 826.325L1173.92 845.058C1169.89 851.394 1160.27 850.162 1157.96 843.026L1142.45 795.152C1138.83 783.982 1155.74 778.484 1159.36 789.673L1169.05 819.584L1178.34 804.995C1181.82 799.516 1189.84 799.506 1193.34 804.995L1202.62 819.584L1212.31 789.672C1215.94 778.477 1232.84 783.983 1229.22 795.151ZM1333.39 795.151L1317.87 843.024C1315.57 850.143 1305.97 851.423 1301.92 845.056L1290 826.327L1278.08 845.058C1274.05 851.394 1264.44 850.162 1262.13 843.026L1246.62 795.152C1243 783.982 1259.9 778.484 1263.53 789.673L1273.22 819.584L1282.5 804.995C1285.99 799.516 1294.01 799.506 1297.5 804.995L1306.78 819.584L1316.47 789.673C1320.09 778.498 1337.01 783.963 1333.39 795.151ZM1437.55 795.151L1422.04 843.024C1419.73 850.155 1410.12 851.397 1406.08 845.056L1394.16 826.325L1382.25 845.056C1378.2 851.422 1368.6 850.145 1366.29 843.024L1350.78 795.151C1347.16 783.979 1364.07 778.482 1367.69 789.671L1377.38 819.583L1386.66 804.995C1390.15 799.516 1398.17 799.505 1401.66 804.995L1410.95 819.583L1420.64 789.672C1424.26 778.498 1441.17 783.963 1437.55 795.151Z" fill="black"/>
</g>
<defs>
<linearGradient id="paint0_linear_35_2367" x1="1132.01" y1="213.681" x2="1047.92" y2="304.832" gradientUnits="userSpaceOnUse">
<stop offset="0.58" stop-color="#A0A8D4"/>
<stop offset="0.73" stop-color="#8791C7"/>
<stop offset="0.91" stop-color="#6470B4"/>
</linearGradient>
<linearGradient id="paint1_linear_35_2367" x1="1133.82" y1="440.063" x2="1217.91" y2="348.93" gradientUnits="userSpaceOnUse">
<stop offset="0.58" stop-color="#A0A8D4"/>
<stop offset="0.73" stop-color="#8791C7"/>
<stop offset="0.91" stop-color="#6470B4"/>
</linearGradient>
<clipPath id="clip0_35_2367">
<rect width="400" height="400" fill="white" transform="translate(581 291)"/>
</clipPath>
</defs>
</svg>
