<svg width="715" height="1383" viewBox="0 0 715 1383" fill="none" xmlns="http://www.w3.org/2000/svg">
<g clip-path="url(#clip0_50_3011)">
<rect width="715" height="1383" fill="white"/>
<g opacity="0.12">
<path d="M506.718 498.8C509.018 503.7 514.718 513.4 514.718 513.4L580.218 405.1L516.218 449.7C512.418 452.2 509.318 455.7 507.118 459.7C501.218 472 501.118 486.3 506.718 498.8Z" fill="url(#paint0_linear_50_3011)"/>
<path d="M480.718 534.4C482.218 555.4 492.618 574.7 509.318 587.4L580.018 636.7C580.018 636.7 535.818 572.9 498.418 509.5C494.618 502.8 492.118 495.5 490.918 487.9C490.418 484.5 490.418 481 490.918 477.5C489.918 479.3 488.018 483 488.018 483C484.218 490.7 481.618 499 480.418 507.5C479.818 516.4 479.818 525.5 480.718 534.4Z" fill="#A0A8D4"/>
<path d="M661.118 543C658.818 538.1 653.118 528.4 653.118 528.4L587.618 636.7L651.518 592.1C655.318 589.6 658.418 586.1 660.618 582.1C666.618 569.7 666.718 555.4 661.118 543Z" fill="url(#paint1_linear_50_3011)"/>
<path d="M687.118 507.3C685.618 486.3 675.218 467 658.518 454.3L587.818 405C587.818 405 632.018 468.8 669.418 532.2C673.218 538.9 675.718 546.2 676.918 553.8C677.418 557.2 677.418 560.7 676.918 564.2C677.918 562.4 679.818 558.7 679.818 558.7C683.618 551 686.218 542.7 687.418 534.2C688.018 525.3 688.018 516.3 687.118 507.3Z" fill="#A0A8D4"/>
<path d="M507.118 459.7C509.318 455.7 512.418 452.2 516.218 449.7L580.118 405.1L514.618 513.4C514.618 513.4 508.918 503.7 506.618 498.8C501.018 486.3 501.218 472 507.118 459.7ZM480.718 534.4C482.218 555.4 492.618 574.7 509.318 587.4L580.018 636.7C580.018 636.7 535.818 572.9 498.418 509.5C494.618 502.8 492.118 495.5 490.918 487.9C490.418 484.5 490.418 481 490.918 477.5C489.918 479.3 488.018 483 488.018 483C484.218 490.7 481.618 499 480.418 507.5C479.818 516.4 479.818 525.5 480.718 534.4ZM661.018 543C658.718 538.1 653.018 528.4 653.018 528.4L587.618 636.7L651.518 592.1C655.318 589.6 658.418 586.1 660.618 582.1C666.518 569.8 666.718 555.5 661.018 543ZM687.018 507.4C685.518 486.4 675.118 467.1 658.418 454.4L587.818 405.1C587.818 405.1 632.018 468.9 669.418 532.3C673.218 539 675.718 546.3 676.918 553.9C677.418 557.3 677.418 560.8 676.918 564.3C677.918 562.5 679.818 558.8 679.818 558.8C683.618 551.1 686.218 542.8 687.418 534.3C688.118 525.3 688.118 516.3 687.218 507.3L687.018 507.4Z" fill="black"/>
</g>
<g opacity="0.12" clip-path="url(#clip1_50_3011)">
<path d="M181 599.667C144.74 599.667 109.295 610.419 79.1455 630.564C48.9965 650.709 25.4982 679.342 11.6221 712.842C-2.25394 746.341 -5.88455 783.204 1.18941 818.767C8.26336 854.33 25.7242 886.997 51.3638 912.637C77.0034 938.276 109.67 955.737 145.233 962.811C180.797 969.885 217.659 966.254 251.159 952.378C284.658 938.502 313.291 915.004 333.436 884.855C353.581 854.706 364.333 819.26 364.333 783C364.444 758.894 359.777 735.004 350.603 712.711C341.428 690.418 327.928 670.164 310.882 653.118C293.836 636.072 273.582 622.572 251.289 613.398C228.996 604.223 205.107 599.557 181 599.667ZM315.167 716.334H274.333C269.485 692.956 261.052 670.468 249.333 649.667C277.663 664.521 300.67 687.82 315.167 716.334ZM331 783C330.9 794.235 329.502 805.42 326.833 816.334H279.333C280.167 805.5 281 794.667 281 783C281 771.334 280.167 760.5 279.333 749.667H326.833C329.502 760.58 330.9 771.766 331 783ZM31 783C31.1003 771.766 32.4985 760.58 35.1667 749.667H82.6667C81.8334 760.5 81 771.334 81 783C81 794.667 81.8334 805.5 82.6667 816.334H35.1667C32.4985 805.42 31.1003 794.235 31 783ZM114.333 783C114.333 771.334 115.167 760.5 116 749.667H164.333V816.334H116C115.167 805.5 114.333 794.667 114.333 783ZM197.667 638.834C208.026 647.288 216.536 657.784 222.667 669.667C230.626 684.34 236.515 700.045 240.167 716.334H197.667V638.834ZM164.333 638.834V716.334H121.833C125.485 700.045 131.374 684.34 139.333 669.667C145.464 657.784 153.974 647.288 164.333 638.834ZM164.333 849.667V927.167C153.974 918.712 145.464 908.217 139.333 896.334C131.374 881.66 125.485 865.956 121.833 849.667H164.333ZM197.667 927.167V849.667H240.167C236.515 865.956 230.626 881.66 222.667 896.334C216.536 908.217 208.026 918.712 197.667 927.167ZM197.667 816.334V749.667H246C246.833 760.5 247.667 771.334 247.667 783C247.667 794.667 246.833 805.5 246 816.334H197.667ZM112.667 649.667C100.948 670.468 92.515 692.956 87.6667 716.334H46.8334C61.3302 687.82 84.3375 664.521 112.667 649.667ZM46.8334 849.667H87.6667C92.515 873.045 100.948 895.532 112.667 916.334C84.3375 901.479 61.3302 878.181 46.8334 849.667ZM249.333 916.334C261.052 895.532 269.485 873.045 274.333 849.667H315.167C300.67 878.181 277.663 901.479 249.333 916.334Z" fill="black"/>
</g>
<g opacity="0.12">
<path d="M683.889 966.047H346.111C328.929 966.047 315 979.976 315 997.158V1032.52C315 1034.97 316.99 1036.96 319.445 1036.96H710.555C713.011 1036.96 715 1034.97 715 1032.52V997.158C715 979.976 701.071 966.047 683.889 966.047ZM371.098 1011.53C365.559 1011.53 361.07 1007.04 361.07 1001.51C361.07 995.968 365.559 991.478 371.098 991.478C376.636 991.478 381.126 995.968 381.126 1001.51C381.127 1007.04 376.637 1011.53 371.098 1011.53ZM403.248 1011.53C397.709 1011.53 393.22 1007.04 393.22 1001.51C393.22 995.968 397.709 991.478 403.248 991.478C408.786 991.478 413.276 995.968 413.276 1001.51C413.277 1007.04 408.786 1011.53 403.248 1011.53ZM435.398 1011.53C429.859 1011.53 425.37 1007.04 425.37 1001.51C425.37 995.968 429.859 991.478 435.398 991.478C440.937 991.478 445.426 995.968 445.426 1001.51C445.426 1007.04 440.936 1011.53 435.398 1011.53Z" fill="black"/>
<path d="M710.555 1054.74H319.445C316.991 1054.74 315 1056.73 315 1059.19V1280.84C315 1298.02 328.929 1311.95 346.111 1311.95H683.889C701.071 1311.95 715 1298.02 715 1280.84V1059.19C715 1056.73 713.011 1054.74 710.555 1054.74ZM454.221 1162.15L438.708 1210.02C436.402 1217.14 426.804 1218.42 422.752 1212.06L410.836 1193.33L398.919 1212.06C394.885 1218.39 385.274 1217.16 382.963 1210.03L367.452 1162.15C363.83 1150.98 380.737 1145.48 384.362 1156.67L394.054 1186.58L403.335 1172C406.821 1166.52 414.843 1166.51 418.335 1172L427.616 1186.58L437.309 1156.67C440.937 1145.48 457.841 1150.98 454.221 1162.15ZM558.385 1162.15L542.873 1210.02C540.568 1217.14 530.97 1218.42 526.918 1212.06L515 1193.33L503.084 1212.06C499.05 1218.39 489.439 1217.16 487.128 1210.03L471.616 1162.15C467.995 1150.98 484.902 1145.48 488.527 1156.67L498.219 1186.58L507.5 1172C510.986 1166.52 519.008 1166.51 522.5 1172L531.781 1186.58L541.473 1156.67C545.093 1145.5 562.012 1150.96 558.385 1162.15ZM662.548 1162.15L647.037 1210.02C644.727 1217.16 635.116 1218.4 631.081 1212.06L619.165 1193.33L607.248 1212.06C603.197 1218.42 593.599 1217.15 591.293 1210.02L575.78 1162.15C572.159 1150.98 589.066 1145.48 592.691 1156.67L602.383 1186.58L611.664 1171.99C615.15 1166.52 623.172 1166.51 626.664 1171.99L635.945 1186.58L645.637 1156.67C649.257 1145.5 666.175 1150.96 662.548 1162.15Z" fill="black"/>
</g>
</g>
<defs>
<linearGradient id="paint0_linear_50_3011" x1="583.006" y1="407.681" x2="498.925" y2="498.832" gradientUnits="userSpaceOnUse">
<stop offset="0.58" stop-color="#A0A8D4"/>
<stop offset="0.73" stop-color="#8791C7"/>
<stop offset="0.91" stop-color="#6470B4"/>
</linearGradient>
<linearGradient id="paint1_linear_50_3011" x1="584.817" y1="634.063" x2="668.911" y2="542.93" gradientUnits="userSpaceOnUse">
<stop offset="0.58" stop-color="#A0A8D4"/>
<stop offset="0.73" stop-color="#8791C7"/>
<stop offset="0.91" stop-color="#6470B4"/>
</linearGradient>
<clipPath id="clip0_50_3011">
<rect width="715" height="1383" fill="white"/>
</clipPath>
<clipPath id="clip1_50_3011">
<rect width="400" height="400" fill="white" transform="translate(-19 583)"/>
</clipPath>
</defs>
</svg>
