<svg width="715" height="1200" viewBox="0 0 715 1200" fill="none" xmlns="http://www.w3.org/2000/svg">
<g clip-path="url(#clip0_35_2515)">
<g opacity="0.12">
<path d="M505.718 341.8C508.018 346.7 513.718 356.4 513.718 356.4L579.218 248.1L515.218 292.7C511.418 295.2 508.318 298.7 506.118 302.7C500.218 315 500.118 329.3 505.718 341.8Z" fill="url(#paint0_linear_35_2515)"/>
<path d="M479.718 377.4C481.218 398.4 491.618 417.7 508.318 430.4L579.018 479.7C579.018 479.7 534.818 415.9 497.418 352.5C493.618 345.8 491.118 338.5 489.918 330.9C489.418 327.5 489.418 324 489.918 320.5C488.918 322.3 487.018 326 487.018 326C483.218 333.7 480.618 342 479.418 350.5C478.818 359.4 478.818 368.5 479.718 377.4Z" fill="#A0A8D4"/>
<path d="M660.118 386C657.818 381.1 652.118 371.4 652.118 371.4L586.618 479.7L650.518 435.1C654.318 432.6 657.418 429.1 659.618 425.1C665.618 412.7 665.718 398.4 660.118 386Z" fill="url(#paint1_linear_35_2515)"/>
<path d="M686.118 350.3C684.618 329.3 674.218 310 657.518 297.3L586.818 248C586.818 248 631.018 311.8 668.418 375.2C672.218 381.9 674.718 389.2 675.918 396.8C676.418 400.2 676.418 403.7 675.918 407.2C676.918 405.4 678.818 401.7 678.818 401.7C682.618 394 685.218 385.7 686.418 377.2C687.018 368.3 687.018 359.3 686.118 350.3Z" fill="#A0A8D4"/>
<path d="M506.118 302.7C508.318 298.7 511.418 295.2 515.218 292.7L579.118 248.1L513.618 356.4C513.618 356.4 507.918 346.7 505.618 341.8C500.018 329.3 500.218 315 506.118 302.7ZM479.718 377.4C481.218 398.4 491.618 417.7 508.318 430.4L579.018 479.7C579.018 479.7 534.818 415.9 497.418 352.5C493.618 345.8 491.118 338.5 489.918 330.9C489.418 327.5 489.418 324 489.918 320.5C488.918 322.3 487.018 326 487.018 326C483.218 333.7 480.618 342 479.418 350.5C478.818 359.4 478.818 368.5 479.718 377.4ZM660.018 386C657.718 381.1 652.018 371.4 652.018 371.4L586.618 479.7L650.518 435.1C654.318 432.6 657.418 429.1 659.618 425.1C665.518 412.8 665.718 398.5 660.018 386ZM686.018 350.4C684.518 329.4 674.118 310.1 657.418 297.4L586.818 248.1C586.818 248.1 631.018 311.9 668.418 375.3C672.218 382 674.718 389.3 675.918 396.9C676.418 400.3 676.418 403.8 675.918 407.3C676.918 405.5 678.818 401.8 678.818 401.8C682.618 394.1 685.218 385.8 686.418 377.3C687.118 368.3 687.118 359.3 686.218 350.3L686.018 350.4Z" fill="black"/>
</g>
<g opacity="0.12" clip-path="url(#clip1_35_2515)">
<path d="M180 442.667C143.74 442.667 108.294 453.419 78.1454 473.564C47.9964 493.709 24.4981 522.342 10.622 555.842C-3.25406 589.341 -6.88467 626.204 0.189285 661.767C7.26324 697.33 24.7241 729.997 50.3637 755.637C76.0033 781.276 108.67 798.737 144.233 805.811C179.797 812.885 216.659 809.254 250.159 795.378C283.658 781.502 312.291 758.004 332.436 727.855C352.581 697.706 363.333 662.26 363.333 626C363.444 601.894 358.777 578.004 349.603 555.711C340.428 533.418 326.928 513.164 309.882 496.118C292.836 479.072 272.582 465.572 250.289 456.398C227.996 447.223 204.106 442.557 180 442.667ZM314.167 559.334H273.333C268.485 535.956 260.052 513.468 248.333 492.667C276.662 507.521 299.67 530.82 314.167 559.334ZM330 626C329.9 637.235 328.502 648.42 325.833 659.334H278.333C279.167 648.5 280 637.667 280 626C280 614.334 279.167 603.5 278.333 592.667H325.833C328.502 603.58 329.9 614.766 330 626ZM29.9999 626C30.1002 614.766 31.4983 603.58 34.1666 592.667H81.6666C80.8332 603.5 79.9999 614.334 79.9999 626C79.9999 637.667 80.8332 648.5 81.6666 659.334H34.1666C31.4983 648.42 30.1002 637.235 29.9999 626ZM113.333 626C113.333 614.334 114.167 603.5 115 592.667H163.333V659.334H115C114.167 648.5 113.333 637.667 113.333 626ZM196.667 481.834C207.026 490.288 215.536 500.784 221.667 512.667C229.626 527.34 235.515 543.045 239.167 559.334H196.667V481.834ZM163.333 481.834V559.334H120.833C124.485 543.045 130.374 527.34 138.333 512.667C144.464 500.784 152.974 490.288 163.333 481.834ZM163.333 692.667V770.167C152.974 761.712 144.464 751.217 138.333 739.334C130.374 724.66 124.485 708.956 120.833 692.667H163.333ZM196.667 770.167V692.667H239.167C235.515 708.956 229.626 724.66 221.667 739.334C215.536 751.217 207.026 761.712 196.667 770.167ZM196.667 659.334V592.667H245C245.833 603.5 246.667 614.334 246.667 626C246.667 637.667 245.833 648.5 245 659.334H196.667ZM111.667 492.667C99.9478 513.468 91.5149 535.956 86.6666 559.334H45.8333C60.3301 530.82 83.3373 507.521 111.667 492.667ZM45.8333 692.667H86.6666C91.5149 716.045 99.9478 738.532 111.667 759.334C83.3373 744.479 60.3301 721.181 45.8333 692.667ZM248.333 759.334C260.052 738.532 268.485 716.045 273.333 692.667H314.167C299.67 721.181 276.662 744.479 248.333 759.334Z" fill="black"/>
</g>
<g opacity="0.12">
<path d="M682.889 809.047H345.111C327.929 809.047 314 822.976 314 840.158V875.52C314 877.973 315.99 879.964 318.445 879.964H709.555C712.011 879.964 714 877.974 714 875.52V840.158C714 822.976 700.071 809.047 682.889 809.047ZM370.098 854.534C364.559 854.534 360.07 850.045 360.07 844.506C360.07 838.968 364.559 834.478 370.098 834.478C375.636 834.478 380.126 838.968 380.126 844.506C380.127 850.045 375.637 854.534 370.098 854.534ZM402.248 854.534C396.709 854.534 392.22 850.045 392.22 844.506C392.22 838.968 396.709 834.478 402.248 834.478C407.786 834.478 412.276 838.968 412.276 844.506C412.277 850.045 407.786 854.534 402.248 854.534ZM434.398 854.534C428.859 854.534 424.37 850.045 424.37 844.506C424.37 838.968 428.859 834.478 434.398 834.478C439.937 834.478 444.426 838.968 444.426 844.506C444.426 850.045 439.936 854.534 434.398 854.534Z" fill="black"/>
<path d="M709.555 897.742H318.445C315.991 897.742 314 899.732 314 902.187V1123.84C314 1141.02 327.929 1154.95 345.111 1154.95H682.889C700.071 1154.95 714 1141.02 714 1123.84V902.187C714 899.732 712.011 897.742 709.555 897.742ZM453.221 1005.15L437.708 1053.02C435.402 1060.14 425.804 1061.42 421.752 1055.06L409.836 1036.33L397.919 1055.06C393.885 1061.39 384.274 1060.16 381.963 1053.03L366.452 1005.15C362.83 993.982 379.737 988.484 383.362 999.673L393.054 1029.58L402.335 1015C405.821 1009.52 413.843 1009.51 417.335 1015L426.616 1029.58L436.309 999.672C439.937 988.477 456.841 993.983 453.221 1005.15ZM557.385 1005.15L541.873 1053.02C539.568 1060.14 529.97 1061.42 525.918 1055.06L514 1036.33L502.084 1055.06C498.05 1061.39 488.439 1060.16 486.128 1053.03L470.616 1005.15C466.995 993.982 483.902 988.484 487.527 999.673L497.219 1029.58L506.5 1015C509.986 1009.52 518.008 1009.51 521.5 1015L530.781 1029.58L540.473 999.673C544.093 988.498 561.012 993.963 557.385 1005.15ZM661.548 1005.15L646.037 1053.02C643.727 1060.16 634.116 1061.4 630.081 1055.06L618.165 1036.33L606.248 1055.06C602.197 1061.42 592.599 1060.15 590.293 1053.02L574.78 1005.15C571.159 993.979 588.066 988.482 591.691 999.671L601.383 1029.58L610.664 1014.99C614.15 1009.52 622.172 1009.51 625.664 1014.99L634.945 1029.58L644.637 999.672C648.257 988.498 665.175 993.963 661.548 1005.15Z" fill="black"/>
</g>
</g>
<defs>
<linearGradient id="paint0_linear_35_2515" x1="582.006" y1="250.681" x2="497.925" y2="341.832" gradientUnits="userSpaceOnUse">
<stop offset="0.58" stop-color="#A0A8D4"/>
<stop offset="0.73" stop-color="#8791C7"/>
<stop offset="0.91" stop-color="#6470B4"/>
</linearGradient>
<linearGradient id="paint1_linear_35_2515" x1="583.817" y1="477.063" x2="667.911" y2="385.93" gradientUnits="userSpaceOnUse">
<stop offset="0.58" stop-color="#A0A8D4"/>
<stop offset="0.73" stop-color="#8791C7"/>
<stop offset="0.91" stop-color="#6470B4"/>
</linearGradient>
<clipPath id="clip0_35_2515">
<rect width="714.24" height="1200" fill="white"/>
</clipPath>
<clipPath id="clip1_35_2515">
<rect width="400" height="400" fill="white" transform="translate(-20 426)"/>
</clipPath>
</defs>
</svg>
