<svg width="715" height="1383" viewBox="0 0 715 1383" fill="none" xmlns="http://www.w3.org/2000/svg">
<g clip-path="url(#clip0_50_2902)">
<rect width="715" height="1383" fill="white"/>
<path d="M261.839 407.653C241.626 406.608 217.011 417.443 189.184 439.647C134.501 483.318 74.6494 567.161 42.6852 644.697C35.708 661.642 32.9778 669.764 27.9976 688.35C22.9344 707.246 21.5006 714.664 20.3437 728.077C16.9585 768.616 29.3212 795.446 56.8675 807.365C69.9708 813.034 84.164 814.015 99.6539 810.363C114.375 806.893 127.42 801.203 146.698 789.823C163.604 779.855 175.131 771.766 205.375 748.605C215.076 741.134 225.891 733.02 229.422 730.591L235.843 726.058L362.917 760.107L489.99 794.157L493.285 801.292C495.128 805.162 500.836 818.588 506.065 831.112C521.412 868.093 527.52 880.852 538.564 899.582C547.956 915.379 554.888 924.651 564.235 933.796C576.443 945.699 589.556 952.367 604.334 954.058C611.263 954.863 617.197 954.627 623.591 953.297C663.383 945.145 690.907 891.209 699.775 804.163C706.906 734.139 699.618 651.784 680.996 590.85C674.964 571.194 668.483 555.901 660.033 541.131C650.019 523.728 640.883 513.589 628.842 506.434C625.078 504.152 624.82 504.083 580.936 492.158C538.085 480.511 536.728 480.202 533.158 480.297C528.405 480.462 520.905 482.824 508.359 488.095C497.069 492.817 491.068 494.75 486.701 495.129C483.934 495.329 481.078 494.619 437.204 482.863C393.33 471.107 390.502 470.294 388.205 468.737C384.613 466.226 380.382 461.551 372.966 451.816C364.774 441.044 359.459 435.249 355.478 432.743C352.537 430.904 350.949 430.423 309.438 419.356C269.957 408.777 266.105 407.855 261.839 407.653ZM591.538 564.832C596.618 567.577 600.252 573.033 600.701 578.797C600.974 581.914 599.508 587.387 597.713 589.949C590.215 600.778 573.943 599.904 567.893 588.378C565.502 583.864 565.202 580.85 566.599 575.636C567.498 572.28 568.186 570.749 569.497 569.163C572.912 565.098 578.156 562.685 583.58 562.7C586.902 562.705 588.142 563.037 591.538 564.832ZM263.159 504.013L258.248 522.341L276.594 527.257L294.939 532.173L291.571 544.329L288.165 556.42L269.989 551.495L251.747 546.607L246.705 565.01L241.597 583.452L229.308 580.325L216.981 577.133L221.961 558.546L226.942 539.96L208.596 535.045L190.251 530.129L193.502 517.996L196.753 505.864L215.098 510.779L233.443 515.695L238.354 497.367L243.265 479.039L255.668 482.362L268.07 485.685L263.159 504.013ZM539.129 595.058C544.365 597.844 548.194 604.016 548.306 609.801C548.378 613.251 546.281 619.219 544.111 621.736C541.637 624.559 537.407 626.912 533.567 627.598C528.921 628.401 523.147 626.798 519.59 623.743C516.622 621.177 514.139 616.804 513.501 612.981C512.812 609.144 514.638 602.329 517.088 599.389C520.583 595.234 526.192 592.698 531.626 592.881C534.648 592.972 535.978 593.383 539.129 595.058ZM625.794 619.718C630.859 624.174 632.765 630.495 630.981 637.155C630.081 640.511 629.546 641.474 627.311 644.029C622.667 649.37 616.459 651.248 609.689 649.434C602.882 647.555 598.496 642.838 597.131 635.943C596.473 632.612 596.477 631.562 597.39 628.155C598.272 625.071 598.904 623.746 600.598 621.765C607.139 613.89 618.067 613 625.794 619.718ZM573.016 650.287C575.895 652.774 578.199 656.988 578.888 660.825C579.635 665.065 578.106 671.184 575.471 674.407C573.007 677.399 568.721 679.958 564.816 680.682C562.004 681.257 560.915 681.186 557.142 680.176C553.37 679.165 552.392 678.681 550.192 676.764C542.696 670.218 542.153 658.397 549.12 651.41C551.483 649 556.796 646.328 559.798 646.081C563.437 645.728 570.317 647.959 573.016 650.287ZM322.304 654.325C334.052 660.295 341.824 673.666 341.263 687.128C340.89 695.55 336.863 704.376 330.703 710.417C326.784 714.292 319.792 718.063 314.322 719.253C308.032 720.611 303.504 720.56 297.509 718.953C284.266 715.46 274.627 705.131 272.111 691.785C270.979 685.671 271.141 682.173 272.798 676.198C276.405 662.943 286.472 653.689 300.025 651.067C307.445 649.625 315.329 650.796 322.304 654.325ZM465.346 692.653C472.024 696.048 478.348 702.833 481.322 709.717C484.595 717.345 485.019 724.652 482.778 733.016C480.167 742.553 474.761 749.294 465.803 754.198C457.566 758.687 449.219 759.659 440.138 757.171C431.005 754.668 423.829 749.204 419.226 741.164C414.585 733.059 413.324 725.362 415.183 716.564C416.523 710.116 418.898 705.385 423.355 700.327C429.862 692.995 440.983 688.283 450.707 688.786C455.363 688.982 461.254 690.561 465.346 692.653Z" fill="black" fill-opacity="0.09"/>
<path d="M154.8 1020C128.816 1020.9 103.943 1030.76 84.4 1047.9H118.96L154.8 1029.47V1020ZM162.48 1020V1029.47L198.32 1047.9H232.88C213.337 1030.76 188.464 1020.9 162.48 1020ZM76.464 1055.58C64.7141 1068.04 55.959 1083.01 50.864 1099.36L71.344 1134.69L100.784 1130.08L127.664 1083.74L116.912 1055.58H76.464ZM200.368 1055.58L189.616 1083.74L216.496 1130.08L245.936 1134.69L266.16 1099.62C261.175 1083.2 252.507 1068.14 240.816 1055.58H200.368ZM136.368 1088.86L110.512 1133.92L133.296 1173.34H183.984L206.768 1133.92L180.912 1088.86H136.368ZM48.304 1110.11C46.7982 1117.44 46.0264 1124.9 46 1132.38C46.021 1150.87 50.5928 1169.07 59.312 1185.38L68.784 1179.74L66.992 1142.62L48.304 1110.11ZM268.976 1110.37L250.288 1142.62L248.496 1179.74L257.968 1185.38C266.687 1169.07 271.259 1150.87 271.28 1132.38C271.237 1124.99 270.465 1117.61 268.976 1110.37ZM133.296 1183.58L113.584 1207.9L133.296 1241.95C141.6 1243.93 150.103 1244.96 158.64 1245.02C167.177 1244.96 175.68 1243.93 183.984 1241.95L203.696 1207.9L183.984 1183.58H133.296ZM72.112 1186.91L63.152 1192.03C76.9128 1214.12 97.8993 1230.77 122.544 1239.14L104.624 1207.65L72.112 1186.91ZM245.168 1186.91L212.656 1207.65L194.736 1238.88C219.342 1230.58 240.323 1214.03 254.128 1192.03L245.168 1186.91Z" fill="black" fill-opacity="0.09"/>
<path d="M271 828L271 887.533L473.051 1089.58L445.592 1117.04L418.416 1126.11C413.949 1127.59 411.241 1131.88 411.813 1136.55C412.386 1141.22 416.058 1144.73 420.753 1145.09L470.862 1148.94L511.162 1108.64L580.895 1178.37L580.895 1196.68C580.895 1205.13 587.766 1212 596.214 1212L639.68 1212C648.128 1212 655 1205.13 655 1196.68L655 1153.21C655 1144.77 648.128 1137.89 639.68 1137.89L616.634 1137.89L549.265 1070.53L589.828 1029.96L582.114 983.709C581.353 979.094 577.553 975.746 572.885 975.557C568.216 975.368 564.16 978.4 563.022 982.941L557.471 1005.15L530.234 1032.39L328.189 828L271 828ZM639.68 1151.37C640.698 1151.37 641.526 1152.2 641.526 1153.21L641.526 1196.68C641.526 1197.7 640.698 1198.53 639.68 1198.53L596.214 1198.53C595.197 1198.53 594.368 1197.7 594.368 1196.68L594.368 1191.84L594.368 1153.21C594.368 1152.2 595.197 1151.37 596.214 1151.37L630.107 1151.37L639.68 1151.37ZM597.582 1137.89L596.214 1137.89C587.766 1137.89 580.895 1144.77 580.895 1153.21L580.895 1159.32L520.681 1099.1L530.227 1089.56L539.733 1080.05L597.582 1137.89ZM571.766 1003.55L575.404 1025.34L539.746 1061L520.661 1080.09L465.722 1135.02L440.149 1133.06L452.881 1128.81L482.591 1099.1L511.054 1070.64L569.658 1012.04L571.766 1003.55ZM520.708 1041.91L501.696 1060.93L482.571 1080.05L284.474 881.955L284.474 853.371L482.577 1051.47C485.211 1054.1 489.469 1054.1 492.103 1051.47C493.417 1050.15 494.077 1048.43 494.077 1046.7C494.077 1044.98 493.417 1043.26 492.103 1041.94L291.628 841.474L322.564 841.474L520.708 1041.91Z" fill="black" fill-opacity="0.09"/>
</g>
<defs>
<clipPath id="clip0_50_2902">
<rect width="715" height="1383" fill="white"/>
</clipPath>
</defs>
</svg>
