<svg width="1698" height="1000" viewBox="0 0 1698 1000" fill="none" xmlns="http://www.w3.org/2000/svg">
<path d="M1137.84 106.653C1117.63 105.608 1093.01 116.443 1065.18 138.647C1010.5 182.318 950.649 266.161 918.685 343.697C911.708 360.642 908.978 368.764 903.998 387.35C898.934 406.246 897.501 413.664 896.344 427.077C892.959 467.616 905.321 494.446 932.868 506.365C945.971 512.034 960.164 513.015 975.654 509.363C990.375 505.893 1003.42 500.203 1022.7 488.823C1039.6 478.855 1051.13 470.766 1081.38 447.605C1091.08 440.134 1101.89 432.02 1105.42 429.591L1111.84 425.058L1238.92 459.107L1365.99 493.157L1369.28 500.292C1371.13 504.162 1376.84 517.588 1382.06 530.112C1397.41 567.093 1403.52 579.852 1414.56 598.582C1423.96 614.379 1430.89 623.651 1440.23 632.796C1452.44 644.699 1465.56 651.367 1480.33 653.058C1487.26 653.863 1493.2 653.627 1499.59 652.297C1539.38 644.145 1566.91 590.209 1575.77 503.163C1582.91 433.139 1575.62 350.784 1557 289.85C1550.96 270.194 1544.48 254.901 1536.03 240.131C1526.02 222.728 1516.88 212.589 1504.84 205.434C1501.08 203.152 1500.82 203.083 1456.94 191.158C1414.09 179.511 1412.73 179.202 1409.16 179.297C1404.41 179.462 1396.9 181.824 1384.36 187.095C1373.07 191.817 1367.07 193.75 1362.7 194.129C1359.93 194.329 1357.08 193.619 1313.2 181.863C1269.33 170.107 1266.5 169.294 1264.2 167.737C1260.61 165.226 1256.38 160.551 1248.97 150.816C1240.77 140.044 1235.46 134.249 1231.48 131.743C1228.54 129.904 1226.95 129.423 1185.44 118.356C1145.96 107.777 1142.11 106.855 1137.84 106.653ZM1467.54 263.832C1472.62 266.577 1476.25 272.033 1476.7 277.797C1476.97 280.914 1475.51 286.387 1473.71 288.949C1466.21 299.778 1449.94 298.904 1443.89 287.378C1441.5 282.864 1441.2 279.85 1442.6 274.636C1443.5 271.28 1444.19 269.749 1445.5 268.163C1448.91 264.098 1454.16 261.685 1459.58 261.7C1462.9 261.705 1464.14 262.037 1467.54 263.832ZM1139.16 203.013L1134.25 221.341L1152.59 226.257L1170.94 231.173L1167.57 243.329L1164.17 255.42L1145.99 250.495L1127.75 245.607L1122.7 264.01L1117.6 282.452L1105.31 279.325L1092.98 276.133L1097.96 257.546L1102.94 238.96L1084.6 234.045L1066.25 229.129L1069.5 216.996L1072.75 204.864L1091.1 209.779L1109.44 214.695L1114.35 196.367L1119.27 178.039L1131.67 181.362L1144.07 184.685L1139.16 203.013ZM1415.13 294.058C1420.36 296.844 1424.19 303.016 1424.31 308.801C1424.38 312.251 1422.28 318.219 1420.11 320.736C1417.64 323.559 1413.41 325.912 1409.57 326.598C1404.92 327.401 1399.15 325.798 1395.59 322.743C1392.62 320.177 1390.14 315.804 1389.5 311.981C1388.81 308.144 1390.64 301.329 1393.09 298.389C1396.58 294.234 1402.19 291.698 1407.63 291.881C1410.65 291.972 1411.98 292.383 1415.13 294.058ZM1501.79 318.718C1506.86 323.174 1508.77 329.495 1506.98 336.155C1506.08 339.511 1505.55 340.474 1503.31 343.029C1498.67 348.37 1492.46 350.248 1485.69 348.434C1478.88 346.555 1474.5 341.838 1473.13 334.943C1472.47 331.612 1472.48 330.562 1473.39 327.155C1474.27 324.071 1474.9 322.746 1476.6 320.765C1483.14 312.89 1494.07 312 1501.79 318.718ZM1449.02 349.287C1451.89 351.774 1454.2 355.988 1454.89 359.825C1455.64 364.065 1454.11 370.184 1451.47 373.407C1449.01 376.399 1444.72 378.958 1440.82 379.682C1438 380.257 1436.91 380.186 1433.14 379.176C1429.37 378.165 1428.39 377.681 1426.19 375.764C1418.7 369.218 1418.15 357.397 1425.12 350.41C1427.48 348 1432.8 345.328 1435.8 345.081C1439.44 344.728 1446.32 346.959 1449.02 349.287ZM1198.3 353.325C1210.05 359.295 1217.82 372.666 1217.26 386.128C1216.89 394.55 1212.86 403.376 1206.7 409.417C1202.78 413.292 1195.79 417.063 1190.32 418.253C1184.03 419.611 1179.5 419.56 1173.51 417.953C1160.27 414.46 1150.63 404.131 1148.11 390.785C1146.98 384.671 1147.14 381.173 1148.8 375.198C1152.4 361.943 1162.47 352.689 1176.02 350.067C1183.45 348.625 1191.33 349.796 1198.3 353.325ZM1341.35 391.653C1348.02 395.048 1354.35 401.833 1357.32 408.717C1360.6 416.345 1361.02 423.652 1358.78 432.016C1356.17 441.553 1350.76 448.294 1341.8 453.198C1333.57 457.687 1325.22 458.659 1316.14 456.171C1307 453.668 1299.83 448.204 1295.23 440.164C1290.58 432.059 1289.32 424.362 1291.18 415.564C1292.52 409.116 1294.9 404.385 1299.36 399.327C1305.86 391.995 1316.98 387.283 1326.71 387.786C1331.36 387.982 1337.25 389.561 1341.35 391.653Z" fill="black" fill-opacity="0.1"/>
<path d="M759.8 595C733.816 595.898 708.943 605.757 689.4 622.904H723.96L759.8 604.472V595ZM767.48 595V604.472L803.32 622.904H837.88C818.337 605.757 793.464 595.898 767.48 595ZM681.464 630.584C669.714 643.04 660.959 658.012 655.864 674.36L676.344 709.688L705.784 705.08L732.664 658.744L721.912 630.584H681.464ZM805.368 630.584L794.616 658.744L821.496 705.08L850.936 709.688L871.16 674.616C866.175 658.2 857.507 643.14 845.816 630.584H805.368ZM741.368 663.864L715.512 708.92L738.296 748.344H788.984L811.768 708.92L785.912 663.864H741.368ZM653.304 685.112C651.798 692.441 651.026 699.902 651 707.384C651.021 725.873 655.593 744.072 664.312 760.376L673.784 754.744L671.992 717.624L653.304 685.112ZM873.976 685.368L855.288 717.624L853.496 754.744L862.968 760.376C871.687 744.072 876.259 725.873 876.28 707.384C876.237 699.987 875.465 692.613 873.976 685.368ZM738.296 758.584L718.584 782.904L738.296 816.952C746.6 818.933 755.103 819.964 763.64 820.024C772.177 819.964 780.68 818.933 788.984 816.952L808.696 782.904L788.984 758.584H738.296ZM677.112 761.912L668.152 767.032C681.913 789.123 702.899 805.768 727.544 814.136L709.624 782.648L677.112 761.912ZM850.168 761.912L817.656 782.648L799.736 813.88C824.342 805.577 845.323 789.027 859.128 767.032L850.168 761.912Z" fill="black" fill-opacity="0.1"/>
<path d="M1023 551L1023 610.533L1225.05 812.585L1197.59 840.044L1170.42 849.105C1165.95 850.587 1163.24 854.879 1163.81 859.547C1164.39 864.216 1168.06 867.726 1172.75 868.09L1222.86 871.943L1263.16 831.643L1332.89 901.37L1332.89 919.68C1332.89 928.128 1339.77 935 1348.21 935L1391.68 935C1400.13 935 1407 928.128 1407 919.68L1407 876.214C1407 867.766 1400.13 860.895 1391.68 860.895L1368.63 860.895L1301.27 793.526L1341.83 752.964L1334.11 706.709C1333.35 702.094 1329.55 698.746 1324.88 698.557C1320.22 698.368 1316.16 701.4 1315.02 705.941L1309.47 728.152L1282.23 755.389L1080.19 551L1023 551ZM1391.68 874.368C1392.7 874.368 1393.53 875.197 1393.53 876.214L1393.53 919.68C1393.53 920.698 1392.7 921.526 1391.68 921.526L1348.21 921.526C1347.2 921.526 1346.37 920.698 1346.37 919.68L1346.37 914.843L1346.37 876.214C1346.37 875.197 1347.2 874.368 1348.21 874.368L1382.11 874.368L1391.68 874.368ZM1349.58 860.895L1348.21 860.895C1339.77 860.895 1332.89 867.766 1332.89 876.214L1332.89 882.318L1272.68 822.104L1282.23 812.558L1291.73 803.052L1349.58 860.895ZM1323.77 726.549L1327.4 748.342L1291.75 784L1272.66 803.086L1217.72 858.025L1192.15 856.058L1204.88 851.813L1234.59 822.104L1263.05 793.641L1321.66 735.037L1323.77 726.549ZM1272.71 764.915L1253.7 783.926L1234.57 803.052L1036.47 604.955L1036.47 576.371L1234.58 774.468C1237.21 777.102 1241.47 777.102 1244.1 774.468C1245.42 773.154 1246.08 771.429 1246.08 769.705C1246.08 767.98 1245.42 766.256 1244.1 764.942L1043.63 564.474L1074.56 564.474L1272.71 764.915Z" fill="black" fill-opacity="0.1"/>
</svg>
