<svg viewBox="0 0 715 1200" fill="none" xmlns="http://www.w3.org/2000/svg">
<g clip-path="url(#clip0_35_2406)">
<rect width="714.24" height="1200" fill="white"/>
<path d="M261.839 374.653C241.626 373.608 217.011 384.443 189.184 406.647C134.501 450.318 74.6494 534.161 42.6852 611.697C35.708 628.642 32.9778 636.764 27.9976 655.35C22.9344 674.246 21.5006 681.664 20.3437 695.077C16.9585 735.616 29.3212 762.446 56.8675 774.365C69.9708 780.034 84.164 781.015 99.6539 777.363C114.375 773.893 127.42 768.203 146.698 756.823C163.604 746.855 175.131 738.766 205.375 715.605C215.076 708.134 225.891 700.02 229.422 697.591L235.843 693.058L362.917 727.107L489.99 761.157L493.285 768.292C495.128 772.162 500.836 785.588 506.065 798.112C521.412 835.093 527.52 847.852 538.564 866.582C547.956 882.379 554.888 891.651 564.235 900.796C576.443 912.699 589.556 919.367 604.334 921.058C611.263 921.863 617.197 921.627 623.591 920.297C663.383 912.145 690.907 858.209 699.775 771.163C706.906 701.139 699.618 618.784 680.996 557.85C674.964 538.194 668.483 522.901 660.033 508.131C650.019 490.728 640.883 480.589 628.842 473.434C625.078 471.152 624.82 471.083 580.936 459.158C538.085 447.511 536.728 447.202 533.158 447.297C528.405 447.462 520.905 449.824 508.359 455.095C497.069 459.817 491.068 461.75 486.701 462.129C483.934 462.329 481.078 461.619 437.204 449.863C393.33 438.107 390.502 437.294 388.205 435.737C384.613 433.226 380.382 428.551 372.966 418.816C364.774 408.044 359.459 402.249 355.478 399.743C352.537 397.904 350.949 397.423 309.438 386.356C269.957 375.777 266.105 374.855 261.839 374.653ZM591.538 531.832C596.618 534.577 600.252 540.033 600.701 545.797C600.974 548.914 599.508 554.387 597.713 556.949C590.215 567.778 573.943 566.904 567.893 555.378C565.502 550.864 565.202 547.85 566.599 542.636C567.498 539.28 568.186 537.749 569.497 536.163C572.912 532.098 578.156 529.685 583.58 529.7C586.902 529.705 588.142 530.037 591.538 531.832ZM263.159 471.013L258.248 489.341L276.594 494.257L294.939 499.173L291.571 511.329L288.165 523.42L269.989 518.495L251.747 513.607L246.705 532.01L241.597 550.452L229.308 547.325L216.981 544.133L221.961 525.546L226.942 506.96L208.596 502.045L190.251 497.129L193.502 484.996L196.753 472.864L215.098 477.779L233.443 482.695L238.354 464.367L243.265 446.039L255.668 449.362L268.07 452.685L263.159 471.013ZM539.129 562.058C544.365 564.844 548.194 571.016 548.306 576.801C548.378 580.251 546.281 586.219 544.111 588.736C541.637 591.559 537.407 593.912 533.567 594.598C528.921 595.401 523.147 593.798 519.59 590.743C516.622 588.177 514.139 583.804 513.501 579.981C512.812 576.144 514.638 569.329 517.088 566.389C520.583 562.234 526.192 559.698 531.626 559.881C534.648 559.972 535.978 560.383 539.129 562.058ZM625.794 586.718C630.859 591.174 632.765 597.495 630.981 604.155C630.081 607.511 629.546 608.474 627.311 611.029C622.667 616.37 616.459 618.248 609.689 616.434C602.882 614.555 598.496 609.838 597.131 602.943C596.473 599.612 596.477 598.562 597.39 595.155C598.272 592.071 598.904 590.746 600.598 588.765C607.139 580.89 618.067 580 625.794 586.718ZM573.016 617.287C575.895 619.774 578.199 623.988 578.888 627.825C579.635 632.065 578.106 638.184 575.471 641.407C573.007 644.399 568.721 646.958 564.816 647.682C562.004 648.257 560.915 648.186 557.142 647.176C553.37 646.165 552.392 645.681 550.192 643.764C542.696 637.218 542.153 625.397 549.12 618.41C551.483 616 556.796 613.328 559.798 613.081C563.437 612.728 570.317 614.959 573.016 617.287ZM322.304 621.325C334.052 627.295 341.824 640.666 341.263 654.128C340.89 662.55 336.863 671.376 330.703 677.417C326.784 681.292 319.792 685.063 314.322 686.253C308.032 687.611 303.504 687.56 297.509 685.953C284.266 682.46 274.627 672.131 272.111 658.785C270.979 652.671 271.141 649.173 272.798 643.198C276.405 629.943 286.472 620.689 300.025 618.067C307.445 616.625 315.329 617.796 322.304 621.325ZM465.346 659.653C472.024 663.048 478.348 669.833 481.322 676.717C484.595 684.345 485.019 691.652 482.778 700.016C480.167 709.553 474.761 716.294 465.803 721.198C457.566 725.687 449.219 726.659 440.138 724.171C431.005 721.668 423.829 716.204 419.226 708.164C414.585 700.059 413.324 692.362 415.183 683.564C416.523 677.116 418.898 672.385 423.355 667.327C429.862 659.995 440.983 655.283 450.707 655.786C455.363 655.982 461.254 657.561 465.346 659.653Z" fill="black" fill-opacity="0.09"/>
<path d="M108.8 824.24C82.8162 825.138 57.943 834.997 38.4 852.144H72.96L108.8 833.712V824.24ZM116.48 824.24V833.712L152.32 852.144H186.88C167.337 834.997 142.464 825.138 116.48 824.24ZM30.464 859.824C18.7141 872.281 9.95895 887.252 4.864 903.6L25.344 938.928L54.784 934.32L81.664 887.984L70.912 859.824H30.464ZM154.368 859.824L143.616 887.984L170.496 934.32L199.936 938.928L220.16 903.856C215.175 887.44 206.507 872.38 194.816 859.824H154.368ZM90.368 893.104L64.512 938.16L87.296 977.584H137.984L160.768 938.16L134.912 893.104H90.368ZM2.304 914.352C0.798195 921.681 0.0263821 929.142 0 936.624C0.021007 955.113 4.59284 973.312 13.312 989.616L22.784 983.984L20.992 946.864L2.304 914.352ZM222.976 914.608L204.288 946.864L202.496 983.984L211.968 989.616C220.687 973.312 225.259 955.113 225.28 936.624C225.237 929.228 224.465 921.853 222.976 914.608ZM87.296 987.824L67.584 1012.14L87.296 1046.19C95.6003 1048.17 104.103 1049.2 112.64 1049.26C121.177 1049.2 129.68 1048.17 137.984 1046.19L157.696 1012.14L137.984 987.824H87.296ZM26.112 991.152L17.152 996.272C30.9128 1018.36 51.8993 1035.01 76.544 1043.38L58.624 1011.89L26.112 991.152ZM199.168 991.152L166.656 1011.89L148.736 1043.12C173.342 1034.82 194.323 1018.27 208.128 996.272L199.168 991.152Z" fill="black" fill-opacity="0.09"/>
<path d="M256 789.68L256 849.214L458.051 1051.27L430.592 1078.72L403.416 1087.79C398.949 1089.27 396.241 1093.56 396.814 1098.23C397.386 1102.9 401.058 1106.41 405.753 1106.77L455.862 1110.62L496.162 1070.32L565.895 1140.05L565.895 1158.36C565.895 1166.81 572.766 1173.68 581.214 1173.68L624.68 1173.68C633.128 1173.68 640 1166.81 640 1158.36L640 1114.89C640 1106.45 633.128 1099.57 624.68 1099.57L601.634 1099.57L534.265 1032.21L574.828 991.644L567.114 945.389C566.353 940.774 562.553 937.426 557.885 937.237C553.216 937.049 549.16 940.08 548.022 944.621L542.471 966.832L515.234 994.069L313.189 789.68L256 789.68ZM624.68 1113.05C625.698 1113.05 626.526 1113.88 626.526 1114.89L626.526 1158.36C626.526 1159.38 625.698 1160.21 624.68 1160.21L581.214 1160.21C580.197 1160.21 579.368 1159.38 579.368 1158.36L579.368 1153.52L579.368 1114.89C579.368 1113.88 580.197 1113.05 581.214 1113.05L615.107 1113.05L624.68 1113.05ZM582.582 1099.57L581.214 1099.57C572.766 1099.57 565.895 1106.45 565.895 1114.89L565.895 1121L505.681 1060.78L515.227 1051.24L524.733 1041.73L582.582 1099.57ZM556.766 965.229L560.404 987.022L524.746 1022.68L505.661 1041.77L450.722 1096.71L425.149 1094.74L437.881 1090.49L467.591 1060.78L496.054 1032.32L554.658 973.717L556.766 965.229ZM505.708 1003.6L486.696 1022.61L467.571 1041.73L269.474 843.636L269.474 815.051L467.577 1013.15C470.211 1015.78 474.469 1015.78 477.103 1013.15C478.417 1011.83 479.077 1010.11 479.077 1008.39C479.077 1006.66 478.417 1004.94 477.103 1003.62L276.628 803.154L307.564 803.154L505.708 1003.6Z" fill="black" fill-opacity="0.09"/>
</g>
<defs>
<clipPath id="clip0_35_2406">
<rect width="714.24" height="1200" fill="white"/>
</clipPath>
</defs>
</svg>
