<svg width="715" height="1200" viewBox="0 0 715 1200" fill="none" xmlns="http://www.w3.org/2000/svg">
<g clip-path="url(#clip0_35_2410)">
<g opacity="0.12" clip-path="url(#clip1_35_2410)">
<rect width="800" height="800" transform="translate(-42 400)" fill="#F5F5F5"/>
<path d="M604.657 1155.13C604.471 1155.13 604.284 1155.11 604.098 1155.11C552.456 1153.3 511.528 1128.56 511.528 1098.28V1085.87C511.528 1054.43 555.668 1028.95 610.128 1028.95C664.588 1028.95 708.727 1054.43 708.727 1085.87C708.725 1089.12 708.258 1092.35 707.339 1095.47V1095.49" fill="#CFCFCF"/>
<path d="M19.4785 787.207L-33.3959 817.738L-40.995 822.125C-41.4695 822.402 -41.8144 822.857 -41.9538 823.389C-42.0931 823.921 -42.0154 824.486 -41.7379 824.961C-41.4603 825.435 -41.0056 825.78 -40.4738 825.92C-39.9419 826.059 -39.3765 825.981 -38.9019 825.704L13.9745 795.175L21.5715 790.788C22.0461 790.51 22.391 790.055 22.5303 789.524C22.6696 788.992 22.592 788.426 22.3144 787.952C22.0369 787.477 21.5822 787.132 21.0503 786.993C20.5185 786.854 19.9531 786.931 19.4785 787.209V787.207Z" fill="#CFCFCF"/>
<path d="M364.21 588.182L304.231 622.81L295.609 627.784C295.373 627.921 295.167 628.103 295.002 628.32C294.837 628.537 294.716 628.785 294.647 629.048C294.577 629.312 294.56 629.587 294.597 629.857C294.634 630.127 294.723 630.387 294.861 630.623C294.998 630.858 295.18 631.065 295.397 631.23C295.614 631.395 295.862 631.515 296.125 631.585C296.389 631.654 296.664 631.671 296.934 631.635C297.204 631.598 297.464 631.508 297.7 631.371L357.678 596.743L366.301 591.77C366.775 591.492 367.12 591.038 367.26 590.506C367.399 589.975 367.322 589.409 367.045 588.935C366.767 588.46 366.313 588.115 365.781 587.976C365.25 587.836 364.684 587.913 364.21 588.191V588.182Z" fill="#CFCFCF"/>
<path d="M672.75 885.595L706.57 905.116L711.411 907.909C711.886 908.187 712.451 908.264 712.983 908.125C713.515 907.986 713.969 907.641 714.247 907.166C714.524 906.692 714.602 906.126 714.463 905.594C714.323 905.063 713.979 904.608 713.504 904.33L679.682 884.809L674.841 882.016C674.367 881.739 673.801 881.661 673.27 881.801C672.738 881.94 672.284 882.285 672.006 882.76C671.729 883.234 671.652 883.8 671.791 884.331C671.931 884.863 672.276 885.317 672.75 885.595Z" fill="#CFCFCF"/>
<path d="M303.883 672.688L357.556 703.663L365.111 708.014C365.586 708.292 366.151 708.369 366.683 708.229C367.214 708.09 367.669 707.745 367.946 707.27C368.223 706.796 368.301 706.23 368.161 705.699C368.022 705.167 367.677 704.713 367.202 704.435L313.53 673.461L305.974 669.109C305.739 668.972 305.48 668.882 305.21 668.845C304.94 668.808 304.666 668.825 304.403 668.894C304.139 668.963 303.892 669.083 303.676 669.248C303.459 669.413 303.277 669.618 303.139 669.853C303.002 670.088 302.912 670.348 302.875 670.618C302.839 670.887 302.855 671.161 302.924 671.425C302.993 671.688 303.114 671.935 303.278 672.152C303.443 672.369 303.648 672.551 303.883 672.688Z" fill="#CFCFCF"/>
<path d="M744.004 798.876L697.149 825.923L664.146 844.988L614.589 873.607L577.983 894.744L535.59 919.212L491.864 944.452L456.333 964.968L406.148 993.949L374.322 1012.33L320.895 1043.18L316.52 1045.71C316.285 1045.85 316.079 1046.03 315.915 1046.24C315.75 1046.46 315.63 1046.71 315.561 1046.97C315.492 1047.23 315.475 1047.51 315.512 1047.78C315.549 1048.05 315.639 1048.31 315.776 1048.54C315.913 1048.78 316.096 1048.98 316.312 1049.15C316.529 1049.31 316.776 1049.43 317.039 1049.5C317.303 1049.57 317.577 1049.59 317.847 1049.55C318.116 1049.51 318.376 1049.42 318.611 1049.29L364.96 1022.52L394.931 1005.21L451.314 972.654L479.717 956.256L533.776 925.045L565.205 906.898L614.788 878.271L651.198 857.25L693.809 832.644L740.941 805.437L746.097 802.461C746.571 802.183 746.916 801.729 747.056 801.197C747.195 800.665 747.117 800.1 746.84 799.625C746.562 799.151 746.107 798.806 745.576 798.666C745.044 798.527 744.478 798.605 744.004 798.882V798.876Z" fill="#CFCFCF"/>
<path d="M395.379 892.624L378.038 902.641L336.163 926.829L285.707 955.974L242.065 981.183L227.559 989.563C225.31 990.86 222.898 992.035 220.749 993.501C220.656 993.565 220.552 993.617 220.453 993.673C220.218 993.81 220.012 993.992 219.848 994.209C219.683 994.426 219.563 994.673 219.494 994.937C219.425 995.2 219.409 995.474 219.446 995.744C219.483 996.014 219.573 996.274 219.71 996.508C219.847 996.743 220.03 996.949 220.247 997.114C220.464 997.278 220.711 997.398 220.974 997.467C221.238 997.536 221.512 997.553 221.782 997.516C222.051 997.479 222.311 997.389 222.546 997.251L239.885 987.236L281.762 963.046L332.218 933.902L375.86 908.694L390.366 900.314C392.612 899.015 395.024 897.84 397.173 896.377C397.267 896.312 397.381 896.263 397.47 896.205C397.944 895.927 398.289 895.473 398.429 894.941C398.568 894.41 398.491 893.844 398.214 893.37C397.936 892.895 397.482 892.55 396.95 892.411C396.419 892.271 395.853 892.346 395.379 892.624Z" fill="#CFCFCF"/>
<path d="M197.044 899.676C183.26 907.638 169.477 915.6 155.696 923.563L118.646 944.939L95.8796 958.086C95.405 958.363 95.0601 958.818 94.9208 959.35C94.7815 959.882 94.8591 960.447 95.1367 960.921C95.4142 961.396 95.869 961.741 96.4008 961.88C96.9326 962.02 97.498 961.942 97.9726 961.664L138.703 938.152L177.356 915.838L199.146 903.255C199.62 902.978 199.965 902.523 200.105 901.992C200.244 901.46 200.167 900.895 199.89 900.42C199.612 899.945 199.158 899.6 198.626 899.461C198.095 899.321 197.529 899.399 197.055 899.676H197.044Z" fill="#CFCFCF"/>
<path d="M53.8909 874.842L9.21036 900.638L2.81321 904.331C2.33863 904.608 1.99374 905.063 1.85442 905.595C1.71509 906.126 1.79275 906.692 2.0703 907.166C2.34785 907.641 2.80256 907.986 3.3344 908.125C3.86624 908.265 4.43164 908.187 4.90622 907.909L49.5951 882.118L55.9902 878.425C56.2251 878.288 56.4308 878.105 56.5954 877.889C56.7599 877.672 56.8802 877.425 56.9493 877.161C57.0183 876.898 57.0349 876.624 56.998 876.354C56.9611 876.085 56.8714 875.825 56.7341 875.59C56.5968 875.355 56.4146 875.149 56.1978 874.985C55.981 874.82 55.734 874.7 55.4707 874.631C55.2075 874.562 54.9332 874.545 54.6636 874.582C54.3939 874.619 54.1342 874.709 53.8992 874.846L53.8909 874.842Z" fill="#CFCFCF"/>
<path d="M379.694 686.74L340.498 709.369L334.889 712.608C334.654 712.746 334.448 712.928 334.284 713.145C334.119 713.361 333.999 713.609 333.93 713.872C333.861 714.135 333.844 714.409 333.881 714.679C333.918 714.949 334.008 715.208 334.145 715.443C334.282 715.678 334.464 715.884 334.681 716.048C334.898 716.213 335.145 716.333 335.408 716.402C335.671 716.471 335.946 716.488 336.215 716.451C336.485 716.414 336.745 716.325 336.98 716.187L376.175 693.558L381.785 690.319C382.02 690.182 382.225 689.999 382.39 689.783C382.554 689.566 382.675 689.319 382.744 689.056C382.813 688.792 382.829 688.518 382.792 688.248C382.756 687.979 382.666 687.719 382.529 687.484C382.391 687.249 382.209 687.043 381.992 686.879C381.776 686.714 381.528 686.594 381.265 686.525C381.002 686.456 380.728 686.439 380.458 686.476C380.188 686.513 379.929 686.603 379.694 686.74Z" fill="#CFCFCF"/>
<path d="M383.927 1036.54L338.057 1010.05L308.739 993.122L252.393 960.601C243.379 955.4 234.366 950.196 225.354 944.989L170.024 913.034C160.5 907.534 150.975 902.035 141.449 896.536L88.5541 865.991L57.1734 847.875L8.08302 819.534L-30.188 797.44L-38.8916 792.406C-39.1266 792.269 -39.3863 792.179 -39.656 792.142C-39.9257 792.105 -40.2001 792.121 -40.4634 792.19C-40.7267 792.259 -40.9739 792.379 -41.1908 792.544C-41.4077 792.708 -41.5901 792.914 -41.7275 793.149C-41.8649 793.384 -41.9547 793.644 -41.9918 793.913C-42.0288 794.183 -42.0124 794.458 -41.9434 794.721C-41.8744 794.984 -41.7542 795.231 -41.5897 795.448C-41.4252 795.665 -41.2196 795.848 -40.9846 795.985L2.21845 820.929C14.8179 828.207 27.4181 835.482 40.019 842.754L83.4438 867.829L124.666 891.627C137.22 898.876 149.773 906.123 162.325 913.37L209.265 940.481C220.307 946.86 231.35 953.238 242.394 959.615L293.692 989.224C303.983 995.164 314.275 1001.1 324.569 1007.05L377.499 1037.62L381.851 1040.13C382.326 1040.41 382.891 1040.49 383.423 1040.35C383.955 1040.21 384.409 1039.86 384.687 1039.39C384.964 1038.91 385.042 1038.35 384.903 1037.82C384.763 1037.28 384.419 1036.83 383.944 1036.55L383.927 1036.54Z" fill="#CFCFCF"/>
<path d="M287.995 878.42L311.588 892.044L368.248 924.763L436.796 964.344L496.05 998.561L515.576 1009.84C518.643 1011.61 521.668 1013.59 524.837 1015.18C524.973 1015.25 525.104 1015.34 525.237 1015.42C525.711 1015.69 526.277 1015.77 526.808 1015.63C527.34 1015.49 527.795 1015.15 528.073 1014.67C528.35 1014.2 528.428 1013.63 528.288 1013.1C528.149 1012.57 527.804 1012.11 527.33 1011.84L503.737 998.213L447.076 965.494L378.529 925.913L319.272 891.696L299.749 880.42C296.68 878.648 293.654 876.663 290.488 875.074C290.351 875.003 290.221 874.918 290.086 874.842C289.611 874.564 289.046 874.487 288.514 874.626C287.983 874.766 287.528 875.111 287.251 875.586C286.974 876.06 286.896 876.625 287.036 877.157C287.175 877.689 287.52 878.143 287.995 878.42Z" fill="#CFCFCF"/>
<path d="M675.011 779.388L710.033 799.611L737.53 815.485L754.914 825.519C755.389 825.797 755.954 825.874 756.486 825.735C757.018 825.596 757.473 825.251 757.75 824.776C758.028 824.301 758.105 823.736 757.966 823.204C757.827 822.672 757.482 822.218 757.007 821.94L722.976 802.299C712.847 796.454 702.718 790.605 692.59 784.753L677.083 775.809C676.612 775.576 676.069 775.531 675.566 775.683C675.063 775.836 674.636 776.174 674.372 776.629C674.109 777.084 674.028 777.622 674.147 778.134C674.265 778.647 674.574 779.095 675.011 779.388Z" fill="#CFCFCF"/>
<path d="M333.034 581.955L381.915 610.184L413.828 628.613L460.816 655.735L526.897 693.881C539.794 701.327 552.554 709.121 565.634 716.241C565.841 716.353 566.038 716.476 566.241 716.592C566.716 716.869 567.281 716.946 567.813 716.807C568.344 716.667 568.799 716.322 569.076 715.848C569.353 715.373 569.431 714.808 569.291 714.276C569.152 713.745 568.807 713.29 568.332 713.013L536.093 694.404L470.642 656.62L418.97 626.793L391.767 611.085L336.315 579.062L335.127 578.376C334.653 578.099 334.087 578.021 333.555 578.16C333.024 578.3 332.569 578.645 332.291 579.119C332.014 579.594 331.936 580.159 332.075 580.691C332.215 581.223 332.56 581.678 333.034 581.955Z" fill="#CFCFCF"/>
<path d="M520.568 484.628C499.281 472.325 475.485 458.604 451.683 444.865C427.912 458.592 404.141 472.296 382.883 484.585C382.883 599.69 382.883 714.816 382.883 714.828C406.3 728.389 451.362 754.396 451.683 754.579C472.965 742.301 496.766 728.555 520.568 714.81V484.628Z" fill="#CFCFCF"/>
<path d="M520.29 529.785C496.625 543.462 472.961 557.114 451.77 569.366C451.656 569.436 451.517 569.505 451.403 569.573C451.059 569.366 450.74 569.183 450.419 569.001C429.503 556.928 406.205 543.456 382.883 529.986V559.771C406.205 573.241 429.509 586.711 450.419 598.786C450.74 598.968 451.059 599.153 451.403 599.358C451.517 599.29 451.656 599.221 451.77 599.151C472.961 586.893 496.625 573.247 520.29 559.57H520.657V529.785H520.29Z" fill="#CFCFCF"/>
<path d="M520.29 589.784C496.625 603.461 472.961 617.116 451.77 629.365C451.656 629.433 451.517 629.502 451.403 629.572C451.059 629.365 450.74 629.183 450.419 629C429.503 616.927 406.205 603.457 382.883 589.987V619.766C406.205 633.236 429.509 646.706 450.419 658.779C450.74 658.963 451.059 659.146 451.403 659.353C451.517 659.282 451.656 659.214 451.77 659.146C472.961 646.89 496.625 633.242 520.29 619.565H520.657V589.784H520.29Z" fill="#CFCFCF"/>
<path d="M520.29 649.785C496.625 663.462 472.961 677.114 451.77 689.366C451.656 689.436 451.517 689.505 451.403 689.573C451.059 689.366 450.74 689.183 450.419 689.001C429.503 676.928 406.205 663.456 382.883 649.986V679.767C406.205 693.237 429.509 706.707 450.419 718.782C450.74 718.964 451.059 719.149 451.403 719.354C451.517 719.286 451.656 719.217 451.77 719.147C472.961 706.889 496.625 693.243 520.29 679.566H520.657V649.785H520.29Z" fill="#CFCFCF"/>
<path d="M518.477 711.224C495.516 724.487 472.554 737.743 449.59 750.994H453.774C436.765 741.229 419.778 731.424 402.814 721.58L384.887 711.218C380.259 708.545 376.082 715.705 380.703 718.376C397.913 728.323 415.126 738.262 432.342 748.192C437.7 751.284 443.057 754.375 448.413 757.465C448.78 757.673 449.14 757.913 449.519 758.104C452.557 759.635 455.235 757.304 457.794 755.824L476.938 744.775L522.661 718.374C527.278 715.707 523.108 708.541 518.477 711.216V711.224Z" fill="black"/>
<path d="M380.792 683.35C399.617 694.225 418.441 705.101 437.264 715.978L443.458 719.555C445.485 720.904 447.607 722.104 449.807 723.146C452.251 724.105 454.221 722.524 456.256 721.345L463.147 717.362C472.171 712.147 481.197 706.932 490.225 701.719C500.946 695.528 511.664 689.337 522.381 683.145C527 680.476 522.831 673.31 518.199 675.987C495.244 689.25 472.418 702.782 449.312 715.775H453.496C430.765 702.396 407.815 689.38 384.976 676.194C380.349 673.523 376.169 680.681 380.792 683.35Z" fill="black"/>
<path d="M380.792 653.569C399.617 664.443 418.441 675.318 437.264 686.195L443.458 689.772C445.484 691.123 447.606 692.324 449.807 693.365C452.251 694.325 454.221 692.744 456.256 691.564L463.147 687.581C472.171 682.366 481.197 677.152 490.225 671.938C500.946 665.749 511.664 659.557 522.381 653.364C527 650.695 522.831 643.529 518.199 646.206C495.244 659.469 472.418 673.001 449.312 685.994H453.496C430.765 672.615 407.815 659.599 384.976 646.413C380.349 643.74 376.169 650.9 380.792 653.569Z" fill="black"/>
<path d="M380.792 623.351C399.617 634.224 418.441 645.099 437.264 655.977L443.458 659.554C445.484 660.904 447.606 662.104 449.807 663.145C452.251 664.105 454.221 662.524 456.256 661.347L463.147 657.364C472.171 652.146 481.197 646.931 490.225 641.72C500.946 635.531 511.664 629.339 522.381 623.144C527 620.477 522.831 613.311 518.199 615.988C495.244 629.251 472.418 642.783 449.312 655.776H453.496C430.765 642.398 407.815 629.382 384.976 616.196C380.349 613.522 376.169 620.68 380.792 623.351Z" fill="black"/>
<path d="M380.792 593.57C399.617 604.444 418.441 615.318 437.264 626.19L443.458 629.767C445.485 631.116 447.607 632.316 449.807 633.358C452.251 634.318 454.221 632.737 456.256 631.559L463.147 627.574C472.178 622.369 481.204 617.157 490.225 611.939C500.946 605.747 511.664 599.555 522.381 593.363C527 590.696 522.831 583.53 518.199 586.205C495.244 599.468 472.418 613 449.312 625.993H453.496C430.765 612.617 407.815 599.601 384.976 586.413C380.349 583.739 376.169 590.899 380.792 593.57Z" fill="black"/>
<path d="M380.792 563.35C399.617 574.226 418.441 585.102 437.264 595.978L443.458 599.555C445.485 600.904 447.607 602.105 449.807 603.146C452.251 604.106 454.221 602.525 456.256 601.346L463.147 597.363C472.171 592.147 481.197 586.933 490.225 581.719C500.946 575.528 511.664 569.337 522.381 563.145C527 560.476 522.831 553.31 518.199 555.987C495.244 569.25 472.418 582.782 449.312 595.775H453.496C430.765 582.399 407.815 569.381 384.976 556.195C380.349 553.521 376.169 560.681 380.792 563.35Z" fill="black"/>
<path d="M380.792 533.569C399.617 544.443 418.441 555.318 437.264 566.195L443.458 569.772C445.484 571.123 447.606 572.324 449.807 573.365C452.251 574.325 454.221 572.744 456.256 571.564L463.147 567.581C472.171 562.365 481.197 557.15 490.225 551.938C500.946 545.749 511.664 539.557 522.381 533.364C527 530.695 522.831 523.529 518.199 526.206C495.244 539.469 472.418 553.001 449.312 565.994H453.496C430.765 552.615 407.815 539.599 384.976 526.413C380.349 523.74 376.169 530.9 380.792 533.569Z" fill="black"/>
<path d="M447.625 525.04V723.923C447.625 733.118 447.29 742.385 447.625 751.576C447.625 751.727 447.625 751.879 447.625 752.03C447.625 757.364 455.914 757.372 455.914 752.03V553.146C455.914 543.951 456.25 534.684 455.914 525.494C455.914 525.342 455.914 525.189 455.914 525.04C455.914 519.706 447.625 519.697 447.625 525.04Z" fill="black"/>
<path d="M518.564 481.049C495.604 494.312 472.643 507.568 449.679 520.818H453.863C430.867 507.622 407.905 494.366 384.976 481.049C380.349 478.376 376.169 485.536 380.792 488.207C399.487 499.006 418.184 509.799 436.885 520.586C441.052 522.992 445.159 525.632 449.436 527.839C452.079 529.203 453.935 527.935 456.275 526.596L463.196 522.603C472.272 517.365 481.345 512.127 490.416 506.889C501.192 500.672 511.972 494.447 522.756 488.215C527.375 485.548 523.206 478.382 518.572 481.057L518.564 481.049Z" fill="black"/>
<path d="M384.891 488.207C407.845 474.944 430.807 461.688 453.778 448.437H449.594C472.555 461.7 495.517 474.957 518.481 488.207C523.108 490.88 527.286 483.72 522.665 481.049C499.707 467.781 476.743 454.524 453.774 441.28C453.138 440.913 452.416 440.72 451.682 440.72C450.948 440.72 450.226 440.913 449.59 441.28C426.629 454.542 403.667 467.799 380.703 481.049C376.086 483.718 380.255 490.884 384.887 488.207H384.891Z" fill="black"/>
<path d="M516.423 484.628V686.287C516.423 695.612 516.071 705.028 516.423 714.356C516.423 714.505 516.423 714.656 516.423 714.805C516.423 720.139 524.712 720.148 524.712 714.805V513.135C524.712 503.809 525.065 494.399 524.712 485.076C524.712 484.927 524.712 484.777 524.712 484.628C524.712 479.294 516.423 479.286 516.423 484.628Z" fill="black"/>
<path d="M378.738 484.628V686.287C378.738 695.612 378.386 705.028 378.738 714.356C378.738 714.505 378.738 714.656 378.738 714.805C378.738 720.139 387.028 720.148 387.028 714.805V513.135C387.028 503.809 387.38 494.399 387.028 485.076C387.028 484.927 387.028 484.777 387.028 484.628C387.028 479.294 378.738 479.286 378.738 484.628Z" fill="black"/>
<path d="M604.657 1150.98C578.673 1150.02 549.327 1143.77 529.568 1125.65C522.764 1119.41 517.08 1111.21 515.891 1102.17C515.394 1096.49 515.324 1090.78 515.683 1085.1C515.803 1080.85 516.807 1076.67 518.63 1072.83C523.073 1063.5 531 1056.34 539.635 1050.92C550.785 1044.17 563.006 1039.37 575.771 1036.73C604.508 1030.33 636.162 1031.86 663.725 1042.5C681.589 1049.39 703.75 1063.55 704.55 1084.59C704.627 1086.32 704.557 1088.05 704.342 1089.77C703.833 1091.65 703.445 1093.56 703.18 1095.49C703.18 1100.82 711.469 1100.83 711.469 1095.49C711.732 1094.76 711.948 1094.02 712.113 1093.26C712.333 1092.11 712.503 1090.94 712.631 1089.77C712.844 1087.88 712.903 1085.97 712.808 1084.07C712.669 1081.41 712.262 1078.76 711.593 1076.18C710.235 1071.15 707.983 1066.41 704.947 1062.18C697.564 1052.36 687.895 1044.5 676.781 1039.27C648.67 1025.19 615.246 1022.17 584.446 1026.73C559.005 1030.5 529.984 1040.69 514.817 1062.86C511.81 1067.19 509.632 1072.04 508.393 1077.17C507.385 1082.97 507.043 1088.86 507.374 1094.74C507.156 1100.18 507.879 1105.62 509.51 1110.81C511.396 1116 514.149 1120.82 517.65 1125.09C525.463 1134.84 536.524 1141.91 547.831 1146.95C562.084 1153.14 577.231 1157.03 592.704 1158.47C596.677 1158.88 600.658 1159.12 604.647 1159.27C609.981 1159.48 609.972 1151.19 604.647 1150.98H604.657Z" fill="black"/>
<path d="M219.829 886.08L36.3096 780.115L222.492 672.609L408.675 780.111L222.492 887.613L219.829 886.08Z" fill="#CFCFCF"/>
<path d="M221.922 882.501L80.4556 800.82L38.4047 776.537V783.694L182.221 700.656L224.589 676.203H220.405L367.722 761.264L406.588 783.705V776.547L259.267 861.602L220.401 884.043H224.583L221.922 882.505C217.293 879.834 213.115 886.994 217.738 889.663L220.401 891.2C221.037 891.567 221.758 891.76 222.492 891.76C223.226 891.76 223.947 891.567 224.583 891.2L368.4 808.162L410.768 783.699C411.383 783.326 411.892 782.801 412.245 782.174C412.599 781.547 412.784 780.839 412.784 780.12C412.784 779.4 412.599 778.693 412.245 778.066C411.892 777.439 411.383 776.914 410.768 776.541L266.951 693.502L224.585 669.039C223.949 668.673 223.227 668.481 222.493 668.481C221.759 668.481 221.038 668.673 220.401 669.039L73.0824 754.1L34.2166 776.537C33.6011 776.909 33.0921 777.435 32.7389 778.062C32.3856 778.689 32.2 779.396 32.2 780.116C32.2 780.835 32.3856 781.543 32.7389 782.17C33.0921 782.796 33.6011 783.322 34.2166 783.694L179.045 867.317L217.738 889.659C222.366 892.332 226.546 885.172 221.922 882.501Z" fill="black"/>
<path d="M222.492 617.456C244.023 629.889 265.554 642.302 284.806 653.43C263.275 665.864 241.744 678.298 222.492 689.405C222.202 689.24 221.912 689.074 221.601 688.887C202.577 677.904 181.378 665.678 160.178 653.43C179.43 642.302 200.961 629.889 222.492 617.456Z" fill="#CFCFCF"/>
<path d="M222.492 776.959V750.02C241.661 738.933 263.068 726.582 284.474 714.21H284.806V741.15H284.474C263.068 753.522 241.661 765.873 222.492 776.959Z" fill="#CFCFCF"/>
<path d="M222.492 776.96V814.199L221.497 815.918C202.495 804.956 181.337 792.75 160.178 780.524V741.337C181.274 753.522 202.349 765.707 221.269 776.628C221.56 776.794 221.85 776.96 222.161 777.146C222.264 777.084 222.389 777.022 222.492 776.96Z" fill="#CFCFCF"/>
<path d="M284.8 780.524C263.268 792.958 241.737 805.391 222.486 816.499C222.196 816.333 221.906 816.167 221.595 815.981C221.553 815.96 221.533 815.939 221.491 815.918L222.486 814.198V776.96C241.655 765.873 263.061 753.522 284.468 741.15H284.8V780.524Z" fill="#CFCFCF"/>
<path d="M160.178 714.397C181.274 726.582 202.349 738.767 221.269 749.688C221.56 749.854 221.85 750.02 222.161 750.206C222.264 750.144 222.389 750.082 222.492 750.02V776.959C222.389 777.021 222.264 777.084 222.161 777.146C221.85 776.959 221.56 776.794 221.269 776.628C202.349 765.707 181.274 753.522 160.178 741.337V714.397Z" fill="#CFCFCF"/>
<path d="M282.715 776.945C261.944 788.939 241.172 800.931 220.401 812.92H224.585C203.784 800.98 183.012 788.989 162.271 776.945C157.644 774.271 153.464 781.431 158.088 784.102C175.113 793.942 192.144 803.773 209.18 813.597C212.769 815.669 216.313 817.868 219.956 819.826C224.009 821.998 228.829 817.626 232.313 815.614C240.711 810.769 249.109 805.921 257.505 801.072L286.893 784.102C291.51 781.435 287.34 774.269 282.709 776.945H282.715Z" fill="black"/>
<path d="M158.088 744.915C175.057 754.717 192.026 764.521 208.995 774.327C212.659 776.443 216.273 778.859 220.07 780.724C222.422 781.883 224.167 780.78 226.187 779.612L232.284 776.089C240.638 771.253 248.996 766.427 257.358 761.61C267.098 755.983 276.838 750.356 286.578 744.731C291.195 742.062 287.025 734.898 282.394 737.573C261.629 749.574 240.981 761.819 220.08 773.569H224.264C203.703 761.469 182.94 749.694 162.282 737.76C157.652 735.086 153.475 742.248 158.098 744.917L158.088 744.915Z" fill="black"/>
<path d="M158.088 717.976C175.057 727.778 192.026 737.582 208.995 747.388C212.659 749.504 216.273 751.92 220.07 753.785C222.422 754.943 224.167 753.841 226.187 752.672L232.284 749.149C240.638 744.314 248.996 739.488 257.358 734.67C267.098 729.043 276.838 723.417 286.578 717.791C291.195 715.122 287.025 707.958 282.394 710.634C261.629 722.634 240.981 734.88 220.08 746.629H224.264C203.703 734.529 182.94 722.755 162.282 710.82C157.652 708.147 153.475 715.309 158.098 717.978L158.088 717.976Z" fill="black"/>
<path d="M218.348 706.234V795.112C218.348 800.446 226.637 800.455 226.637 795.112V706.234C226.637 700.9 218.348 700.892 218.348 706.234Z" fill="black"/>
<path d="M282.715 649.851C261.944 661.846 241.172 673.837 220.401 685.826H224.585C203.784 673.887 183.012 661.896 162.272 649.851C157.642 647.178 153.464 654.338 158.088 657.009C175.006 666.783 191.929 676.552 208.859 686.315C212.616 688.485 216.319 690.897 220.186 692.86C222.691 694.128 224.374 693.108 226.61 691.824C228.654 690.644 230.699 689.464 232.744 688.284L257.524 673.985L286.911 657.015C291.528 654.348 287.359 647.182 282.727 649.858L282.715 649.851Z" fill="black"/>
<path d="M162.271 657.009C183.036 645.006 203.807 633.015 224.585 621.034H220.401C241.17 633.028 261.941 645.02 282.715 657.009C287.34 659.684 291.52 652.522 286.899 649.851C266.133 637.849 245.362 625.857 224.585 613.876C223.949 613.511 223.227 613.318 222.493 613.318C221.759 613.318 221.038 613.511 220.401 613.876C199.631 625.871 178.86 637.862 158.088 649.851C153.471 652.52 157.64 659.686 162.271 657.009Z" fill="black"/>
<path d="M156.034 653.43V780.524C156.034 785.858 164.323 785.866 164.323 780.524V653.43C164.323 648.096 156.034 648.088 156.034 653.43Z" fill="black"/>
<path d="M280.655 653.43V780.524C280.655 785.858 288.944 785.866 288.944 780.524V653.43C288.944 648.096 280.655 648.088 280.655 653.43Z" fill="black"/>
<path d="M60.5368 818.527C73.4886 811.05 86.4362 803.566 99.3797 796.074C103.997 793.407 99.8273 786.241 95.1958 788.916C82.2481 796.399 69.3005 803.884 56.3528 811.372C51.7358 814.037 55.9052 821.203 60.5368 818.527Z" fill="black"/>
<path d="M472.569 806.243L492.024 795.011L511.477 806.243C511.477 806.626 511.477 843.057 511.477 843.852L492.024 855.082L491.746 854.923L472.569 843.85C472.569 842.992 472.572 806.821 472.569 806.243Z" fill="#CFCFCF"/>
<path d="M509.386 840.272L489.931 851.504H494.115L474.663 840.272C470.033 837.599 465.855 844.76 470.479 847.429L489.931 858.661C490.567 859.028 491.289 859.221 492.023 859.221C492.757 859.221 493.479 859.028 494.115 858.661L513.57 847.429C518.189 844.762 514.019 837.596 509.386 840.272Z" fill="black"/>
<path d="M474.662 809.822L494.115 798.59H489.931C496.417 802.332 502.902 806.076 509.386 809.822C514.015 812.495 518.193 805.333 513.57 802.664L494.115 791.432C493.479 791.066 492.757 790.873 492.023 790.873C491.289 790.873 490.567 791.066 489.931 791.432L470.479 802.664C465.859 805.331 470.029 812.497 474.662 809.822Z" fill="black"/>
<path d="M468.425 806.243C468.444 817.12 468.425 828.002 468.425 838.873V843.846C468.425 849.18 476.714 849.189 476.714 843.846V811.073C476.714 809.462 476.714 807.852 476.714 806.243C476.714 800.911 468.425 800.9 468.425 806.243Z" fill="black"/>
<path d="M507.332 806.243C507.353 817.12 507.332 828.002 507.332 838.873V843.847C507.332 849.181 515.621 849.189 515.621 843.847C515.621 832.92 515.621 821.994 515.621 811.069C515.621 809.459 515.621 807.849 515.621 806.239C515.621 800.907 507.332 800.896 507.332 806.239V806.243Z" fill="black"/>
<path d="M519.59 780.103C519.59 772.391 519.59 764.68 519.59 756.968C519.578 756.243 519.378 755.533 519.01 754.909C518.642 754.284 518.117 753.766 517.488 753.405C516.859 753.044 516.148 752.853 515.422 752.85C514.697 752.847 513.984 753.033 513.352 753.389L437.417 797.224C436.794 797.591 436.277 798.114 435.916 798.742C435.556 799.369 435.366 800.08 435.364 800.803C435.364 831.576 435.37 862.351 435.382 893.125C435.393 893.85 435.593 894.56 435.961 895.185C436.329 895.809 436.853 896.328 437.482 896.689C438.111 897.05 438.823 897.241 439.548 897.244C440.273 897.246 440.986 897.06 441.618 896.704L459.688 886.262C464.307 883.597 460.138 876.431 455.504 879.106L437.432 889.54L443.669 893.119C443.669 862.346 443.663 831.572 443.651 800.797L441.597 804.376L517.534 760.541L511.301 756.968C511.301 764.68 511.301 772.391 511.301 780.103C511.301 785.437 519.59 785.445 519.59 780.103Z" fill="black"/>
<path d="M369.421 884.43C392.526 871.09 415.622 857.739 438.71 844.377L457.5 833.516C462.117 830.849 457.947 823.683 453.316 826.358C428.034 840.971 402.752 855.586 377.47 870.206C373.393 872.563 369.318 874.918 365.244 877.272C360.627 879.939 364.796 887.105 369.428 884.43H369.421Z" fill="black"/>
<path d="M413.074 881.05C427.887 872.497 442.695 863.937 457.498 855.37C462.115 852.703 457.945 845.537 453.314 848.213C438.505 856.771 423.698 865.331 408.892 873.892C404.273 876.56 408.443 883.723 413.074 881.05Z" fill="black"/>
<path d="M594.509 731.767C592.878 730.82 591.127 729.798 589.287 728.727C588.056 728.006 586.655 727.624 585.229 727.62C583.802 727.615 582.399 727.989 581.164 728.702L538.014 753.646C537.032 754.213 536.215 755.029 535.647 756.011C535.079 756.993 534.778 758.107 534.775 759.241C534.775 765.784 534.775 779.177 534.775 785.684C534.776 786.815 535.073 787.926 535.638 788.905C536.204 789.885 537.017 790.698 537.996 791.264C544.778 795.202 560.105 804.113 562.355 805.399" fill="#CFCFCF"/>
<path d="M500.154 831.968C499.932 831.923 499.71 831.883 499.484 831.852C498.349 831.644 497.178 831.745 496.095 832.143C495.011 832.541 494.054 833.222 493.323 834.115C492.793 834.841 492.521 835.724 492.553 836.623C492.764 837.967 493.396 839.211 494.357 840.174C498.065 844.616 502.485 848.41 507.438 851.4C503.284 853.051 499.909 856.211 497.988 860.247C497.264 861.873 496.941 863.649 497.046 865.426C497.15 867.203 497.681 868.929 498.591 870.459C500.052 872.417 501.883 874.07 503.979 875.325L508.437 878.398C510.681 879.944 513.23 881.566 515.922 881.131C516.521 880.959 517.148 880.902 517.768 880.963C518.411 881.179 518.975 881.583 519.387 882.122L523.5 886.544C527.773 880.493 533.698 872.384 538.006 866.691C535.455 863.976 533.495 860.761 532.247 857.25C531.814 855.713 531.269 854.21 530.616 852.753C528.839 849.867 526.405 847.441 523.512 845.674C519.138 842.518 510.414 837.313 505.803 834.511C504.075 833.353 502.166 832.493 500.154 831.968Z" fill="#CFCFCF"/>
<path d="M630.181 824.479C624.421 823.371 618.489 823.527 612.795 824.937C601.381 827.158 590.238 828.967 581.53 835.01C577.504 837.845 574.1 841.475 571.529 845.676C568.251 850.973 560.204 864.269 555.969 871.066C553.088 869.286 549.13 866.387 545.814 864.051C544.805 863.336 543.558 863.04 542.335 863.226C541.111 863.411 540.008 864.064 539.256 865.046C534.462 871.323 526.778 881.831 522.089 888.562C521.43 889.503 521.133 890.65 521.252 891.792C521.371 892.934 521.899 893.995 522.738 894.779C528.847 900.513 538.833 909.652 544.783 912.791C548.359 914.631 552.474 915.132 556.387 914.205C560.396 913.264 564.208 911.624 567.648 909.36C567.617 917.649 567.605 922.935 567.605 922.935C567.588 929.374 567.872 936.755 567.872 936.755C567.729 940.228 569.553 946.081 572.4 948.037C574.932 949.784 578.31 950.569 585.907 951.951C603.594 955.168 619.217 952.834 639.409 949.545C642.748 949.002 648.374 947.527 650.185 945.351C652.487 942.589 652.367 939.665 652.492 935.551C653.447 903.905 655.287 880.312 649.758 853.313C648.028 844.862 645.614 836.075 639.565 829.927C637.016 827.259 633.762 825.369 630.181 824.479Z" fill="#CFCFCF"/>
<path d="M571.913 810.209C574.53 812.907 577.675 815.036 581.153 816.462C584.63 817.888 588.364 818.582 592.122 818.498L595.149 828.837C600.745 827.19 606.723 826.106 612.795 824.925C613.831 824.717 614.83 824.554 615.806 824.402L616.171 824.164C609.66 817.225 604.304 809.286 600.307 800.65C600.307 800.65 599.876 799.589 599.271 798.088C601.628 796.676 603.516 794.6 604.698 792.12C605.971 789.637 606.524 786.847 606.293 784.065C606.062 781.284 605.058 778.623 603.393 776.383C601.654 774.279 599.217 772.868 596.526 772.409C593.835 771.949 591.069 772.47 588.729 773.878C587.266 770.096 585.258 762.356 584.805 760.823C580.297 757.608 575.591 754.682 570.713 752.063L570.419 752.455C566.465 757.861 563.667 764.023 562.198 770.558C560.729 777.092 560.621 783.859 561.881 790.438C563.209 797.871 566.698 804.748 571.913 810.209Z" fill="#CFCFCF"/>
<path d="M645.206 800.283L645.355 800.022C650.362 791.31 652.365 781.194 651.053 771.232C648.185 751.28 631.22 734.583 611.085 733.443C603.344 732.993 595.611 734.457 588.57 737.707C581.53 740.957 575.399 745.892 570.719 752.075C575.597 754.694 580.303 757.62 584.811 760.835C585.265 762.368 587.273 770.108 588.736 773.89C591.075 772.483 593.841 771.961 596.533 772.421C599.224 772.881 601.66 774.291 603.399 776.396C605.064 778.636 606.069 781.297 606.299 784.078C606.53 786.859 605.978 789.649 604.705 792.133C603.522 794.613 601.634 796.689 599.277 798.101C599.899 799.641 600.314 800.662 600.314 800.662C604.31 809.298 609.666 817.237 616.177 824.176L616.336 824.334C619.728 823.767 623.176 823.613 626.605 823.876C627.957 821.281 629.762 818.948 631.935 816.988C637.604 810.744 641.714 806.367 645.206 800.283Z" fill="#7A7473"/>
<path d="M522.323 879.193C521.644 878.417 520.801 877.801 519.856 877.39C518.91 876.979 517.885 876.783 516.854 876.816C516.001 876.973 515.125 876.959 514.277 876.775C513.429 876.59 512.627 876.239 511.916 875.741C508.591 873.947 505.52 871.716 502.785 869.11C497.783 863.535 504.628 857.206 509.531 854.989C512.496 853.648 511.951 849.321 509.531 847.831C506.379 845.913 503.453 843.645 500.811 841.069C499.538 839.892 498.36 838.616 497.288 837.254C496.612 836.34 496.486 836.577 497.145 836.166C499.453 834.732 503.326 837.868 505.154 838.974C507.66 840.491 510.163 842.006 512.652 843.546C515.14 845.085 517.625 846.64 520.035 848.291C522.502 849.731 524.68 851.617 526.459 853.851C528.289 856.578 528.704 860.176 530.27 863.092C531.493 865.045 532.853 866.91 534.34 868.67C534.918 869.594 535.827 870.262 536.88 870.538C537.934 870.814 539.054 870.677 540.01 870.156C540.954 869.597 541.639 868.688 541.918 867.627C542.196 866.565 542.045 865.437 541.498 864.486C540.082 862.813 538.778 861.048 537.594 859.204C535.957 856.292 535.546 852.869 533.826 849.991C530.693 844.752 524.723 841.357 519.689 838.179C514.525 834.908 509.17 830.963 503.471 828.706C497.236 826.238 487.722 829.036 488.489 837.203C488.866 841.237 492.505 844.586 495.267 847.251C498.34 850.193 501.721 852.793 505.353 855.008V847.85C497.161 851.555 490.346 860.621 493.748 869.905C495.518 874.734 499.702 877.421 503.753 880.213C505.694 881.69 507.761 882.996 509.929 884.115C510.978 884.616 512.089 884.976 513.232 885.188C514.312 885.373 516.373 884.861 517.285 885.244L515.455 884.179C515.83 884.434 516.169 884.737 516.465 885.081C520.195 888.898 526.064 883.035 522.325 879.22L522.323 879.193Z" fill="black"/>
<path d="M650.571 1068.81L648.498 1067.69C641.944 1070.85 621.279 1071.24 617.364 1068.41C609.89 1077 599.118 1078.24 589.434 1076.94C588.109 1076.84 586.8 1076.58 585.538 1076.16C582.068 1074.99 578.871 1073.13 576.138 1070.7C576.111 1070.67 576.074 1070.65 576.047 1070.63L574.855 1070.74C573.258 1069.78 568.386 1070.76 566.39 1073.77C564.395 1076.78 564.463 1082.56 565.592 1086C568.05 1093.47 575.241 1097.26 582.639 1099.92C590.269 1102.8 598.544 1103.54 606.564 1102.05C608.251 1101.63 609.832 1100.86 611.206 1099.8C612.579 1098.73 613.715 1097.39 614.54 1095.86C615.507 1094.04 616.124 1092.06 616.361 1090.02L629.085 1092.95C631.68 1093.61 634.348 1093.96 637.028 1093.97C638.214 1093.97 639.457 1093.89 640.827 1093.75C642.688 1093.64 644.505 1093.13 646.144 1092.24C647.783 1091.36 649.205 1090.11 650.307 1088.61C651.565 1086.2 652.206 1083.52 652.172 1080.81C652.255 1078.07 650.484 1071.52 650.571 1068.81Z" fill="#CFCFCF"/>
<path d="M603.747 953.495C597.768 953.537 591.798 953.022 585.913 951.96C577.363 950.405 574.157 949.603 571.486 947.34C571.328 966.01 572.806 1039.31 574.255 1065.96L574.696 1068.17C575.334 1071.36 580.291 1074.08 585.524 1076.16C586.786 1076.58 588.094 1076.84 589.419 1076.94C599.103 1078.24 609.875 1077 617.348 1068.4C622.137 1071.87 651.994 1070.52 650.43 1065.17C649.466 1038.69 648.616 985.197 649.394 961.453C649.394 961.453 649.186 953.309 649.004 946.387C646.026 948.009 642.78 949.081 639.422 949.554C627.652 951.8 615.724 953.118 603.747 953.495Z" fill="#CFCFCF"/>
<path d="M567.339 952.474C567.435 983.316 568.206 1014.18 569.244 1045C569.482 1052.08 569.737 1059.15 570.122 1066.22C570.411 1071.53 578.702 1071.56 578.412 1066.22C576.735 1035.43 576.317 1004.54 575.85 973.71C575.745 966.632 575.643 959.553 575.629 952.474C575.612 947.14 567.323 947.129 567.339 952.474Z" fill="black"/>
<path d="M645.243 961.453C644.325 990.322 645.046 1019.3 645.773 1048.17C645.947 1055.05 646.146 1061.93 646.426 1068.81C646.633 1074.13 654.922 1074.15 654.715 1068.81C653.542 1039.94 653.155 1010.99 653.238 982.101C653.258 975.217 653.312 968.333 653.532 961.453C653.702 956.117 645.413 956.123 645.243 961.453Z" fill="black"/>
<path d="M612.722 990.859C611.549 1013.65 610.926 1036.53 610.689 1059.36C610.65 1063.3 610.511 1067.28 610.805 1071.21C611.201 1076.49 619.492 1076.54 619.095 1071.21C618.431 1062.37 619.041 1053.31 619.24 1044.46C619.533 1031.55 619.917 1018.65 620.394 1005.75C620.574 1000.77 620.755 995.82 621.016 990.859C621.289 985.529 613 985.543 612.726 990.859H612.722Z" fill="black"/>
<path d="M570.7 1069.27C571.737 1073.32 575.508 1075.94 579.023 1077.77C581.126 1078.96 583.363 1079.89 585.687 1080.54C587.92 1081.01 590.186 1081.3 592.464 1081.41C601.327 1082.3 610.195 1079.76 617.24 1074.3C618.011 1073.52 618.444 1072.47 618.444 1071.37C618.444 1070.27 618.011 1069.22 617.24 1068.44C616.45 1067.69 615.401 1067.27 614.31 1067.27C613.218 1067.27 612.169 1067.69 611.379 1068.44C606.254 1072.12 599.969 1073.8 593.692 1073.19C590.497 1073.17 587.34 1072.5 584.417 1071.21C582.852 1070.54 581.368 1069.69 579.997 1068.68C579.589 1068.33 579.207 1067.95 578.851 1067.55C579.028 1067.76 578.98 1067.66 578.708 1067.26C578.836 1067.6 578.83 1067.54 578.693 1067.08C577.365 1061.91 569.368 1064.1 570.7 1069.28V1069.27Z" fill="black"/>
<path d="M617.841 1073.13C623.132 1074.45 628.609 1074.87 634.04 1074.37C639.703 1074.41 645.32 1073.36 650.585 1071.28C651.527 1070.72 652.211 1069.81 652.49 1068.75C652.768 1067.69 652.618 1066.56 652.073 1065.61C651.501 1064.68 650.592 1064 649.535 1063.72C648.479 1063.45 647.356 1063.59 646.401 1064.12C645.657 1064.47 647.373 1063.8 646.538 1064.07C646.331 1064.13 646.14 1064.21 645.939 1064.28C645.454 1064.44 644.963 1064.58 644.468 1064.71C643.322 1065.01 642.157 1065.24 640.988 1065.43C640.698 1065.48 640.406 1065.52 640.116 1065.56C639.621 1065.64 640.777 1065.49 639.96 1065.59C639.277 1065.66 638.593 1065.74 637.909 1065.81C636.491 1065.95 635.071 1066.04 633.648 1066.09C630.946 1066.21 628.239 1066.19 625.539 1066.02C624.973 1065.98 624.409 1065.93 623.848 1065.88C623.529 1065.84 623.21 1065.8 622.891 1065.77C624.012 1065.87 623.003 1065.78 622.794 1065.75C621.864 1065.61 620.945 1065.4 620.044 1065.13C619.519 1064.98 618.971 1064.95 618.43 1065.01C617.89 1065.08 617.369 1065.25 616.895 1065.52C616.422 1065.79 616.006 1066.15 615.672 1066.58C615.337 1067.01 615.091 1067.5 614.946 1068.02C614.801 1068.55 614.761 1069.1 614.829 1069.64C614.896 1070.18 615.069 1070.7 615.338 1071.17C615.606 1071.65 615.966 1072.06 616.395 1072.4C616.825 1072.73 617.316 1072.98 617.841 1073.12V1073.13Z" fill="black"/>
<path d="M576.948 1067.15C575.306 1066.46 573.524 1066.18 571.752 1066.33C569.979 1066.48 568.267 1067.05 566.761 1068C565.037 1069.05 563.596 1070.51 562.563 1072.24C561.53 1073.98 560.935 1075.94 560.83 1077.96C560.373 1082 561.06 1086.09 562.813 1089.77C564.566 1093.44 567.315 1096.54 570.746 1098.73C578.466 1103.72 587.386 1106.55 596.573 1106.91C605.32 1107.35 614.772 1105.5 618.715 1096.72C622.102 1089.17 620.738 1080.27 618.945 1072.5C617.748 1067.31 609.753 1069.5 610.953 1074.7C611.958 1078.65 612.466 1082.71 612.463 1086.78C612.466 1088 612.345 1089.22 612.103 1090.41C611.974 1090.97 611.842 1091.53 611.668 1092.09C611.614 1092.26 611.015 1093.71 611.413 1092.86C607.857 1100.52 596.971 1099.25 590.107 1097.75C583.375 1096.27 574.429 1093.43 570.651 1087.13C569.001 1084.29 568.491 1080.93 569.221 1077.72C569.286 1077.13 569.504 1076.57 569.853 1076.1C570.201 1075.62 570.669 1075.24 571.208 1075C571.766 1074.75 572.427 1074.74 572.97 1074.49C573.233 1074.37 573.531 1074.67 572.762 1074.31C577.549 1076.6 581.76 1069.46 576.948 1067.15Z" fill="black"/>
<path d="M646.426 1068.81C646.592 1071.93 647.038 1075.03 647.759 1078.07C647.86 1078.49 647.93 1078.91 647.966 1079.33C647.966 1078.24 647.933 1079.09 647.966 1079.37C648.027 1079.96 648.046 1080.56 648.022 1081.15C648.001 1081.65 647.953 1082.15 647.914 1082.65C647.841 1083.62 648.036 1082.22 647.852 1083.11C647.744 1083.63 647.645 1084.14 647.51 1084.66C647.468 1084.81 647.077 1085.98 647.214 1085.64C647.35 1085.3 646.799 1086.36 646.741 1086.5C646.465 1086.89 646.465 1086.91 646.741 1086.56C646.625 1086.7 646.505 1086.84 646.38 1086.97C646.09 1087.28 645.78 1087.58 645.452 1087.85C646.101 1087.31 645.096 1088.06 644.938 1088.16C644.563 1088.39 644.178 1088.58 643.788 1088.78C643.349 1088.98 643.333 1088.99 643.74 1088.81C643.564 1088.87 643.386 1088.94 643.208 1088.99C642.37 1089.26 641.516 1089.46 640.651 1089.62C640.347 1089.66 640.407 1089.65 640.833 1089.59C640.522 1089.62 640.211 1089.65 639.898 1089.68C639.382 1089.72 638.862 1089.76 638.348 1089.78C637.385 1089.82 636.421 1089.82 635.457 1089.78C634.993 1089.75 634.529 1089.71 634.065 1089.67C633.568 1089.62 633.536 1089.62 633.972 1089.67C633.764 1089.64 633.568 1089.62 633.367 1089.58C632.301 1089.41 631.244 1089.19 630.194 1088.94C629.134 1088.65 628.001 1088.79 627.045 1089.33C626.089 1089.87 625.388 1090.78 625.096 1091.84C624.804 1092.89 624.945 1094.03 625.488 1094.98C626.031 1095.94 626.931 1096.64 627.991 1096.93C636.57 1098.94 648.826 1099.23 653.986 1090.53C655.968 1086.86 656.726 1082.66 656.147 1078.53C655.886 1076.52 655.513 1074.53 655.159 1072.52C655.08 1072.09 655.003 1071.65 654.933 1071.21C654.898 1071 654.864 1070.8 654.831 1070.59C654.762 1070.11 654.77 1070.18 654.854 1070.8C654.696 1070.15 654.652 1069.48 654.721 1068.82C654.721 1067.72 654.285 1066.67 653.507 1065.89C652.73 1065.11 651.676 1064.68 650.577 1064.68C649.478 1064.68 648.424 1065.11 647.646 1065.89C646.869 1066.67 646.432 1067.72 646.432 1068.82L646.426 1068.81Z" fill="black"/>
<path d="M563.466 922.941C563.466 927.55 563.611 932.153 563.733 936.762C563.864 941.785 565.408 947.672 569.474 950.973C572.968 953.81 577.763 954.618 582.046 955.441C588.302 956.695 594.651 957.422 601.028 957.613C614.241 957.901 627.535 955.804 640.518 953.547C645.417 952.697 651.294 951.239 654.228 946.854C657.612 941.783 656.671 934.407 656.87 928.617C657.73 903.358 658.92 878.025 653.936 853.078C651.721 841.986 648.086 829.813 638.002 823.354C628.242 817.104 615.967 820.059 605.426 822.152C598.483 823.333 591.707 825.341 585.242 828.132C578.628 831.234 572.978 836.071 568.896 842.129C562.915 850.903 557.788 860.319 552.164 869.327C549.329 873.866 556.497 878.031 559.319 873.511C563.999 866.018 568.556 858.452 573.169 850.923C575.42 846.868 578.309 843.201 581.725 840.062C586.054 836.627 591.06 834.144 596.415 832.778C601.998 831.147 607.741 830.118 613.446 829.023C618.108 827.889 622.937 827.602 627.701 828.178C637.213 829.854 641.774 838.941 644.13 847.461C650.061 868.88 649.787 891.6 649.103 913.61C648.909 919.761 648.674 925.911 648.482 932.053C648.357 935.887 649.518 941.849 645.259 943.708C640.429 945.813 634.674 946.166 629.531 946.951C623.77 947.83 617.99 948.609 612.175 949.023C605.905 949.509 599.604 949.455 593.342 948.862C587.74 948.442 582.206 947.371 576.851 945.672C575.591 945.333 574.505 944.53 573.811 943.424C572.681 941.487 572.07 939.292 572.035 937.05C571.855 932.352 571.768 927.651 571.772 922.946C571.772 917.612 563.483 917.603 563.483 922.946L563.466 922.941Z" fill="black"/>
<path d="M630.664 825.065C632.945 821.787 635.545 818.744 638.427 815.98C641.622 812.541 644.549 808.863 647.182 804.976C652.545 796.823 655.47 787.309 655.615 777.552C655.552 769.232 653.386 761.064 649.318 753.806C645.249 746.549 639.411 740.438 632.347 736.044C617.897 727.052 599.487 727.34 584.556 735.066C576.527 739.355 569.755 745.662 564.908 753.366C560.06 761.07 557.304 769.904 556.912 778.998C555.923 799.545 569.061 823.345 592.116 822.647C597.437 822.485 597.46 814.196 592.116 814.358C575.044 814.876 565.495 797.539 565.155 782.403C564.953 774.693 566.775 767.064 570.44 760.277C574.105 753.49 579.485 747.783 586.044 743.724C598.015 736.502 613.562 735.151 626.02 741.942C631.961 745.177 637.009 749.834 640.712 755.495C644.415 761.157 646.659 767.647 647.243 774.387C647.777 783.878 645.165 793.28 639.811 801.134C637.247 804.796 634.411 808.259 631.327 811.496C628.409 814.346 625.792 817.49 623.519 820.877C620.806 825.484 627.97 829.659 630.677 825.059L630.664 825.065Z" fill="black"/>
<path d="M556.59 866.544C552.214 863.63 547.265 858.209 541.554 859.192C536.672 860.033 534.121 864.982 531.4 868.643C528.164 872.997 524.969 877.381 521.815 881.796C518.929 885.835 515.47 890.004 517.996 895.185C519.18 897.141 520.717 898.859 522.528 900.254C524.393 901.98 526.283 903.692 528.196 905.37C531.855 908.685 535.72 911.765 539.768 914.592C543.969 917.626 549.105 919.081 554.274 918.701C559.539 918.07 564.591 916.251 569.051 913.382C579.108 907.165 586.344 897.483 593.183 888.059C593.729 887.108 593.88 885.98 593.602 884.919C593.324 883.858 592.64 882.949 591.697 882.389C590.742 881.858 589.619 881.716 588.563 881.993C587.506 882.27 586.597 882.944 586.025 883.875C581.34 890.818 575.831 897.169 569.619 902.788C564.001 907.53 555.15 912.688 547.64 909.6C544.549 908.086 541.689 906.141 539.144 903.825C535.917 901.201 532.805 898.437 529.738 895.631C528.363 894.555 527.08 893.365 525.904 892.075C524.949 890.831 525.974 890.21 526.832 888.995C529.261 885.551 531.722 882.129 534.214 878.729C535.653 876.756 537.104 874.789 538.566 872.827C539.649 871.079 540.886 869.431 542.26 867.901C542.702 867.487 542.716 867.334 543.315 867.325C543.332 867.325 545.037 868.554 545.522 868.896C547.802 870.519 550.081 872.15 552.415 873.702C556.868 876.667 561.023 869.491 556.599 866.544H556.59Z" fill="black"/>
<path d="M570.24 756.537C574.587 758.849 578.757 761.481 582.714 764.412L580.807 761.935C582.015 766.053 583.02 770.224 584.467 774.274C584.611 774.798 584.858 775.29 585.192 775.719C585.527 776.149 585.943 776.508 586.416 776.777C586.889 777.046 587.411 777.219 587.951 777.286C588.492 777.353 589.04 777.313 589.565 777.169C590.089 777.024 590.581 776.777 591.01 776.443C591.44 776.108 591.799 775.693 592.068 775.219C592.337 774.746 592.51 774.224 592.577 773.684C592.644 773.144 592.604 772.596 592.46 772.071C591.593 769.646 590.878 767.166 590.18 764.689C589.873 763.596 589.571 762.504 589.272 761.413C589.078 759.949 588.388 758.596 587.318 757.579C583.275 754.465 578.96 751.72 574.426 749.377C573.956 749.102 573.437 748.923 572.898 748.849C572.358 748.775 571.81 748.808 571.283 748.946C570.757 749.084 570.262 749.325 569.829 749.654C569.395 749.983 569.03 750.394 568.756 750.864C568.481 751.334 568.301 751.853 568.228 752.393C568.154 752.932 568.187 753.481 568.325 754.007C568.463 754.534 568.703 755.028 569.032 755.462C569.361 755.895 569.773 756.26 570.243 756.535L570.24 756.537Z" fill="black"/>
<path d="M590.555 777.656C590.918 777.39 591.298 777.149 591.693 776.933C592.047 776.742 592.584 776.605 591.921 776.808C592.335 776.678 592.775 776.57 593.199 776.443C594.099 776.174 592.551 776.431 593.419 776.396C593.869 776.377 594.312 776.348 594.762 776.365C595.176 776.379 595.734 776.458 595.006 776.344C595.789 776.484 596.56 776.681 597.313 776.935C597.755 777.105 597.741 777.095 597.271 776.906C597.479 777.001 597.686 777.1 597.893 777.208C598.194 777.368 598.49 777.54 598.776 777.726C598.967 777.848 599.153 777.977 599.337 778.112C598.949 777.809 598.935 777.809 599.294 778.112C599.534 778.352 599.791 778.572 600.026 778.822C600.181 778.988 600.33 779.158 600.473 779.334C600.215 778.993 600.224 779.016 600.5 779.403C600.695 779.726 600.904 780.024 601.086 780.364C601.205 780.584 601.319 780.806 601.426 781.032C601.262 780.617 601.267 780.632 601.443 781.075C601.586 781.489 601.727 781.904 601.841 782.318C601.955 782.733 602.048 783.172 602.121 783.603C601.949 782.7 602.152 783.991 602.164 784.192C602.189 784.635 602.195 785.077 602.183 785.52C602.183 785.657 602.096 786.946 602.139 786.488C602.183 786.03 601.992 787.298 601.959 787.441C601.864 787.876 601.752 788.305 601.619 788.732C601.486 789.159 601.346 789.578 601.176 789.988C601.499 789.209 600.956 790.382 600.877 790.529C600.67 790.908 600.463 791.281 600.218 791.642C600.083 791.849 599.945 792.056 599.804 792.253C600.04 791.956 600.066 791.921 599.883 792.147C599.321 792.8 598.713 793.412 598.065 793.979C597.839 794.166 597.877 794.135 598.181 793.89C597.974 794.031 597.781 794.166 597.574 794.305C597.213 794.528 596.834 794.709 596.461 794.912C596.192 795.038 596.244 795.015 596.621 794.845C596.393 794.928 596.165 795.003 595.933 795.071C595.465 795.2 594.99 795.297 594.509 795.363C593.449 795.656 592.549 796.358 592.005 797.313C591.462 798.269 591.319 799.401 591.608 800.461C591.927 801.504 592.633 802.385 593.581 802.924C594.528 803.463 595.646 803.62 596.706 803.362C604.81 802.183 609.852 793.882 610.43 786.297C610.799 782.435 609.816 778.565 607.649 775.346C605.483 772.127 602.267 769.76 598.55 768.648C596.508 768.055 594.361 767.914 592.259 768.237C590.157 768.559 588.15 769.335 586.38 770.513C585.449 771.085 584.776 771.993 584.499 773.049C584.222 774.106 584.364 775.228 584.894 776.182C585.457 777.122 586.365 777.805 587.425 778.083C588.485 778.361 589.611 778.213 590.563 777.67L590.555 777.656Z" fill="black"/>
<path d="M596.312 801.765C598.267 806.352 600.678 810.732 603.509 814.837C606.348 819.234 609.61 823.344 613.249 827.107C613.631 827.502 614.088 827.818 614.594 828.035C615.1 828.253 615.643 828.367 616.194 828.372C616.744 828.377 617.29 828.272 617.799 828.063C618.309 827.855 618.771 827.547 619.16 827.158C619.55 826.769 619.857 826.306 620.066 825.797C620.274 825.287 620.379 824.742 620.374 824.191C620.369 823.641 620.255 823.097 620.038 822.592C619.821 822.086 619.505 821.629 619.109 821.246C617.565 819.683 616.112 818.033 614.757 816.304C614.693 816.221 613.982 815.311 614.55 816.049C614.37 815.817 614.194 815.583 614.017 815.348C613.622 814.826 613.233 814.3 612.851 813.769C612.109 812.743 611.386 811.707 610.681 810.661C609.32 808.628 608.022 806.554 606.814 804.425C606.273 803.47 605.751 802.507 605.258 801.524C605.042 801.099 604.835 800.67 604.636 800.239C604.522 799.995 604.414 799.75 604.3 799.506C603.961 798.772 604.642 800.335 604.323 799.566C604.008 798.521 603.303 797.636 602.354 797.096C601.405 796.556 600.285 796.402 599.225 796.665C598.17 796.964 597.275 797.667 596.732 798.62C596.189 799.574 596.043 800.702 596.324 801.763L596.312 801.765Z" fill="black"/>
<path d="M569.752 774.182C569.135 770.237 569.865 766.2 571.824 762.721C573.513 759.229 575.739 756.023 578.42 753.219C584.383 747.3 591.501 742.672 599.329 739.621C600.371 739.299 601.251 738.593 601.789 737.645C602.328 736.698 602.486 735.581 602.23 734.521C601.934 733.463 601.232 732.566 600.278 732.022C599.323 731.479 598.193 731.334 597.133 731.62C587.735 735.582 578.604 740.611 571.702 748.285C565.143 755.575 559.284 766.299 561.755 776.379C563.027 781.56 571.022 779.363 569.749 774.176L569.752 774.182Z" fill="black"/>
<path d="M653.575 779.523C653.579 779.962 653.49 780.397 653.314 780.799C653.137 781.201 652.877 781.562 652.552 781.856C647.48 786.678 641.751 790.756 635.534 793.969C625.506 798.587 614.581 800.929 603.542 800.828C595.686 800.683 587.89 799.431 580.384 797.108C573.389 794.487 566.891 790.693 561.17 785.889C560.373 785.249 559.73 784.437 559.289 783.515C558.848 782.593 558.62 781.583 558.621 780.561V772.962C558.621 772.407 558.768 771.861 559.048 771.382C559.327 770.902 559.729 770.505 560.212 770.231C560.695 769.957 561.242 769.816 561.798 769.823C562.353 769.829 562.896 769.983 563.373 770.268C568.481 773.329 574.149 777.492 580.399 779.823C588.171 782.683 596.378 784.181 604.659 784.25C613.357 783.932 621.882 781.73 629.645 777.795C635.001 775.37 640.108 771.248 645.125 767.79C645.958 767.255 646.921 766.955 647.91 766.923C648.9 766.891 649.88 767.127 650.746 767.607C651.613 768.087 652.333 768.792 652.831 769.648C653.329 770.504 653.586 771.479 653.575 772.469V779.523Z" fill="#CFCFCF"/>
<path d="M649.431 779.523C649.497 778.874 650.075 778.779 649.087 779.4C648.793 779.623 648.516 779.866 648.258 780.13C647.585 780.72 646.907 781.305 646.223 781.885C644.799 783.087 643.349 784.254 641.838 785.344C638.556 787.754 635.006 789.774 631.259 791.366C624.243 794.263 616.811 796.024 609.241 796.584C602.577 796.99 595.889 796.522 589.347 795.193C581.222 793.536 573.566 790.095 566.933 785.118C565.014 783.721 562.875 782.583 562.772 780.037C562.689 777.964 562.963 775.853 562.772 773.793C562.672 772.728 562.772 773.012 562.127 773.896C561.792 774.352 560.353 772.976 561.989 774.261C562.331 774.5 562.686 774.721 563.052 774.922C564.026 775.529 564.993 776.149 565.953 776.764C569.498 779.117 573.229 781.177 577.108 782.923C591.657 789.301 608.065 790.014 623.113 784.923C627.334 783.486 631.416 781.669 635.308 779.494C637.449 778.25 639.494 776.839 641.525 775.405C642.545 774.682 643.556 773.954 644.573 773.223C645.456 772.418 646.442 771.733 647.504 771.186C650.585 770.204 649.431 777.888 649.431 779.523C649.431 784.857 657.72 784.865 657.72 779.523C657.72 774.135 658.578 768.055 653.536 764.495C651.873 763.346 649.891 762.751 647.87 762.792C645.85 762.833 643.894 763.509 642.279 764.725C638.178 767.508 634.318 770.639 629.947 773.014C621.919 777.557 612.871 779.992 603.648 780.093C594.736 780.076 585.941 778.06 577.912 774.193C573.707 772.033 569.923 769.209 565.816 766.896C564.879 766.3 563.821 765.923 562.718 765.791C561.616 765.659 560.498 765.776 559.447 766.134C558.396 766.492 557.439 767.082 556.647 767.859C555.854 768.637 555.246 769.583 554.868 770.626C554.372 772.978 554.24 775.391 554.476 777.782C554.167 780.83 554.801 783.9 556.292 786.577C558.571 790.011 562.95 792.557 566.355 794.752C570.394 797.378 574.734 799.51 579.282 801.101C587.78 803.84 596.672 805.162 605.6 805.012C615.45 804.881 625.181 802.847 634.26 799.023C639.196 796.954 643.84 794.246 648.071 790.968C652.009 787.949 657.189 784.838 657.72 779.523C657.712 778.426 657.273 777.376 656.498 776.6C655.722 775.825 654.672 775.386 653.575 775.378C652.484 775.402 651.443 775.846 650.671 776.618C649.899 777.391 649.455 778.431 649.431 779.523Z" fill="black"/>
<path d="M596.602 728.188C591.751 725.368 586.995 722.091 581.155 724.188C578.62 725.284 576.187 726.602 573.884 728.126L566.119 732.614L550.438 741.681L543.006 745.968C540.01 747.452 537.144 749.185 534.438 751.149C530.593 754.365 530.62 758.777 530.62 763.361C530.62 767.945 530.62 772.479 530.62 777.038C530.62 781.129 529.866 786.195 531.578 790.008C533.314 793.873 537.129 795.581 540.601 797.595C547.152 801.397 553.702 805.196 560.252 808.993C564.882 811.662 569.061 804.502 564.436 801.835C559.773 799.145 555.116 796.444 550.465 793.732L541.784 788.693C540.634 788.023 539.26 787.524 538.939 786.096C538.764 784.494 538.754 782.879 538.91 781.276C538.91 777.33 538.91 773.385 538.91 769.441V764.028C538.774 762.373 538.78 760.709 538.928 759.055C539.274 757.175 541.264 756.568 542.77 755.693L550.264 751.36L564.024 743.407L578.865 734.826C580.73 733.746 583.145 731.672 585.416 731.788C587.743 731.908 590.445 734.216 592.412 735.358C597.031 738.052 601.209 730.886 596.596 728.2L596.602 728.188Z" fill="black"/>
</g>
<g opacity="0.1">
<path d="M70.9293 339.998C70.9293 351.607 73.2157 363.101 77.658 373.826C82.1002 384.55 88.6114 394.295 96.8196 402.503C105.028 410.711 114.772 417.222 125.497 421.665C136.222 426.107 147.716 428.393 159.324 428.393C170.932 428.393 182.427 426.107 193.152 421.665C203.876 417.222 213.621 410.711 221.829 402.503C230.037 394.295 236.548 384.55 240.991 373.826C245.433 363.101 247.719 351.607 247.719 339.998C247.719 328.39 245.433 316.896 240.991 306.171C236.548 295.447 230.037 285.702 221.829 277.494C213.621 269.286 203.876 262.774 193.152 258.332C182.427 253.89 170.932 251.604 159.324 251.604C147.716 251.604 136.222 253.89 125.497 258.332C114.772 262.774 105.028 269.286 96.8196 277.494C88.6114 285.702 82.1002 295.447 77.658 306.171C73.2157 316.896 70.9293 328.39 70.9293 339.998Z" fill="#5B5B5B"/>
<path d="M66.607 448.062C66.607 452.779 70.4316 456.603 75.1488 456.603C70.4313 456.603 66.607 460.428 66.607 465.145C66.607 460.428 62.7828 456.603 58.0656 456.603C62.7828 456.603 66.607 452.779 66.607 448.062Z" fill="#A3A3A3"/>
<path d="M70.941 473.328H62.2715V465.144C62.2715 462.824 60.3864 460.939 58.0664 460.939H49.8824V452.27H58.0664C60.3864 452.27 62.2715 450.382 62.2715 448.062V439.878H70.941V448.062C70.941 450.382 72.8289 452.27 75.1488 452.27V460.939C72.8293 460.939 70.941 462.824 70.941 465.144V473.328ZM83.3328 460.939H75.1485V452.27H83.3328V460.939Z" fill="#A3A3A3"/>
<path d="M304.992 370.305C304.992 373.463 307.552 376.023 310.711 376.023C307.552 376.023 304.992 378.583 304.992 381.742C304.992 378.583 302.432 376.023 299.273 376.023C302.432 376.023 304.992 373.463 304.992 370.305Z" fill="#A3A3A3"/>
<path d="M307.894 387.221H302.089V381.742C302.089 380.189 300.827 378.925 299.274 378.925H293.795V373.121H299.274C300.021 373.12 300.736 372.823 301.264 372.295C301.792 371.768 302.089 371.052 302.089 370.305V364.826H307.894V370.305C307.894 371.859 309.158 373.121 310.711 373.121V378.925C309.158 378.925 307.894 380.189 307.894 381.742V387.221ZM316.19 378.925H310.711V373.12H316.19V378.925Z" fill="#A3A3A3"/>
<path d="M268.07 388.344C268.07 393.061 271.894 396.885 276.611 396.885C271.893 396.885 268.07 400.71 268.07 405.427C268.07 400.709 264.245 396.885 259.528 396.885C264.245 396.886 268.07 393.061 268.07 388.344Z" fill="#A3A3A3"/>
<path d="M272.405 413.611H263.735V405.427C263.735 403.107 261.847 401.222 259.527 401.222H251.343V392.552H259.527C261.847 392.552 263.735 390.664 263.735 388.345V380.16H272.405V388.344C272.405 390.664 274.29 392.552 276.61 392.552V401.221C274.29 401.221 272.405 403.107 272.405 405.426V413.611ZM284.794 401.221H276.61V392.552H284.794V401.221Z" fill="#A3A3A3"/>
<path d="M236.132 446.437C236.132 449.658 238.743 452.27 241.964 452.27H247.553H241.965C238.743 452.27 236.132 454.881 236.132 458.103C236.132 454.881 233.521 452.27 230.299 452.27C233.52 452.27 236.132 449.659 236.132 446.437Z" fill="#A3A3A3"/>
<path d="M239.092 463.692H233.172V458.103C233.172 456.519 231.883 455.23 230.298 455.23H224.71V449.309H230.298C231.882 449.309 233.172 448.02 233.172 446.436V440.848H239.092V446.436C239.092 448.021 240.381 449.31 241.966 449.31V455.23C240.381 455.23 239.092 456.519 239.092 458.104L239.092 463.692ZM247.554 455.23H241.965V449.309H247.554V455.23Z" fill="#A3A3A3"/>
<path d="M14.425 301.596C14.425 306.314 18.2492 310.138 22.9664 310.138C18.2488 310.138 14.425 313.962 14.425 318.679C14.425 313.962 10.6004 310.138 5.88318 310.138C10.6008 310.138 14.425 306.314 14.425 301.596Z" fill="#A3A3A3"/>
<path d="M18.7605 326.864H10.091V318.68C10.091 316.361 8.20273 314.472 5.8832 314.472H-2.30078V305.803H5.8832C8.20312 305.803 10.091 303.915 10.091 301.595V293.411H18.7605V301.595C18.7605 303.915 20.6457 305.803 22.9652 305.803V314.472C20.6457 314.472 18.7605 316.36 18.7605 318.68V326.864ZM31.1496 314.472H22.9652V305.803H31.1496V314.472Z" fill="#A3A3A3"/>
<path d="M189.385 430.479C139.248 447.141 84.9023 419.906 68.241 369.769C51.5797 319.632 78.8148 265.286 128.952 248.625C179.089 231.963 233.434 259.199 250.096 309.336C266.757 359.472 239.522 413.818 189.385 430.479ZM131.686 256.852C86.0855 272.005 61.3144 321.434 76.4683 367.035C91.6218 412.635 141.051 437.406 186.651 422.252C232.252 407.099 257.022 357.67 241.869 312.07C226.715 266.469 177.286 241.698 131.686 256.852Z" fill="black"/>
<path d="M74.2805 418.216C49.1492 426.568 29.2586 428.872 23.5633 419.172C15.4238 405.31 43.0043 379.128 67.5781 359.604L72.9695 366.395C33.6203 397.656 29.3602 411.926 31.0387 414.785C36.416 423.942 94.1496 407.947 172.367 362.026C207.35 341.485 238.62 319.492 260.415 300.101C285.297 277.96 288.88 267.014 287.298 264.319C285.604 261.433 270.905 258.205 223.861 277.668L220.545 269.658C249.883 257.515 286.582 245.976 294.773 259.932C300.276 269.303 290.923 284.56 266.179 306.578C243.971 326.335 212.214 348.683 176.755 369.501C146.305 387.382 106.094 407.644 74.2805 418.216Z" fill="black"/>
<path d="M34.7015 272.06C34.7015 273.924 35.0689 275.771 35.7825 277.494C36.4962 279.217 37.5423 280.783 38.861 282.101C40.1797 283.42 41.7452 284.466 43.4682 285.18C45.1911 285.893 47.0378 286.261 48.9027 286.261C50.7676 286.261 52.6143 285.893 54.3373 285.18C56.0602 284.466 57.6258 283.42 58.9445 282.101C60.2632 280.783 61.3092 279.217 62.0229 277.494C62.7366 275.771 63.1039 273.924 63.1039 272.06C63.1039 270.195 62.7366 268.348 62.0229 266.625C61.3092 264.902 60.2632 263.337 58.9445 262.018C57.6258 260.699 56.0602 259.653 54.3373 258.939C52.6143 258.226 50.7676 257.858 48.9027 257.858C47.0378 257.858 45.1911 258.226 43.4682 258.939C41.7452 259.653 40.1797 260.699 38.861 262.018C37.5423 263.337 36.4962 264.902 35.7825 266.625C35.0689 268.348 34.7015 270.195 34.7015 272.06Z" fill="#5B5B5B"/>
<path d="M48.9043 290.595C38.6824 290.595 30.3656 282.281 30.3656 272.059C30.3656 261.837 38.6824 253.523 48.9043 253.523C59.1261 253.523 67.4398 261.837 67.4398 272.059C67.4398 282.281 59.1261 290.595 48.9043 290.595ZM48.9043 262.193C43.4629 262.193 39.0351 266.619 39.0351 272.06C39.0351 277.501 43.4629 281.926 48.9043 281.926C54.3453 281.926 58.7703 277.501 58.7703 272.06C58.7703 266.618 54.3453 262.193 48.9043 262.193Z" fill="black"/>
<path d="M207.163 261.685C211.19 253.784 212.183 244.341 209.166 235.261C203.184 217.261 183.743 207.518 165.743 213.5C150.161 218.678 140.788 233.945 142.426 249.629C165.296 245.342 188.273 250.055 207.163 261.685Z" fill="#A3A3A3"/>
<path d="M208.893 267.838L204.889 265.374C186.386 253.983 164.487 249.906 143.225 253.891L138.606 254.757L138.116 250.081C136.244 232.179 147.288 215.064 164.377 209.385C184.616 202.659 206.552 213.653 213.279 233.894C216.564 243.782 215.765 254.352 211.025 263.65L208.893 267.838ZM146.62 244.57C166.761 241.883 187.18 245.69 205.078 255.465C207.101 249.372 207.112 242.828 205.052 236.629C199.833 220.924 182.813 212.395 167.111 217.613C155.33 221.527 147.255 232.443 146.62 244.57Z" fill="black"/>
<path d="M115.657 419.996C109.866 428.041 107.859 438.638 111.224 448.764C116.793 465.522 134.894 474.593 151.652 469.024C167.922 463.617 176.904 446.403 172.321 430.069C152.426 432.983 132.621 429.167 115.657 419.996Z" fill="#A3A3A3"/>
<path d="M153.02 473.139C134.019 479.453 113.424 469.131 107.11 450.13C103.454 439.129 105.335 426.917 112.137 417.463L114.363 414.371L117.716 416.183C134.384 425.192 153.048 428.513 171.693 425.781L175.464 425.227L176.494 428.899C181.736 447.59 171.425 467.023 153.02 473.139ZM117.215 425.673C113.672 432.319 112.946 440.2 115.337 447.396C120.143 461.861 135.822 469.718 150.286 464.911C163.104 460.652 170.762 447.9 168.909 434.863C151.096 436.717 133.379 433.568 117.215 425.673ZM210.506 297.741C210.437 297.621 203.049 284.96 189.9 278.37C176.677 271.744 162.986 272.767 162.849 272.778L162.127 264.215C162.78 264.159 178.29 262.94 193.75 270.687C209.289 278.475 217.625 292.876 217.972 293.485L210.506 297.741ZM221.411 299.044L226.046 308.533L218.325 312.305L213.69 302.816L221.411 299.044Z" fill="black"/>
</g>
</g>
<defs>
<clipPath id="clip0_35_2410">
<rect width="714.24" height="1200" fill="white"/>
</clipPath>
<clipPath id="clip1_35_2410">
<rect width="800" height="800" fill="white" transform="translate(-42 400)"/>
</clipPath>
</defs>
</svg>
