<svg width="1698" height="1000" viewBox="0 0 1698 1000" fill="none" xmlns="http://www.w3.org/2000/svg">
<g opacity="0.12" clip-path="url(#clip0_31_1277)">
<rect width="800" height="800" transform="translate(898 200)" fill="#F5F5F5"/>
<path d="M1544.66 955.127C1544.47 955.127 1544.28 955.106 1544.1 955.106C1492.46 953.303 1451.53 928.56 1451.53 898.284V885.871C1451.53 854.434 1495.67 828.945 1550.13 828.945C1604.59 828.945 1648.73 854.434 1648.73 885.871C1648.72 889.119 1648.26 892.35 1647.34 895.466V895.486" fill="#CFCFCF"/>
<path d="M959.478 587.207L906.604 617.738L899.005 622.125C898.53 622.402 898.186 622.857 898.046 623.389C897.907 623.921 897.985 624.486 898.262 624.961C898.54 625.435 898.994 625.78 899.526 625.92C900.058 626.059 900.623 625.981 901.098 625.704L953.974 595.175L961.571 590.788C962.046 590.51 962.391 590.055 962.53 589.524C962.67 588.992 962.592 588.426 962.314 587.952C962.037 587.477 961.582 587.132 961.05 586.993C960.518 586.854 959.953 586.931 959.478 587.209V587.207Z" fill="#CFCFCF"/>
<path d="M1304.21 388.182L1244.23 422.81L1235.61 427.784C1235.37 427.921 1235.17 428.103 1235 428.32C1234.84 428.537 1234.72 428.785 1234.65 429.048C1234.58 429.312 1234.56 429.587 1234.6 429.857C1234.63 430.127 1234.72 430.387 1234.86 430.623C1235 430.858 1235.18 431.065 1235.4 431.23C1235.61 431.395 1235.86 431.515 1236.13 431.585C1236.39 431.654 1236.66 431.671 1236.93 431.635C1237.2 431.598 1237.46 431.508 1237.7 431.371L1297.68 396.743L1306.3 391.77C1306.78 391.492 1307.12 391.038 1307.26 390.506C1307.4 389.975 1307.32 389.409 1307.04 388.935C1306.77 388.46 1306.31 388.115 1305.78 387.976C1305.25 387.836 1304.68 387.913 1304.21 388.191V388.182Z" fill="#CFCFCF"/>
<path d="M1612.75 685.595L1646.57 705.116L1651.41 707.909C1651.89 708.187 1652.45 708.264 1652.98 708.125C1653.51 707.986 1653.97 707.641 1654.25 707.166C1654.52 706.692 1654.6 706.126 1654.46 705.594C1654.32 705.063 1653.98 704.608 1653.5 704.33L1619.68 684.809L1614.84 682.016C1614.37 681.739 1613.8 681.661 1613.27 681.801C1612.74 681.94 1612.28 682.285 1612.01 682.76C1611.73 683.234 1611.65 683.8 1611.79 684.331C1611.93 684.863 1612.28 685.317 1612.75 685.595Z" fill="#CFCFCF"/>
<path d="M1243.88 472.688L1297.56 503.663L1305.11 508.014C1305.59 508.292 1306.15 508.369 1306.68 508.229C1307.21 508.09 1307.67 507.745 1307.95 507.27C1308.22 506.796 1308.3 506.23 1308.16 505.699C1308.02 505.167 1307.68 504.713 1307.2 504.435L1253.53 473.461L1245.97 469.109C1245.74 468.972 1245.48 468.882 1245.21 468.845C1244.94 468.808 1244.67 468.825 1244.4 468.894C1244.14 468.963 1243.89 469.083 1243.68 469.248C1243.46 469.413 1243.28 469.618 1243.14 469.853C1243 470.088 1242.91 470.348 1242.88 470.618C1242.84 470.887 1242.86 471.161 1242.92 471.425C1242.99 471.688 1243.11 471.935 1243.28 472.152C1243.44 472.369 1243.65 472.551 1243.88 472.688Z" fill="#CFCFCF"/>
<path d="M1684 598.876L1637.15 625.923L1604.15 644.988L1554.59 673.607L1517.98 694.744L1475.59 719.212L1431.86 744.452L1396.33 764.968L1346.15 793.949L1314.32 812.328L1260.89 843.18L1256.52 845.708C1256.29 845.845 1256.08 846.028 1255.91 846.244C1255.75 846.461 1255.63 846.708 1255.56 846.971C1255.49 847.235 1255.48 847.509 1255.51 847.779C1255.55 848.048 1255.64 848.308 1255.78 848.543C1255.91 848.778 1256.1 848.984 1256.31 849.148C1256.53 849.313 1256.78 849.433 1257.04 849.502C1257.3 849.571 1257.58 849.588 1257.85 849.551C1258.12 849.514 1258.38 849.424 1258.61 849.287L1304.96 822.521L1334.93 805.214L1391.31 772.654L1419.72 756.256L1473.78 725.045L1505.2 706.898L1554.79 678.271L1591.2 657.25L1633.81 632.644L1680.94 605.437L1686.1 602.461C1686.57 602.183 1686.92 601.729 1687.06 601.197C1687.2 600.665 1687.12 600.1 1686.84 599.625C1686.56 599.151 1686.11 598.806 1685.58 598.666C1685.04 598.527 1684.48 598.605 1684 598.882V598.876Z" fill="#CFCFCF"/>
<path d="M1335.38 692.624L1318.04 702.641L1276.16 726.829L1225.71 755.974L1182.07 781.183L1167.56 789.563C1165.31 790.86 1162.9 792.035 1160.75 793.501C1160.66 793.565 1160.55 793.617 1160.45 793.673C1160.22 793.81 1160.01 793.992 1159.85 794.209C1159.68 794.426 1159.56 794.673 1159.49 794.937C1159.43 795.2 1159.41 795.474 1159.45 795.744C1159.48 796.014 1159.57 796.274 1159.71 796.508C1159.85 796.743 1160.03 796.949 1160.25 797.114C1160.46 797.278 1160.71 797.398 1160.97 797.467C1161.24 797.536 1161.51 797.553 1161.78 797.516C1162.05 797.479 1162.31 797.389 1162.55 797.251L1179.89 787.236L1221.76 763.046L1272.22 733.902L1315.86 708.694L1330.37 700.314C1332.61 699.015 1335.02 697.84 1337.17 696.377C1337.27 696.312 1337.38 696.263 1337.47 696.205C1337.94 695.927 1338.29 695.473 1338.43 694.941C1338.57 694.41 1338.49 693.844 1338.21 693.37C1337.94 692.895 1337.48 692.55 1336.95 692.411C1336.42 692.271 1335.85 692.346 1335.38 692.624Z" fill="#CFCFCF"/>
<path d="M1137.04 699.676C1123.26 707.638 1109.48 715.6 1095.7 723.563L1058.65 744.939L1035.88 758.086C1035.4 758.363 1035.06 758.818 1034.92 759.35C1034.78 759.882 1034.86 760.447 1035.14 760.921C1035.41 761.396 1035.87 761.741 1036.4 761.88C1036.93 762.02 1037.5 761.942 1037.97 761.664L1078.7 738.152L1117.36 715.838L1139.15 703.255C1139.62 702.978 1139.97 702.523 1140.1 701.992C1140.24 701.46 1140.17 700.895 1139.89 700.42C1139.61 699.945 1139.16 699.6 1138.63 699.461C1138.09 699.321 1137.53 699.399 1137.05 699.676H1137.04Z" fill="#CFCFCF"/>
<path d="M993.891 674.842L949.21 700.638L942.813 704.331C942.339 704.608 941.994 705.063 941.854 705.595C941.715 706.126 941.793 706.692 942.07 707.166C942.348 707.641 942.802 707.986 943.334 708.125C943.866 708.265 944.432 708.187 944.906 707.909L989.595 682.118L995.99 678.425C996.225 678.288 996.431 678.105 996.595 677.889C996.76 677.672 996.88 677.425 996.949 677.161C997.018 676.898 997.035 676.624 996.998 676.354C996.961 676.085 996.871 675.825 996.734 675.59C996.597 675.355 996.414 675.149 996.198 674.985C995.981 674.82 995.734 674.7 995.471 674.631C995.207 674.562 994.933 674.545 994.663 674.582C994.394 674.619 994.134 674.709 993.899 674.846L993.891 674.842Z" fill="#CFCFCF"/>
<path d="M1319.69 486.74L1280.5 509.369L1274.89 512.608C1274.65 512.746 1274.45 512.928 1274.28 513.145C1274.12 513.361 1274 513.609 1273.93 513.872C1273.86 514.135 1273.84 514.409 1273.88 514.679C1273.92 514.949 1274.01 515.208 1274.14 515.443C1274.28 515.678 1274.46 515.884 1274.68 516.048C1274.9 516.213 1275.14 516.333 1275.41 516.402C1275.67 516.471 1275.95 516.488 1276.22 516.451C1276.49 516.414 1276.74 516.325 1276.98 516.187L1316.17 493.558L1321.78 490.319C1322.02 490.182 1322.23 489.999 1322.39 489.783C1322.55 489.566 1322.67 489.319 1322.74 489.056C1322.81 488.792 1322.83 488.518 1322.79 488.248C1322.76 487.979 1322.67 487.719 1322.53 487.484C1322.39 487.249 1322.21 487.043 1321.99 486.879C1321.78 486.714 1321.53 486.594 1321.27 486.525C1321 486.456 1320.73 486.439 1320.46 486.476C1320.19 486.513 1319.93 486.603 1319.69 486.74Z" fill="#CFCFCF"/>
<path d="M1323.93 836.542L1278.06 810.05L1248.74 793.122L1192.39 760.601C1183.38 755.4 1174.37 750.196 1165.35 744.989L1110.02 713.034C1100.5 707.534 1090.97 702.035 1081.45 696.536L1028.55 665.991L997.173 647.875L948.083 619.534L909.812 597.44L901.108 592.406C900.873 592.269 900.613 592.179 900.344 592.142C900.074 592.105 899.8 592.121 899.536 592.19C899.273 592.259 899.026 592.379 898.809 592.544C898.592 592.708 898.41 592.914 898.272 593.149C898.135 593.384 898.045 593.644 898.008 593.913C897.971 594.183 897.987 594.458 898.056 594.721C898.125 594.984 898.246 595.231 898.41 595.448C898.575 595.665 898.78 595.848 899.015 595.985L942.218 620.929C954.818 628.207 967.418 635.482 980.019 642.754L1023.44 667.829L1064.67 691.627C1077.22 698.876 1089.77 706.123 1102.33 713.37L1149.26 740.481C1160.31 746.86 1171.35 753.238 1182.39 759.615L1233.69 789.224C1243.98 795.164 1254.27 801.105 1264.57 807.045L1317.5 837.616L1321.85 840.131C1322.33 840.409 1322.89 840.487 1323.42 840.347C1323.95 840.208 1324.41 839.863 1324.69 839.388C1324.96 838.914 1325.04 838.348 1324.9 837.817C1324.76 837.285 1324.42 836.83 1323.94 836.553L1323.93 836.542Z" fill="#CFCFCF"/>
<path d="M1228 678.42L1251.59 692.044L1308.25 724.763L1376.8 764.344L1436.05 798.561L1455.58 809.837C1458.64 811.608 1461.67 813.594 1464.84 815.183C1464.97 815.251 1465.1 815.339 1465.24 815.415C1465.71 815.693 1466.28 815.77 1466.81 815.631C1467.34 815.492 1467.8 815.147 1468.07 814.672C1468.35 814.198 1468.43 813.632 1468.29 813.1C1468.15 812.569 1467.8 812.114 1467.33 811.836L1443.74 798.213L1387.08 765.494L1318.53 725.913L1259.27 691.696L1239.75 680.42C1236.68 678.648 1233.65 676.663 1230.49 675.074C1230.35 675.003 1230.22 674.918 1230.09 674.842C1229.61 674.564 1229.05 674.487 1228.51 674.626C1227.98 674.766 1227.53 675.111 1227.25 675.586C1226.97 676.06 1226.9 676.625 1227.04 677.157C1227.18 677.689 1227.52 678.143 1228 678.42Z" fill="#CFCFCF"/>
<path d="M1615.01 579.388L1650.03 599.611L1677.53 615.485L1694.91 625.519C1695.39 625.797 1695.95 625.874 1696.49 625.735C1697.02 625.596 1697.47 625.251 1697.75 624.776C1698.03 624.301 1698.11 623.736 1697.97 623.204C1697.83 622.672 1697.48 622.218 1697.01 621.94L1662.98 602.299C1652.85 596.454 1642.72 590.605 1632.59 584.753L1617.08 575.809C1616.61 575.576 1616.07 575.531 1615.57 575.683C1615.06 575.836 1614.64 576.174 1614.37 576.629C1614.11 577.084 1614.03 577.622 1614.15 578.134C1614.27 578.647 1614.57 579.095 1615.01 579.388Z" fill="#CFCFCF"/>
<path d="M1273.03 381.955L1321.92 410.184L1353.83 428.613L1400.82 455.735L1466.9 493.881C1479.79 501.327 1492.55 509.121 1505.63 516.241C1505.84 516.353 1506.04 516.476 1506.24 516.592C1506.72 516.869 1507.28 516.946 1507.81 516.807C1508.34 516.667 1508.8 516.322 1509.08 515.848C1509.35 515.373 1509.43 514.808 1509.29 514.276C1509.15 513.745 1508.81 513.29 1508.33 513.013L1476.09 494.404L1410.64 456.62L1358.97 426.793L1331.77 411.085L1276.31 379.062L1275.13 378.376C1274.65 378.099 1274.09 378.021 1273.56 378.16C1273.02 378.3 1272.57 378.645 1272.29 379.119C1272.01 379.594 1271.94 380.159 1272.08 380.691C1272.21 381.223 1272.56 381.678 1273.03 381.955Z" fill="#CFCFCF"/>
<path d="M1460.57 284.628C1439.28 272.325 1415.49 258.604 1391.68 244.865C1367.91 258.592 1344.14 272.296 1322.88 284.585C1322.88 399.69 1322.88 514.816 1322.88 514.828C1346.3 528.389 1391.36 554.396 1391.68 554.579C1412.97 542.301 1436.77 528.555 1460.57 514.81V284.628Z" fill="#CFCFCF"/>
<path d="M1460.29 329.785C1436.62 343.462 1412.96 357.114 1391.77 369.366C1391.66 369.436 1391.52 369.505 1391.4 369.573C1391.06 369.366 1390.74 369.183 1390.42 369.001C1369.5 356.928 1346.2 343.456 1322.88 329.986V359.771C1346.2 373.241 1369.51 386.711 1390.42 398.786C1390.74 398.968 1391.06 399.153 1391.4 399.358C1391.52 399.29 1391.66 399.221 1391.77 399.151C1412.96 386.893 1436.62 373.247 1460.29 359.57H1460.66V329.785H1460.29Z" fill="#CFCFCF"/>
<path d="M1460.29 389.784C1436.62 403.461 1412.96 417.116 1391.77 429.365C1391.66 429.433 1391.52 429.502 1391.4 429.572C1391.06 429.365 1390.74 429.183 1390.42 429C1369.5 416.927 1346.2 403.457 1322.88 389.987V419.766C1346.2 433.236 1369.51 446.706 1390.42 458.779C1390.74 458.963 1391.06 459.146 1391.4 459.353C1391.52 459.282 1391.66 459.214 1391.77 459.146C1412.96 446.89 1436.62 433.242 1460.29 419.565H1460.66V389.784H1460.29Z" fill="#CFCFCF"/>
<path d="M1460.29 449.785C1436.62 463.462 1412.96 477.114 1391.77 489.366C1391.66 489.436 1391.52 489.505 1391.4 489.573C1391.06 489.366 1390.74 489.183 1390.42 489.001C1369.5 476.928 1346.2 463.456 1322.88 449.986V479.767C1346.2 493.237 1369.51 506.707 1390.42 518.782C1390.74 518.964 1391.06 519.149 1391.4 519.354C1391.52 519.286 1391.66 519.217 1391.77 519.147C1412.96 506.889 1436.62 493.243 1460.29 479.566H1460.66V449.785H1460.29Z" fill="#CFCFCF"/>
<path d="M1458.48 511.224C1435.52 524.487 1412.55 537.743 1389.59 550.994H1393.77C1376.76 541.229 1359.78 531.424 1342.81 521.58L1324.89 511.218C1320.26 508.545 1316.08 515.705 1320.7 518.376C1337.91 528.323 1355.13 538.262 1372.34 548.192C1377.7 551.284 1383.06 554.375 1388.41 557.465C1388.78 557.673 1389.14 557.913 1389.52 558.104C1392.56 559.635 1395.24 557.304 1397.79 555.824L1416.94 544.775L1462.66 518.374C1467.28 515.707 1463.11 508.541 1458.48 511.216V511.224Z" fill="black"/>
<path d="M1320.79 483.35C1339.62 494.225 1358.44 505.101 1377.26 515.978L1383.46 519.555C1385.48 520.904 1387.61 522.104 1389.81 523.146C1392.25 524.105 1394.22 522.524 1396.26 521.345L1403.15 517.362C1412.17 512.147 1421.2 506.932 1430.23 501.719C1440.95 495.528 1451.66 489.337 1462.38 483.145C1467 480.476 1462.83 473.31 1458.2 475.987C1435.24 489.25 1412.42 502.782 1389.31 515.775H1393.5C1370.77 502.396 1347.81 489.38 1324.98 476.194C1320.35 473.523 1316.17 480.681 1320.79 483.35Z" fill="black"/>
<path d="M1320.79 453.569C1339.62 464.443 1358.44 475.318 1377.26 486.195L1383.46 489.772C1385.48 491.123 1387.61 492.324 1389.81 493.365C1392.25 494.325 1394.22 492.744 1396.26 491.564L1403.15 487.581C1412.17 482.366 1421.2 477.152 1430.23 471.938C1440.95 465.749 1451.66 459.557 1462.38 453.364C1467 450.695 1462.83 443.529 1458.2 446.206C1435.24 459.469 1412.42 473.001 1389.31 485.994H1393.5C1370.77 472.615 1347.81 459.599 1324.98 446.413C1320.35 443.74 1316.17 450.9 1320.79 453.569Z" fill="black"/>
<path d="M1320.79 423.351C1339.62 434.224 1358.44 445.099 1377.26 455.977L1383.46 459.554C1385.48 460.904 1387.61 462.104 1389.81 463.145C1392.25 464.105 1394.22 462.524 1396.26 461.347L1403.15 457.364C1412.17 452.146 1421.2 446.931 1430.23 441.72C1440.95 435.531 1451.66 429.339 1462.38 423.144C1467 420.477 1462.83 413.311 1458.2 415.988C1435.24 429.251 1412.42 442.783 1389.31 455.776H1393.5C1370.77 442.398 1347.81 429.382 1324.98 416.196C1320.35 413.522 1316.17 420.68 1320.79 423.351Z" fill="black"/>
<path d="M1320.79 393.57C1339.62 404.444 1358.44 415.318 1377.26 426.19L1383.46 429.767C1385.48 431.116 1387.61 432.316 1389.81 433.358C1392.25 434.318 1394.22 432.737 1396.26 431.559L1403.15 427.574C1412.18 422.369 1421.2 417.157 1430.23 411.939C1440.95 405.747 1451.66 399.555 1462.38 393.363C1467 390.696 1462.83 383.53 1458.2 386.205C1435.24 399.468 1412.42 413 1389.31 425.993H1393.5C1370.77 412.617 1347.81 399.601 1324.98 386.413C1320.35 383.739 1316.17 390.899 1320.79 393.57Z" fill="black"/>
<path d="M1320.79 363.35C1339.62 374.226 1358.44 385.102 1377.26 395.978L1383.46 399.555C1385.48 400.904 1387.61 402.105 1389.81 403.146C1392.25 404.106 1394.22 402.525 1396.26 401.346L1403.15 397.363C1412.17 392.147 1421.2 386.933 1430.23 381.719C1440.95 375.528 1451.66 369.337 1462.38 363.145C1467 360.476 1462.83 353.31 1458.2 355.987C1435.24 369.25 1412.42 382.782 1389.31 395.775H1393.5C1370.77 382.399 1347.81 369.381 1324.98 356.195C1320.35 353.521 1316.17 360.681 1320.79 363.35Z" fill="black"/>
<path d="M1320.79 333.569C1339.62 344.443 1358.44 355.318 1377.26 366.195L1383.46 369.772C1385.48 371.123 1387.61 372.324 1389.81 373.365C1392.25 374.325 1394.22 372.744 1396.26 371.564L1403.15 367.581C1412.17 362.365 1421.2 357.15 1430.23 351.938C1440.95 345.749 1451.66 339.557 1462.38 333.364C1467 330.695 1462.83 323.529 1458.2 326.206C1435.24 339.469 1412.42 353.001 1389.31 365.994H1393.5C1370.77 352.615 1347.81 339.599 1324.98 326.413C1320.35 323.74 1316.17 330.9 1320.79 333.569Z" fill="black"/>
<path d="M1387.63 325.04V523.923C1387.63 533.118 1387.29 542.385 1387.63 551.576C1387.63 551.727 1387.63 551.879 1387.63 552.03C1387.63 557.364 1395.91 557.372 1395.91 552.03V353.146C1395.91 343.951 1396.25 334.684 1395.91 325.494C1395.91 325.342 1395.91 325.189 1395.91 325.04C1395.91 319.706 1387.63 319.697 1387.63 325.04Z" fill="black"/>
<path d="M1458.56 281.049C1435.6 294.312 1412.64 307.568 1389.68 320.818H1393.86C1370.87 307.622 1347.91 294.366 1324.98 281.049C1320.35 278.376 1316.17 285.536 1320.79 288.207C1339.49 299.006 1358.18 309.799 1376.88 320.586C1381.05 322.992 1385.16 325.632 1389.44 327.839C1392.08 329.203 1393.94 327.935 1396.28 326.596L1403.2 322.603C1412.27 317.365 1421.34 312.127 1430.42 306.889C1441.19 300.672 1451.97 294.447 1462.76 288.215C1467.38 285.548 1463.21 278.382 1458.57 281.057L1458.56 281.049Z" fill="black"/>
<path d="M1324.89 288.207C1347.85 274.944 1370.81 261.688 1393.78 248.437H1389.59C1412.56 261.7 1435.52 274.957 1458.48 288.207C1463.11 290.88 1467.29 283.72 1462.67 281.049C1439.71 267.781 1416.74 254.524 1393.77 241.28C1393.14 240.913 1392.42 240.72 1391.68 240.72C1390.95 240.72 1390.23 240.913 1389.59 241.28C1366.63 254.542 1343.67 267.799 1320.7 281.049C1316.09 283.718 1320.26 290.884 1324.89 288.207H1324.89Z" fill="black"/>
<path d="M1456.42 284.628V486.287C1456.42 495.612 1456.07 505.028 1456.42 514.356C1456.42 514.505 1456.42 514.656 1456.42 514.805C1456.42 520.139 1464.71 520.148 1464.71 514.805V313.135C1464.71 303.809 1465.06 294.399 1464.71 285.076C1464.71 284.927 1464.71 284.777 1464.71 284.628C1464.71 279.294 1456.42 279.286 1456.42 284.628Z" fill="black"/>
<path d="M1318.74 284.628V486.287C1318.74 495.612 1318.39 505.028 1318.74 514.356C1318.74 514.505 1318.74 514.656 1318.74 514.805C1318.74 520.139 1327.03 520.148 1327.03 514.805V313.135C1327.03 303.809 1327.38 294.399 1327.03 285.076C1327.03 284.927 1327.03 284.777 1327.03 284.628C1327.03 279.294 1318.74 279.286 1318.74 284.628Z" fill="black"/>
<path d="M1544.66 950.982C1518.67 950.018 1489.33 943.77 1469.57 925.648C1462.76 919.413 1457.08 911.215 1455.89 902.165C1455.39 896.489 1455.32 890.784 1455.68 885.098C1455.8 880.848 1456.81 876.67 1458.63 872.83C1463.07 863.504 1471 856.343 1479.64 850.922C1490.79 844.17 1503.01 839.371 1515.77 836.733C1544.51 830.329 1576.16 831.859 1603.73 842.496C1621.59 849.39 1643.75 863.552 1644.55 884.586C1644.63 886.316 1644.56 888.049 1644.34 889.767C1643.83 891.646 1643.45 893.557 1643.18 895.486C1643.18 900.818 1651.47 900.828 1651.47 895.486C1651.73 894.761 1651.95 894.018 1652.11 893.265C1652.33 892.108 1652.5 890.937 1652.63 889.767C1652.84 887.876 1652.9 885.972 1652.81 884.072C1652.67 881.406 1652.26 878.761 1651.59 876.177C1650.23 871.151 1647.98 866.41 1644.95 862.18C1637.56 852.365 1627.9 844.5 1616.78 839.271C1588.67 825.192 1555.25 822.169 1524.45 826.73C1499 830.495 1469.98 840.691 1454.82 862.856C1451.81 867.189 1449.63 872.042 1448.39 877.169C1447.39 882.969 1447.04 888.865 1447.37 894.742C1447.16 900.183 1447.88 905.62 1449.51 910.815C1451.4 915.998 1454.15 920.824 1457.65 925.087C1465.46 934.839 1476.52 941.912 1487.83 946.949C1502.08 953.14 1517.23 957.029 1532.7 958.469C1536.68 958.884 1540.66 959.122 1544.65 959.271C1549.98 959.478 1549.97 951.189 1544.65 950.982H1544.66Z" fill="black"/>
<path d="M1159.83 686.08L976.31 580.115L1162.49 472.609L1348.67 580.111L1162.49 687.613L1159.83 686.08Z" fill="#CFCFCF"/>
<path d="M1161.92 682.501L1020.46 600.82L978.405 576.537V583.694L1122.22 500.656L1164.59 476.203H1160.41L1307.72 561.264L1346.59 583.705V576.547L1199.27 661.602L1160.4 684.043H1164.58L1161.92 682.505C1157.29 679.834 1153.12 686.994 1157.74 689.663L1160.4 691.2C1161.04 691.567 1161.76 691.76 1162.49 691.76C1163.23 691.76 1163.95 691.567 1164.58 691.2L1308.4 608.162L1350.77 583.699C1351.38 583.326 1351.89 582.801 1352.25 582.174C1352.6 581.547 1352.78 580.839 1352.78 580.12C1352.78 579.4 1352.6 578.693 1352.25 578.066C1351.89 577.439 1351.38 576.914 1350.77 576.541L1206.95 493.502L1164.59 469.039C1163.95 468.673 1163.23 468.481 1162.49 468.481C1161.76 468.481 1161.04 468.673 1160.4 469.039L1013.08 554.1L974.217 576.537C973.601 576.909 973.092 577.435 972.739 578.062C972.386 578.689 972.2 579.396 972.2 580.116C972.2 580.835 972.386 581.543 972.739 582.17C973.092 582.796 973.601 583.322 974.217 583.694L1119.04 667.317L1157.74 689.659C1162.37 692.332 1166.55 685.172 1161.92 682.501Z" fill="black"/>
<path d="M1162.49 417.456C1184.02 429.889 1205.55 442.302 1224.81 453.43C1203.27 465.864 1181.74 478.298 1162.49 489.405C1162.2 489.24 1161.91 489.074 1161.6 488.887C1142.58 477.904 1121.38 465.678 1100.18 453.43C1119.43 442.302 1140.96 429.889 1162.49 417.456Z" fill="#CFCFCF"/>
<path d="M1162.49 576.959V550.02C1181.66 538.933 1203.07 526.582 1224.47 514.21H1224.81V541.15H1224.47C1203.07 553.522 1181.66 565.873 1162.49 576.959Z" fill="#CFCFCF"/>
<path d="M1162.49 576.96V614.199L1161.5 615.918C1142.49 604.956 1121.34 592.75 1100.18 580.524V541.337C1121.27 553.522 1142.35 565.707 1161.27 576.628C1161.56 576.794 1161.85 576.96 1162.16 577.146C1162.26 577.084 1162.39 577.022 1162.49 576.96Z" fill="#CFCFCF"/>
<path d="M1224.8 580.524C1203.27 592.958 1181.74 605.391 1162.49 616.499C1162.2 616.333 1161.91 616.167 1161.59 615.981C1161.55 615.96 1161.53 615.939 1161.49 615.918L1162.49 614.198V576.96C1181.65 565.873 1203.06 553.522 1224.47 541.15H1224.8V580.524Z" fill="#CFCFCF"/>
<path d="M1100.18 514.397C1121.27 526.582 1142.35 538.767 1161.27 549.688C1161.56 549.854 1161.85 550.02 1162.16 550.206C1162.26 550.144 1162.39 550.082 1162.49 550.02V576.959C1162.39 577.021 1162.26 577.084 1162.16 577.146C1161.85 576.959 1161.56 576.794 1161.27 576.628C1142.35 565.707 1121.27 553.522 1100.18 541.337V514.397Z" fill="#CFCFCF"/>
<path d="M1222.71 576.945C1201.94 588.939 1181.17 600.931 1160.4 612.92H1164.59C1143.78 600.98 1123.01 588.989 1102.27 576.945C1097.64 574.271 1093.46 581.431 1098.09 584.102C1115.11 593.942 1132.14 603.773 1149.18 613.597C1152.77 615.669 1156.31 617.868 1159.96 619.826C1164.01 621.998 1168.83 617.626 1172.31 615.614C1180.71 610.769 1189.11 605.921 1197.51 601.072L1226.89 584.102C1231.51 581.435 1227.34 574.269 1222.71 576.945H1222.71Z" fill="black"/>
<path d="M1098.09 544.915C1115.06 554.717 1132.03 564.521 1149 574.327C1152.66 576.443 1156.27 578.859 1160.07 580.724C1162.42 581.883 1164.17 580.78 1166.19 579.612L1172.28 576.089C1180.64 571.253 1189 566.427 1197.36 561.61C1207.1 555.983 1216.84 550.356 1226.58 544.731C1231.19 542.062 1227.03 534.898 1222.39 537.573C1201.63 549.574 1180.98 561.819 1160.08 573.569H1164.26C1143.7 561.469 1122.94 549.694 1102.28 537.76C1097.65 535.086 1093.47 542.248 1098.1 544.917L1098.09 544.915Z" fill="black"/>
<path d="M1098.09 517.976C1115.06 527.778 1132.03 537.582 1149 547.388C1152.66 549.504 1156.27 551.92 1160.07 553.785C1162.42 554.943 1164.17 553.841 1166.19 552.672L1172.28 549.149C1180.64 544.314 1189 539.488 1197.36 534.67C1207.1 529.043 1216.84 523.417 1226.58 517.791C1231.19 515.122 1227.03 507.958 1222.39 510.634C1201.63 522.634 1180.98 534.88 1160.08 546.629H1164.26C1143.7 534.529 1122.94 522.755 1102.28 510.82C1097.65 508.147 1093.47 515.309 1098.1 517.978L1098.09 517.976Z" fill="black"/>
<path d="M1158.35 506.234V595.112C1158.35 600.446 1166.64 600.455 1166.64 595.112V506.234C1166.64 500.9 1158.35 500.892 1158.35 506.234Z" fill="black"/>
<path d="M1222.71 449.851C1201.94 461.846 1181.17 473.837 1160.4 485.826H1164.58C1143.78 473.887 1123.01 461.896 1102.27 449.851C1097.64 447.178 1093.46 454.338 1098.09 457.009C1115.01 466.783 1131.93 476.552 1148.86 486.315C1152.62 488.485 1156.32 490.897 1160.19 492.86C1162.69 494.128 1164.37 493.108 1166.61 491.824C1168.65 490.644 1170.7 489.464 1172.74 488.284L1197.52 473.985L1226.91 457.015C1231.53 454.348 1227.36 447.182 1222.73 449.858L1222.71 449.851Z" fill="black"/>
<path d="M1102.27 457.009C1123.04 445.006 1143.81 433.015 1164.59 421.034H1160.4C1181.17 433.028 1201.94 445.02 1222.71 457.009C1227.34 459.684 1231.52 452.522 1226.9 449.851C1206.13 437.849 1185.36 425.857 1164.59 413.876C1163.95 413.511 1163.23 413.318 1162.49 413.318C1161.76 413.318 1161.04 413.511 1160.4 413.876C1139.63 425.871 1118.86 437.862 1098.09 449.851C1093.47 452.52 1097.64 459.686 1102.27 457.009Z" fill="black"/>
<path d="M1096.03 453.43V580.524C1096.03 585.858 1104.32 585.866 1104.32 580.524V453.43C1104.32 448.096 1096.03 448.088 1096.03 453.43Z" fill="black"/>
<path d="M1220.65 453.43V580.524C1220.65 585.858 1228.94 585.866 1228.94 580.524V453.43C1228.94 448.096 1220.65 448.088 1220.65 453.43Z" fill="black"/>
<path d="M1000.54 618.527C1013.49 611.05 1026.44 603.566 1039.38 596.074C1044 593.407 1039.83 586.241 1035.2 588.916C1022.25 596.399 1009.3 603.884 996.353 611.372C991.736 614.037 995.905 621.203 1000.54 618.527Z" fill="black"/>
<path d="M1412.57 606.243L1432.02 595.011L1451.48 606.243C1451.48 606.626 1451.48 643.057 1451.48 643.852L1432.02 655.082L1431.75 654.923L1412.57 643.85C1412.57 642.992 1412.57 606.821 1412.57 606.243Z" fill="#CFCFCF"/>
<path d="M1449.39 640.272L1429.93 651.504H1434.11L1414.66 640.272C1410.03 637.599 1405.86 644.76 1410.48 647.429L1429.93 658.661C1430.57 659.028 1431.29 659.221 1432.02 659.221C1432.76 659.221 1433.48 659.028 1434.11 658.661L1453.57 647.429C1458.19 644.762 1454.02 637.596 1449.39 640.272Z" fill="black"/>
<path d="M1414.66 609.822L1434.11 598.59H1429.93C1436.42 602.332 1442.9 606.076 1449.39 609.822C1454.02 612.495 1458.19 605.333 1453.57 602.664L1434.11 591.432C1433.48 591.066 1432.76 590.873 1432.02 590.873C1431.29 590.873 1430.57 591.066 1429.93 591.432L1410.48 602.664C1405.86 605.331 1410.03 612.497 1414.66 609.822Z" fill="black"/>
<path d="M1408.42 606.243C1408.44 617.12 1408.42 628.002 1408.42 638.873V643.846C1408.42 649.18 1416.71 649.189 1416.71 643.846V611.073C1416.71 609.462 1416.71 607.852 1416.71 606.243C1416.71 600.911 1408.42 600.9 1408.42 606.243Z" fill="black"/>
<path d="M1447.33 606.243C1447.35 617.12 1447.33 628.002 1447.33 638.873V643.847C1447.33 649.181 1455.62 649.189 1455.62 643.847C1455.62 632.92 1455.62 621.994 1455.62 611.069C1455.62 609.459 1455.62 607.849 1455.62 606.239C1455.62 600.907 1447.33 600.896 1447.33 606.239V606.243Z" fill="black"/>
<path d="M1459.59 580.103C1459.59 572.391 1459.59 564.68 1459.59 556.968C1459.58 556.243 1459.38 555.533 1459.01 554.909C1458.64 554.284 1458.12 553.766 1457.49 553.405C1456.86 553.044 1456.15 552.853 1455.42 552.85C1454.7 552.847 1453.98 553.033 1453.35 553.389L1377.42 597.224C1376.79 597.591 1376.28 598.114 1375.92 598.742C1375.56 599.369 1375.37 600.08 1375.36 600.803C1375.36 631.576 1375.37 662.351 1375.38 693.125C1375.39 693.85 1375.59 694.56 1375.96 695.185C1376.33 695.809 1376.85 696.328 1377.48 696.689C1378.11 697.05 1378.82 697.241 1379.55 697.244C1380.27 697.246 1380.99 697.06 1381.62 696.704L1399.69 686.262C1404.31 683.597 1400.14 676.431 1395.5 679.106L1377.43 689.54L1383.67 693.119C1383.67 662.346 1383.66 631.572 1383.65 600.797L1381.6 604.376L1457.53 560.541L1451.3 556.968C1451.3 564.68 1451.3 572.391 1451.3 580.103C1451.3 585.437 1459.59 585.445 1459.59 580.103Z" fill="black"/>
<path d="M1309.42 684.43C1332.53 671.09 1355.62 657.739 1378.71 644.377L1397.5 633.516C1402.12 630.849 1397.95 623.683 1393.32 626.358C1368.03 640.971 1342.75 655.586 1317.47 670.206C1313.39 672.563 1309.32 674.918 1305.24 677.272C1300.63 679.939 1304.8 687.105 1309.43 684.43H1309.42Z" fill="black"/>
<path d="M1353.07 681.05C1367.89 672.497 1382.69 663.937 1397.5 655.37C1402.11 652.703 1397.95 645.537 1393.31 648.213C1378.51 656.771 1363.7 665.331 1348.89 673.892C1344.27 676.56 1348.44 683.723 1353.07 681.05Z" fill="black"/>
<path d="M1534.51 531.767C1532.88 530.82 1531.13 529.798 1529.29 528.727C1528.06 528.006 1526.66 527.624 1525.23 527.62C1523.8 527.615 1522.4 527.989 1521.16 528.702L1478.01 553.646C1477.03 554.213 1476.22 555.029 1475.65 556.011C1475.08 556.993 1474.78 558.107 1474.78 559.241C1474.78 565.784 1474.78 579.177 1474.78 585.684C1474.78 586.815 1475.07 587.926 1475.64 588.905C1476.2 589.885 1477.02 590.698 1478 591.264C1484.78 595.202 1500.1 604.113 1502.36 605.399" fill="#CFCFCF"/>
<path d="M1440.15 631.968C1439.93 631.923 1439.71 631.883 1439.48 631.852C1438.35 631.644 1437.18 631.745 1436.09 632.143C1435.01 632.541 1434.05 633.222 1433.32 634.115C1432.79 634.841 1432.52 635.724 1432.55 636.623C1432.76 637.967 1433.4 639.211 1434.36 640.174C1438.06 644.616 1442.48 648.41 1447.44 651.4C1443.28 653.051 1439.91 656.211 1437.99 660.247C1437.26 661.873 1436.94 663.649 1437.05 665.426C1437.15 667.203 1437.68 668.929 1438.59 670.459C1440.05 672.417 1441.88 674.07 1443.98 675.325L1448.44 678.398C1450.68 679.944 1453.23 681.566 1455.92 681.131C1456.52 680.959 1457.15 680.902 1457.77 680.963C1458.41 681.179 1458.97 681.583 1459.39 682.122L1463.5 686.544C1467.77 680.493 1473.7 672.384 1478.01 666.691C1475.46 663.976 1473.49 660.761 1472.25 657.25C1471.81 655.713 1471.27 654.21 1470.62 652.753C1468.84 649.867 1466.41 647.441 1463.51 645.674C1459.14 642.518 1450.41 637.313 1445.8 634.511C1444.08 633.353 1442.17 632.493 1440.15 631.968Z" fill="#CFCFCF"/>
<path d="M1570.18 624.479C1564.42 623.371 1558.49 623.527 1552.79 624.937C1541.38 627.158 1530.24 628.967 1521.53 635.01C1517.5 637.845 1514.1 641.475 1511.53 645.676C1508.25 650.973 1500.2 664.269 1495.97 671.066C1493.09 669.286 1489.13 666.387 1485.81 664.051C1484.8 663.336 1483.56 663.04 1482.33 663.226C1481.11 663.411 1480.01 664.064 1479.26 665.046C1474.46 671.323 1466.78 681.831 1462.09 688.562C1461.43 689.503 1461.13 690.65 1461.25 691.792C1461.37 692.934 1461.9 693.995 1462.74 694.779C1468.85 700.513 1478.83 709.652 1484.78 712.791C1488.36 714.631 1492.47 715.132 1496.39 714.205C1500.4 713.264 1504.21 711.624 1507.65 709.36C1507.62 717.649 1507.6 722.935 1507.6 722.935C1507.59 729.374 1507.87 736.755 1507.87 736.755C1507.73 740.228 1509.55 746.081 1512.4 748.037C1514.93 749.784 1518.31 750.569 1525.91 751.951C1543.59 755.168 1559.22 752.834 1579.41 749.545C1582.75 749.002 1588.37 747.527 1590.19 745.351C1592.49 742.589 1592.37 739.665 1592.49 735.551C1593.45 703.905 1595.29 680.312 1589.76 653.313C1588.03 644.862 1585.61 636.075 1579.56 629.927C1577.02 627.259 1573.76 625.369 1570.18 624.479Z" fill="#CFCFCF"/>
<path d="M1511.91 610.209C1514.53 612.907 1517.68 615.036 1521.15 616.462C1524.63 617.888 1528.36 618.582 1532.12 618.498L1535.15 628.837C1540.74 627.19 1546.72 626.106 1552.79 624.925C1553.83 624.717 1554.83 624.554 1555.81 624.402L1556.17 624.164C1549.66 617.225 1544.3 609.286 1540.31 600.65C1540.31 600.65 1539.88 599.589 1539.27 598.088C1541.63 596.676 1543.52 594.6 1544.7 592.12C1545.97 589.637 1546.52 586.847 1546.29 584.065C1546.06 581.284 1545.06 578.623 1543.39 576.383C1541.65 574.279 1539.22 572.868 1536.53 572.409C1533.84 571.949 1531.07 572.47 1528.73 573.878C1527.27 570.096 1525.26 562.356 1524.8 560.823C1520.3 557.608 1515.59 554.682 1510.71 552.063L1510.42 552.455C1506.47 557.861 1503.67 564.023 1502.2 570.558C1500.73 577.092 1500.62 583.859 1501.88 590.438C1503.21 597.871 1506.7 604.748 1511.91 610.209Z" fill="#CFCFCF"/>
<path d="M1585.21 600.283L1585.35 600.022C1590.36 591.31 1592.36 581.194 1591.05 571.232C1588.19 551.28 1571.22 534.583 1551.09 533.443C1543.34 532.993 1535.61 534.457 1528.57 537.707C1521.53 540.957 1515.4 545.892 1510.72 552.075C1515.6 554.694 1520.3 557.62 1524.81 560.835C1525.26 562.368 1527.27 570.108 1528.74 573.89C1531.07 572.483 1533.84 571.961 1536.53 572.421C1539.22 572.881 1541.66 574.291 1543.4 576.396C1545.06 578.636 1546.07 581.297 1546.3 584.078C1546.53 586.859 1545.98 589.649 1544.7 592.133C1543.52 594.613 1541.63 596.689 1539.28 598.101C1539.9 599.641 1540.31 600.662 1540.31 600.662C1544.31 609.298 1549.67 617.237 1556.18 624.176L1556.34 624.334C1559.73 623.767 1563.18 623.613 1566.6 623.876C1567.96 621.281 1569.76 618.948 1571.93 616.988C1577.6 610.744 1581.71 606.367 1585.21 600.283Z" fill="#7A7473"/>
<path d="M1462.32 679.193C1461.64 678.417 1460.8 677.801 1459.86 677.39C1458.91 676.979 1457.88 676.783 1456.85 676.816C1456 676.973 1455.13 676.959 1454.28 676.775C1453.43 676.59 1452.63 676.239 1451.92 675.741C1448.59 673.947 1445.52 671.716 1442.79 669.11C1437.78 663.535 1444.63 657.206 1449.53 654.989C1452.5 653.648 1451.95 649.321 1449.53 647.831C1446.38 645.913 1443.45 643.645 1440.81 641.069C1439.54 639.892 1438.36 638.616 1437.29 637.254C1436.61 636.34 1436.49 636.577 1437.14 636.166C1439.45 634.732 1443.33 637.868 1445.15 638.974C1447.66 640.491 1450.16 642.006 1452.65 643.546C1455.14 645.085 1457.63 646.64 1460.04 648.291C1462.5 649.731 1464.68 651.617 1466.46 653.851C1468.29 656.578 1468.7 660.176 1470.27 663.092C1471.49 665.045 1472.85 666.91 1474.34 668.67C1474.92 669.594 1475.83 670.262 1476.88 670.538C1477.93 670.814 1479.05 670.677 1480.01 670.156C1480.95 669.597 1481.64 668.688 1481.92 667.627C1482.2 666.565 1482.05 665.437 1481.5 664.486C1480.08 662.813 1478.78 661.048 1477.59 659.204C1475.96 656.292 1475.55 652.869 1473.83 649.991C1470.69 644.752 1464.72 641.357 1459.69 638.179C1454.53 634.908 1449.17 630.963 1443.47 628.706C1437.24 626.238 1427.72 629.036 1428.49 637.203C1428.87 641.237 1432.51 644.586 1435.27 647.251C1438.34 650.193 1441.72 652.793 1445.35 655.008V647.85C1437.16 651.555 1430.35 660.621 1433.75 669.905C1435.52 674.734 1439.7 677.421 1443.75 680.213C1445.69 681.69 1447.76 682.996 1449.93 684.115C1450.98 684.616 1452.09 684.976 1453.23 685.188C1454.31 685.373 1456.37 684.861 1457.29 685.244L1455.46 684.179C1455.83 684.434 1456.17 684.737 1456.46 685.081C1460.19 688.898 1466.06 683.035 1462.33 679.22L1462.32 679.193Z" fill="black"/>
<path d="M1590.57 868.81L1588.5 867.693C1581.94 870.849 1561.28 871.239 1557.36 868.406C1549.89 876.999 1539.12 878.245 1529.43 876.942C1528.11 876.841 1526.8 876.579 1525.54 876.162C1522.07 874.992 1518.87 873.133 1516.14 870.696C1516.11 870.669 1516.07 870.654 1516.05 870.627L1514.86 870.735C1513.26 869.778 1508.39 870.764 1506.39 873.771C1504.39 876.778 1504.46 882.562 1505.59 885.997C1508.05 893.468 1515.24 897.256 1522.64 899.921C1530.27 902.805 1538.54 903.542 1546.56 902.051C1548.25 901.631 1549.83 900.862 1551.21 899.795C1552.58 898.728 1553.71 897.386 1554.54 895.855C1555.51 894.041 1556.12 892.062 1556.36 890.02L1569.09 892.946C1571.68 893.615 1574.35 893.958 1577.03 893.967C1578.21 893.967 1579.46 893.889 1580.83 893.746C1582.69 893.644 1584.5 893.131 1586.14 892.243C1587.78 891.355 1589.21 890.115 1590.31 888.611C1591.57 886.204 1592.21 883.522 1592.17 880.806C1592.26 878.071 1590.48 871.525 1590.57 868.81Z" fill="#CFCFCF"/>
<path d="M1543.75 753.495C1537.77 753.537 1531.8 753.022 1525.91 751.96C1517.36 750.405 1514.16 749.603 1511.49 747.34C1511.33 766.01 1512.81 839.315 1514.25 865.96L1514.7 868.171C1515.33 871.365 1520.29 874.081 1525.52 876.16C1526.79 876.577 1528.09 876.839 1529.42 876.939C1539.1 878.243 1549.88 876.997 1557.35 868.403C1562.14 871.866 1591.99 870.517 1590.43 865.171C1589.47 838.693 1588.62 785.197 1589.39 761.453C1589.39 761.453 1589.19 753.309 1589 746.387C1586.03 748.009 1582.78 749.081 1579.42 749.554C1567.65 751.8 1555.72 753.118 1543.75 753.495Z" fill="#CFCFCF"/>
<path d="M1507.34 752.474C1507.43 783.316 1508.21 814.18 1509.24 845.003C1509.48 852.078 1509.74 859.153 1510.12 866.221C1510.41 871.527 1518.7 871.56 1518.41 866.221C1516.74 835.431 1516.32 804.536 1515.85 773.71C1515.74 766.632 1515.64 759.553 1515.63 752.474C1515.61 747.14 1507.32 747.129 1507.34 752.474Z" fill="black"/>
<path d="M1585.24 761.453C1584.32 790.322 1585.05 819.301 1585.77 848.168C1585.95 855.05 1586.15 861.932 1586.43 868.81C1586.63 874.125 1594.92 874.152 1594.72 868.81C1593.54 839.937 1593.15 810.993 1593.24 782.101C1593.26 775.217 1593.31 768.333 1593.53 761.453C1593.7 756.117 1585.41 756.123 1585.24 761.453Z" fill="black"/>
<path d="M1552.72 790.859C1551.55 813.654 1550.93 836.534 1550.69 859.36C1550.65 863.298 1550.51 867.278 1550.81 871.205C1551.2 876.494 1559.49 876.535 1559.09 871.205C1558.43 862.365 1559.04 853.309 1559.24 844.46C1559.53 831.554 1559.92 818.649 1560.39 805.746C1560.57 800.773 1560.75 795.82 1561.02 790.859C1561.29 785.529 1553 785.543 1552.73 790.859H1552.72Z" fill="black"/>
<path d="M1510.7 869.272C1511.74 873.321 1515.51 875.945 1519.02 877.768C1521.13 878.956 1523.36 879.887 1525.69 880.543C1527.92 881.009 1530.19 881.297 1532.46 881.407C1541.33 882.299 1550.2 879.756 1557.24 874.304C1558.01 873.523 1558.44 872.47 1558.44 871.372C1558.44 870.275 1558.01 869.222 1557.24 868.441C1556.45 867.688 1555.4 867.267 1554.31 867.267C1553.22 867.267 1552.17 867.688 1551.38 868.441C1546.25 872.116 1539.97 873.804 1533.69 873.193C1530.5 873.172 1527.34 872.497 1524.42 871.208C1522.85 870.535 1521.37 869.685 1520 868.675C1519.59 868.327 1519.21 867.951 1518.85 867.55C1519.03 867.757 1518.98 867.661 1518.71 867.26C1518.84 867.602 1518.83 867.54 1518.69 867.075C1517.36 861.913 1509.37 864.102 1510.7 869.278V869.272Z" fill="black"/>
<path d="M1557.84 873.127C1563.13 874.447 1568.61 874.868 1574.04 874.37C1579.7 874.414 1585.32 873.364 1590.59 871.278C1591.53 870.717 1592.21 869.807 1592.49 868.747C1592.77 867.686 1592.62 866.558 1592.07 865.606C1591.5 864.676 1590.59 864.002 1589.54 863.725C1588.48 863.448 1587.36 863.59 1586.4 864.12C1585.66 864.466 1587.37 863.795 1586.54 864.069C1586.33 864.133 1586.14 864.214 1585.94 864.276C1585.45 864.442 1584.96 864.582 1584.47 864.713C1583.32 865.014 1582.16 865.239 1580.99 865.43C1580.7 865.478 1580.41 865.519 1580.12 865.563C1579.62 865.641 1580.78 865.49 1579.96 865.585C1579.28 865.664 1578.59 865.743 1577.91 865.807C1576.49 865.945 1575.07 866.04 1573.65 866.091C1570.95 866.211 1568.24 866.186 1565.54 866.017C1564.97 865.979 1564.41 865.933 1563.85 865.878C1563.53 865.844 1563.21 865.799 1562.89 865.77C1564.01 865.871 1563 865.784 1562.79 865.751C1561.86 865.609 1560.94 865.401 1560.04 865.13C1559.52 864.985 1558.97 864.945 1558.43 865.012C1557.89 865.08 1557.37 865.252 1556.9 865.521C1556.42 865.79 1556.01 866.15 1555.67 866.579C1555.34 867.009 1555.09 867.5 1554.95 868.025C1554.8 868.549 1554.76 869.098 1554.83 869.638C1554.9 870.178 1555.07 870.7 1555.34 871.173C1555.61 871.646 1555.97 872.062 1556.4 872.397C1556.82 872.731 1557.32 872.978 1557.84 873.122V873.127Z" fill="black"/>
<path d="M1516.95 867.148C1515.31 866.463 1513.52 866.183 1511.75 866.331C1509.98 866.478 1508.27 867.049 1506.76 867.995C1505.04 869.049 1503.6 870.507 1502.56 872.243C1501.53 873.979 1500.93 875.941 1500.83 877.959C1500.37 882.002 1501.06 886.093 1502.81 889.765C1504.57 893.438 1507.31 896.544 1510.75 898.731C1518.47 903.724 1527.39 906.549 1536.57 906.913C1545.32 907.354 1554.77 905.502 1558.72 896.717C1562.1 889.17 1560.74 880.269 1558.95 872.5C1557.75 867.305 1549.75 869.504 1550.95 874.703C1551.96 878.65 1552.47 882.708 1552.46 886.781C1552.47 888 1552.34 889.216 1552.1 890.411C1551.97 890.975 1551.84 891.534 1551.67 892.086C1551.61 892.258 1551.01 893.714 1551.41 892.857C1547.86 900.524 1536.97 899.25 1530.11 897.747C1523.37 896.272 1514.43 893.435 1510.65 887.131C1509 884.288 1508.49 880.925 1509.22 877.721C1509.29 877.134 1509.5 876.574 1509.85 876.098C1510.2 875.621 1510.67 875.244 1511.21 875.004C1511.77 874.747 1512.43 874.739 1512.97 874.492C1513.23 874.374 1513.53 874.674 1512.76 874.305C1517.55 876.602 1521.76 869.456 1516.95 867.148Z" fill="black"/>
<path d="M1586.43 868.81C1586.59 871.931 1587.04 875.031 1587.76 878.073C1587.86 878.486 1587.93 878.907 1587.97 879.331C1587.97 878.241 1587.93 879.086 1587.97 879.374C1588.03 879.964 1588.05 880.558 1588.02 881.15C1588 881.652 1587.95 882.151 1587.91 882.651C1587.84 883.623 1588.04 882.222 1587.85 883.107C1587.74 883.627 1587.64 884.143 1587.51 884.659C1587.47 884.812 1587.08 885.979 1587.21 885.641C1587.35 885.303 1586.8 886.364 1586.74 886.501C1586.46 886.892 1586.46 886.911 1586.74 886.557C1586.62 886.7 1586.5 886.837 1586.38 886.971C1586.09 887.284 1585.78 887.578 1585.45 887.852C1586.1 887.307 1585.1 888.059 1584.94 888.163C1584.56 888.389 1584.18 888.577 1583.79 888.785C1583.35 888.985 1583.33 888.992 1583.74 888.805C1583.56 888.874 1583.39 888.936 1583.21 888.994C1582.37 889.256 1581.52 889.464 1580.65 889.616C1580.35 889.663 1580.41 889.654 1580.83 889.591C1580.52 889.624 1580.21 889.653 1579.9 889.68C1579.38 889.721 1578.86 889.757 1578.35 889.779C1577.38 889.821 1576.42 889.823 1575.46 889.779C1574.99 889.754 1574.53 889.707 1574.06 889.674C1573.57 889.616 1573.54 889.616 1573.97 889.674C1573.76 889.645 1573.57 889.616 1573.37 889.582C1572.3 889.41 1571.24 889.187 1570.19 888.94C1569.13 888.648 1568 888.789 1567.05 889.332C1566.09 889.875 1565.39 890.775 1565.1 891.835C1564.8 892.895 1564.94 894.028 1565.49 894.984C1566.03 895.94 1566.93 896.641 1567.99 896.933C1576.57 898.941 1588.83 899.233 1593.99 890.53C1595.97 886.864 1596.73 882.66 1596.15 878.533C1595.89 876.517 1595.51 874.525 1595.16 872.523C1595.08 872.086 1595 871.649 1594.93 871.21C1594.9 871.002 1594.86 870.795 1594.83 870.588C1594.76 870.111 1594.77 870.18 1594.85 870.795C1594.7 870.15 1594.65 869.483 1594.72 868.822C1594.72 867.723 1594.28 866.669 1593.51 865.892C1592.73 865.114 1591.68 864.678 1590.58 864.678C1589.48 864.678 1588.42 865.114 1587.65 865.892C1586.87 866.669 1586.43 867.723 1586.43 868.822L1586.43 868.81Z" fill="black"/>
<path d="M1503.47 722.941C1503.47 727.55 1503.61 732.153 1503.73 736.762C1503.86 741.785 1505.41 747.672 1509.47 750.973C1512.97 753.81 1517.76 754.618 1522.05 755.441C1528.3 756.695 1534.65 757.422 1541.03 757.613C1554.24 757.901 1567.54 755.804 1580.52 753.547C1585.42 752.697 1591.29 751.239 1594.23 746.854C1597.61 741.783 1596.67 734.407 1596.87 728.617C1597.73 703.358 1598.92 678.025 1593.94 653.078C1591.72 641.986 1588.09 629.813 1578 623.354C1568.24 617.104 1555.97 620.059 1545.43 622.152C1538.48 623.333 1531.71 625.341 1525.24 628.132C1518.63 631.234 1512.98 636.071 1508.9 642.129C1502.92 650.903 1497.79 660.319 1492.16 669.327C1489.33 673.866 1496.5 678.031 1499.32 673.511C1504 666.018 1508.56 658.452 1513.17 650.923C1515.42 646.868 1518.31 643.201 1521.73 640.062C1526.05 636.627 1531.06 634.144 1536.42 632.778C1542 631.147 1547.74 630.118 1553.45 629.023C1558.11 627.889 1562.94 627.602 1567.7 628.178C1577.21 629.854 1581.77 638.941 1584.13 647.461C1590.06 668.88 1589.79 691.6 1589.1 713.61C1588.91 719.761 1588.67 725.911 1588.48 732.053C1588.36 735.887 1589.52 741.849 1585.26 743.708C1580.43 745.813 1574.67 746.166 1569.53 746.951C1563.77 747.83 1557.99 748.609 1552.18 749.023C1545.9 749.509 1539.6 749.455 1533.34 748.862C1527.74 748.442 1522.21 747.371 1516.85 745.672C1515.59 745.333 1514.51 744.53 1513.81 743.424C1512.68 741.487 1512.07 739.292 1512.04 737.05C1511.86 732.352 1511.77 727.651 1511.77 722.946C1511.77 717.612 1503.48 717.603 1503.48 722.946L1503.47 722.941Z" fill="black"/>
<path d="M1570.66 625.065C1572.94 621.787 1575.55 618.744 1578.43 615.98C1581.62 612.541 1584.55 608.863 1587.18 604.976C1592.54 596.823 1595.47 587.309 1595.61 577.552C1595.55 569.232 1593.39 561.064 1589.32 553.806C1585.25 546.549 1579.41 540.438 1572.35 536.044C1557.9 527.052 1539.49 527.34 1524.56 535.066C1516.53 539.355 1509.76 545.662 1504.91 553.366C1500.06 561.07 1497.3 569.904 1496.91 578.998C1495.92 599.545 1509.06 623.345 1532.12 622.647C1537.44 622.485 1537.46 614.196 1532.12 614.358C1515.04 614.876 1505.49 597.539 1505.15 582.403C1504.95 574.693 1506.77 567.064 1510.44 560.277C1514.11 553.49 1519.49 547.783 1526.04 543.724C1538.02 536.502 1553.56 535.151 1566.02 541.942C1571.96 545.177 1577.01 549.834 1580.71 555.495C1584.42 561.157 1586.66 567.647 1587.24 574.387C1587.78 583.878 1585.17 593.28 1579.81 601.134C1577.25 604.796 1574.41 608.259 1571.33 611.496C1568.41 614.346 1565.79 617.49 1563.52 620.877C1560.81 625.484 1567.97 629.659 1570.68 625.059L1570.66 625.065Z" fill="black"/>
<path d="M1496.59 666.544C1492.21 663.63 1487.27 658.209 1481.55 659.192C1476.67 660.033 1474.12 664.982 1471.4 668.643C1468.16 672.997 1464.97 677.381 1461.82 681.796C1458.93 685.835 1455.47 690.004 1458 695.185C1459.18 697.141 1460.72 698.859 1462.53 700.254C1464.39 701.98 1466.28 703.692 1468.2 705.37C1471.86 708.685 1475.72 711.765 1479.77 714.592C1483.97 717.626 1489.11 719.081 1494.27 718.701C1499.54 718.07 1504.59 716.251 1509.05 713.382C1519.11 707.165 1526.34 697.483 1533.18 688.059C1533.73 687.108 1533.88 685.98 1533.6 684.919C1533.32 683.858 1532.64 682.949 1531.7 682.389C1530.74 681.858 1529.62 681.716 1528.56 681.993C1527.51 682.27 1526.6 682.944 1526.03 683.875C1521.34 690.818 1515.83 697.169 1509.62 702.788C1504 707.53 1495.15 712.688 1487.64 709.6C1484.55 708.086 1481.69 706.141 1479.14 703.825C1475.92 701.201 1472.8 698.437 1469.74 695.631C1468.36 694.555 1467.08 693.365 1465.9 692.075C1464.95 690.831 1465.97 690.21 1466.83 688.995C1469.26 685.551 1471.72 682.129 1474.21 678.729C1475.65 676.756 1477.1 674.789 1478.57 672.827C1479.65 671.079 1480.89 669.431 1482.26 667.901C1482.7 667.487 1482.72 667.334 1483.32 667.325C1483.33 667.325 1485.04 668.554 1485.52 668.896C1487.8 670.519 1490.08 672.15 1492.41 673.702C1496.87 676.667 1501.02 669.491 1496.6 666.544H1496.59Z" fill="black"/>
<path d="M1510.24 556.537C1514.59 558.849 1518.76 561.481 1522.71 564.412L1520.81 561.935C1522.02 566.053 1523.02 570.224 1524.47 574.274C1524.61 574.798 1524.86 575.29 1525.19 575.719C1525.53 576.149 1525.94 576.508 1526.42 576.777C1526.89 577.046 1527.41 577.219 1527.95 577.286C1528.49 577.353 1529.04 577.313 1529.56 577.169C1530.09 577.024 1530.58 576.777 1531.01 576.443C1531.44 576.108 1531.8 575.693 1532.07 575.219C1532.34 574.746 1532.51 574.224 1532.58 573.684C1532.64 573.144 1532.6 572.596 1532.46 572.071C1531.59 569.646 1530.88 567.166 1530.18 564.689C1529.87 563.596 1529.57 562.504 1529.27 561.413C1529.08 559.949 1528.39 558.596 1527.32 557.579C1523.27 554.465 1518.96 551.72 1514.43 549.377C1513.96 549.102 1513.44 548.923 1512.9 548.849C1512.36 548.775 1511.81 548.808 1511.28 548.946C1510.76 549.084 1510.26 549.325 1509.83 549.654C1509.39 549.983 1509.03 550.394 1508.76 550.864C1508.48 551.334 1508.3 551.853 1508.23 552.393C1508.15 552.932 1508.19 553.481 1508.32 554.007C1508.46 554.534 1508.7 555.028 1509.03 555.462C1509.36 555.895 1509.77 556.26 1510.24 556.535L1510.24 556.537Z" fill="black"/>
<path d="M1530.55 577.656C1530.92 577.39 1531.3 577.149 1531.69 576.933C1532.05 576.742 1532.58 576.605 1531.92 576.808C1532.33 576.678 1532.77 576.57 1533.2 576.443C1534.1 576.174 1532.55 576.431 1533.42 576.396C1533.87 576.377 1534.31 576.348 1534.76 576.365C1535.18 576.379 1535.73 576.458 1535.01 576.344C1535.79 576.484 1536.56 576.681 1537.31 576.935C1537.75 577.105 1537.74 577.095 1537.27 576.906C1537.48 577.001 1537.69 577.1 1537.89 577.208C1538.19 577.368 1538.49 577.54 1538.78 577.726C1538.97 577.848 1539.15 577.977 1539.34 578.112C1538.95 577.809 1538.93 577.809 1539.29 578.112C1539.53 578.352 1539.79 578.572 1540.03 578.822C1540.18 578.988 1540.33 579.158 1540.47 579.334C1540.21 578.993 1540.22 579.016 1540.5 579.403C1540.69 579.726 1540.9 580.024 1541.09 580.364C1541.2 580.584 1541.32 580.806 1541.43 581.032C1541.26 580.617 1541.27 580.632 1541.44 581.075C1541.59 581.489 1541.73 581.904 1541.84 582.318C1541.95 582.733 1542.05 583.172 1542.12 583.603C1541.95 582.7 1542.15 583.991 1542.16 584.192C1542.19 584.635 1542.19 585.077 1542.18 585.52C1542.18 585.657 1542.1 586.946 1542.14 586.488C1542.18 586.03 1541.99 587.298 1541.96 587.441C1541.86 587.876 1541.75 588.305 1541.62 588.732C1541.49 589.159 1541.35 589.578 1541.18 589.988C1541.5 589.209 1540.96 590.382 1540.88 590.529C1540.67 590.908 1540.46 591.281 1540.22 591.642C1540.08 591.849 1539.94 592.056 1539.8 592.253C1540.04 591.956 1540.07 591.921 1539.88 592.147C1539.32 592.8 1538.71 593.412 1538.06 593.979C1537.84 594.166 1537.88 594.135 1538.18 593.89C1537.97 594.031 1537.78 594.166 1537.57 594.305C1537.21 594.528 1536.83 594.709 1536.46 594.912C1536.19 595.038 1536.24 595.015 1536.62 594.845C1536.39 594.928 1536.16 595.003 1535.93 595.071C1535.46 595.2 1534.99 595.297 1534.51 595.363C1533.45 595.656 1532.55 596.358 1532.01 597.313C1531.46 598.269 1531.32 599.401 1531.61 600.461C1531.93 601.504 1532.63 602.385 1533.58 602.924C1534.53 603.463 1535.65 603.62 1536.71 603.362C1544.81 602.183 1549.85 593.882 1550.43 586.297C1550.8 582.435 1549.82 578.565 1547.65 575.346C1545.48 572.127 1542.27 569.76 1538.55 568.648C1536.51 568.055 1534.36 567.914 1532.26 568.237C1530.16 568.559 1528.15 569.335 1526.38 570.513C1525.45 571.085 1524.78 571.993 1524.5 573.049C1524.22 574.106 1524.36 575.228 1524.89 576.182C1525.46 577.122 1526.37 577.805 1527.42 578.083C1528.48 578.361 1529.61 578.213 1530.56 577.67L1530.55 577.656Z" fill="black"/>
<path d="M1536.31 601.765C1538.27 606.352 1540.68 610.732 1543.51 614.837C1546.35 619.234 1549.61 623.344 1553.25 627.107C1553.63 627.502 1554.09 627.818 1554.59 628.035C1555.1 628.253 1555.64 628.367 1556.19 628.372C1556.74 628.377 1557.29 628.272 1557.8 628.063C1558.31 627.855 1558.77 627.547 1559.16 627.158C1559.55 626.769 1559.86 626.306 1560.07 625.797C1560.27 625.287 1560.38 624.742 1560.37 624.191C1560.37 623.641 1560.26 623.097 1560.04 622.592C1559.82 622.086 1559.51 621.629 1559.11 621.246C1557.57 619.683 1556.11 618.033 1554.76 616.304C1554.69 616.221 1553.98 615.311 1554.55 616.049C1554.37 615.817 1554.19 615.583 1554.02 615.348C1553.62 614.826 1553.23 614.3 1552.85 613.769C1552.11 612.743 1551.39 611.707 1550.68 610.661C1549.32 608.628 1548.02 606.554 1546.81 604.425C1546.27 603.47 1545.75 602.507 1545.26 601.524C1545.04 601.099 1544.84 600.67 1544.64 600.239C1544.52 599.995 1544.41 599.75 1544.3 599.506C1543.96 598.772 1544.64 600.335 1544.32 599.566C1544.01 598.521 1543.3 597.636 1542.35 597.096C1541.41 596.556 1540.29 596.402 1539.23 596.665C1538.17 596.964 1537.27 597.667 1536.73 598.62C1536.19 599.574 1536.04 600.702 1536.32 601.763L1536.31 601.765Z" fill="black"/>
<path d="M1509.75 574.182C1509.14 570.237 1509.87 566.2 1511.82 562.721C1513.51 559.229 1515.74 556.023 1518.42 553.219C1524.38 547.3 1531.5 542.672 1539.33 539.621C1540.37 539.299 1541.25 538.593 1541.79 537.645C1542.33 536.698 1542.49 535.581 1542.23 534.521C1541.93 533.463 1541.23 532.566 1540.28 532.022C1539.32 531.479 1538.19 531.334 1537.13 531.62C1527.73 535.582 1518.6 540.611 1511.7 548.285C1505.14 555.575 1499.28 566.299 1501.75 576.379C1503.03 581.56 1511.02 579.363 1509.75 574.176L1509.75 574.182Z" fill="black"/>
<path d="M1593.58 579.523C1593.58 579.962 1593.49 580.397 1593.31 580.799C1593.14 581.201 1592.88 581.562 1592.55 581.856C1587.48 586.678 1581.75 590.756 1575.53 593.969C1565.51 598.587 1554.58 600.929 1543.54 600.828C1535.69 600.683 1527.89 599.431 1520.38 597.108C1513.39 594.487 1506.89 590.693 1501.17 585.889C1500.37 585.249 1499.73 584.437 1499.29 583.515C1498.85 582.593 1498.62 581.583 1498.62 580.561V572.962C1498.62 572.407 1498.77 571.861 1499.05 571.382C1499.33 570.902 1499.73 570.505 1500.21 570.231C1500.7 569.957 1501.24 569.816 1501.8 569.823C1502.35 569.829 1502.9 569.983 1503.37 570.268C1508.48 573.329 1514.15 577.492 1520.4 579.823C1528.17 582.683 1536.38 584.181 1544.66 584.25C1553.36 583.932 1561.88 581.73 1569.64 577.795C1575 575.37 1580.11 571.248 1585.12 567.79C1585.96 567.255 1586.92 566.955 1587.91 566.923C1588.9 566.891 1589.88 567.127 1590.75 567.607C1591.61 568.087 1592.33 568.792 1592.83 569.648C1593.33 570.504 1593.59 571.479 1593.58 572.469V579.523Z" fill="#CFCFCF"/>
<path d="M1589.43 579.523C1589.5 578.874 1590.08 578.779 1589.09 579.4C1588.79 579.623 1588.52 579.866 1588.26 580.13C1587.59 580.72 1586.91 581.305 1586.22 581.885C1584.8 583.087 1583.35 584.254 1581.84 585.344C1578.56 587.754 1575.01 589.774 1571.26 591.366C1564.24 594.263 1556.81 596.024 1549.24 596.584C1542.58 596.99 1535.89 596.522 1529.35 595.193C1521.22 593.536 1513.57 590.095 1506.93 585.118C1505.01 583.721 1502.88 582.583 1502.77 580.037C1502.69 577.964 1502.96 575.853 1502.77 573.793C1502.67 572.728 1502.77 573.012 1502.13 573.896C1501.79 574.352 1500.35 572.976 1501.99 574.261C1502.33 574.5 1502.69 574.721 1503.05 574.922C1504.03 575.529 1504.99 576.149 1505.95 576.764C1509.5 579.117 1513.23 581.177 1517.11 582.923C1531.66 589.301 1548.06 590.014 1563.11 584.923C1567.33 583.486 1571.42 581.669 1575.31 579.494C1577.45 578.25 1579.49 576.839 1581.52 575.405C1582.54 574.682 1583.56 573.954 1584.57 573.223C1585.46 572.418 1586.44 571.733 1587.5 571.186C1590.59 570.204 1589.43 577.888 1589.43 579.523C1589.43 584.857 1597.72 584.865 1597.72 579.523C1597.72 574.135 1598.58 568.055 1593.54 564.495C1591.87 563.346 1589.89 562.751 1587.87 562.792C1585.85 562.833 1583.89 563.509 1582.28 564.725C1578.18 567.508 1574.32 570.639 1569.95 573.014C1561.92 577.557 1552.87 579.992 1543.65 580.093C1534.74 580.076 1525.94 578.06 1517.91 574.193C1513.71 572.033 1509.92 569.209 1505.82 566.896C1504.88 566.3 1503.82 565.923 1502.72 565.791C1501.62 565.659 1500.5 565.776 1499.45 566.134C1498.4 566.492 1497.44 567.082 1496.65 567.859C1495.85 568.637 1495.25 569.583 1494.87 570.626C1494.37 572.978 1494.24 575.391 1494.48 577.782C1494.17 580.83 1494.8 583.9 1496.29 586.577C1498.57 590.011 1502.95 592.557 1506.35 594.752C1510.39 597.378 1514.73 599.51 1519.28 601.101C1527.78 603.84 1536.67 605.162 1545.6 605.012C1555.45 604.881 1565.18 602.847 1574.26 599.023C1579.2 596.954 1583.84 594.246 1588.07 590.968C1592.01 587.949 1597.19 584.838 1597.72 579.523C1597.71 578.426 1597.27 577.376 1596.5 576.6C1595.72 575.825 1594.67 575.386 1593.58 575.378C1592.48 575.402 1591.44 575.846 1590.67 576.618C1589.9 577.391 1589.45 578.431 1589.43 579.523Z" fill="black"/>
<path d="M1536.6 528.188C1531.75 525.368 1527 522.091 1521.16 524.188C1518.62 525.284 1516.19 526.602 1513.88 528.126L1506.12 532.614L1490.44 541.681L1483.01 545.968C1480.01 547.452 1477.14 549.185 1474.44 551.149C1470.59 554.365 1470.62 558.777 1470.62 563.361C1470.62 567.945 1470.62 572.479 1470.62 577.038C1470.62 581.129 1469.87 586.195 1471.58 590.008C1473.31 593.873 1477.13 595.581 1480.6 597.595C1487.15 601.397 1493.7 605.196 1500.25 608.993C1504.88 611.662 1509.06 604.502 1504.44 601.835C1499.77 599.145 1495.12 596.444 1490.46 593.732L1481.78 588.693C1480.63 588.023 1479.26 587.524 1478.94 586.096C1478.76 584.494 1478.75 582.879 1478.91 581.276C1478.91 577.33 1478.91 573.385 1478.91 569.441V564.028C1478.77 562.373 1478.78 560.709 1478.93 559.055C1479.27 557.175 1481.26 556.568 1482.77 555.693L1490.26 551.36L1504.02 543.407L1518.87 534.826C1520.73 533.746 1523.14 531.672 1525.42 531.788C1527.74 531.908 1530.45 534.216 1532.41 535.358C1537.03 538.052 1541.21 530.886 1536.6 528.2L1536.6 528.188Z" fill="black"/>
</g>
<g opacity="0.12">
<path d="M845.929 197.998C845.929 209.607 848.216 221.101 852.658 231.826C857.1 242.55 863.611 252.295 871.819 260.503C880.028 268.711 889.772 275.222 900.497 279.665C911.221 284.107 922.716 286.393 934.324 286.393C945.932 286.393 957.427 284.107 968.151 279.665C978.876 275.222 988.621 268.711 996.829 260.503C1005.04 252.295 1011.55 242.55 1015.99 231.826C1020.43 221.101 1022.72 209.607 1022.72 197.998C1022.72 186.39 1020.43 174.896 1015.99 164.171C1011.55 153.447 1005.04 143.702 996.829 135.494C988.621 127.286 978.876 120.774 968.151 116.332C957.427 111.89 945.932 109.604 934.324 109.604C922.716 109.604 911.221 111.89 900.497 116.332C889.772 120.774 880.028 127.286 871.819 135.494C863.611 143.702 857.1 153.447 852.658 164.171C848.216 174.896 845.929 186.39 845.929 197.998Z" fill="#5B5B5B"/>
<path d="M841.607 306.062C841.607 310.779 845.432 314.603 850.149 314.603C845.431 314.603 841.607 318.428 841.607 323.145C841.607 318.428 837.783 314.603 833.066 314.603C837.783 314.603 841.607 310.779 841.607 306.062Z" fill="#A3A3A3"/>
<path d="M845.941 331.328H837.271V323.144C837.271 320.824 835.386 318.939 833.066 318.939H824.882V310.27H833.066C835.386 310.27 837.271 308.382 837.271 306.062V297.878H845.941V306.062C845.941 308.382 847.829 310.27 850.149 310.27V318.939C847.829 318.939 845.941 320.824 845.941 323.144V331.328ZM858.333 318.939H850.148V310.27H858.333V318.939Z" fill="#A3A3A3"/>
<path d="M1079.99 228.305C1079.99 231.463 1082.55 234.023 1085.71 234.023C1082.55 234.023 1079.99 236.583 1079.99 239.742C1079.99 236.583 1077.43 234.023 1074.27 234.023C1077.43 234.023 1079.99 231.463 1079.99 228.305Z" fill="#A3A3A3"/>
<path d="M1082.89 245.221H1077.09V239.742C1077.09 238.189 1075.83 236.925 1074.27 236.925H1068.79V231.121H1074.27C1075.02 231.12 1075.74 230.823 1076.26 230.295C1076.79 229.768 1077.09 229.052 1077.09 228.305V222.826H1082.89V228.305C1082.89 229.859 1084.16 231.121 1085.71 231.121V236.925C1084.16 236.925 1082.89 238.189 1082.89 239.742V245.221ZM1091.19 236.925H1085.71V231.12H1091.19V236.925Z" fill="#A3A3A3"/>
<path d="M1043.07 246.344C1043.07 251.061 1046.89 254.885 1051.61 254.885C1046.89 254.885 1043.07 258.71 1043.07 263.427C1043.07 258.709 1039.24 254.885 1034.53 254.885C1039.24 254.886 1043.07 251.061 1043.07 246.344Z" fill="#A3A3A3"/>
<path d="M1047.4 271.611H1038.74V263.427C1038.74 261.107 1036.85 259.222 1034.53 259.222H1026.34V250.552H1034.53C1036.85 250.552 1038.74 248.664 1038.74 246.345V238.16H1047.4V246.344C1047.4 248.664 1049.29 250.552 1051.61 250.552V259.221C1049.29 259.221 1047.4 261.107 1047.4 263.426V271.611ZM1059.79 259.221H1051.61V250.552H1059.79V259.221Z" fill="#A3A3A3"/>
<path d="M1011.13 304.437C1011.13 307.658 1013.74 310.27 1016.96 310.27H1022.55H1016.96C1013.74 310.27 1011.13 312.881 1011.13 316.103C1011.13 312.881 1008.52 310.27 1005.3 310.27C1008.52 310.27 1011.13 307.659 1011.13 304.437Z" fill="#A3A3A3"/>
<path d="M1014.09 321.692H1008.17V316.103C1008.17 314.519 1006.88 313.23 1005.3 313.23H999.71V307.309H1005.3C1006.88 307.309 1008.17 306.02 1008.17 304.436V298.848H1014.09V304.436C1014.09 306.021 1015.38 307.31 1016.97 307.31V313.23C1015.38 313.23 1014.09 314.519 1014.09 316.104L1014.09 321.692ZM1022.55 313.23H1016.97V307.309H1022.55V313.23Z" fill="#A3A3A3"/>
<path d="M789.425 159.596C789.425 164.314 793.249 168.138 797.967 168.138C793.249 168.138 789.425 171.962 789.425 176.679C789.425 171.962 785.6 168.138 780.883 168.138C785.601 168.138 789.425 164.314 789.425 159.596Z" fill="#A3A3A3"/>
<path d="M793.761 184.864H785.091V176.68C785.091 174.361 783.203 172.472 780.883 172.472H772.699V163.803H780.883C783.203 163.803 785.091 161.915 785.091 159.595V151.411H793.761V159.595C793.761 161.915 795.646 163.803 797.965 163.803V172.472C795.646 172.472 793.761 174.36 793.761 176.68V184.864ZM806.15 172.472H797.965V163.803H806.15V172.472Z" fill="#A3A3A3"/>
<path d="M964.385 288.479C914.248 305.141 859.902 277.906 843.241 227.769C826.58 177.632 853.815 123.286 903.952 106.625C954.089 89.9634 1008.43 117.199 1025.1 167.336C1041.76 217.472 1014.52 271.818 964.385 288.479ZM906.686 114.852C861.086 130.005 836.314 179.434 851.468 225.035C866.622 270.635 916.051 295.406 961.651 280.252C1007.25 265.099 1032.02 215.67 1016.87 170.07C1001.71 124.469 952.286 99.6978 906.686 114.852Z" fill="black"/>
<path d="M849.28 276.216C824.149 284.568 804.259 286.872 798.563 277.172C790.424 263.31 818.004 237.128 842.578 217.604L847.97 224.395C808.62 255.656 804.36 269.926 806.039 272.785C811.416 281.942 869.15 265.947 947.367 220.026C982.35 199.485 1013.62 177.492 1035.42 158.101C1060.3 135.96 1063.88 125.014 1062.3 122.319C1060.6 119.433 1045.91 116.205 998.861 135.668L995.545 127.658C1024.88 115.515 1061.58 103.976 1069.77 117.932C1075.28 127.303 1065.92 142.56 1041.18 164.578C1018.97 184.335 987.214 206.683 951.755 227.501C921.305 245.382 881.094 265.644 849.28 276.216Z" fill="black"/>
<path d="M809.702 130.06C809.702 131.924 810.069 133.771 810.783 135.494C811.496 137.217 812.542 138.783 813.861 140.101C815.18 141.42 816.745 142.466 818.468 143.18C820.191 143.893 822.038 144.261 823.903 144.261C825.768 144.261 827.614 143.893 829.337 143.18C831.06 142.466 832.626 141.42 833.945 140.101C835.263 138.783 836.309 137.217 837.023 135.494C837.737 133.771 838.104 131.924 838.104 130.06C838.104 128.195 837.737 126.348 837.023 124.625C836.309 122.902 835.263 121.337 833.945 120.018C832.626 118.699 831.06 117.653 829.337 116.939C827.614 116.226 825.768 115.858 823.903 115.858C822.038 115.858 820.191 116.226 818.468 116.939C816.745 117.653 815.18 118.699 813.861 120.018C812.542 121.337 811.496 122.902 810.783 124.625C810.069 126.348 809.702 128.195 809.702 130.06Z" fill="#5B5B5B"/>
<path d="M823.904 148.595C813.683 148.595 805.366 140.281 805.366 130.059C805.366 119.837 813.683 111.523 823.904 111.523C834.126 111.523 842.44 119.837 842.44 130.059C842.44 140.281 834.126 148.595 823.904 148.595ZM823.904 120.193C818.463 120.193 814.035 124.619 814.035 130.06C814.035 135.501 818.463 139.926 823.904 139.926C829.345 139.926 833.77 135.501 833.77 130.06C833.77 124.618 829.345 120.193 823.904 120.193Z" fill="black"/>
<path d="M982.162 119.685C986.19 111.784 987.183 102.341 984.166 93.2607C978.184 75.261 958.743 65.5177 940.743 71.4997C925.16 76.6782 915.788 91.9446 917.426 107.629C940.296 103.342 963.273 108.055 982.162 119.685Z" fill="#A3A3A3"/>
<path d="M983.893 125.838L979.889 123.374C961.386 111.983 939.487 107.906 918.225 111.891L913.606 112.757L913.116 108.081C911.244 90.1789 922.288 73.064 939.377 67.3851C959.616 60.6594 981.552 71.6531 988.279 91.8941C991.564 101.782 990.765 112.352 986.025 121.65L983.893 125.838ZM921.62 102.57C941.761 99.8828 962.18 103.69 980.078 113.465C982.101 107.372 982.112 100.828 980.052 94.6289C974.833 78.9242 957.813 70.3949 942.111 75.6129C930.33 79.5273 922.255 90.4425 921.62 102.57Z" fill="black"/>
<path d="M890.657 277.996C884.866 286.041 882.859 296.638 886.224 306.764C891.793 323.522 909.894 332.593 926.652 327.024C942.922 321.617 951.903 304.403 947.321 288.069C927.426 290.983 907.621 287.167 890.657 277.996Z" fill="#A3A3A3"/>
<path d="M928.02 331.139C909.019 337.453 888.424 327.131 882.11 308.13C878.454 297.129 880.335 284.917 887.137 275.463L889.363 272.371L892.716 274.183C909.383 283.192 928.047 286.513 946.693 283.781L950.464 283.227L951.494 286.899C956.736 305.59 946.424 325.023 928.02 331.139ZM892.215 283.673C888.672 290.319 887.946 298.2 890.337 305.396C895.143 319.861 910.822 327.718 925.286 322.911C938.104 318.652 945.762 305.9 943.909 292.863C926.096 294.717 908.378 291.568 892.215 283.673ZM985.506 155.741C985.437 155.621 978.049 142.96 964.899 136.37C951.677 129.744 937.986 130.767 937.849 130.778L937.127 122.215C937.78 122.159 953.29 120.94 968.749 128.687C984.288 136.475 992.624 150.876 992.972 151.485L985.506 155.741ZM996.411 157.044L1001.05 166.533L993.324 170.305L988.69 160.816L996.411 157.044Z" fill="black"/>
</g>
<path d="M650.008 505.589C645.969 505.589 642.693 508.865 642.693 512.904H657.322C657.322 508.865 654.046 505.589 650.008 505.589Z" fill="black" fill-opacity="0.12"/>
<path d="M765.992 505.589C761.954 505.589 758.678 508.865 758.678 512.904H773.306C773.306 508.865 770.031 505.589 765.992 505.589Z" fill="black" fill-opacity="0.12"/>
<path d="M715.837 472.415H708V480.252H715.837V472.415Z" fill="black" fill-opacity="0.12"/>
<path d="M800.473 456.743H775.123L745.557 419.357C742.816 415.89 738.708 413.902 734.288 413.902H641.877L628.894 456.743H610.302C596.618 456.743 585.485 467.876 585.485 481.56V487.829H593.322V481.56C593.322 472.197 600.939 464.58 610.301 464.58H631.8H634.708H771.329H773.227H800.473C812.716 464.58 822.677 474.541 822.677 486.784V487.829H830.513V486.784C830.514 470.219 817.038 456.743 800.473 456.743ZM637.083 456.743L647.691 421.739H656.141L645.533 456.743H637.083ZM653.723 456.743L664.331 421.739H698.868L726.551 456.743H653.723ZM736.542 456.743L708.859 421.739H734.289C736.298 421.739 738.165 422.643 739.411 424.219L765.132 456.743H736.542Z" fill="black" fill-opacity="0.12"/>
<path d="M810.923 494.36V502.196H828.163V508.466H800.445C799.468 500.773 795.964 493.667 790.36 488.148C783.823 481.71 775.169 478.164 765.992 478.164C756.815 478.164 748.161 481.71 741.624 488.148C739.7 490.043 738.029 492.129 736.618 494.358H679.382C677.971 492.129 676.301 490.043 674.377 488.148C667.84 481.71 659.185 478.164 650.008 478.164C640.831 478.164 632.177 481.71 625.64 488.148C620.036 493.667 616.532 500.773 615.555 508.466H587.837V502.196H605.077V494.36H580V516.303H623.05L623.115 512.45C623.359 497.866 635.423 486.001 650.008 486.001C664.594 486.001 676.659 497.866 676.902 512.45L676.966 516.303H739.035L739.099 512.45C739.342 497.866 751.407 486.001 765.992 486.001C780.578 486.001 792.643 497.866 792.886 512.45L792.95 516.303H836V494.36H810.923ZM731.538 508.466H684.462C684.19 506.322 683.714 504.226 683.058 502.195H732.941C732.286 504.226 731.81 506.322 731.538 508.466Z" fill="black" fill-opacity="0.12"/>
<path d="M665.385 497.055C661.097 492.848 655.472 490.587 649.577 490.706C637.571 490.936 627.804 500.895 627.804 512.907V525.965C627.804 529.567 630.734 532.496 634.335 532.496H655.755V586.423H663.592V532.496H665.682C669.283 532.496 672.212 529.567 672.212 525.966V513.268C672.212 507.221 669.724 501.312 665.385 497.055ZM649.727 498.542C653.495 498.466 657.123 499.928 659.897 502.65C661.696 504.415 663.008 506.61 663.732 508.986H636.197C637.895 503.078 643.316 498.664 649.727 498.542ZM664.376 524.659H635.641V516.823H664.376V524.659Z" fill="black" fill-opacity="0.12"/>
<path d="M781.369 497.055C777.08 492.848 771.442 490.587 765.56 490.706C753.555 490.936 743.788 500.895 743.788 512.906V525.965C743.788 529.566 746.717 532.495 750.318 532.495H752.408V581.198H760.245V532.495H771.739V573.361H779.575V532.495H781.665C785.266 532.495 788.196 529.566 788.196 525.965V513.267C788.196 507.221 785.707 501.311 781.369 497.055ZM765.71 498.542C769.478 498.466 773.107 499.928 775.88 502.65C777.679 504.415 778.992 506.61 779.716 508.986H752.181C753.879 503.078 759.3 498.664 765.71 498.542ZM780.359 524.659H751.625V516.823H780.359V524.659Z" fill="black" fill-opacity="0.12"/>
<path d="M644.261 539.926H636.424V570.75H644.261V539.926Z" fill="black" fill-opacity="0.12"/>
<path d="M644.261 578.587H636.424V586.424H644.261V578.587Z" fill="black" fill-opacity="0.12"/>
<path d="M663.591 594.261H655.755V602.098H663.591V594.261Z" fill="black" fill-opacity="0.12"/>
<path d="M779.575 581.2H771.739V589.036H779.575V581.2Z" fill="black" fill-opacity="0.12"/>
<path d="M760.244 589.037H752.407V596.873H760.244V589.037Z" fill="black" fill-opacity="0.12"/>
<defs>
<clipPath id="clip0_31_1277">
<rect width="800" height="800" fill="white" transform="translate(898 200)"/>
</clipPath>
</defs>
</svg>
