<svg width="715" height="1383" viewBox="0 0 715 1383" fill="none" xmlns="http://www.w3.org/2000/svg">
<g clip-path="url(#clip0_50_2699)">
<rect width="715" height="1383" fill="white"/>
<g opacity="0.12" clip-path="url(#clip1_50_2699)">
<rect width="800" height="800" transform="translate(-42 583)" fill="#F5F5F5"/>
<path d="M604.657 1338.13C604.471 1338.13 604.284 1338.11 604.098 1338.11C552.456 1336.3 511.528 1311.56 511.528 1281.28V1268.87C511.528 1237.43 555.668 1211.95 610.128 1211.95C664.588 1211.95 708.727 1237.43 708.727 1268.87C708.725 1272.12 708.258 1275.35 707.339 1278.47V1278.49" fill="#CFCFCF"/>
<path d="M19.4785 970.207L-33.3959 1000.74L-40.995 1005.12C-41.4695 1005.4 -41.8144 1005.86 -41.9538 1006.39C-42.0931 1006.92 -42.0154 1007.49 -41.7379 1007.96C-41.4603 1008.44 -41.0056 1008.78 -40.4738 1008.92C-39.9419 1009.06 -39.3765 1008.98 -38.9019 1008.7L13.9745 978.175L21.5715 973.788C22.0461 973.51 22.391 973.055 22.5303 972.524C22.6696 971.992 22.592 971.426 22.3144 970.952C22.0369 970.477 21.5822 970.132 21.0503 969.993C20.5185 969.854 19.9531 969.931 19.4785 970.209V970.207Z" fill="#CFCFCF"/>
<path d="M364.21 771.182L304.231 805.81L295.609 810.784C295.373 810.921 295.167 811.103 295.002 811.32C294.837 811.537 294.716 811.785 294.647 812.048C294.577 812.312 294.56 812.587 294.597 812.857C294.634 813.127 294.723 813.387 294.861 813.623C294.998 813.858 295.18 814.065 295.397 814.23C295.614 814.395 295.861 814.515 296.125 814.585C296.389 814.654 296.663 814.671 296.934 814.635C297.204 814.598 297.464 814.508 297.7 814.371L357.678 779.743L366.301 774.77C366.775 774.492 367.12 774.038 367.26 773.506C367.399 772.975 367.322 772.409 367.045 771.935C366.767 771.46 366.313 771.115 365.781 770.976C365.249 770.836 364.684 770.913 364.21 771.191V771.182Z" fill="#CFCFCF"/>
<path d="M672.75 1068.59L706.57 1088.12L711.411 1090.91C711.885 1091.19 712.451 1091.26 712.983 1091.13C713.515 1090.99 713.969 1090.64 714.247 1090.17C714.524 1089.69 714.602 1089.13 714.463 1088.59C714.323 1088.06 713.979 1087.61 713.504 1087.33L679.682 1067.81L674.841 1065.02C674.367 1064.74 673.801 1064.66 673.27 1064.8C672.738 1064.94 672.284 1065.29 672.006 1065.76C671.729 1066.23 671.652 1066.8 671.791 1067.33C671.931 1067.86 672.276 1068.32 672.75 1068.59Z" fill="#CFCFCF"/>
<path d="M303.883 855.688L357.555 886.663L365.111 891.014C365.586 891.292 366.151 891.369 366.683 891.229C367.214 891.09 367.669 890.745 367.946 890.27C368.223 889.796 368.301 889.23 368.161 888.699C368.022 888.167 367.677 887.713 367.202 887.435L313.53 856.461L305.974 852.109C305.739 851.972 305.479 851.882 305.21 851.845C304.94 851.808 304.666 851.825 304.403 851.894C304.139 851.963 303.892 852.083 303.676 852.248C303.459 852.413 303.277 852.618 303.139 852.853C303.002 853.088 302.912 853.348 302.875 853.618C302.839 853.887 302.855 854.161 302.924 854.425C302.993 854.688 303.114 854.935 303.278 855.152C303.443 855.369 303.648 855.551 303.883 855.688Z" fill="#CFCFCF"/>
<path d="M744.004 981.876L697.149 1008.92L664.146 1027.99L614.589 1056.61L577.983 1077.74L535.59 1102.21L491.865 1127.45L456.333 1147.97L406.149 1176.95L374.322 1195.33L320.895 1226.18L316.52 1228.71C316.285 1228.85 316.079 1229.03 315.915 1229.24C315.75 1229.46 315.63 1229.71 315.561 1229.97C315.492 1230.23 315.475 1230.51 315.512 1230.78C315.549 1231.05 315.639 1231.31 315.776 1231.54C315.913 1231.78 316.096 1231.98 316.312 1232.15C316.529 1232.31 316.776 1232.43 317.039 1232.5C317.303 1232.57 317.577 1232.59 317.847 1232.55C318.116 1232.51 318.376 1232.42 318.611 1232.29L364.96 1205.52L394.931 1188.21L451.314 1155.65L479.717 1139.26L533.777 1108.05L565.205 1089.9L614.788 1061.27L651.199 1040.25L693.809 1015.64L740.941 988.437L746.097 985.461C746.571 985.183 746.916 984.729 747.056 984.197C747.195 983.665 747.117 983.1 746.84 982.625C746.562 982.151 746.107 981.806 745.576 981.666C745.044 981.527 744.478 981.605 744.004 981.882V981.876Z" fill="#CFCFCF"/>
<path d="M395.379 1075.62L378.038 1085.64L336.163 1109.83L285.707 1138.97L242.065 1164.18L227.559 1172.56C225.31 1173.86 222.898 1175.04 220.749 1176.5C220.656 1176.56 220.552 1176.62 220.453 1176.67C220.218 1176.81 220.012 1176.99 219.848 1177.21C219.683 1177.43 219.563 1177.67 219.494 1177.94C219.425 1178.2 219.409 1178.47 219.446 1178.74C219.483 1179.01 219.573 1179.27 219.71 1179.51C219.847 1179.74 220.03 1179.95 220.247 1180.11C220.464 1180.28 220.711 1180.4 220.974 1180.47C221.238 1180.54 221.512 1180.55 221.782 1180.52C222.051 1180.48 222.311 1180.39 222.546 1180.25L239.885 1170.24L281.762 1146.05L332.218 1116.9L375.86 1091.69L390.366 1083.31C392.612 1082.01 395.024 1080.84 397.173 1079.38C397.267 1079.31 397.381 1079.26 397.47 1079.2C397.944 1078.93 398.289 1078.47 398.429 1077.94C398.568 1077.41 398.491 1076.84 398.214 1076.37C397.936 1075.9 397.482 1075.55 396.95 1075.41C396.419 1075.27 395.853 1075.35 395.379 1075.62Z" fill="#CFCFCF"/>
<path d="M197.044 1082.68C183.26 1090.64 169.477 1098.6 155.696 1106.56L118.646 1127.94L95.8796 1141.09C95.405 1141.36 95.0601 1141.82 94.9208 1142.35C94.7815 1142.88 94.8591 1143.45 95.1367 1143.92C95.4142 1144.4 95.869 1144.74 96.4008 1144.88C96.9326 1145.02 97.498 1144.94 97.9726 1144.66L138.703 1121.15L177.356 1098.84L199.146 1086.25C199.62 1085.98 199.965 1085.52 200.105 1084.99C200.244 1084.46 200.167 1083.89 199.89 1083.42C199.612 1082.95 199.158 1082.6 198.626 1082.46C198.095 1082.32 197.529 1082.4 197.055 1082.68H197.044Z" fill="#CFCFCF"/>
<path d="M53.8909 1057.84L9.21036 1083.64L2.81321 1087.33C2.33863 1087.61 1.99374 1088.06 1.85442 1088.59C1.71509 1089.13 1.79275 1089.69 2.0703 1090.17C2.34785 1090.64 2.80256 1090.99 3.3344 1091.13C3.86624 1091.26 4.43164 1091.19 4.90622 1090.91L49.5951 1065.12L55.9902 1061.42C56.2251 1061.29 56.4308 1061.11 56.5954 1060.89C56.7599 1060.67 56.8802 1060.42 56.9493 1060.16C57.0183 1059.9 57.0349 1059.62 56.998 1059.35C56.9611 1059.08 56.8714 1058.82 56.7341 1058.59C56.5968 1058.35 56.4146 1058.15 56.1978 1057.98C55.981 1057.82 55.734 1057.7 55.4707 1057.63C55.2075 1057.56 54.9332 1057.55 54.6636 1057.58C54.3939 1057.62 54.1342 1057.71 53.8992 1057.85L53.8909 1057.84Z" fill="#CFCFCF"/>
<path d="M379.694 869.74L340.498 892.369L334.889 895.608C334.654 895.746 334.448 895.928 334.284 896.145C334.119 896.361 333.999 896.609 333.93 896.872C333.861 897.135 333.844 897.409 333.881 897.679C333.918 897.949 334.008 898.208 334.145 898.443C334.282 898.678 334.464 898.884 334.681 899.048C334.898 899.213 335.145 899.333 335.408 899.402C335.671 899.471 335.946 899.488 336.215 899.451C336.485 899.414 336.745 899.325 336.98 899.187L376.175 876.558L381.785 873.319C382.02 873.182 382.225 872.999 382.39 872.783C382.554 872.566 382.675 872.319 382.744 872.056C382.813 871.792 382.829 871.518 382.792 871.248C382.756 870.979 382.666 870.719 382.529 870.484C382.391 870.249 382.209 870.043 381.992 869.879C381.776 869.714 381.528 869.594 381.265 869.525C381.002 869.456 380.728 869.439 380.458 869.476C380.188 869.513 379.929 869.603 379.694 869.74Z" fill="#CFCFCF"/>
<path d="M383.927 1219.54L338.057 1193.05L308.739 1176.12L252.393 1143.6C243.379 1138.4 234.366 1133.2 225.354 1127.99L170.024 1096.03C160.5 1090.53 150.975 1085.03 141.449 1079.54L88.5541 1048.99L57.1734 1030.87L8.08302 1002.53L-30.188 980.44L-38.8916 975.406C-39.1266 975.269 -39.3863 975.179 -39.656 975.142C-39.9257 975.105 -40.2001 975.121 -40.4634 975.19C-40.7267 975.259 -40.9739 975.379 -41.1908 975.544C-41.4077 975.708 -41.5901 975.914 -41.7275 976.149C-41.8649 976.384 -41.9547 976.644 -41.9918 976.913C-42.0288 977.183 -42.0124 977.458 -41.9434 977.721C-41.8744 977.984 -41.7542 978.231 -41.5897 978.448C-41.4252 978.665 -41.2196 978.848 -40.9846 978.985L2.21845 1003.93C14.8179 1011.21 27.4181 1018.48 40.019 1025.75L83.4438 1050.83L124.666 1074.63C137.22 1081.88 149.773 1089.12 162.325 1096.37L209.265 1123.48C220.307 1129.86 231.35 1136.24 242.394 1142.61L293.692 1172.22C303.983 1178.16 314.275 1184.1 324.569 1190.05L377.499 1220.62L381.851 1223.13C382.326 1223.41 382.891 1223.49 383.423 1223.35C383.955 1223.21 384.409 1222.86 384.687 1222.39C384.964 1221.91 385.042 1221.35 384.903 1220.82C384.763 1220.28 384.419 1219.83 383.944 1219.55L383.927 1219.54Z" fill="#CFCFCF"/>
<path d="M287.995 1061.42L311.588 1075.04L368.248 1107.76L436.796 1147.34L496.051 1181.56L515.576 1192.84C518.643 1194.61 521.668 1196.59 524.837 1198.18C524.973 1198.25 525.104 1198.34 525.237 1198.42C525.711 1198.69 526.277 1198.77 526.808 1198.63C527.34 1198.49 527.795 1198.15 528.073 1197.67C528.35 1197.2 528.428 1196.63 528.288 1196.1C528.149 1195.57 527.804 1195.11 527.33 1194.84L503.737 1181.21L447.076 1148.49L378.529 1108.91L319.272 1074.7L299.749 1063.42C296.68 1061.65 293.654 1059.66 290.488 1058.07C290.351 1058 290.221 1057.92 290.086 1057.84C289.611 1057.56 289.046 1057.49 288.514 1057.63C287.983 1057.77 287.528 1058.11 287.251 1058.59C286.974 1059.06 286.896 1059.63 287.036 1060.16C287.175 1060.69 287.52 1061.14 287.995 1061.42Z" fill="#CFCFCF"/>
<path d="M675.011 962.388L710.033 982.611L737.53 998.485L754.914 1008.52C755.389 1008.8 755.954 1008.87 756.486 1008.73C757.018 1008.6 757.473 1008.25 757.75 1007.78C758.028 1007.3 758.105 1006.74 757.966 1006.2C757.827 1005.67 757.482 1005.22 757.007 1004.94L722.976 985.299C712.847 979.454 702.718 973.605 692.59 967.753L677.083 958.809C676.612 958.576 676.069 958.531 675.566 958.683C675.063 958.836 674.636 959.174 674.372 959.629C674.109 960.084 674.028 960.622 674.147 961.134C674.265 961.647 674.574 962.095 675.011 962.388Z" fill="#CFCFCF"/>
<path d="M333.034 764.955L381.915 793.184L413.828 811.613L460.815 838.735L526.897 876.881C539.794 884.327 552.554 892.121 565.634 899.241C565.841 899.353 566.038 899.476 566.241 899.592C566.716 899.869 567.281 899.946 567.813 899.807C568.344 899.667 568.799 899.322 569.076 898.848C569.353 898.373 569.431 897.808 569.291 897.276C569.152 896.745 568.806 896.29 568.332 896.013L536.093 877.404L470.642 839.62L418.97 809.793L391.767 794.085L336.315 762.062L335.127 761.376C334.653 761.099 334.087 761.021 333.555 761.16C333.023 761.3 332.569 761.645 332.291 762.119C332.014 762.594 331.936 763.159 332.075 763.691C332.215 764.223 332.56 764.678 333.034 764.955Z" fill="#CFCFCF"/>
<path d="M520.568 667.628C499.281 655.325 475.485 641.604 451.683 627.865C427.912 641.592 404.141 655.296 382.883 667.585C382.883 782.69 382.883 897.816 382.883 897.828C406.3 911.389 451.362 937.396 451.683 937.579C472.965 925.301 496.765 911.555 520.568 897.81V667.628Z" fill="#CFCFCF"/>
<path d="M520.29 712.785C496.625 726.462 472.961 740.114 451.77 752.366C451.656 752.436 451.517 752.505 451.403 752.573C451.059 752.366 450.74 752.183 450.419 752.001C429.503 739.928 406.205 726.456 382.883 712.986V742.771C406.205 756.241 429.509 769.711 450.419 781.786C450.74 781.968 451.059 782.153 451.403 782.358C451.517 782.29 451.656 782.221 451.77 782.151C472.961 769.893 496.625 756.247 520.29 742.57H520.657V712.785H520.29Z" fill="#CFCFCF"/>
<path d="M520.29 772.784C496.625 786.461 472.961 800.116 451.77 812.365C451.656 812.433 451.517 812.502 451.403 812.572C451.059 812.365 450.74 812.183 450.419 812C429.503 799.927 406.205 786.457 382.883 772.987V802.766C406.205 816.236 429.509 829.706 450.419 841.779C450.74 841.963 451.059 842.146 451.403 842.353C451.517 842.282 451.656 842.214 451.77 842.146C472.961 829.89 496.625 816.242 520.29 802.565H520.657V772.784H520.29Z" fill="#CFCFCF"/>
<path d="M520.29 832.785C496.625 846.462 472.961 860.114 451.77 872.366C451.656 872.436 451.517 872.505 451.403 872.573C451.059 872.366 450.74 872.183 450.419 872.001C429.503 859.928 406.205 846.456 382.883 832.986V862.767C406.205 876.237 429.509 889.707 450.419 901.782C450.74 901.964 451.059 902.149 451.403 902.354C451.517 902.286 451.656 902.217 451.77 902.147C472.961 889.889 496.625 876.243 520.29 862.566H520.657V832.785H520.29Z" fill="#CFCFCF"/>
<path d="M518.477 894.224C495.516 907.487 472.554 920.743 449.59 933.994H453.774C436.765 924.229 419.778 914.424 402.814 904.58L384.887 894.218C380.259 891.545 376.082 898.705 380.703 901.376C397.913 911.323 415.126 921.262 432.342 931.192C437.7 934.284 443.057 937.375 448.413 940.465C448.78 940.673 449.14 940.913 449.519 941.104C452.557 942.635 455.235 940.304 457.794 938.824L476.938 927.775L522.661 901.374C527.278 898.707 523.108 891.541 518.477 894.216V894.224Z" fill="black"/>
<path d="M380.792 866.35C399.617 877.225 418.441 888.101 437.264 898.978L443.458 902.555C445.485 903.904 447.607 905.104 449.807 906.146C452.251 907.105 454.221 905.524 456.256 904.345L463.147 900.362C472.171 895.147 481.197 889.932 490.225 884.719C500.946 878.528 511.665 872.337 522.381 866.145C527 863.476 522.831 856.31 518.199 858.987C495.244 872.25 472.418 885.782 449.312 898.775H453.496C430.765 885.396 407.815 872.38 384.976 859.194C380.349 856.523 376.169 863.681 380.792 866.35Z" fill="black"/>
<path d="M380.792 836.569C399.617 847.443 418.441 858.318 437.264 869.195L443.458 872.772C445.484 874.123 447.606 875.324 449.807 876.365C452.251 877.325 454.221 875.744 456.256 874.564L463.147 870.581C472.171 865.366 481.197 860.152 490.225 854.938C500.946 848.749 511.665 842.557 522.381 836.364C527 833.695 522.831 826.529 518.199 829.206C495.244 842.469 472.418 856.001 449.312 868.994H453.496C430.765 855.615 407.815 842.599 384.976 829.413C380.349 826.74 376.169 833.9 380.792 836.569Z" fill="black"/>
<path d="M380.792 806.351C399.617 817.224 418.441 828.099 437.264 838.977L443.458 842.554C445.484 843.904 447.606 845.104 449.807 846.145C452.251 847.105 454.221 845.524 456.256 844.347L463.147 840.364C472.171 835.146 481.197 829.931 490.225 824.72C500.946 818.531 511.665 812.339 522.381 806.144C527 803.477 522.831 796.311 518.199 798.988C495.244 812.251 472.418 825.783 449.312 838.776H453.496C430.765 825.398 407.815 812.382 384.976 799.196C380.349 796.522 376.169 803.68 380.792 806.351Z" fill="black"/>
<path d="M380.792 776.57C399.617 787.444 418.441 798.318 437.264 809.19L443.458 812.767C445.485 814.116 447.607 815.316 449.807 816.358C452.251 817.318 454.221 815.737 456.256 814.559L463.147 810.574C472.178 805.369 481.204 800.157 490.225 794.939C500.946 788.747 511.665 782.555 522.381 776.363C527 773.696 522.831 766.53 518.199 769.205C495.244 782.468 472.418 796 449.312 808.993H453.496C430.765 795.617 407.815 782.601 384.976 769.413C380.349 766.739 376.169 773.899 380.792 776.57Z" fill="black"/>
<path d="M380.792 746.35C399.617 757.226 418.441 768.102 437.264 778.978L443.458 782.555C445.485 783.904 447.607 785.105 449.807 786.146C452.251 787.106 454.221 785.525 456.256 784.346L463.147 780.363C472.171 775.147 481.197 769.933 490.225 764.719C500.946 758.528 511.665 752.337 522.381 746.145C527 743.476 522.831 736.31 518.199 738.987C495.244 752.25 472.418 765.782 449.312 778.775H453.496C430.765 765.399 407.815 752.381 384.976 739.195C380.349 736.521 376.169 743.681 380.792 746.35Z" fill="black"/>
<path d="M380.792 716.569C399.617 727.443 418.441 738.318 437.264 749.195L443.458 752.772C445.484 754.123 447.606 755.324 449.807 756.365C452.251 757.325 454.221 755.744 456.256 754.564L463.147 750.581C472.171 745.365 481.197 740.15 490.225 734.938C500.946 728.749 511.665 722.557 522.381 716.364C527 713.695 522.831 706.529 518.199 709.206C495.244 722.469 472.418 736.001 449.312 748.994H453.496C430.765 735.615 407.815 722.599 384.976 709.413C380.349 706.74 376.169 713.9 380.792 716.569Z" fill="black"/>
<path d="M447.625 708.04V906.923C447.625 916.118 447.29 925.385 447.625 934.576C447.625 934.727 447.625 934.879 447.625 935.03C447.625 940.364 455.914 940.372 455.914 935.03V736.146C455.914 726.951 456.25 717.684 455.914 708.494C455.914 708.342 455.914 708.189 455.914 708.04C455.914 702.706 447.625 702.697 447.625 708.04Z" fill="black"/>
<path d="M518.564 664.049C495.604 677.312 472.643 690.568 449.679 703.818H453.863C430.867 690.622 407.905 677.366 384.976 664.049C380.349 661.376 376.169 668.536 380.792 671.207C399.487 682.006 418.184 692.799 436.885 703.586C441.052 705.992 445.159 708.632 449.437 710.839C452.079 712.203 453.935 710.935 456.275 709.596L463.197 705.603C472.272 700.365 481.345 695.127 490.416 689.889C501.192 683.672 511.972 677.447 522.756 671.215C527.375 668.548 523.206 661.382 518.572 664.057L518.564 664.049Z" fill="black"/>
<path d="M384.891 671.207C407.845 657.944 430.807 644.688 453.778 631.437H449.594C472.555 644.7 495.517 657.957 518.481 671.207C523.108 673.88 527.286 666.72 522.665 664.049C499.707 650.781 476.743 637.524 453.774 624.28C453.138 623.913 452.416 623.72 451.682 623.72C450.948 623.72 450.226 623.913 449.59 624.28C426.629 637.542 403.667 650.799 380.703 664.049C376.086 666.718 380.255 673.884 384.887 671.207H384.891Z" fill="black"/>
<path d="M516.423 667.628V869.287C516.423 878.612 516.071 888.028 516.423 897.356C516.423 897.505 516.423 897.656 516.423 897.805C516.423 903.139 524.712 903.148 524.712 897.805V696.135C524.712 686.809 525.065 677.399 524.712 668.076C524.712 667.927 524.712 667.777 524.712 667.628C524.712 662.294 516.423 662.286 516.423 667.628Z" fill="black"/>
<path d="M378.738 667.628V869.287C378.738 878.612 378.386 888.028 378.738 897.356C378.738 897.505 378.738 897.656 378.738 897.805C378.738 903.139 387.028 903.148 387.028 897.805V696.135C387.028 686.809 387.38 677.399 387.028 668.076C387.028 667.927 387.028 667.777 387.028 667.628C387.028 662.294 378.738 662.286 378.738 667.628Z" fill="black"/>
<path d="M604.657 1333.98C578.673 1333.02 549.327 1326.77 529.568 1308.65C522.764 1302.41 517.08 1294.21 515.891 1285.17C515.394 1279.49 515.324 1273.78 515.683 1268.1C515.803 1263.85 516.807 1259.67 518.63 1255.83C523.073 1246.5 531 1239.34 539.635 1233.92C550.785 1227.17 563.006 1222.37 575.771 1219.73C604.508 1213.33 636.162 1214.86 663.725 1225.5C681.589 1232.39 703.75 1246.55 704.55 1267.59C704.627 1269.32 704.557 1271.05 704.342 1272.77C703.833 1274.65 703.445 1276.56 703.18 1278.49C703.18 1283.82 711.469 1283.83 711.469 1278.49C711.732 1277.76 711.948 1277.02 712.113 1276.26C712.333 1275.11 712.503 1273.94 712.631 1272.77C712.844 1270.88 712.903 1268.97 712.808 1267.07C712.669 1264.41 712.262 1261.76 711.593 1259.18C710.235 1254.15 707.983 1249.41 704.947 1245.18C697.564 1235.36 687.895 1227.5 676.781 1222.27C648.67 1208.19 615.246 1205.17 584.446 1209.73C559.005 1213.5 529.984 1223.69 514.817 1245.86C511.81 1250.19 509.632 1255.04 508.393 1260.17C507.385 1265.97 507.043 1271.86 507.374 1277.74C507.156 1283.18 507.879 1288.62 509.51 1293.81C511.396 1299 514.149 1303.82 517.65 1308.09C525.463 1317.84 536.524 1324.91 547.831 1329.95C562.084 1336.14 577.231 1340.03 592.704 1341.47C596.677 1341.88 600.658 1342.12 604.647 1342.27C609.981 1342.48 609.972 1334.19 604.647 1333.98H604.657Z" fill="black"/>
<path d="M219.829 1069.08L36.3096 963.115L222.492 855.609L408.675 963.111L222.492 1070.61L219.829 1069.08Z" fill="#CFCFCF"/>
<path d="M221.922 1065.5L80.4556 983.82L38.4047 959.537V966.694L182.221 883.656L224.589 859.203H220.405L367.722 944.264L406.588 966.705V959.547L259.267 1044.6L220.401 1067.04H224.583L221.922 1065.51C217.293 1062.83 213.115 1069.99 217.738 1072.66L220.401 1074.2C221.037 1074.57 221.758 1074.76 222.492 1074.76C223.226 1074.76 223.947 1074.57 224.583 1074.2L368.4 991.162L410.768 966.699C411.383 966.326 411.892 965.801 412.245 965.174C412.599 964.547 412.784 963.839 412.784 963.12C412.784 962.4 412.599 961.693 412.245 961.066C411.892 960.439 411.383 959.914 410.768 959.541L266.951 876.502L224.585 852.039C223.949 851.673 223.227 851.481 222.493 851.481C221.759 851.481 221.038 851.673 220.401 852.039L73.0824 937.1L34.2166 959.537C33.6011 959.909 33.0921 960.435 32.7389 961.062C32.3856 961.689 32.2 962.396 32.2 963.116C32.2 963.835 32.3856 964.543 32.7389 965.17C33.0921 965.796 33.6011 966.322 34.2166 966.694L179.045 1050.32L217.738 1072.66C222.366 1075.33 226.546 1068.17 221.922 1065.5Z" fill="black"/>
<path d="M222.492 800.456C244.023 812.889 265.554 825.302 284.806 836.43C263.275 848.864 241.744 861.298 222.492 872.405C222.202 872.24 221.912 872.074 221.601 871.887C202.577 860.904 181.378 848.678 160.178 836.43C179.43 825.302 200.961 812.889 222.492 800.456Z" fill="#CFCFCF"/>
<path d="M222.492 959.959V933.02C241.661 921.933 263.068 909.582 284.474 897.21H284.806V924.15H284.474C263.068 936.522 241.661 948.873 222.492 959.959Z" fill="#CFCFCF"/>
<path d="M222.492 959.96V997.199L221.497 998.918C202.495 987.956 181.337 975.75 160.178 963.524V924.337C181.274 936.522 202.349 948.707 221.269 959.628C221.56 959.794 221.85 959.96 222.161 960.146C222.264 960.084 222.389 960.022 222.492 959.96Z" fill="#CFCFCF"/>
<path d="M284.8 963.524C263.268 975.958 241.737 988.391 222.486 999.499C222.196 999.333 221.906 999.167 221.595 998.981C221.553 998.96 221.533 998.939 221.491 998.918L222.486 997.198V959.96C241.655 948.873 263.061 936.522 284.468 924.15H284.8V963.524Z" fill="#CFCFCF"/>
<path d="M160.178 897.397C181.274 909.582 202.349 921.767 221.269 932.688C221.56 932.854 221.85 933.02 222.161 933.206C222.264 933.144 222.389 933.082 222.492 933.02V959.959C222.389 960.021 222.264 960.084 222.161 960.146C221.85 959.959 221.56 959.794 221.269 959.628C202.349 948.707 181.274 936.522 160.178 924.337V897.397Z" fill="#CFCFCF"/>
<path d="M282.715 959.945C261.944 971.939 241.172 983.931 220.401 995.92H224.585C203.784 983.98 183.012 971.989 162.271 959.945C157.644 957.271 153.464 964.431 158.088 967.102C175.113 976.942 192.144 986.773 209.18 996.597C212.769 998.669 216.313 1000.87 219.956 1002.83C224.009 1005 228.829 1000.63 232.313 998.614C240.711 993.769 249.109 988.921 257.505 984.072L286.893 967.102C291.51 964.435 287.34 957.269 282.709 959.945H282.715Z" fill="black"/>
<path d="M158.088 927.915C175.057 937.717 192.026 947.521 208.995 957.327C212.659 959.443 216.273 961.859 220.07 963.724C222.422 964.883 224.167 963.78 226.187 962.612L232.284 959.089C240.638 954.253 248.996 949.427 257.358 944.61C267.098 938.983 276.838 933.356 286.578 927.731C291.195 925.062 287.025 917.898 282.394 920.573C261.629 932.574 240.981 944.819 220.08 956.569H224.264C203.703 944.469 182.94 932.694 162.282 920.76C157.652 918.086 153.475 925.248 158.098 927.917L158.088 927.915Z" fill="black"/>
<path d="M158.088 900.976C175.057 910.778 192.026 920.582 208.995 930.388C212.659 932.504 216.273 934.92 220.07 936.785C222.422 937.943 224.167 936.841 226.187 935.672L232.284 932.149C240.638 927.314 248.996 922.488 257.358 917.67C267.098 912.043 276.838 906.417 286.578 900.791C291.195 898.122 287.025 890.958 282.394 893.634C261.629 905.634 240.981 917.88 220.08 929.629H224.264C203.703 917.529 182.94 905.755 162.282 893.82C157.652 891.147 153.475 898.309 158.098 900.978L158.088 900.976Z" fill="black"/>
<path d="M218.348 889.234V978.112C218.348 983.446 226.637 983.455 226.637 978.112V889.234C226.637 883.9 218.348 883.892 218.348 889.234Z" fill="black"/>
<path d="M282.715 832.851C261.944 844.846 241.172 856.837 220.401 868.826H224.585C203.784 856.887 183.012 844.896 162.272 832.851C157.642 830.178 153.464 837.338 158.088 840.009C175.006 849.783 191.929 859.552 208.859 869.315C212.616 871.485 216.319 873.897 220.186 875.86C222.691 877.128 224.374 876.108 226.61 874.824C228.654 873.644 230.699 872.464 232.744 871.284L257.524 856.985L286.911 840.015C291.528 837.348 287.359 830.182 282.727 832.858L282.715 832.851Z" fill="black"/>
<path d="M162.271 840.009C183.036 828.006 203.807 816.015 224.585 804.034H220.401C241.17 816.028 261.941 828.02 282.715 840.009C287.34 842.684 291.52 835.522 286.899 832.851C266.133 820.849 245.362 808.857 224.585 796.876C223.949 796.511 223.227 796.318 222.493 796.318C221.759 796.318 221.038 796.511 220.401 796.876C199.631 808.871 178.86 820.862 158.088 832.851C153.471 835.52 157.64 842.686 162.271 840.009Z" fill="black"/>
<path d="M156.034 836.43V963.524C156.034 968.858 164.323 968.866 164.323 963.524V836.43C164.323 831.096 156.034 831.088 156.034 836.43Z" fill="black"/>
<path d="M280.655 836.43V963.524C280.655 968.858 288.944 968.866 288.944 963.524V836.43C288.944 831.096 280.655 831.088 280.655 836.43Z" fill="black"/>
<path d="M60.5368 1001.53C73.4886 994.05 86.4362 986.566 99.3797 979.074C103.997 976.407 99.8273 969.241 95.1958 971.916C82.2481 979.399 69.3005 986.884 56.3528 994.372C51.7358 997.037 55.9052 1004.2 60.5368 1001.53Z" fill="black"/>
<path d="M472.569 989.243L492.024 978.011L511.477 989.243C511.477 989.626 511.477 1026.06 511.477 1026.85L492.024 1038.08L491.746 1037.92L472.569 1026.85C472.569 1025.99 472.572 989.821 472.569 989.243Z" fill="#CFCFCF"/>
<path d="M509.386 1023.27L489.931 1034.5H494.115L474.663 1023.27C470.033 1020.6 465.855 1027.76 470.479 1030.43L489.931 1041.66C490.567 1042.03 491.289 1042.22 492.023 1042.22C492.757 1042.22 493.479 1042.03 494.115 1041.66L513.57 1030.43C518.189 1027.76 514.019 1020.6 509.386 1023.27Z" fill="black"/>
<path d="M474.662 992.822L494.115 981.59H489.931C496.417 985.332 502.902 989.076 509.386 992.822C514.015 995.495 518.193 988.333 513.57 985.664L494.115 974.432C493.479 974.066 492.757 973.873 492.023 973.873C491.289 973.873 490.567 974.066 489.931 974.432L470.479 985.664C465.859 988.331 470.029 995.497 474.662 992.822Z" fill="black"/>
<path d="M468.425 989.243C468.444 1000.12 468.425 1011 468.425 1021.87V1026.85C468.425 1032.18 476.714 1032.19 476.714 1026.85V994.073C476.714 992.462 476.714 990.852 476.714 989.243C476.714 983.911 468.425 983.9 468.425 989.243Z" fill="black"/>
<path d="M507.332 989.243C507.353 1000.12 507.332 1011 507.332 1021.87V1026.85C507.332 1032.18 515.621 1032.19 515.621 1026.85C515.621 1015.92 515.621 1004.99 515.621 994.069C515.621 992.459 515.621 990.849 515.621 989.239C515.621 983.907 507.332 983.896 507.332 989.239V989.243Z" fill="black"/>
<path d="M519.59 963.103C519.59 955.391 519.59 947.68 519.59 939.968C519.578 939.243 519.378 938.533 519.01 937.909C518.642 937.284 518.117 936.766 517.488 936.405C516.859 936.044 516.148 935.853 515.422 935.85C514.697 935.847 513.984 936.033 513.352 936.389L437.417 980.224C436.794 980.591 436.277 981.114 435.916 981.742C435.556 982.369 435.366 983.08 435.364 983.803C435.364 1014.58 435.37 1045.35 435.382 1076.13C435.393 1076.85 435.593 1077.56 435.961 1078.18C436.329 1078.81 436.853 1079.33 437.482 1079.69C438.111 1080.05 438.823 1080.24 439.548 1080.24C440.273 1080.25 440.986 1080.06 441.618 1079.7L459.688 1069.26C464.307 1066.6 460.138 1059.43 455.504 1062.11L437.432 1072.54L443.669 1076.12C443.669 1045.35 443.663 1014.57 443.651 983.797L441.597 987.376L517.534 943.541L511.301 939.968C511.301 947.68 511.301 955.391 511.301 963.103C511.301 968.437 519.59 968.445 519.59 963.103Z" fill="black"/>
<path d="M369.421 1067.43C392.526 1054.09 415.622 1040.74 438.71 1027.38L457.5 1016.52C462.117 1013.85 457.947 1006.68 453.316 1009.36C428.034 1023.97 402.752 1038.59 377.47 1053.21C373.393 1055.56 369.318 1057.92 365.244 1060.27C360.627 1062.94 364.796 1070.11 369.428 1067.43H369.421Z" fill="black"/>
<path d="M413.074 1064.05C427.887 1055.5 442.695 1046.94 457.498 1038.37C462.115 1035.7 457.945 1028.54 453.314 1031.21C438.505 1039.77 423.698 1048.33 408.892 1056.89C404.273 1059.56 408.443 1066.72 413.074 1064.05Z" fill="black"/>
<path d="M594.509 914.767C592.878 913.82 591.127 912.798 589.287 911.727C588.056 911.006 586.655 910.624 585.229 910.62C583.802 910.615 582.399 910.989 581.164 911.702L538.014 936.646C537.032 937.213 536.215 938.029 535.647 939.011C535.079 939.993 534.778 941.107 534.775 942.241C534.775 948.784 534.775 962.177 534.775 968.684C534.776 969.815 535.073 970.926 535.638 971.905C536.204 972.885 537.017 973.698 537.996 974.264C544.778 978.202 560.105 987.113 562.355 988.399" fill="#CFCFCF"/>
<path d="M500.154 1014.97C499.932 1014.92 499.71 1014.88 499.484 1014.85C498.349 1014.64 497.178 1014.74 496.095 1015.14C495.011 1015.54 494.054 1016.22 493.323 1017.12C492.793 1017.84 492.521 1018.72 492.553 1019.62C492.764 1020.97 493.396 1022.21 494.357 1023.17C498.065 1027.62 502.485 1031.41 507.438 1034.4C503.284 1036.05 499.909 1039.21 497.988 1043.25C497.264 1044.87 496.941 1046.65 497.046 1048.43C497.15 1050.2 497.681 1051.93 498.591 1053.46C500.052 1055.42 501.883 1057.07 503.979 1058.32L508.437 1061.4C510.681 1062.94 513.23 1064.57 515.922 1064.13C516.521 1063.96 517.148 1063.9 517.768 1063.96C518.411 1064.18 518.975 1064.58 519.387 1065.12L523.5 1069.54C527.773 1063.49 533.698 1055.38 538.006 1049.69C535.455 1046.98 533.495 1043.76 532.247 1040.25C531.814 1038.71 531.269 1037.21 530.616 1035.75C528.839 1032.87 526.405 1030.44 523.512 1028.67C519.138 1025.52 510.414 1020.31 505.803 1017.51C504.075 1016.35 502.166 1015.49 500.154 1014.97Z" fill="#CFCFCF"/>
<path d="M630.181 1007.48C624.421 1006.37 618.489 1006.53 612.795 1007.94C601.381 1010.16 590.238 1011.97 581.53 1018.01C577.504 1020.85 574.1 1024.48 571.529 1028.68C568.251 1033.97 560.204 1047.27 555.969 1054.07C553.088 1052.29 549.13 1049.39 545.814 1047.05C544.805 1046.34 543.558 1046.04 542.334 1046.23C541.111 1046.41 540.008 1047.06 539.256 1048.05C534.462 1054.32 526.778 1064.83 522.089 1071.56C521.43 1072.5 521.133 1073.65 521.252 1074.79C521.371 1075.93 521.899 1076.99 522.737 1077.78C528.847 1083.51 538.833 1092.65 544.782 1095.79C548.359 1097.63 552.474 1098.13 556.387 1097.2C560.396 1096.26 564.208 1094.62 567.648 1092.36C567.617 1100.65 567.605 1105.94 567.605 1105.94C567.588 1112.37 567.872 1119.76 567.872 1119.76C567.729 1123.23 569.553 1129.08 572.4 1131.04C574.932 1132.78 578.31 1133.57 585.907 1134.95C603.594 1138.17 619.217 1135.83 639.409 1132.55C642.748 1132 648.374 1130.53 650.185 1128.35C652.487 1125.59 652.367 1122.66 652.492 1118.55C653.447 1086.91 655.287 1063.31 649.758 1036.31C648.028 1027.86 645.614 1019.08 639.565 1012.93C637.016 1010.26 633.762 1008.37 630.181 1007.48Z" fill="#CFCFCF"/>
<path d="M571.913 993.209C574.53 995.907 577.675 998.036 581.153 999.462C584.63 1000.89 588.364 1001.58 592.122 1001.5L595.149 1011.84C600.745 1010.19 606.723 1009.11 612.795 1007.92C613.831 1007.72 614.83 1007.55 615.806 1007.4L616.171 1007.16C609.66 1000.22 604.304 992.286 600.307 983.65C600.307 983.65 599.876 982.589 599.271 981.088C601.628 979.676 603.516 977.6 604.698 975.12C605.971 972.637 606.524 969.847 606.293 967.065C606.062 964.284 605.058 961.623 603.393 959.383C601.654 957.279 599.217 955.868 596.526 955.409C593.835 954.949 591.069 955.47 588.729 956.878C587.266 953.096 585.258 945.356 584.805 943.823C580.297 940.608 575.591 937.682 570.713 935.063L570.419 935.455C566.465 940.861 563.667 947.023 562.198 953.558C560.729 960.092 560.621 966.859 561.881 973.438C563.209 980.871 566.698 987.748 571.913 993.209Z" fill="#CFCFCF"/>
<path d="M645.205 983.283L645.355 983.022C650.362 974.31 652.364 964.194 651.053 954.232C648.185 934.28 631.22 917.583 611.085 916.443C603.344 915.993 595.611 917.457 588.57 920.707C581.53 923.957 575.398 928.892 570.719 935.075C575.597 937.694 580.303 940.62 584.811 943.835C585.265 945.368 587.273 953.108 588.736 956.89C591.075 955.483 593.841 954.961 596.532 955.421C599.224 955.881 601.66 957.291 603.399 959.396C605.064 961.636 606.069 964.297 606.299 967.078C606.53 969.859 605.978 972.649 604.705 975.133C603.522 977.613 601.634 979.689 599.277 981.101C599.899 982.641 600.314 983.662 600.314 983.662C604.31 992.298 609.666 1000.24 616.177 1007.18L616.336 1007.33C619.728 1006.77 623.176 1006.61 626.605 1006.88C627.957 1004.28 629.762 1001.95 631.935 999.988C637.604 993.744 641.714 989.367 645.205 983.283Z" fill="#7A7473"/>
<path d="M522.323 1062.19C521.644 1061.42 520.801 1060.8 519.856 1060.39C518.91 1059.98 517.885 1059.78 516.854 1059.82C516.001 1059.97 515.125 1059.96 514.277 1059.77C513.429 1059.59 512.627 1059.24 511.916 1058.74C508.591 1056.95 505.52 1054.72 502.785 1052.11C497.783 1046.54 504.628 1040.21 509.531 1037.99C512.496 1036.65 511.951 1032.32 509.531 1030.83C506.379 1028.91 503.453 1026.64 500.811 1024.07C499.538 1022.89 498.36 1021.62 497.288 1020.25C496.612 1019.34 496.486 1019.58 497.145 1019.17C499.453 1017.73 503.326 1020.87 505.154 1021.97C507.66 1023.49 510.163 1025.01 512.652 1026.55C515.14 1028.09 517.625 1029.64 520.035 1031.29C522.502 1032.73 524.68 1034.62 526.459 1036.85C528.289 1039.58 528.704 1043.18 530.27 1046.09C531.493 1048.05 532.853 1049.91 534.34 1051.67C534.918 1052.59 535.827 1053.26 536.88 1053.54C537.934 1053.81 539.054 1053.68 540.01 1053.16C540.954 1052.6 541.639 1051.69 541.918 1050.63C542.196 1049.57 542.045 1048.44 541.498 1047.49C540.082 1045.81 538.778 1044.05 537.594 1042.2C535.957 1039.29 535.546 1035.87 533.826 1032.99C530.693 1027.75 524.723 1024.36 519.689 1021.18C514.525 1017.91 509.17 1013.96 503.471 1011.71C497.236 1009.24 487.722 1012.04 488.489 1020.2C488.866 1024.24 492.505 1027.59 495.267 1030.25C498.34 1033.19 501.721 1035.79 505.353 1038.01V1030.85C497.161 1034.56 490.346 1043.62 493.748 1052.91C495.518 1057.73 499.702 1060.42 503.753 1063.21C505.694 1064.69 507.761 1066 509.929 1067.11C510.978 1067.62 512.089 1067.98 513.232 1068.19C514.312 1068.37 516.373 1067.86 517.285 1068.24L515.455 1067.18C515.83 1067.43 516.169 1067.74 516.465 1068.08C520.195 1071.9 526.064 1066.04 522.325 1062.22L522.323 1062.19Z" fill="black"/>
<path d="M650.571 1251.81L648.498 1250.69C641.944 1253.85 621.279 1254.24 617.364 1251.41C609.89 1260 599.118 1261.24 589.434 1259.94C588.109 1259.84 586.8 1259.58 585.538 1259.16C582.068 1257.99 578.871 1256.13 576.138 1253.7C576.111 1253.67 576.074 1253.65 576.047 1253.63L574.855 1253.74C573.258 1252.78 568.386 1253.76 566.39 1256.77C564.395 1259.78 564.463 1265.56 565.592 1269C568.05 1276.47 575.241 1280.26 582.639 1282.92C590.269 1285.8 598.544 1286.54 606.564 1285.05C608.251 1284.63 609.832 1283.86 611.206 1282.8C612.579 1281.73 613.715 1280.39 614.54 1278.86C615.507 1277.04 616.124 1275.06 616.361 1273.02L629.085 1275.95C631.68 1276.61 634.348 1276.96 637.028 1276.97C638.214 1276.97 639.457 1276.89 640.827 1276.75C642.688 1276.64 644.505 1276.13 646.144 1275.24C647.783 1274.36 649.205 1273.11 650.307 1271.61C651.565 1269.2 652.206 1266.52 652.172 1263.81C652.255 1261.07 650.484 1254.52 650.571 1251.81Z" fill="#CFCFCF"/>
<path d="M603.747 1136.5C597.768 1136.54 591.798 1136.02 585.913 1134.96C577.363 1133.41 574.157 1132.6 571.486 1130.34C571.328 1149.01 572.806 1222.31 574.255 1248.96L574.696 1251.17C575.334 1254.36 580.291 1257.08 585.524 1259.16C586.786 1259.58 588.094 1259.84 589.419 1259.94C599.103 1261.24 609.875 1260 617.348 1251.4C622.137 1254.87 651.994 1253.52 650.43 1248.17C649.466 1221.69 648.616 1168.2 649.394 1144.45C649.394 1144.45 649.186 1136.31 649.004 1129.39C646.026 1131.01 642.78 1132.08 639.422 1132.55C627.652 1134.8 615.724 1136.12 603.747 1136.5Z" fill="#CFCFCF"/>
<path d="M567.339 1135.47C567.435 1166.32 568.206 1197.18 569.244 1228C569.482 1235.08 569.737 1242.15 570.122 1249.22C570.41 1254.53 578.702 1254.56 578.412 1249.22C576.735 1218.43 576.316 1187.54 575.85 1156.71C575.745 1149.63 575.643 1142.55 575.628 1135.47C575.612 1130.14 567.323 1130.13 567.339 1135.47Z" fill="black"/>
<path d="M645.243 1144.45C644.325 1173.32 645.046 1202.3 645.773 1231.17C645.947 1238.05 646.146 1244.93 646.426 1251.81C646.633 1257.13 654.922 1257.15 654.715 1251.81C653.542 1222.94 653.155 1193.99 653.238 1165.1C653.258 1158.22 653.312 1151.33 653.532 1144.45C653.702 1139.12 645.413 1139.12 645.243 1144.45Z" fill="black"/>
<path d="M612.722 1173.86C611.549 1196.65 610.926 1219.53 610.689 1242.36C610.65 1246.3 610.511 1250.28 610.805 1254.21C611.201 1259.49 619.492 1259.54 619.095 1254.21C618.431 1245.37 619.041 1236.31 619.24 1227.46C619.533 1214.55 619.917 1201.65 620.394 1188.75C620.574 1183.77 620.755 1178.82 621.016 1173.86C621.289 1168.53 613 1168.54 612.726 1173.86H612.722Z" fill="black"/>
<path d="M570.701 1252.27C571.737 1256.32 575.508 1258.94 579.023 1260.77C581.126 1261.96 583.363 1262.89 585.687 1263.54C587.92 1264.01 590.186 1264.3 592.464 1264.41C601.327 1265.3 610.195 1262.76 617.24 1257.3C618.012 1256.52 618.444 1255.47 618.444 1254.37C618.444 1253.27 618.012 1252.22 617.24 1251.44C616.45 1250.69 615.401 1250.27 614.31 1250.27C613.218 1250.27 612.169 1250.69 611.38 1251.44C606.254 1255.12 599.969 1256.8 593.693 1256.19C590.497 1256.17 587.34 1255.5 584.417 1254.21C582.852 1253.54 581.369 1252.69 579.997 1251.68C579.59 1251.33 579.207 1250.95 578.851 1250.55C579.028 1250.76 578.98 1250.66 578.708 1250.26C578.836 1250.6 578.83 1250.54 578.693 1250.08C577.365 1244.91 569.368 1247.1 570.701 1252.28V1252.27Z" fill="black"/>
<path d="M617.841 1256.13C623.133 1257.45 628.609 1257.87 634.04 1257.37C639.703 1257.41 645.32 1256.36 650.585 1254.28C651.527 1253.72 652.211 1252.81 652.49 1251.75C652.768 1250.69 652.618 1249.56 652.073 1248.61C651.501 1247.68 650.592 1247 649.535 1246.72C648.479 1246.45 647.356 1246.59 646.401 1247.12C645.657 1247.47 647.373 1246.8 646.538 1247.07C646.331 1247.13 646.14 1247.21 645.939 1247.28C645.454 1247.44 644.963 1247.58 644.468 1247.71C643.322 1248.01 642.157 1248.24 640.988 1248.43C640.698 1248.48 640.406 1248.52 640.116 1248.56C639.621 1248.64 640.777 1248.49 639.96 1248.59C639.277 1248.66 638.593 1248.74 637.909 1248.81C636.492 1248.95 635.071 1249.04 633.648 1249.09C630.946 1249.21 628.239 1249.19 625.539 1249.02C624.973 1248.98 624.409 1248.93 623.848 1248.88C623.529 1248.84 623.21 1248.8 622.891 1248.77C624.012 1248.87 623.003 1248.78 622.794 1248.75C621.864 1248.61 620.945 1248.4 620.044 1248.13C619.519 1247.98 618.971 1247.95 618.431 1248.01C617.89 1248.08 617.369 1248.25 616.895 1248.52C616.422 1248.79 616.006 1249.15 615.672 1249.58C615.337 1250.01 615.091 1250.5 614.946 1251.02C614.801 1251.55 614.761 1252.1 614.829 1252.64C614.896 1253.18 615.069 1253.7 615.338 1254.17C615.606 1254.65 615.966 1255.06 616.395 1255.4C616.825 1255.73 617.316 1255.98 617.841 1256.12V1256.13Z" fill="black"/>
<path d="M576.948 1250.15C575.306 1249.46 573.524 1249.18 571.752 1249.33C569.979 1249.48 568.267 1250.05 566.761 1251C565.037 1252.05 563.596 1253.51 562.563 1255.24C561.53 1256.98 560.935 1258.94 560.83 1260.96C560.373 1265 561.06 1269.09 562.813 1272.77C564.566 1276.44 567.315 1279.54 570.746 1281.73C578.466 1286.72 587.386 1289.55 596.573 1289.91C605.32 1290.35 614.772 1288.5 618.715 1279.72C622.102 1272.17 620.738 1263.27 618.945 1255.5C617.748 1250.31 609.753 1252.5 610.953 1257.7C611.958 1261.65 612.466 1265.71 612.463 1269.78C612.466 1271 612.345 1272.22 612.103 1273.41C611.974 1273.97 611.842 1274.53 611.668 1275.09C611.614 1275.26 611.015 1276.71 611.413 1275.86C607.857 1283.52 596.971 1282.25 590.107 1280.75C583.375 1279.27 574.429 1276.43 570.651 1270.13C569.001 1267.29 568.491 1263.93 569.221 1260.72C569.286 1260.13 569.504 1259.57 569.853 1259.1C570.201 1258.62 570.669 1258.24 571.208 1258C571.766 1257.75 572.427 1257.74 572.97 1257.49C573.233 1257.37 573.531 1257.67 572.762 1257.31C577.549 1259.6 581.76 1252.46 576.948 1250.15Z" fill="black"/>
<path d="M646.426 1251.81C646.592 1254.93 647.038 1258.03 647.759 1261.07C647.86 1261.49 647.93 1261.91 647.966 1262.33C647.966 1261.24 647.933 1262.09 647.966 1262.37C648.027 1262.96 648.046 1263.56 648.022 1264.15C648.001 1264.65 647.953 1265.15 647.914 1265.65C647.841 1266.62 648.036 1265.22 647.852 1266.11C647.744 1266.63 647.645 1267.14 647.51 1267.66C647.468 1267.81 647.077 1268.98 647.213 1268.64C647.35 1268.3 646.799 1269.36 646.741 1269.5C646.465 1269.89 646.465 1269.91 646.741 1269.56C646.625 1269.7 646.505 1269.84 646.38 1269.97C646.09 1270.28 645.78 1270.58 645.452 1270.85C646.101 1270.31 645.096 1271.06 644.938 1271.16C644.563 1271.39 644.178 1271.58 643.788 1271.78C643.349 1271.98 643.333 1271.99 643.74 1271.81C643.564 1271.87 643.386 1271.94 643.208 1271.99C642.37 1272.26 641.515 1272.46 640.651 1272.62C640.347 1272.66 640.407 1272.65 640.833 1272.59C640.522 1272.62 640.211 1272.65 639.898 1272.68C639.382 1272.72 638.862 1272.76 638.348 1272.78C637.385 1272.82 636.421 1272.82 635.457 1272.78C634.993 1272.75 634.529 1272.71 634.065 1272.67C633.567 1272.62 633.536 1272.62 633.972 1272.67C633.764 1272.64 633.567 1272.62 633.366 1272.58C632.301 1272.41 631.244 1272.19 630.194 1271.94C629.134 1271.65 628.001 1271.79 627.045 1272.33C626.089 1272.87 625.388 1273.78 625.096 1274.84C624.804 1275.89 624.945 1277.03 625.488 1277.98C626.031 1278.94 626.931 1279.64 627.991 1279.93C636.57 1281.94 648.826 1282.23 653.986 1273.53C655.968 1269.86 656.725 1265.66 656.147 1261.53C655.886 1259.52 655.513 1257.53 655.159 1255.52C655.08 1255.09 655.003 1254.65 654.933 1254.21C654.898 1254 654.864 1253.8 654.831 1253.59C654.762 1253.11 654.77 1253.18 654.854 1253.8C654.696 1253.15 654.652 1252.48 654.721 1251.82C654.721 1250.72 654.285 1249.67 653.507 1248.89C652.73 1248.11 651.676 1247.68 650.577 1247.68C649.478 1247.68 648.423 1248.11 647.646 1248.89C646.869 1249.67 646.432 1250.72 646.432 1251.82L646.426 1251.81Z" fill="black"/>
<path d="M563.466 1105.94C563.466 1110.55 563.611 1115.15 563.733 1119.76C563.864 1124.78 565.408 1130.67 569.474 1133.97C572.968 1136.81 577.763 1137.62 582.046 1138.44C588.302 1139.7 594.651 1140.42 601.028 1140.61C614.241 1140.9 627.535 1138.8 640.518 1136.55C645.417 1135.7 651.294 1134.24 654.228 1129.85C657.612 1124.78 656.671 1117.41 656.87 1111.62C657.73 1086.36 658.92 1061.02 653.936 1036.08C651.721 1024.99 648.086 1012.81 638.002 1006.35C628.242 1000.1 615.967 1003.06 605.426 1005.15C598.483 1006.33 591.707 1008.34 585.242 1011.13C578.628 1014.23 572.978 1019.07 568.896 1025.13C562.915 1033.9 557.788 1043.32 552.164 1052.33C549.329 1056.87 556.497 1061.03 559.319 1056.51C563.999 1049.02 568.556 1041.45 573.169 1033.92C575.42 1029.87 578.309 1026.2 581.725 1023.06C586.054 1019.63 591.06 1017.14 596.415 1015.78C601.998 1014.15 607.741 1013.12 613.446 1012.02C618.108 1010.89 622.937 1010.6 627.701 1011.18C637.213 1012.85 641.774 1021.94 644.13 1030.46C650.061 1051.88 649.787 1074.6 649.103 1096.61C648.909 1102.76 648.674 1108.91 648.482 1115.05C648.357 1118.89 649.518 1124.85 645.259 1126.71C640.429 1128.81 634.674 1129.17 629.531 1129.95C623.77 1130.83 617.99 1131.61 612.175 1132.02C605.905 1132.51 599.604 1132.46 593.342 1131.86C587.74 1131.44 582.206 1130.37 576.851 1128.67C575.591 1128.33 574.505 1127.53 573.811 1126.42C572.681 1124.49 572.07 1122.29 572.035 1120.05C571.855 1115.35 571.768 1110.65 571.772 1105.95C571.772 1100.61 563.483 1100.6 563.483 1105.95L563.466 1105.94Z" fill="black"/>
<path d="M630.664 1008.07C632.945 1004.79 635.545 1001.74 638.427 998.98C641.622 995.541 644.549 991.863 647.182 987.976C652.545 979.823 655.47 970.309 655.615 960.552C655.552 952.232 653.386 944.064 649.318 936.806C645.249 929.549 639.411 923.438 632.347 919.044C617.897 910.052 599.487 910.34 584.556 918.066C576.527 922.355 569.755 928.662 564.908 936.366C560.06 944.07 557.304 952.904 556.912 961.998C555.923 982.545 569.061 1006.35 592.116 1005.65C597.437 1005.49 597.46 997.196 592.116 997.358C575.044 997.876 565.495 980.539 565.155 965.403C564.953 957.693 566.775 950.064 570.44 943.277C574.105 936.49 579.485 930.783 586.044 926.724C598.015 919.502 613.562 918.151 626.02 924.942C631.961 928.177 637.009 932.834 640.712 938.495C644.415 944.157 646.659 950.647 647.243 957.387C647.777 966.878 645.165 976.28 639.811 984.134C637.247 987.796 634.411 991.259 631.327 994.496C628.409 997.346 625.792 1000.49 623.519 1003.88C620.806 1008.48 627.97 1012.66 630.677 1008.06L630.664 1008.07Z" fill="black"/>
<path d="M556.59 1049.54C552.214 1046.63 547.265 1041.21 541.554 1042.19C536.672 1043.03 534.121 1047.98 531.4 1051.64C528.164 1056 524.969 1060.38 521.815 1064.8C518.929 1068.84 515.47 1073 517.996 1078.19C519.18 1080.14 520.717 1081.86 522.528 1083.25C524.393 1084.98 526.283 1086.69 528.196 1088.37C531.855 1091.68 535.72 1094.76 539.768 1097.59C543.969 1100.63 549.105 1102.08 554.274 1101.7C559.539 1101.07 564.591 1099.25 569.051 1096.38C579.108 1090.17 586.344 1080.48 593.183 1071.06C593.729 1070.11 593.88 1068.98 593.602 1067.92C593.324 1066.86 592.64 1065.95 591.697 1065.39C590.742 1064.86 589.619 1064.72 588.563 1064.99C587.506 1065.27 586.597 1065.94 586.025 1066.87C581.34 1073.82 575.831 1080.17 569.619 1085.79C564.001 1090.53 555.15 1095.69 547.64 1092.6C544.549 1091.09 541.689 1089.14 539.144 1086.82C535.917 1084.2 532.805 1081.44 529.738 1078.63C528.363 1077.55 527.08 1076.37 525.904 1075.07C524.949 1073.83 525.974 1073.21 526.832 1072C529.261 1068.55 531.722 1065.13 534.214 1061.73C535.653 1059.76 537.104 1057.79 538.566 1055.83C539.649 1054.08 540.886 1052.43 542.26 1050.9C542.702 1050.49 542.716 1050.33 543.315 1050.33C543.332 1050.33 545.037 1051.55 545.522 1051.9C547.802 1053.52 550.081 1055.15 552.415 1056.7C556.868 1059.67 561.023 1052.49 556.599 1049.54H556.59Z" fill="black"/>
<path d="M570.24 939.537C574.587 941.849 578.757 944.481 582.714 947.412L580.807 944.935C582.015 949.053 583.02 953.224 584.467 957.274C584.611 957.798 584.858 958.29 585.192 958.719C585.527 959.149 585.943 959.508 586.416 959.777C586.889 960.046 587.411 960.219 587.951 960.286C588.492 960.353 589.04 960.313 589.565 960.169C590.089 960.024 590.581 959.777 591.01 959.443C591.44 959.108 591.799 958.693 592.068 958.219C592.337 957.746 592.51 957.224 592.577 956.684C592.644 956.144 592.604 955.596 592.46 955.071C591.593 952.646 590.878 950.166 590.18 947.689C589.873 946.596 589.571 945.504 589.272 944.413C589.078 942.949 588.388 941.596 587.318 940.579C583.275 937.465 578.96 934.72 574.426 932.377C573.956 932.102 573.437 931.923 572.898 931.849C572.358 931.775 571.81 931.808 571.283 931.946C570.757 932.084 570.262 932.325 569.829 932.654C569.395 932.983 569.03 933.394 568.756 933.864C568.481 934.334 568.301 934.853 568.228 935.393C568.154 935.932 568.187 936.481 568.325 937.007C568.463 937.534 568.703 938.028 569.032 938.462C569.361 938.895 569.773 939.26 570.243 939.535L570.24 939.537Z" fill="black"/>
<path d="M590.555 960.656C590.918 960.39 591.298 960.149 591.693 959.933C592.047 959.742 592.584 959.605 591.921 959.808C592.335 959.678 592.775 959.57 593.199 959.443C594.099 959.174 592.551 959.431 593.419 959.396C593.869 959.377 594.312 959.348 594.762 959.365C595.176 959.379 595.734 959.458 595.006 959.344C595.789 959.484 596.56 959.681 597.313 959.935C597.755 960.105 597.741 960.095 597.271 959.906C597.479 960.001 597.686 960.1 597.893 960.208C598.194 960.368 598.49 960.54 598.776 960.726C598.967 960.848 599.153 960.977 599.337 961.112C598.949 960.809 598.935 960.809 599.294 961.112C599.534 961.352 599.791 961.572 600.026 961.822C600.181 961.988 600.33 962.158 600.473 962.334C600.215 961.993 600.224 962.016 600.5 962.403C600.695 962.726 600.904 963.024 601.086 963.364C601.205 963.584 601.319 963.806 601.426 964.032C601.262 963.617 601.267 963.632 601.443 964.075C601.586 964.489 601.727 964.904 601.841 965.318C601.955 965.733 602.048 966.172 602.121 966.603C601.949 965.7 602.152 966.991 602.164 967.192C602.189 967.635 602.195 968.077 602.183 968.52C602.183 968.657 602.096 969.946 602.139 969.488C602.183 969.03 601.992 970.298 601.959 970.441C601.864 970.876 601.752 971.305 601.619 971.732C601.486 972.159 601.346 972.578 601.176 972.988C601.499 972.209 600.956 973.382 600.877 973.529C600.67 973.908 600.463 974.281 600.218 974.642C600.083 974.849 599.945 975.056 599.804 975.253C600.04 974.956 600.066 974.921 599.883 975.147C599.321 975.8 598.713 976.412 598.065 976.979C597.839 977.166 597.877 977.135 598.181 976.89C597.974 977.031 597.781 977.166 597.574 977.305C597.213 977.528 596.834 977.709 596.461 977.912C596.192 978.038 596.244 978.015 596.621 977.845C596.393 977.928 596.165 978.003 595.933 978.071C595.465 978.2 594.99 978.297 594.509 978.363C593.449 978.656 592.549 979.358 592.005 980.313C591.462 981.269 591.319 982.401 591.608 983.461C591.927 984.504 592.633 985.385 593.581 985.924C594.528 986.463 595.646 986.62 596.706 986.362C604.81 985.183 609.852 976.882 610.43 969.297C610.799 965.435 609.816 961.565 607.649 958.346C605.483 955.127 602.267 952.76 598.55 951.648C596.508 951.055 594.361 950.914 592.259 951.237C590.157 951.559 588.15 952.335 586.38 953.513C585.449 954.085 584.776 954.993 584.499 956.049C584.222 957.106 584.364 958.228 584.894 959.182C585.457 960.122 586.365 960.805 587.425 961.083C588.485 961.361 589.611 961.213 590.563 960.67L590.555 960.656Z" fill="black"/>
<path d="M596.312 984.765C598.267 989.352 600.678 993.732 603.509 997.837C606.348 1002.23 609.61 1006.34 613.249 1010.11C613.631 1010.5 614.088 1010.82 614.594 1011.04C615.1 1011.25 615.643 1011.37 616.194 1011.37C616.744 1011.38 617.29 1011.27 617.799 1011.06C618.309 1010.85 618.771 1010.55 619.161 1010.16C619.55 1009.77 619.857 1009.31 620.066 1008.8C620.274 1008.29 620.379 1007.74 620.374 1007.19C620.369 1006.64 620.255 1006.1 620.038 1005.59C619.821 1005.09 619.505 1004.63 619.109 1004.25C617.565 1002.68 616.112 1001.03 614.757 999.304C614.693 999.221 613.982 998.311 614.55 999.049C614.37 998.817 614.194 998.583 614.017 998.348C613.622 997.826 613.233 997.3 612.851 996.769C612.109 995.743 611.386 994.707 610.681 993.661C609.32 991.628 608.022 989.554 606.814 987.425C606.273 986.47 605.751 985.507 605.258 984.524C605.042 984.099 604.835 983.67 604.636 983.239C604.522 982.995 604.415 982.75 604.301 982.506C603.961 981.772 604.643 983.335 604.323 982.566C604.008 981.521 603.303 980.636 602.354 980.096C601.405 979.556 600.285 979.402 599.226 979.665C598.17 979.964 597.275 980.667 596.732 981.62C596.189 982.574 596.043 983.702 596.324 984.763L596.312 984.765Z" fill="black"/>
<path d="M569.751 957.182C569.135 953.237 569.865 949.2 571.824 945.721C573.513 942.229 575.739 939.023 578.42 936.219C584.383 930.3 591.501 925.672 599.329 922.621C600.371 922.299 601.25 921.593 601.789 920.645C602.328 919.698 602.486 918.581 602.23 917.521C601.934 916.463 601.232 915.566 600.278 915.022C599.323 914.479 598.193 914.334 597.133 914.62C587.735 918.582 578.604 923.611 571.701 931.285C565.143 938.575 559.284 949.299 561.754 959.379C563.027 964.56 571.022 962.363 569.749 957.176L569.751 957.182Z" fill="black"/>
<path d="M653.575 962.523C653.579 962.962 653.49 963.397 653.314 963.799C653.137 964.201 652.877 964.562 652.552 964.856C647.48 969.678 641.751 973.756 635.534 976.969C625.507 981.587 614.581 983.929 603.542 983.828C595.686 983.683 587.89 982.431 580.384 980.108C573.389 977.487 566.891 973.693 561.17 968.889C560.373 968.249 559.73 967.437 559.289 966.515C558.848 965.593 558.62 964.583 558.621 963.561V955.962C558.621 955.407 558.768 954.861 559.048 954.382C559.327 953.902 559.729 953.505 560.212 953.231C560.695 952.957 561.242 952.816 561.798 952.823C562.353 952.829 562.896 952.983 563.373 953.268C568.481 956.329 574.149 960.492 580.399 962.823C588.171 965.683 596.378 967.181 604.659 967.25C613.357 966.932 621.882 964.73 629.645 960.795C635.002 958.37 640.108 954.248 645.125 950.79C645.958 950.255 646.921 949.955 647.91 949.923C648.9 949.891 649.88 950.127 650.746 950.607C651.613 951.087 652.333 951.792 652.831 952.648C653.329 953.504 653.586 954.479 653.575 955.469V962.523Z" fill="#CFCFCF"/>
<path d="M649.431 962.523C649.497 961.874 650.075 961.779 649.087 962.4C648.793 962.623 648.516 962.866 648.258 963.13C647.585 963.72 646.907 964.305 646.223 964.885C644.799 966.087 643.349 967.254 641.838 968.344C638.556 970.754 635.006 972.774 631.259 974.366C624.243 977.263 616.811 979.024 609.241 979.584C602.577 979.99 595.889 979.522 589.347 978.193C581.222 976.536 573.566 973.095 566.933 968.118C565.014 966.721 562.876 965.583 562.772 963.037C562.689 960.964 562.963 958.853 562.772 956.793C562.672 955.728 562.772 956.012 562.127 956.896C561.792 957.352 560.354 955.976 561.989 957.261C562.331 957.5 562.686 957.721 563.052 957.922C564.026 958.529 564.993 959.149 565.953 959.764C569.498 962.117 573.229 964.177 577.108 965.923C591.658 972.301 608.065 973.014 623.113 967.923C627.334 966.486 631.416 964.669 635.308 962.494C637.449 961.25 639.494 959.839 641.525 958.405C642.545 957.682 643.556 956.954 644.573 956.223C645.456 955.418 646.442 954.733 647.504 954.186C650.585 953.204 649.431 960.888 649.431 962.523C649.431 967.857 657.72 967.865 657.72 962.523C657.72 957.135 658.578 951.055 653.536 947.495C651.873 946.346 649.891 945.751 647.871 945.792C645.85 945.833 643.894 946.509 642.279 947.725C638.178 950.508 634.318 953.639 629.947 956.014C621.919 960.557 612.871 962.992 603.648 963.093C594.736 963.076 585.941 961.06 577.912 957.193C573.707 955.033 569.923 952.209 565.816 949.896C564.879 949.3 563.821 948.923 562.718 948.791C561.616 948.659 560.498 948.776 559.447 949.134C558.396 949.492 557.439 950.082 556.647 950.859C555.854 951.637 555.246 952.583 554.868 953.626C554.373 955.978 554.24 958.391 554.477 960.782C554.167 963.83 554.801 966.9 556.292 969.577C558.571 973.011 562.95 975.557 566.355 977.752C570.394 980.378 574.734 982.51 579.282 984.101C587.78 986.84 596.672 988.162 605.6 988.012C615.45 987.881 625.181 985.847 634.26 982.023C639.196 979.954 643.84 977.246 648.071 973.968C652.009 970.949 657.189 967.838 657.72 962.523C657.712 961.426 657.273 960.376 656.498 959.6C655.722 958.825 654.672 958.386 653.575 958.378C652.484 958.402 651.443 958.846 650.671 959.618C649.899 960.391 649.455 961.431 649.431 962.523Z" fill="black"/>
<path d="M596.602 911.188C591.751 908.368 586.995 905.091 581.155 907.188C578.62 908.284 576.187 909.602 573.884 911.126L566.119 915.614L550.438 924.681L543.006 928.968C540.01 930.452 537.144 932.185 534.438 934.149C530.594 937.365 530.62 941.777 530.62 946.361C530.62 950.945 530.62 955.479 530.62 960.038C530.62 964.129 529.866 969.195 531.578 973.008C533.314 976.873 537.13 978.581 540.601 980.595C547.152 984.397 553.702 988.196 560.252 991.993C564.882 994.662 569.061 987.502 564.436 984.835C559.773 982.145 555.116 979.444 550.465 976.732L541.784 971.693C540.634 971.023 539.26 970.524 538.939 969.096C538.764 967.494 538.754 965.879 538.91 964.276C538.91 960.33 538.91 956.385 538.91 952.441V947.028C538.774 945.373 538.78 943.709 538.928 942.055C539.274 940.175 541.264 939.568 542.77 938.693L550.264 934.36L564.024 926.407L578.865 917.826C580.73 916.746 583.145 914.672 585.416 914.788C587.743 914.908 590.445 917.216 592.412 918.358C597.031 921.052 601.209 913.886 596.596 911.2L596.602 911.188Z" fill="black"/>
</g>
<g opacity="0.1">
<path d="M70.9293 522.998C70.9293 534.607 73.2157 546.101 77.658 556.826C82.1002 567.55 88.6114 577.295 96.8196 585.503C105.028 593.711 114.772 600.222 125.497 604.665C136.222 609.107 147.716 611.393 159.324 611.393C170.932 611.393 182.427 609.107 193.152 604.665C203.876 600.222 213.621 593.711 221.829 585.503C230.037 577.295 236.548 567.55 240.991 556.826C245.433 546.101 247.719 534.607 247.719 522.998C247.719 511.39 245.433 499.896 240.991 489.171C236.548 478.447 230.037 468.702 221.829 460.494C213.621 452.286 203.876 445.774 193.152 441.332C182.427 436.89 170.932 434.604 159.324 434.604C147.716 434.604 136.222 436.89 125.497 441.332C114.772 445.774 105.028 452.286 96.8196 460.494C88.6114 468.702 82.1002 478.447 77.658 489.171C73.2157 499.896 70.9293 511.39 70.9293 522.998Z" fill="#5B5B5B"/>
<path d="M66.607 631.062C66.607 635.779 70.4316 639.603 75.1488 639.603C70.4313 639.603 66.607 643.428 66.607 648.145C66.607 643.428 62.7828 639.603 58.0656 639.603C62.7828 639.603 66.607 635.779 66.607 631.062Z" fill="#A3A3A3"/>
<path d="M70.941 656.328H62.2715V648.144C62.2715 645.824 60.3864 643.939 58.0664 643.939H49.8824V635.27H58.0664C60.3864 635.27 62.2715 633.382 62.2715 631.062V622.878H70.941V631.062C70.941 633.382 72.8289 635.27 75.1488 635.27V643.939C72.8293 643.939 70.941 645.824 70.941 648.144V656.328ZM83.3328 643.939H75.1485V635.27H83.3328V643.939Z" fill="#A3A3A3"/>
<path d="M304.992 553.305C304.992 556.463 307.552 559.023 310.711 559.023C307.552 559.023 304.992 561.583 304.992 564.742C304.992 561.583 302.432 559.023 299.273 559.023C302.432 559.023 304.992 556.463 304.992 553.305Z" fill="#A3A3A3"/>
<path d="M307.894 570.221H302.089V564.742C302.089 563.189 300.827 561.925 299.274 561.925H293.795V556.121H299.274C300.021 556.12 300.736 555.823 301.264 555.295C301.792 554.768 302.089 554.052 302.089 553.305V547.826H307.894V553.305C307.894 554.859 309.158 556.121 310.711 556.121V561.925C309.158 561.925 307.894 563.189 307.894 564.742V570.221ZM316.19 561.925H310.711V556.12H316.19V561.925Z" fill="#A3A3A3"/>
<path d="M268.07 571.344C268.07 576.061 271.894 579.885 276.611 579.885C271.893 579.885 268.07 583.71 268.07 588.427C268.07 583.709 264.245 579.885 259.528 579.885C264.245 579.886 268.07 576.061 268.07 571.344Z" fill="#A3A3A3"/>
<path d="M272.405 596.611H263.735V588.427C263.735 586.107 261.847 584.222 259.527 584.222H251.343V575.552H259.527C261.847 575.552 263.735 573.664 263.735 571.345V563.16H272.405V571.344C272.405 573.664 274.29 575.552 276.61 575.552V584.221C274.29 584.221 272.405 586.107 272.405 588.426V596.611ZM284.794 584.221H276.61V575.552H284.794V584.221Z" fill="#A3A3A3"/>
<path d="M236.132 629.437C236.132 632.658 238.743 635.27 241.964 635.27H247.553H241.965C238.743 635.27 236.132 637.881 236.132 641.103C236.132 637.881 233.521 635.27 230.299 635.27C233.52 635.27 236.132 632.659 236.132 629.437Z" fill="#A3A3A3"/>
<path d="M239.092 646.692H233.172V641.103C233.172 639.519 231.883 638.23 230.298 638.23H224.71V632.309H230.298C231.882 632.309 233.172 631.02 233.172 629.436V623.848H239.092V629.436C239.092 631.021 240.381 632.31 241.966 632.31V638.23C240.381 638.23 239.092 639.519 239.092 641.104L239.092 646.692ZM247.554 638.23H241.965V632.309H247.554V638.23Z" fill="#A3A3A3"/>
<path d="M14.425 484.596C14.425 489.314 18.2492 493.138 22.9664 493.138C18.2488 493.138 14.425 496.962 14.425 501.679C14.425 496.962 10.6004 493.138 5.88318 493.138C10.6008 493.138 14.425 489.314 14.425 484.596Z" fill="#A3A3A3"/>
<path d="M18.7605 509.864H10.091V501.68C10.091 499.361 8.20273 497.472 5.8832 497.472H-2.30078V488.803H5.8832C8.20312 488.803 10.091 486.915 10.091 484.595V476.411H18.7605V484.595C18.7605 486.915 20.6457 488.803 22.9652 488.803V497.472C20.6457 497.472 18.7605 499.36 18.7605 501.68V509.864ZM31.1496 497.472H22.9652V488.803H31.1496V497.472Z" fill="#A3A3A3"/>
<path d="M189.385 613.479C139.248 630.141 84.9023 602.906 68.241 552.769C51.5797 502.632 78.8148 448.286 128.952 431.625C179.089 414.963 233.434 442.199 250.096 492.336C266.757 542.472 239.522 596.818 189.385 613.479ZM131.686 439.852C86.0855 455.005 61.3144 504.434 76.4683 550.035C91.6218 595.635 141.051 620.406 186.651 605.252C232.252 590.099 257.022 540.67 241.869 495.07C226.715 449.469 177.286 424.698 131.686 439.852Z" fill="black"/>
<path d="M74.2805 601.216C49.1492 609.568 29.2586 611.872 23.5633 602.172C15.4238 588.31 43.0043 562.128 67.5781 542.604L72.9695 549.395C33.6203 580.656 29.3602 594.926 31.0387 597.785C36.416 606.942 94.1496 590.947 172.367 545.026C207.35 524.485 238.62 502.492 260.415 483.101C285.297 460.96 288.88 450.014 287.298 447.319C285.604 444.433 270.905 441.205 223.861 460.668L220.545 452.658C249.883 440.515 286.582 428.976 294.773 442.932C300.276 452.303 290.923 467.56 266.179 489.578C243.971 509.335 212.214 531.683 176.755 552.501C146.305 570.382 106.094 590.644 74.2805 601.216Z" fill="black"/>
<path d="M34.7015 455.06C34.7015 456.924 35.0689 458.771 35.7825 460.494C36.4962 462.217 37.5423 463.783 38.861 465.101C40.1797 466.42 41.7452 467.466 43.4682 468.18C45.1911 468.893 47.0378 469.261 48.9027 469.261C50.7676 469.261 52.6143 468.893 54.3373 468.18C56.0602 467.466 57.6258 466.42 58.9445 465.101C60.2632 463.783 61.3092 462.217 62.0229 460.494C62.7366 458.771 63.1039 456.924 63.1039 455.06C63.1039 453.195 62.7366 451.348 62.0229 449.625C61.3092 447.902 60.2632 446.337 58.9445 445.018C57.6258 443.699 56.0602 442.653 54.3373 441.939C52.6143 441.226 50.7676 440.858 48.9027 440.858C47.0378 440.858 45.1911 441.226 43.4682 441.939C41.7452 442.653 40.1797 443.699 38.861 445.018C37.5423 446.337 36.4962 447.902 35.7825 449.625C35.0689 451.348 34.7015 453.195 34.7015 455.06Z" fill="#5B5B5B"/>
<path d="M48.9043 473.595C38.6824 473.595 30.3656 465.281 30.3656 455.059C30.3656 444.837 38.6824 436.523 48.9043 436.523C59.1261 436.523 67.4398 444.837 67.4398 455.059C67.4398 465.281 59.1261 473.595 48.9043 473.595ZM48.9043 445.193C43.4629 445.193 39.0351 449.619 39.0351 455.06C39.0351 460.501 43.4629 464.926 48.9043 464.926C54.3453 464.926 58.7703 460.501 58.7703 455.06C58.7703 449.618 54.3453 445.193 48.9043 445.193Z" fill="black"/>
<path d="M207.163 444.685C211.19 436.784 212.183 427.341 209.166 418.261C203.184 400.261 183.743 390.518 165.743 396.5C150.161 401.678 140.788 416.945 142.426 432.629C165.296 428.342 188.273 433.055 207.163 444.685Z" fill="#A3A3A3"/>
<path d="M208.893 450.838L204.889 448.374C186.386 436.983 164.487 432.906 143.225 436.891L138.606 437.757L138.116 433.081C136.244 415.179 147.288 398.064 164.377 392.385C184.616 385.659 206.552 396.653 213.279 416.894C216.564 426.782 215.765 437.352 211.025 446.65L208.893 450.838ZM146.62 427.57C166.761 424.883 187.18 428.69 205.078 438.465C207.101 432.372 207.112 425.828 205.052 419.629C199.833 403.924 182.813 395.395 167.111 400.613C155.33 404.527 147.255 415.443 146.62 427.57Z" fill="black"/>
<path d="M115.657 602.996C109.866 611.041 107.859 621.638 111.224 631.764C116.793 648.522 134.894 657.593 151.652 652.024C167.922 646.617 176.904 629.403 172.321 613.069C152.426 615.983 132.621 612.167 115.657 602.996Z" fill="#A3A3A3"/>
<path d="M153.02 656.139C134.019 662.453 113.424 652.131 107.11 633.13C103.454 622.129 105.335 609.917 112.137 600.463L114.363 597.371L117.716 599.183C134.384 608.192 153.048 611.513 171.693 608.781L175.464 608.227L176.494 611.899C181.736 630.59 171.425 650.023 153.02 656.139ZM117.215 608.673C113.672 615.319 112.946 623.2 115.337 630.396C120.143 644.861 135.822 652.718 150.286 647.911C163.104 643.652 170.762 630.9 168.909 617.863C151.096 619.717 133.379 616.568 117.215 608.673ZM210.506 480.741C210.437 480.621 203.049 467.96 189.9 461.37C176.677 454.744 162.986 455.767 162.849 455.778L162.127 447.215C162.78 447.159 178.29 445.94 193.75 453.687C209.289 461.475 217.625 475.876 217.972 476.485L210.506 480.741ZM221.411 482.044L226.046 491.533L218.325 495.305L213.69 485.816L221.411 482.044Z" fill="black"/>
</g>
</g>
<defs>
<clipPath id="clip0_50_2699">
<rect width="715" height="1383" fill="white"/>
</clipPath>
<clipPath id="clip1_50_2699">
<rect width="800" height="800" fill="white" transform="translate(-42 583)"/>
</clipPath>
</defs>
</svg>
