<svg width="734" height="934" viewBox="0 0 734 934" fill="none" xmlns="http://www.w3.org/2000/svg">
<g clip-path="url(#clip0_31_740)">
<g opacity="0.12">
<path d="M525.718 93.8001C528.018 98.7001 533.718 108.4 533.718 108.4L599.218 0.100098L535.218 44.7001C531.418 47.2001 528.318 50.7001 526.118 54.7001C520.218 67.0001 520.118 81.3001 525.718 93.8001Z" fill="url(#paint0_linear_31_740)"/>
<path d="M499.718 129.4C501.218 150.4 511.618 169.7 528.318 182.4L599.018 231.7C599.018 231.7 554.818 167.9 517.418 104.5C513.618 97.8 511.118 90.5 509.918 82.9C509.418 79.5 509.418 76 509.918 72.5C508.918 74.3 507.018 78 507.018 78C503.218 85.7 500.618 94 499.418 102.5C498.818 111.4 498.818 120.5 499.718 129.4Z" fill="#A0A8D4"/>
<path d="M680.118 138C677.818 133.1 672.118 123.4 672.118 123.4L606.618 231.7L670.518 187.1C674.318 184.6 677.418 181.1 679.618 177.1C685.618 164.7 685.718 150.4 680.118 138Z" fill="url(#paint1_linear_31_740)"/>
<path d="M706.118 102.3C704.618 81.3 694.218 62 677.518 49.3L606.818 0C606.818 0 651.018 63.8 688.418 127.2C692.218 133.9 694.718 141.2 695.918 148.8C696.418 152.2 696.418 155.7 695.918 159.2C696.918 157.4 698.818 153.7 698.818 153.7C702.618 146 705.218 137.7 706.418 129.2C707.018 120.3 707.018 111.3 706.118 102.3Z" fill="#A0A8D4"/>
<path d="M526.118 54.7001C528.318 50.7001 531.418 47.2001 535.218 44.7001L599.118 0.100098L533.618 108.4C533.618 108.4 527.918 98.7001 525.618 93.8001C520.018 81.3001 520.218 67.0001 526.118 54.7001ZM499.718 129.4C501.218 150.4 511.618 169.7 528.318 182.4L599.018 231.7C599.018 231.7 554.818 167.9 517.418 104.5C513.618 97.8001 511.118 90.5001 509.918 82.9001C509.418 79.5001 509.418 76.0001 509.918 72.5001C508.918 74.3001 507.018 78.0001 507.018 78.0001C503.218 85.7001 500.618 94.0001 499.418 102.5C498.818 111.4 498.818 120.5 499.718 129.4ZM680.018 138C677.718 133.1 672.018 123.4 672.018 123.4L606.618 231.7L670.518 187.1C674.318 184.6 677.418 181.1 679.618 177.1C685.518 164.8 685.718 150.5 680.018 138ZM706.018 102.4C704.518 81.4001 694.118 62.1001 677.418 49.4001L606.818 0.100098C606.818 0.100098 651.018 63.9001 688.418 127.3C692.218 134 694.718 141.3 695.918 148.9C696.418 152.3 696.418 155.8 695.918 159.3C696.918 157.5 698.818 153.8 698.818 153.8C702.618 146.1 705.218 137.8 706.418 129.3C707.118 120.3 707.118 111.3 706.218 102.3L706.018 102.4Z" fill="black"/>
</g>
<g opacity="0.12" clip-path="url(#clip1_31_740)">
<path d="M200 194.667C163.74 194.667 128.295 205.419 98.1455 225.564C67.9965 245.709 44.4982 274.342 30.6221 307.842C16.7461 341.341 13.1154 378.204 20.1894 413.767C27.2634 449.33 44.7242 481.997 70.3638 507.637C96.0034 533.276 128.67 550.737 164.233 557.811C199.797 564.885 236.659 561.254 270.159 547.378C303.658 533.502 332.291 510.004 352.436 479.855C372.581 449.706 383.333 414.26 383.333 378C383.444 353.894 378.777 330.004 369.603 307.711C360.428 285.418 346.928 265.164 329.882 248.118C312.836 231.072 292.582 217.572 270.289 208.398C247.996 199.223 224.107 194.557 200 194.667ZM334.167 311.334H293.333C288.485 287.956 280.052 265.468 268.333 244.667C296.663 259.521 319.67 282.82 334.167 311.334ZM350 378C349.9 389.235 348.502 400.42 345.833 411.334H298.333C299.167 400.5 300 389.667 300 378C300 366.334 299.167 355.5 298.333 344.667H345.833C348.502 355.58 349.9 366.766 350 378ZM50 378C50.1003 366.766 51.4985 355.58 54.1667 344.667H101.667C100.833 355.5 100 366.334 100 378C100 389.667 100.833 400.5 101.667 411.334H54.1667C51.4985 400.42 50.1003 389.235 50 378ZM133.333 378C133.333 366.334 134.167 355.5 135 344.667H183.333V411.334H135C134.167 400.5 133.333 389.667 133.333 378ZM216.667 233.834C227.026 242.288 235.536 252.784 241.667 264.667C249.626 279.34 255.515 295.045 259.167 311.334H216.667V233.834ZM183.333 233.834V311.334H140.833C144.485 295.045 150.374 279.34 158.333 264.667C164.464 252.784 172.974 242.288 183.333 233.834ZM183.333 444.667V522.167C172.974 513.712 164.464 503.217 158.333 491.334C150.374 476.66 144.485 460.956 140.833 444.667H183.333ZM216.667 522.167V444.667H259.167C255.515 460.956 249.626 476.66 241.667 491.334C235.536 503.217 227.026 513.712 216.667 522.167ZM216.667 411.334V344.667H265C265.833 355.5 266.667 366.334 266.667 378C266.667 389.667 265.833 400.5 265 411.334H216.667ZM131.667 244.667C119.948 265.468 111.515 287.956 106.667 311.334H65.8334C80.3302 282.82 103.337 259.521 131.667 244.667ZM65.8334 444.667H106.667C111.515 468.045 119.948 490.532 131.667 511.334C103.337 496.479 80.3302 473.181 65.8334 444.667ZM268.333 511.334C280.052 490.532 288.485 468.045 293.333 444.667H334.167C319.67 473.181 296.663 496.479 268.333 511.334Z" fill="black"/>
</g>
<g opacity="0.54">
<path d="M702.889 561.047H365.111C347.929 561.047 334 574.976 334 592.158V627.52C334 629.973 335.99 631.964 338.445 631.964H729.555C732.011 631.964 734 629.974 734 627.52V592.158C734 574.976 720.071 561.047 702.889 561.047ZM390.098 606.534C384.559 606.534 380.07 602.045 380.07 596.506C380.07 590.968 384.559 586.478 390.098 586.478C395.636 586.478 400.126 590.968 400.126 596.506C400.127 602.045 395.637 606.534 390.098 606.534ZM422.248 606.534C416.709 606.534 412.22 602.045 412.22 596.506C412.22 590.968 416.709 586.478 422.248 586.478C427.786 586.478 432.276 590.968 432.276 596.506C432.277 602.045 427.786 606.534 422.248 606.534ZM454.398 606.534C448.859 606.534 444.37 602.045 444.37 596.506C444.37 590.968 448.859 586.478 454.398 586.478C459.937 586.478 464.426 590.968 464.426 596.506C464.426 602.045 459.936 606.534 454.398 606.534Z" fill="#F0A6CA"/>
<path d="M729.555 649.742H338.445C335.991 649.742 334 651.732 334 654.187V875.842C334 893.024 347.929 906.953 365.111 906.953H702.889C720.071 906.953 734 893.024 734 875.842V654.187C734 651.732 732.011 649.742 729.555 649.742ZM473.221 757.151L457.708 805.024C455.402 812.145 445.804 813.423 441.752 807.056L429.836 788.325L417.919 807.058C413.885 813.394 404.274 812.162 401.963 805.026L386.452 757.152C382.83 745.982 399.737 740.484 403.362 751.673L413.054 781.584L422.335 766.995C425.821 761.516 433.843 761.506 437.335 766.995L446.616 781.584L456.309 751.672C459.937 740.477 476.841 745.983 473.221 757.151ZM577.385 757.151L561.873 805.024C559.568 812.143 549.97 813.423 545.918 807.056L534 788.327L522.084 807.058C518.05 813.394 508.439 812.162 506.128 805.026L490.616 757.152C486.995 745.982 503.902 740.484 507.527 751.673L517.219 781.584L526.5 766.995C529.986 761.516 538.008 761.506 541.5 766.995L550.781 781.584L560.473 751.673C564.093 740.498 581.012 745.963 577.385 757.151ZM681.548 757.151L666.037 805.024C663.727 812.155 654.116 813.397 650.081 807.056L638.165 788.325L626.248 807.056C622.197 813.422 612.599 812.145 610.293 805.024L594.78 757.151C591.159 745.979 608.066 740.482 611.691 751.671L621.383 781.583L630.664 766.995C634.15 761.516 642.172 761.505 645.664 766.995L654.945 781.583L664.637 751.672C668.257 740.498 685.175 745.963 681.548 757.151Z" fill="#F0A6CA"/>
</g>
</g>
<defs>
<linearGradient id="paint0_linear_31_740" x1="602.006" y1="2.6818" x2="517.925" y2="93.832" gradientUnits="userSpaceOnUse">
<stop offset="0.58" stop-color="#A0A8D4"/>
<stop offset="0.73" stop-color="#8791C7"/>
<stop offset="0.91" stop-color="#6470B4"/>
</linearGradient>
<linearGradient id="paint1_linear_31_740" x1="603.817" y1="229.062" x2="687.911" y2="137.93" gradientUnits="userSpaceOnUse">
<stop offset="0.58" stop-color="#A0A8D4"/>
<stop offset="0.73" stop-color="#8791C7"/>
<stop offset="0.91" stop-color="#6470B4"/>
</linearGradient>
<clipPath id="clip0_31_740">
<rect width="734" height="934" fill="white"/>
</clipPath>
<clipPath id="clip1_31_740">
<rect width="400" height="400" fill="white" transform="translate(0 178)"/>
</clipPath>
</defs>
</svg>
