<svg width="800" height="1133" viewBox="0 0 800 1133" fill="none" xmlns="http://www.w3.org/2000/svg">
<g clip-path="url(#clip0_33_976)">
<g clip-path="url(#clip1_33_976)">
<g opacity="0.12">
<path d="M646.657 1088.13C646.47 1088.13 646.284 1088.11 646.097 1088.11C594.456 1086.3 553.528 1061.56 553.528 1031.28V1018.87C553.528 987.434 597.668 961.945 652.128 961.945C706.587 961.945 750.727 987.434 750.727 1018.87C750.725 1022.12 750.257 1025.35 749.339 1028.47V1028.49" fill="#CFCFCF"/>
<path d="M61.4785 720.207L8.60406 750.738L1.00498 755.125C0.5304 755.402 0.185511 755.857 0.0461874 756.389C-0.0931361 756.921 -0.0154811 757.486 0.262069 757.961C0.53962 758.435 0.99433 758.78 1.52617 758.92C2.05801 759.059 2.62341 758.981 3.09799 758.704L55.9745 728.175L63.5715 723.788C64.046 723.51 64.3909 723.055 64.5303 722.524C64.6696 721.992 64.5919 721.426 64.3144 720.952C64.0368 720.477 63.5821 720.132 63.0503 719.993C62.5184 719.854 61.953 719.931 61.4785 720.209V720.207Z" fill="#CFCFCF"/>
<path d="M406.21 521.182L346.231 555.81L337.609 560.784C337.373 560.921 337.167 561.103 337.002 561.32C336.837 561.537 336.716 561.785 336.647 562.048C336.577 562.312 336.56 562.587 336.597 562.857C336.634 563.127 336.723 563.387 336.861 563.623C336.998 563.858 337.18 564.065 337.397 564.23C337.614 564.395 337.862 564.515 338.125 564.585C338.389 564.654 338.664 564.671 338.934 564.635C339.204 564.598 339.464 564.508 339.7 564.371L399.678 529.743L408.301 524.77C408.775 524.492 409.12 524.038 409.26 523.506C409.399 522.975 409.322 522.409 409.045 521.935C408.767 521.46 408.313 521.115 407.781 520.976C407.25 520.836 406.684 520.913 406.21 521.191V521.182Z" fill="#CFCFCF"/>
<path d="M714.75 818.595L748.57 838.116L753.411 840.909C753.885 841.187 754.451 841.264 754.983 841.125C755.514 840.986 755.969 840.641 756.247 840.166C756.524 839.692 756.602 839.126 756.463 838.594C756.323 838.063 755.978 837.608 755.504 837.33L721.682 817.809L716.841 815.016C716.367 814.739 715.801 814.661 715.27 814.801C714.738 814.94 714.283 815.285 714.006 815.76C713.729 816.234 713.652 816.8 713.791 817.331C713.931 817.863 714.276 818.317 714.75 818.595Z" fill="#CFCFCF"/>
<path d="M345.883 605.688L399.555 636.663L407.111 641.014C407.586 641.292 408.151 641.369 408.682 641.229C409.214 641.09 409.669 640.745 409.946 640.27C410.223 639.796 410.3 639.23 410.161 638.699C410.021 638.167 409.676 637.713 409.202 637.435L355.53 606.461L347.974 602.109C347.739 601.972 347.479 601.882 347.21 601.845C346.94 601.808 346.666 601.825 346.403 601.894C346.139 601.963 345.892 602.083 345.676 602.248C345.459 602.413 345.277 602.618 345.139 602.853C345.002 603.088 344.912 603.348 344.875 603.618C344.838 603.887 344.855 604.161 344.924 604.425C344.993 604.688 345.113 604.935 345.278 605.152C345.443 605.369 345.648 605.551 345.883 605.688Z" fill="#CFCFCF"/>
<path d="M786.004 731.876L739.149 758.923L706.146 777.988L656.589 806.607L619.982 827.744L577.59 852.212L533.864 877.452L498.333 897.968L448.148 926.949L416.322 945.328L362.894 976.18L358.52 978.708C358.285 978.845 358.079 979.028 357.915 979.244C357.75 979.461 357.63 979.708 357.561 979.971C357.492 980.235 357.475 980.509 357.512 980.779C357.549 981.048 357.639 981.308 357.776 981.543C357.913 981.778 358.095 981.984 358.312 982.148C358.529 982.313 358.776 982.433 359.039 982.502C359.303 982.571 359.577 982.588 359.846 982.551C360.116 982.514 360.376 982.424 360.611 982.287L406.96 955.521L436.931 938.214L493.314 905.654L521.717 889.256L575.776 858.045L607.205 839.898L656.788 811.271L693.198 790.25L735.809 765.644L782.941 738.437L788.097 735.461C788.571 735.183 788.916 734.729 789.055 734.197C789.195 733.665 789.117 733.1 788.84 732.625C788.562 732.151 788.107 731.806 787.575 731.666C787.044 731.527 786.478 731.605 786.004 731.882V731.876Z" fill="#CFCFCF"/>
<path d="M437.379 825.624L420.038 835.641L378.163 859.829L327.707 888.974L284.065 914.183L269.559 922.563C267.31 923.86 264.898 925.035 262.749 926.501C262.656 926.565 262.552 926.617 262.453 926.673C262.218 926.81 262.012 926.992 261.848 927.209C261.683 927.426 261.563 927.673 261.494 927.937C261.425 928.2 261.409 928.474 261.446 928.744C261.483 929.014 261.572 929.274 261.71 929.508C261.847 929.743 262.03 929.949 262.247 930.114C262.463 930.278 262.711 930.398 262.974 930.467C263.237 930.536 263.512 930.553 263.781 930.516C264.051 930.479 264.311 930.389 264.546 930.251L281.885 920.236L323.761 896.046L374.217 866.902L417.86 841.694L432.366 833.314C434.612 832.015 437.024 830.84 439.173 829.377C439.266 829.312 439.38 829.263 439.47 829.205C439.944 828.927 440.289 828.473 440.429 827.941C440.568 827.41 440.491 826.844 440.213 826.37C439.936 825.895 439.482 825.55 438.95 825.411C438.418 825.271 437.853 825.346 437.379 825.624Z" fill="#CFCFCF"/>
<path d="M239.044 832.676C225.26 840.638 211.477 848.6 197.696 856.563L160.646 877.939L137.88 891.086C137.405 891.363 137.06 891.818 136.921 892.35C136.781 892.882 136.859 893.447 137.137 893.921C137.414 894.396 137.869 894.741 138.401 894.88C138.933 895.02 139.498 894.942 139.972 894.664L180.703 871.152L219.356 848.838L241.146 836.255C241.62 835.978 241.965 835.523 242.105 834.992C242.244 834.46 242.167 833.895 241.89 833.42C241.612 832.945 241.158 832.6 240.626 832.461C240.095 832.321 239.529 832.399 239.055 832.676H239.044Z" fill="#CFCFCF"/>
<path d="M95.8908 807.842L51.2102 833.638L44.8131 837.331C44.3385 837.608 43.9936 838.063 43.8543 838.595C43.715 839.126 43.7926 839.692 44.0702 840.166C44.3477 840.641 44.8024 840.986 45.3343 841.125C45.8661 841.265 46.4315 841.187 46.9061 840.909L91.595 815.118L97.99 811.425C98.225 811.288 98.4307 811.105 98.5952 810.889C98.7598 810.672 98.8801 810.425 98.9491 810.161C99.0182 809.898 99.0348 809.624 98.9979 809.354C98.9609 809.085 98.8713 808.825 98.734 808.59C98.5967 808.355 98.4145 808.149 98.1977 807.985C97.9809 807.82 97.7339 807.7 97.4706 807.631C97.2074 807.562 96.9331 807.545 96.6635 807.582C96.3938 807.619 96.1341 807.709 95.8991 807.846L95.8908 807.842Z" fill="#CFCFCF"/>
<path d="M421.694 619.74L382.498 642.369L376.889 645.608C376.654 645.746 376.448 645.928 376.284 646.145C376.119 646.361 375.999 646.609 375.93 646.872C375.861 647.135 375.844 647.409 375.881 647.679C375.918 647.949 376.008 648.208 376.145 648.443C376.282 648.678 376.464 648.884 376.681 649.048C376.898 649.213 377.145 649.333 377.408 649.402C377.671 649.471 377.946 649.488 378.215 649.451C378.485 649.414 378.745 649.325 378.98 649.187L418.175 626.558L423.785 623.319C424.02 623.182 424.225 622.999 424.39 622.783C424.554 622.566 424.675 622.319 424.744 622.056C424.813 621.792 424.829 621.518 424.792 621.248C424.756 620.979 424.666 620.719 424.529 620.484C424.391 620.249 424.209 620.043 423.992 619.879C423.776 619.714 423.528 619.594 423.265 619.525C423.002 619.456 422.728 619.439 422.458 619.476C422.188 619.513 421.929 619.603 421.694 619.74Z" fill="#CFCFCF"/>
<path d="M425.927 969.542L380.057 943.05L350.738 926.122L294.393 893.601C285.379 888.4 276.365 883.196 267.354 877.989L212.024 846.034C202.5 840.534 192.975 835.035 183.449 829.536L130.554 798.991L99.1732 780.875L50.0828 752.534L11.8118 730.44L3.10824 725.406C2.87325 725.269 2.61349 725.179 2.3438 725.142C2.07411 725.105 1.79976 725.121 1.53642 725.19C1.27308 725.259 1.0259 725.379 0.809009 725.544C0.592115 725.708 0.409747 725.914 0.272318 726.149C0.134889 726.384 0.0450901 726.644 0.00804904 726.913C-0.028992 727.183 -0.0125502 727.458 0.0564359 727.721C0.125422 727.984 0.245601 728.231 0.410112 728.448C0.574622 728.665 0.780242 728.848 1.01523 728.985L44.2183 753.929C56.8178 761.207 69.418 768.482 82.0188 775.754L125.444 800.829L166.666 824.627C179.219 831.876 191.773 839.123 204.325 846.37L251.265 873.481C262.307 879.86 273.35 886.238 284.394 892.615L335.692 922.224C345.983 928.164 356.275 934.105 366.569 940.045L419.499 970.616L423.851 973.131C424.325 973.409 424.891 973.487 425.423 973.347C425.954 973.208 426.409 972.863 426.687 972.388C426.964 971.914 427.042 971.348 426.903 970.817C426.763 970.285 426.418 969.83 425.944 969.553L425.927 969.542Z" fill="#CFCFCF"/>
<path d="M329.995 811.42L353.588 825.044L410.248 857.763L478.795 897.344L538.05 931.561L557.575 942.837C560.642 944.608 563.668 946.594 566.836 948.183C566.973 948.251 567.104 948.339 567.236 948.415C567.711 948.693 568.276 948.77 568.808 948.631C569.34 948.492 569.795 948.147 570.072 947.672C570.35 947.198 570.427 946.632 570.288 946.1C570.149 945.569 569.804 945.114 569.329 944.836L545.736 931.213L489.076 898.494L420.529 858.913L361.272 824.696L341.749 813.42C338.68 811.648 335.654 809.663 332.488 808.074C332.351 808.003 332.22 807.918 332.086 807.842C331.611 807.564 331.046 807.487 330.514 807.626C329.983 807.766 329.528 808.111 329.251 808.586C328.974 809.06 328.896 809.625 329.036 810.157C329.175 810.689 329.52 811.143 329.995 811.42Z" fill="#CFCFCF"/>
<path d="M717.011 712.388L752.033 732.611L779.53 748.485L796.914 758.519C797.389 758.797 797.954 758.874 798.486 758.735C799.018 758.596 799.473 758.251 799.75 757.776C800.028 757.301 800.105 756.736 799.966 756.204C799.827 755.672 799.482 755.218 799.007 754.94L764.976 735.299C754.847 729.454 744.718 723.605 734.59 717.753L719.083 708.809C718.612 708.576 718.069 708.531 717.566 708.683C717.062 708.836 716.636 709.174 716.372 709.629C716.109 710.084 716.028 710.622 716.147 711.134C716.265 711.647 716.574 712.095 717.011 712.388Z" fill="#CFCFCF"/>
<path d="M375.034 514.955L423.915 543.184L455.828 561.613L502.815 588.735L568.896 626.881C581.794 634.327 594.553 642.121 607.634 649.241C607.841 649.353 608.038 649.476 608.241 649.592C608.715 649.869 609.281 649.946 609.812 649.807C610.344 649.667 610.799 649.322 611.076 648.848C611.353 648.373 611.43 647.808 611.291 647.276C611.151 646.745 610.806 646.29 610.332 646.013L578.093 627.404L512.642 589.62L460.97 559.793L433.767 544.085L378.314 512.062L377.127 511.376C376.652 511.099 376.087 511.021 375.555 511.16C375.023 511.3 374.569 511.645 374.291 512.119C374.014 512.594 373.936 513.159 374.075 513.691C374.215 514.223 374.559 514.678 375.034 514.955Z" fill="#CFCFCF"/>
<path d="M562.568 417.628C541.281 405.325 517.485 391.604 493.683 377.865C469.912 391.592 446.14 405.296 424.883 417.585C424.883 532.69 424.883 647.816 424.883 647.828C448.3 661.389 493.362 687.396 493.683 687.579C514.965 675.301 538.765 661.555 562.568 647.81V417.628Z" fill="#CFCFCF"/>
<path d="M562.29 462.785C538.624 476.462 514.961 490.114 493.77 502.366C493.656 502.436 493.517 502.505 493.403 502.573C493.059 502.366 492.74 502.183 492.419 502.001C471.503 489.928 448.204 476.456 424.883 462.986V492.771C448.204 506.241 471.509 519.711 492.419 531.786C492.74 531.968 493.059 532.153 493.403 532.358C493.517 532.29 493.656 532.221 493.77 532.151C514.961 519.893 538.624 506.247 562.29 492.57H562.657V462.785H562.29Z" fill="#CFCFCF"/>
<path d="M562.29 522.784C538.624 536.461 514.961 550.116 493.77 562.365C493.656 562.433 493.517 562.502 493.403 562.572C493.059 562.365 492.74 562.182 492.419 562C471.503 549.927 448.204 536.457 424.883 522.987V552.766C448.204 566.236 471.509 579.706 492.419 591.779C492.74 591.963 493.059 592.146 493.403 592.353C493.517 592.282 493.656 592.214 493.77 592.146C514.961 579.89 538.624 566.242 562.29 552.565H562.657V522.784H562.29Z" fill="#CFCFCF"/>
<path d="M562.29 582.785C538.624 596.462 514.961 610.114 493.77 622.366C493.656 622.436 493.517 622.505 493.403 622.573C493.059 622.366 492.74 622.183 492.419 622.001C471.503 609.928 448.204 596.456 424.883 582.986V612.767C448.204 626.237 471.509 639.707 492.419 651.782C492.74 651.964 493.059 652.149 493.403 652.354C493.517 652.285 493.656 652.217 493.77 652.147C514.961 639.889 538.624 626.243 562.29 612.566H562.657V582.785H562.29Z" fill="#CFCFCF"/>
<path d="M560.477 644.224C537.516 657.487 514.553 670.743 491.59 683.994H495.774C478.764 674.229 461.778 664.424 444.814 654.58L426.887 644.218C422.259 641.545 418.082 648.705 422.703 651.376C439.912 661.323 457.125 671.262 474.342 681.192C479.7 684.284 485.056 687.375 490.413 690.465C490.779 690.673 491.14 690.913 491.519 691.104C494.557 692.635 497.235 690.304 499.794 688.824L518.938 677.775L564.661 651.374C569.278 648.707 565.108 641.541 560.477 644.216V644.224Z" fill="black"/>
<path d="M422.792 616.35C441.617 627.225 460.441 638.101 479.264 648.978L485.458 652.555C487.485 653.904 489.607 655.104 491.807 656.146C494.251 657.105 496.221 655.524 498.256 654.345L505.147 650.362C514.171 645.147 523.197 639.932 532.225 634.719C542.946 628.528 553.664 622.337 564.381 616.145C569 613.476 564.831 606.31 560.199 608.987C537.244 622.25 514.418 635.782 491.312 648.775H495.496C472.765 635.396 449.815 622.38 426.976 609.194C422.349 606.523 418.169 613.681 422.792 616.35Z" fill="black"/>
<path d="M422.792 586.569C441.617 597.443 460.441 608.318 479.264 619.195L485.458 622.772C487.484 624.123 489.606 625.324 491.807 626.365C494.251 627.325 496.221 625.744 498.256 624.564L505.147 620.581C514.171 615.366 523.197 610.152 532.225 604.938C542.946 598.749 553.664 592.557 564.381 586.364C569 583.695 564.831 576.529 560.199 579.206C537.244 592.469 514.418 606.001 491.312 618.994H495.496C472.765 605.615 449.815 592.599 426.976 579.413C422.349 576.74 418.169 583.9 422.792 586.569Z" fill="black"/>
<path d="M422.792 556.351C441.617 567.224 460.441 578.099 479.264 588.977L485.458 592.554C487.484 593.904 489.606 595.104 491.807 596.145C494.251 597.105 496.221 595.524 498.256 594.347L505.147 590.364C514.171 585.146 523.197 579.931 532.225 574.72C542.946 568.531 553.664 562.339 564.381 556.144C569 553.477 564.831 546.311 560.199 548.988C537.244 562.251 514.418 575.783 491.312 588.776H495.496C472.765 575.398 449.815 562.382 426.976 549.196C422.349 546.522 418.169 553.68 422.792 556.351Z" fill="black"/>
<path d="M422.792 526.57C441.617 537.444 460.441 548.318 479.264 559.19L485.458 562.767C487.485 564.116 489.607 565.316 491.807 566.358C494.251 567.318 496.221 565.737 498.256 564.559L505.147 560.574C514.178 555.369 523.204 550.157 532.225 544.939C542.946 538.747 553.664 532.555 564.381 526.363C569 523.696 564.831 516.53 560.199 519.205C537.244 532.468 514.418 546 491.312 558.993H495.496C472.765 545.617 449.815 532.601 426.976 519.413C422.349 516.739 418.169 523.899 422.792 526.57Z" fill="black"/>
<path d="M422.792 496.35C441.617 507.226 460.441 518.102 479.264 528.978L485.458 532.555C487.485 533.904 489.607 535.105 491.807 536.146C494.251 537.106 496.221 535.525 498.256 534.346L505.147 530.363C514.171 525.147 523.197 519.933 532.225 514.719C542.946 508.528 553.664 502.337 564.381 496.145C569 493.476 564.831 486.31 560.199 488.987C537.244 502.25 514.418 515.782 491.312 528.775H495.496C472.765 515.399 449.815 502.381 426.976 489.195C422.349 486.521 418.169 493.681 422.792 496.35Z" fill="black"/>
<path d="M422.792 466.569C441.617 477.443 460.441 488.318 479.264 499.195L485.458 502.772C487.484 504.123 489.606 505.324 491.807 506.365C494.251 507.325 496.221 505.744 498.256 504.564L505.147 500.581C514.171 495.365 523.197 490.15 532.225 484.938C542.946 478.749 553.664 472.557 564.381 466.364C569 463.695 564.831 456.529 560.199 459.206C537.244 472.469 514.418 486.001 491.312 498.994H495.496C472.765 485.615 449.815 472.599 426.976 459.413C422.349 456.74 418.169 463.9 422.792 466.569Z" fill="black"/>
<path d="M489.625 458.04V656.923C489.625 666.118 489.29 675.385 489.625 684.576C489.625 684.727 489.625 684.879 489.625 685.03C489.625 690.364 497.914 690.372 497.914 685.03V486.146C497.914 476.951 498.25 467.684 497.914 458.494C497.914 458.342 497.914 458.189 497.914 458.04C497.914 452.706 489.625 452.697 489.625 458.04Z" fill="black"/>
<path d="M560.564 414.049C537.604 427.312 514.643 440.568 491.679 453.818H495.863C472.867 440.622 449.905 427.366 426.976 414.049C422.349 411.376 418.169 418.536 422.792 421.207C441.487 432.006 460.184 442.799 478.885 453.586C483.052 455.992 487.159 458.632 491.437 460.839C494.079 462.203 495.935 460.935 498.275 459.596L505.196 455.603C514.272 450.365 523.345 445.127 532.416 439.889C543.192 433.672 553.972 427.447 564.756 421.215C569.375 418.548 565.206 411.382 560.572 414.057L560.564 414.049Z" fill="black"/>
<path d="M426.891 421.207C449.845 407.944 472.807 394.688 495.778 381.437H491.594C514.555 394.7 537.517 407.957 560.481 421.207C565.108 423.88 569.286 416.72 564.665 414.049C541.707 400.781 518.743 387.524 495.774 374.28C495.137 373.913 494.416 373.72 493.682 373.72C492.947 373.72 492.226 373.913 491.59 374.28C468.629 387.542 445.666 400.799 422.703 414.049C418.086 416.718 422.255 423.884 426.887 421.207H426.891Z" fill="black"/>
<path d="M558.423 417.628V619.287C558.423 628.612 558.071 638.028 558.423 647.356C558.423 647.505 558.423 647.656 558.423 647.805C558.423 653.139 566.712 653.148 566.712 647.805V446.135C566.712 436.809 567.065 427.399 566.712 418.076C566.712 417.927 566.712 417.777 566.712 417.628C566.712 412.294 558.423 412.286 558.423 417.628Z" fill="black"/>
<path d="M420.738 417.628V619.287C420.738 628.612 420.386 638.028 420.738 647.356C420.738 647.505 420.738 647.656 420.738 647.805C420.738 653.139 429.027 653.148 429.027 647.805V446.135C429.027 436.809 429.38 427.399 429.027 418.076C429.027 417.927 429.027 417.777 429.027 417.628C429.027 412.294 420.738 412.286 420.738 417.628Z" fill="black"/>
<path d="M646.657 1083.98C620.672 1083.02 591.327 1076.77 571.567 1058.65C564.764 1052.41 559.08 1044.21 557.89 1035.17C557.393 1029.49 557.324 1023.78 557.683 1018.1C557.803 1013.85 558.807 1009.67 560.63 1005.83C565.073 996.504 572.999 989.343 581.635 983.922C592.785 977.17 605.006 972.371 617.771 969.733C646.508 963.329 678.162 964.859 705.725 975.496C723.588 982.39 745.749 996.552 746.549 1017.59C746.626 1019.32 746.557 1021.05 746.342 1022.77C745.833 1024.65 745.445 1026.56 745.18 1028.49C745.18 1033.82 753.469 1033.83 753.469 1028.49C753.732 1027.76 753.948 1027.02 754.113 1026.26C754.333 1025.11 754.503 1023.94 754.631 1022.77C754.844 1020.88 754.903 1018.97 754.807 1017.07C754.669 1014.41 754.262 1011.76 753.593 1009.18C752.234 1004.15 749.983 999.41 746.947 995.18C739.564 985.365 729.895 977.5 718.781 972.271C690.67 958.192 657.246 955.169 626.446 959.73C601.004 963.495 571.984 973.691 556.817 995.856C553.81 1000.19 551.632 1005.04 550.393 1010.17C549.385 1015.97 549.043 1021.86 549.373 1027.74C549.156 1033.18 549.879 1038.62 551.51 1043.81C553.396 1049 556.148 1053.82 559.65 1058.09C567.462 1067.84 578.524 1074.91 589.831 1079.95C604.084 1086.14 619.231 1090.03 634.704 1091.47C638.676 1091.88 642.657 1092.12 646.646 1092.27C651.981 1092.48 651.972 1084.19 646.646 1083.98H646.657Z" fill="black"/>
<path d="M261.829 819.08L78.3096 713.115L264.492 605.609L450.675 713.111L264.492 820.613L261.829 819.08Z" fill="#CFCFCF"/>
<path d="M263.922 815.501L122.455 733.82L80.4044 709.537V716.694L224.221 633.656L266.589 609.203H262.405L409.722 694.264L448.588 716.705V709.547L301.267 794.602L262.401 817.043H266.583L263.922 815.505C259.292 812.834 255.115 819.994 259.738 822.663L262.401 824.201C263.037 824.567 263.758 824.76 264.492 824.76C265.226 824.76 265.947 824.567 266.583 824.201L410.4 741.162L452.767 716.699C453.383 716.326 453.892 715.801 454.245 715.174C454.598 714.547 454.784 713.839 454.784 713.12C454.784 712.4 454.598 711.693 454.245 711.066C453.892 710.439 453.383 709.914 452.767 709.541L308.951 626.502L266.585 602.039C265.948 601.673 265.227 601.481 264.493 601.481C263.759 601.481 263.038 601.673 262.401 602.039L115.082 687.1L76.2163 709.537C75.6008 709.909 75.0918 710.435 74.7386 711.062C74.3853 711.689 74.1997 712.396 74.1997 713.116C74.1997 713.835 74.3853 714.543 74.7386 715.17C75.0918 715.796 75.6008 716.322 76.2163 716.694L221.044 800.317L259.738 822.659C264.365 825.332 268.545 818.172 263.922 815.501Z" fill="black"/>
<path d="M264.492 550.456C286.023 562.889 307.554 575.302 326.806 586.43C305.274 598.864 283.743 611.298 264.492 622.405C264.202 622.24 263.912 622.074 263.601 621.887C244.577 610.904 223.378 598.678 202.178 586.43C221.43 575.302 242.961 562.889 264.492 550.456Z" fill="#CFCFCF"/>
<path d="M264.492 709.959V683.02C283.661 671.933 305.068 659.582 326.474 647.21H326.806V674.15H326.474C305.068 686.522 283.661 698.873 264.492 709.959Z" fill="#CFCFCF"/>
<path d="M264.492 709.96V747.199L263.497 748.918C244.494 737.956 223.336 725.75 202.178 713.524V674.337C223.274 686.522 244.349 698.707 263.269 709.628C263.559 709.794 263.849 709.96 264.16 710.146C264.264 710.084 264.388 710.022 264.492 709.96Z" fill="#CFCFCF"/>
<path d="M326.8 713.524C305.268 725.958 283.737 738.391 264.486 749.499C264.196 749.333 263.906 749.167 263.595 748.981C263.553 748.96 263.533 748.939 263.491 748.918L264.486 747.198V709.959C283.655 698.873 305.061 686.522 326.468 674.15H326.8V713.524Z" fill="#CFCFCF"/>
<path d="M202.178 647.397C223.274 659.582 244.349 671.767 263.269 682.688C263.559 682.854 263.849 683.02 264.16 683.206C264.264 683.144 264.388 683.082 264.492 683.02V709.959C264.388 710.021 264.264 710.084 264.16 710.146C263.849 709.959 263.559 709.794 263.269 709.628C244.349 698.707 223.274 686.522 202.178 674.337V647.397Z" fill="#CFCFCF"/>
<path d="M324.715 709.945C303.944 721.939 283.172 733.931 262.401 745.92H266.585C245.783 733.98 225.012 721.989 204.271 709.945C199.644 707.271 195.464 714.431 200.087 717.102C217.113 726.942 234.144 736.773 251.18 746.597C254.769 748.669 258.312 750.868 261.956 752.826C266.009 754.998 270.829 750.626 274.313 748.614C282.711 743.769 291.108 738.921 299.505 734.072L328.892 717.102C333.51 714.435 329.34 707.269 324.708 709.945H324.715Z" fill="black"/>
<path d="M200.087 677.915C217.057 687.717 234.026 697.521 250.995 707.327C254.659 709.443 258.273 711.859 262.07 713.724C264.422 714.883 266.166 713.78 268.187 712.612L274.284 709.089C282.638 704.253 290.996 699.427 299.358 694.61C309.098 688.983 318.838 683.356 328.578 677.731C333.195 675.062 329.025 667.898 324.394 670.573C303.629 682.574 282.981 694.819 262.08 706.569H266.264C245.703 694.469 224.94 682.694 204.282 670.76C199.652 668.086 195.475 675.248 200.098 677.917L200.087 677.915Z" fill="black"/>
<path d="M200.087 650.976C217.057 660.778 234.026 670.582 250.995 680.388C254.659 682.504 258.273 684.92 262.07 686.785C264.422 687.943 266.166 686.841 268.187 685.672L274.284 682.149C282.638 677.314 290.996 672.488 299.358 667.67C309.098 662.043 318.838 656.417 328.578 650.791C333.195 648.122 329.025 640.958 324.394 643.634C303.629 655.634 282.981 667.88 262.08 679.629H266.264C245.703 667.529 224.94 655.755 204.282 643.82C199.652 641.147 195.475 648.309 200.098 650.978L200.087 650.976Z" fill="black"/>
<path d="M260.347 639.234V728.112C260.347 733.446 268.637 733.455 268.637 728.112V639.234C268.637 633.9 260.347 633.892 260.347 639.234Z" fill="black"/>
<path d="M324.715 582.851C303.943 594.846 283.172 606.837 262.401 618.826H266.585C245.783 606.887 225.012 594.896 204.271 582.851C199.642 580.178 195.464 587.338 200.087 590.009C217.005 599.783 233.929 609.552 250.858 619.315C254.615 621.485 258.319 623.897 262.185 625.86C264.691 627.128 266.374 626.108 268.61 624.824C270.654 623.644 272.699 622.464 274.744 621.284L299.524 606.985L328.911 590.015C333.528 587.348 329.359 580.182 324.727 582.858L324.715 582.851Z" fill="black"/>
<path d="M204.271 590.009C225.036 578.006 245.807 566.015 266.585 554.034H262.401C283.17 566.028 303.941 578.02 324.715 590.009C329.34 592.684 333.52 585.522 328.899 582.851C308.133 570.849 287.362 558.857 266.585 546.876C265.948 546.511 265.227 546.318 264.493 546.318C263.759 546.318 263.038 546.511 262.401 546.876C241.631 558.871 220.86 570.862 200.087 582.851C195.47 585.52 199.64 592.686 204.271 590.009Z" fill="black"/>
<path d="M198.034 586.43V713.524C198.034 718.858 206.323 718.866 206.323 713.524V586.43C206.323 581.096 198.034 581.088 198.034 586.43Z" fill="black"/>
<path d="M322.655 586.43V713.524C322.655 718.858 330.944 718.866 330.944 713.524V586.43C330.944 581.096 322.655 581.088 322.655 586.43Z" fill="black"/>
<path d="M102.537 751.527C115.488 744.05 128.436 736.566 141.379 729.074C145.997 726.407 141.827 719.241 137.196 721.916C124.248 729.399 111.3 736.884 98.3526 744.372C93.7355 747.037 97.905 754.203 102.537 751.527Z" fill="black"/>
<path d="M514.569 739.243L534.024 728.011L553.477 739.243C553.477 739.626 553.477 776.057 553.477 776.852L534.024 788.082L533.746 787.923L514.569 776.85C514.569 775.992 514.571 739.821 514.569 739.243Z" fill="#CFCFCF"/>
<path d="M551.386 773.272L531.931 784.504H536.115L516.662 773.272C512.033 770.599 507.855 777.76 512.478 780.429L531.931 791.661C532.567 792.028 533.289 792.221 534.023 792.221C534.757 792.221 535.479 792.028 536.115 791.661L555.57 780.429C560.189 777.762 556.019 770.596 551.386 773.272Z" fill="black"/>
<path d="M516.662 742.822L536.115 731.59H531.931C538.417 735.332 544.902 739.076 551.386 742.822C556.015 745.495 560.193 738.333 555.57 735.664L536.115 724.432C535.479 724.066 534.757 723.873 534.023 723.873C533.289 723.873 532.567 724.066 531.931 724.432L512.478 735.664C507.859 738.331 512.029 745.497 516.662 742.822Z" fill="black"/>
<path d="M510.425 739.243C510.443 750.12 510.425 761.002 510.425 771.873V776.846C510.425 782.18 518.714 782.189 518.714 776.846V744.073C518.714 742.462 518.714 740.852 518.714 739.243C518.714 733.911 510.425 733.9 510.425 739.243Z" fill="black"/>
<path d="M549.332 739.243C549.353 750.12 549.332 761.002 549.332 771.873V776.847C549.332 782.181 557.621 782.189 557.621 776.847C557.621 765.92 557.621 754.994 557.621 744.069C557.621 742.459 557.621 740.849 557.621 739.239C557.621 733.907 549.332 733.896 549.332 739.239V739.243Z" fill="black"/>
<path d="M561.59 713.103C561.59 705.391 561.59 697.68 561.59 689.968C561.578 689.243 561.379 688.533 561.01 687.909C560.642 687.284 560.117 686.766 559.489 686.405C558.86 686.044 558.148 685.853 557.423 685.85C556.697 685.847 555.984 686.033 555.352 686.389L479.417 730.224C478.794 730.591 478.277 731.114 477.917 731.742C477.556 732.369 477.366 733.08 477.364 733.803C477.364 764.576 477.37 795.351 477.382 826.125C477.393 826.85 477.593 827.56 477.961 828.185C478.329 828.809 478.853 829.328 479.482 829.689C480.111 830.05 480.823 830.241 481.548 830.243C482.273 830.246 482.986 830.06 483.618 829.704L501.688 819.262C506.307 816.597 502.138 809.431 497.504 812.106L479.432 822.54L485.669 826.119C485.669 795.346 485.663 764.572 485.651 733.797L483.597 737.376L559.534 693.541L553.301 689.968C553.301 697.68 553.301 705.391 553.301 713.103C553.301 718.437 561.59 718.445 561.59 713.103Z" fill="black"/>
<path d="M411.421 817.43C434.526 804.09 457.622 790.739 480.71 777.377L499.5 766.516C504.117 763.849 499.947 756.683 495.316 759.358C470.034 773.971 444.752 788.586 419.47 803.206C415.393 805.563 411.318 807.918 407.244 810.272C402.627 812.939 406.796 820.105 411.428 817.43H411.421Z" fill="black"/>
<path d="M455.074 814.05C469.887 805.497 484.694 796.937 499.498 788.37C504.115 785.703 499.945 778.537 495.314 781.213C480.505 789.771 465.698 798.331 450.892 806.892C446.273 809.56 450.442 816.723 455.074 814.05Z" fill="black"/>
<path d="M636.509 664.767C634.878 663.82 633.127 662.798 631.287 661.727C630.056 661.006 628.655 660.624 627.229 660.62C625.802 660.615 624.399 660.989 623.164 661.702L580.014 686.646C579.032 687.213 578.215 688.029 577.647 689.011C577.079 689.993 576.778 691.107 576.775 692.241C576.775 698.784 576.775 712.177 576.775 718.684C576.776 719.815 577.073 720.926 577.638 721.905C578.204 722.885 579.017 723.698 579.996 724.264C586.778 728.202 602.105 737.113 604.355 738.399" fill="#CFCFCF"/>
<path d="M542.153 764.968C541.932 764.923 541.71 764.883 541.484 764.852C540.349 764.644 539.178 764.745 538.095 765.143C537.011 765.541 536.054 766.222 535.323 767.115C534.792 767.841 534.521 768.724 534.552 769.623C534.764 770.967 535.396 772.211 536.357 773.174C540.065 777.616 544.485 781.41 549.437 784.4C545.284 786.051 541.909 789.211 539.988 793.247C539.264 794.873 538.94 796.649 539.045 798.426C539.15 800.203 539.68 801.929 540.591 803.459C542.052 805.417 543.882 807.07 545.979 808.325L550.436 811.398C552.681 812.944 555.23 814.566 557.921 814.131C558.521 813.959 559.147 813.902 559.768 813.963C560.411 814.179 560.975 814.583 561.386 815.122L565.5 819.544C569.773 813.493 575.697 805.384 580.006 799.691C577.455 796.976 575.494 793.761 574.247 790.25C573.814 788.713 573.269 787.21 572.616 785.753C570.839 782.867 568.405 780.441 565.512 778.674C561.138 775.518 552.413 770.313 547.802 767.511C546.075 766.353 544.166 765.493 542.153 764.968Z" fill="#CFCFCF"/>
<path d="M672.181 757.479C666.421 756.371 660.489 756.527 654.795 757.937C643.381 760.158 632.238 761.967 623.53 768.01C619.504 770.845 616.1 774.475 613.529 778.676C610.251 783.973 602.204 797.269 597.969 804.066C595.088 802.286 591.13 799.387 587.814 797.051C586.805 796.336 585.558 796.04 584.335 796.226C583.111 796.411 582.008 797.064 581.256 798.046C576.462 804.323 568.778 814.831 564.089 821.562C563.43 822.503 563.133 823.65 563.252 824.792C563.371 825.934 563.899 826.995 564.738 827.779C570.847 833.513 580.833 842.652 586.783 845.791C590.359 847.631 594.474 848.132 598.387 847.205C602.396 846.264 606.208 844.624 609.648 842.36C609.617 850.649 609.605 855.935 609.605 855.935C609.588 862.374 609.872 869.755 609.872 869.755C609.729 873.228 611.553 879.081 614.4 881.037C616.932 882.784 620.31 883.569 627.907 884.951C645.594 888.168 661.217 885.834 681.409 882.545C684.748 882.002 690.374 880.527 692.185 878.351C694.488 875.589 694.367 872.665 694.492 868.551C695.447 836.905 697.287 813.312 691.758 786.313C690.028 777.862 687.614 769.075 681.565 762.927C679.016 760.259 675.762 758.369 672.181 757.479Z" fill="#CFCFCF"/>
<path d="M613.913 743.209C616.53 745.907 619.675 748.036 623.153 749.462C626.63 750.888 630.364 751.582 634.122 751.498L637.15 761.837C642.745 760.19 648.723 759.106 654.795 757.925C655.831 757.717 656.83 757.554 657.806 757.402L658.171 757.164C651.66 750.225 646.304 742.286 642.307 733.65C642.307 733.65 641.876 732.589 641.271 731.088C643.628 729.676 645.516 727.6 646.699 725.12C647.972 722.637 648.524 719.847 648.293 717.065C648.062 714.284 647.058 711.623 645.393 709.383C643.654 707.279 641.217 705.868 638.526 705.409C635.835 704.949 633.069 705.47 630.73 706.878C629.267 703.096 627.258 695.356 626.805 693.823C622.297 690.608 617.591 687.682 612.713 685.063L612.419 685.455C608.465 690.861 605.667 697.023 604.198 703.558C602.729 710.092 602.621 716.859 603.881 723.438C605.209 730.871 608.698 737.748 613.913 743.209Z" fill="#CFCFCF"/>
<path d="M687.206 733.283L687.355 733.022C692.362 724.31 694.365 714.194 693.053 704.232C690.185 684.28 673.22 667.583 653.085 666.443C645.344 665.993 637.611 667.457 630.57 670.707C623.53 673.957 617.399 678.892 612.719 685.075C617.597 687.694 622.303 690.62 626.811 693.835C627.265 695.368 629.273 703.108 630.736 706.89C633.075 705.483 635.841 704.961 638.533 705.421C641.224 705.881 643.66 707.291 645.399 709.396C647.064 711.636 648.069 714.297 648.299 717.078C648.53 719.859 647.978 722.649 646.705 725.133C645.522 727.613 643.634 729.689 641.277 731.101C641.899 732.641 642.314 733.662 642.314 733.662C646.31 742.298 651.666 750.237 658.177 757.176L658.336 757.334C661.728 756.767 665.176 756.613 668.605 756.876C669.957 754.281 671.762 751.948 673.935 749.988C679.604 743.744 683.714 739.367 687.206 733.283Z" fill="#7A7473"/>
<path d="M564.323 812.193C563.644 811.417 562.801 810.801 561.856 810.39C560.91 809.979 559.885 809.783 558.854 809.816C558.001 809.973 557.125 809.959 556.277 809.775C555.429 809.59 554.627 809.239 553.916 808.741C550.591 806.947 547.52 804.716 544.786 802.11C539.783 796.535 546.628 790.206 551.531 787.989C554.496 786.648 553.951 782.321 551.531 780.831C548.379 778.913 545.453 776.645 542.811 774.069C541.538 772.892 540.361 771.616 539.288 770.254C538.612 769.34 538.486 769.577 539.145 769.166C541.453 767.732 545.326 770.868 547.154 771.974C549.66 773.491 552.163 775.006 554.652 776.546C557.141 778.085 559.625 779.64 562.035 781.291C564.502 782.731 566.68 784.617 568.459 786.851C570.289 789.578 570.704 793.176 572.27 796.092C573.493 798.045 574.853 799.91 576.34 801.67C576.918 802.594 577.827 803.262 578.881 803.538C579.934 803.814 581.054 803.677 582.01 803.156C582.954 802.597 583.639 801.688 583.918 800.627C584.196 799.565 584.045 798.437 583.498 797.486C582.082 795.813 580.778 794.048 579.594 792.204C577.957 789.292 577.546 785.869 575.826 782.991C572.693 777.752 566.723 774.357 561.689 771.179C556.525 767.908 551.17 763.963 545.472 761.706C539.236 759.238 529.722 762.036 530.489 770.203C530.866 774.237 534.505 777.586 537.267 780.251C540.34 783.193 543.721 785.793 547.353 788.008V780.85C539.161 784.555 532.346 793.621 535.748 802.905C537.518 807.734 541.702 810.421 545.753 813.213C547.695 814.69 549.761 815.996 551.929 817.115C552.978 817.616 554.089 817.976 555.232 818.188C556.312 818.373 558.374 817.861 559.285 818.244L557.456 817.179C557.83 817.434 558.169 817.737 558.465 818.081C562.195 821.898 568.064 816.035 564.325 812.22L564.323 812.193Z" fill="black"/>
<path d="M692.571 1001.81L690.498 1000.69C683.944 1003.85 663.279 1004.24 659.364 1001.41C651.89 1010 641.118 1011.24 631.434 1009.94C630.109 1009.84 628.8 1009.58 627.538 1009.16C624.068 1007.99 620.871 1006.13 618.138 1003.7C618.111 1003.67 618.074 1003.65 618.047 1003.63L616.855 1003.74C615.258 1002.78 610.386 1003.76 608.39 1006.77C606.395 1009.78 606.463 1015.56 607.592 1019C610.05 1026.47 617.241 1030.26 624.639 1032.92C632.269 1035.8 640.544 1036.54 648.564 1035.05C650.251 1034.63 651.832 1033.86 653.206 1032.8C654.579 1031.73 655.715 1030.39 656.54 1028.86C657.507 1027.04 658.124 1025.06 658.361 1023.02L671.085 1025.95C673.68 1026.61 676.348 1026.96 679.028 1026.97C680.214 1026.97 681.457 1026.89 682.827 1026.75C684.688 1026.64 686.505 1026.13 688.144 1025.24C689.783 1024.36 691.205 1023.11 692.307 1021.61C693.565 1019.2 694.206 1016.52 694.172 1013.81C694.255 1011.07 692.484 1004.52 692.571 1001.81Z" fill="#CFCFCF"/>
<path d="M645.747 886.495C639.768 886.537 633.797 886.022 627.913 884.96C619.363 883.405 616.157 882.603 613.486 880.34C613.328 899.01 614.806 972.315 616.254 998.96L616.696 1001.17C617.334 1004.36 622.291 1007.08 627.523 1009.16C628.785 1009.58 630.094 1009.84 631.419 1009.94C641.103 1011.24 651.875 1010 659.347 1001.4C664.137 1004.87 693.994 1003.52 692.429 998.171C691.466 971.693 690.616 918.197 691.393 894.453C691.393 894.453 691.186 886.309 691.004 879.387C688.025 881.009 684.78 882.081 681.421 882.554C669.652 884.8 657.723 886.118 645.747 886.495Z" fill="#CFCFCF"/>
<path d="M609.339 885.474C609.435 916.316 610.206 947.18 611.244 978.003C611.482 985.078 611.737 992.153 612.122 999.221C612.411 1004.53 620.702 1004.56 620.412 999.221C618.735 968.431 618.317 937.536 617.85 906.71C617.745 899.632 617.643 892.553 617.629 885.474C617.612 880.14 609.323 880.129 609.339 885.474Z" fill="black"/>
<path d="M687.243 894.453C686.325 923.322 687.046 952.301 687.773 981.168C687.947 988.05 688.146 994.932 688.426 1001.81C688.633 1007.13 696.922 1007.15 696.715 1001.81C695.542 972.937 695.155 943.993 695.238 915.101C695.258 908.217 695.312 901.333 695.532 894.453C695.702 889.117 687.413 889.123 687.243 894.453Z" fill="black"/>
<path d="M654.722 923.859C653.549 946.654 652.926 969.534 652.689 992.36C652.65 996.298 652.511 1000.28 652.805 1004.21C653.201 1009.49 661.492 1009.54 661.094 1004.21C660.431 995.365 661.041 986.309 661.24 977.46C661.532 964.554 661.917 951.649 662.394 938.746C662.574 933.773 662.754 928.82 663.016 923.859C663.289 918.529 655 918.543 654.726 923.859H654.722Z" fill="black"/>
<path d="M612.7 1002.27C613.737 1006.32 617.508 1008.94 621.023 1010.77C623.126 1011.96 625.363 1012.89 627.687 1013.54C629.92 1014.01 632.186 1014.3 634.464 1014.41C643.327 1015.3 652.195 1012.76 659.24 1007.3C660.011 1006.52 660.444 1005.47 660.444 1004.37C660.444 1003.27 660.011 1002.22 659.24 1001.44C658.45 1000.69 657.401 1000.27 656.31 1000.27C655.218 1000.27 654.169 1000.69 653.379 1001.44C648.254 1005.12 641.969 1006.8 635.692 1006.19C632.497 1006.17 629.34 1005.5 626.417 1004.21C624.852 1003.54 623.368 1002.69 621.997 1001.68C621.589 1001.33 621.207 1000.95 620.851 1000.55C621.028 1000.76 620.98 1000.66 620.708 1000.26C620.836 1000.6 620.83 1000.54 620.693 1000.08C619.365 994.913 611.368 997.102 612.7 1002.28V1002.27Z" fill="black"/>
<path d="M659.841 1006.13C665.132 1007.45 670.609 1007.87 676.04 1007.37C681.703 1007.41 687.32 1006.36 692.585 1004.28C693.527 1003.72 694.211 1002.81 694.49 1001.75C694.768 1000.69 694.618 999.558 694.073 998.606C693.501 997.676 692.592 997.002 691.535 996.725C690.479 996.448 689.356 996.59 688.401 997.12C687.657 997.466 689.373 996.795 688.538 997.069C688.331 997.133 688.14 997.214 687.939 997.276C687.454 997.442 686.963 997.582 686.468 997.713C685.322 998.014 684.157 998.239 682.988 998.43C682.698 998.478 682.406 998.519 682.116 998.563C681.621 998.641 682.777 998.49 681.96 998.585C681.277 998.664 680.593 998.743 679.909 998.807C678.491 998.945 677.071 999.04 675.648 999.091C672.946 999.211 670.239 999.186 667.539 999.017C666.973 998.979 666.409 998.933 665.848 998.878C665.529 998.844 665.21 998.799 664.891 998.77C666.012 998.871 665.003 998.784 664.794 998.751C663.864 998.609 662.945 998.401 662.044 998.13C661.519 997.985 660.971 997.945 660.43 998.012C659.89 998.08 659.369 998.252 658.895 998.521C658.422 998.79 658.006 999.15 657.672 999.579C657.337 1000.01 657.091 1000.5 656.946 1001.02C656.801 1001.55 656.761 1002.1 656.829 1002.64C656.896 1003.18 657.069 1003.7 657.338 1004.17C657.606 1004.65 657.966 1005.06 658.395 1005.4C658.825 1005.73 659.316 1005.98 659.841 1006.12V1006.13Z" fill="black"/>
<path d="M618.948 1000.15C617.306 999.463 615.524 999.183 613.751 999.331C611.979 999.478 610.267 1000.05 608.761 1001C607.037 1002.05 605.596 1003.51 604.563 1005.24C603.529 1006.98 602.935 1008.94 602.83 1010.96C602.373 1015 603.06 1019.09 604.813 1022.77C606.566 1026.44 609.314 1029.54 612.746 1031.73C620.466 1036.72 629.386 1039.55 638.573 1039.91C647.32 1040.35 656.772 1038.5 660.715 1029.72C664.101 1022.17 662.738 1013.27 660.945 1005.5C659.747 1000.31 651.753 1002.5 652.952 1007.7C653.958 1011.65 654.466 1015.71 654.463 1019.78C654.465 1021 654.345 1022.22 654.102 1023.41C653.974 1023.97 653.841 1024.53 653.667 1025.09C653.613 1025.26 653.015 1026.71 653.412 1025.86C649.856 1033.52 638.971 1032.25 632.107 1030.75C625.374 1029.27 616.428 1026.43 612.651 1020.13C611.001 1017.29 610.49 1013.93 611.221 1010.72C611.286 1010.13 611.504 1009.57 611.853 1009.1C612.201 1008.62 612.668 1008.24 613.208 1008C613.765 1007.75 614.426 1007.74 614.969 1007.49C615.233 1007.37 615.531 1007.67 614.762 1007.31C619.549 1009.6 623.76 1002.46 618.948 1000.15Z" fill="black"/>
<path d="M688.426 1001.81C688.592 1004.93 689.038 1008.03 689.758 1011.07C689.86 1011.49 689.929 1011.91 689.966 1012.33C689.966 1011.24 689.932 1012.09 689.966 1012.37C690.027 1012.96 690.045 1013.56 690.022 1014.15C690.001 1014.65 689.953 1015.15 689.914 1015.65C689.841 1016.62 690.036 1015.22 689.852 1016.11C689.744 1016.63 689.644 1017.14 689.51 1017.66C689.468 1017.81 689.077 1018.98 689.213 1018.64C689.35 1018.3 688.799 1019.36 688.741 1019.5C688.465 1019.89 688.465 1019.91 688.741 1019.56C688.625 1019.7 688.505 1019.84 688.38 1019.97C688.09 1020.28 687.78 1020.58 687.452 1020.85C688.1 1020.31 687.095 1021.06 686.938 1021.16C686.563 1021.39 686.177 1021.58 685.788 1021.78C685.349 1021.98 685.333 1021.99 685.74 1021.81C685.564 1021.87 685.386 1021.94 685.208 1021.99C684.369 1022.26 683.515 1022.46 682.65 1022.62C682.346 1022.66 682.407 1022.65 682.833 1022.59C682.522 1022.62 682.211 1022.65 681.898 1022.68C681.382 1022.72 680.862 1022.76 680.348 1022.78C679.384 1022.82 678.421 1022.82 677.457 1022.78C676.993 1022.75 676.529 1022.71 676.065 1022.67C675.567 1022.62 675.536 1022.62 675.971 1022.67C675.764 1022.64 675.567 1022.62 675.366 1022.58C674.301 1022.41 673.244 1022.19 672.194 1021.94C671.134 1021.65 670.001 1021.79 669.045 1022.33C668.089 1022.87 667.388 1023.78 667.096 1024.84C666.804 1025.89 666.945 1027.03 667.487 1027.98C668.03 1028.94 668.931 1029.64 669.991 1029.93C678.57 1031.94 690.826 1032.23 695.986 1023.53C697.968 1019.86 698.725 1015.66 698.147 1011.53C697.886 1009.52 697.513 1007.53 697.158 1005.52C697.08 1005.09 697.003 1004.65 696.933 1004.21C696.897 1004 696.864 1003.8 696.831 1003.59C696.762 1003.11 696.77 1003.18 696.854 1003.8C696.696 1003.15 696.651 1002.48 696.721 1001.82C696.721 1000.72 696.285 999.669 695.507 998.892C694.73 998.114 693.676 997.678 692.577 997.678C691.477 997.678 690.423 998.114 689.646 998.892C688.869 999.669 688.432 1000.72 688.432 1001.82L688.426 1001.81Z" fill="black"/>
<path d="M605.466 855.941C605.466 860.55 605.611 865.153 605.734 869.762C605.864 874.785 607.408 880.672 611.474 883.973C614.968 886.81 619.763 887.618 624.046 888.441C630.302 889.695 636.652 890.422 643.029 890.613C656.241 890.901 669.535 888.804 682.518 886.547C687.417 885.697 693.294 884.239 696.228 879.854C699.612 874.783 698.671 867.407 698.87 861.617C699.73 836.358 700.92 811.025 695.936 786.078C693.721 774.986 690.086 762.813 680.002 756.354C670.242 750.104 657.968 753.059 647.426 755.152C640.483 756.333 633.707 758.341 627.242 761.132C620.628 764.234 614.978 769.071 610.896 775.129C604.915 783.903 599.788 793.319 594.164 802.327C591.329 806.866 598.497 811.031 601.32 806.511C605.999 799.018 610.556 791.452 615.169 783.923C617.42 779.868 620.309 776.201 623.725 773.062C628.054 769.627 633.06 767.144 638.416 765.778C643.998 764.147 649.741 763.118 655.446 762.023C660.108 760.889 664.937 760.602 669.701 761.178C679.213 762.854 683.774 771.941 686.13 780.461C692.061 801.88 691.787 824.6 691.103 846.61C690.909 852.761 690.675 858.911 690.482 865.053C690.357 868.887 691.518 874.849 687.259 876.708C682.429 878.813 676.674 879.166 671.531 879.951C665.77 880.83 659.99 881.609 654.175 882.023C647.905 882.509 641.604 882.455 635.342 881.862C629.74 881.442 624.206 880.371 618.851 878.672C617.591 878.333 616.505 877.53 615.811 876.424C614.682 874.487 614.07 872.292 614.035 870.05C613.856 865.352 613.768 860.651 613.772 855.946C613.772 850.612 605.483 850.603 605.483 855.946L605.466 855.941Z" fill="black"/>
<path d="M672.664 758.065C674.945 754.787 677.545 751.744 680.427 748.98C683.622 745.541 686.549 741.863 689.182 737.976C694.545 729.823 697.47 720.309 697.614 710.552C697.552 702.232 695.386 694.064 691.318 686.806C687.249 679.549 681.411 673.438 674.347 669.044C659.897 660.052 641.487 660.34 626.556 668.066C618.527 672.355 611.755 678.662 606.908 686.366C602.06 694.07 599.304 702.904 598.911 711.998C597.923 732.545 611.061 756.345 634.115 755.647C639.437 755.485 639.46 747.196 634.115 747.358C617.044 747.876 607.495 730.539 607.155 715.403C606.953 707.693 608.775 700.064 612.44 693.277C616.105 686.49 621.485 680.783 628.044 676.724C640.015 669.502 655.562 668.151 668.02 674.942C673.961 678.177 679.009 682.834 682.712 688.495C686.415 694.157 688.659 700.647 689.242 707.387C689.777 716.878 687.165 726.28 681.811 734.134C679.247 737.796 676.411 741.259 673.327 744.496C670.409 747.346 667.792 750.49 665.519 753.877C662.806 758.484 669.97 762.659 672.676 758.059L672.664 758.065Z" fill="black"/>
<path d="M598.59 799.544C594.214 796.63 589.265 791.209 583.554 792.192C578.672 793.033 576.121 797.982 573.4 801.643C570.164 805.997 566.969 810.381 563.815 814.796C560.929 818.835 557.47 823.004 559.996 828.185C561.18 830.141 562.717 831.859 564.528 833.254C566.393 834.98 568.283 836.692 570.196 838.37C573.855 841.685 577.72 844.765 581.768 847.592C585.969 850.626 591.105 852.081 596.274 851.701C601.539 851.07 606.591 849.251 611.051 846.382C621.108 840.165 628.344 830.483 635.183 821.059C635.729 820.108 635.88 818.98 635.602 817.919C635.324 816.858 634.64 815.949 633.697 815.389C632.742 814.858 631.619 814.716 630.563 814.993C629.506 815.27 628.597 815.944 628.025 816.875C623.34 823.818 617.831 830.169 611.619 835.788C606.001 840.53 597.15 845.688 589.64 842.6C586.549 841.086 583.689 839.141 581.144 836.825C577.917 834.201 574.805 831.437 571.738 828.631C570.363 827.555 569.08 826.365 567.904 825.075C566.949 823.831 567.974 823.21 568.832 821.995C571.261 818.551 573.722 815.129 576.214 811.729C577.653 809.756 579.104 807.789 580.566 805.827C581.649 804.079 582.886 802.431 584.26 800.901C584.702 800.487 584.716 800.334 585.315 800.325C585.332 800.325 587.037 801.554 587.522 801.896C589.802 803.519 592.081 805.15 594.415 806.702C598.868 809.667 603.023 802.491 598.599 799.544H598.59Z" fill="black"/>
<path d="M612.24 689.537C616.587 691.849 620.756 694.481 624.713 697.412L622.807 694.935C624.015 699.053 625.02 703.224 626.467 707.274C626.611 707.798 626.858 708.29 627.192 708.719C627.527 709.149 627.943 709.508 628.416 709.777C628.889 710.046 629.411 710.219 629.951 710.286C630.491 710.353 631.04 710.313 631.564 710.169C632.089 710.024 632.58 709.777 633.01 709.443C633.439 709.108 633.799 708.693 634.068 708.219C634.336 707.746 634.509 707.224 634.577 706.684C634.644 706.144 634.604 705.596 634.459 705.071C633.593 702.646 632.878 700.166 632.18 697.689C631.873 696.596 631.571 695.504 631.272 694.413C631.078 692.949 630.388 691.596 629.318 690.579C625.275 687.465 620.96 684.72 616.426 682.377C615.956 682.102 615.437 681.923 614.898 681.849C614.358 681.775 613.81 681.808 613.283 681.946C612.756 682.084 612.262 682.325 611.829 682.654C611.395 682.983 611.03 683.394 610.756 683.864C610.481 684.334 610.301 684.853 610.227 685.393C610.153 685.932 610.186 686.481 610.325 687.007C610.463 687.534 610.703 688.028 611.032 688.462C611.361 688.895 611.772 689.26 612.242 689.535L612.24 689.537Z" fill="black"/>
<path d="M632.555 710.656C632.918 710.39 633.298 710.149 633.693 709.933C634.047 709.742 634.584 709.605 633.921 709.808C634.335 709.678 634.774 709.57 635.199 709.443C636.099 709.174 634.551 709.431 635.419 709.396C635.869 709.377 636.312 709.348 636.762 709.365C637.176 709.379 637.734 709.458 637.006 709.344C637.789 709.484 638.559 709.681 639.313 709.935C639.755 710.105 639.741 710.095 639.271 709.906C639.478 710.001 639.686 710.1 639.893 710.208C640.193 710.368 640.49 710.54 640.776 710.726C640.966 710.848 641.153 710.977 641.337 711.112C640.949 710.809 640.935 710.809 641.294 711.112C641.534 711.352 641.791 711.572 642.025 711.822C642.181 711.988 642.33 712.158 642.473 712.334C642.215 711.993 642.224 712.016 642.5 712.403C642.695 712.726 642.904 713.024 643.086 713.364C643.204 713.584 643.318 713.806 643.426 714.032C643.262 713.617 643.267 713.632 643.443 714.075C643.586 714.489 643.727 714.904 643.841 715.318C643.955 715.733 644.048 716.172 644.12 716.603C643.948 715.7 644.151 716.991 644.164 717.192C644.189 717.635 644.195 718.077 644.182 718.52C644.182 718.657 644.095 719.946 644.139 719.488C644.182 719.03 643.992 720.298 643.959 720.441C643.863 720.876 643.751 721.305 643.619 721.732C643.486 722.159 643.345 722.578 643.175 722.988C643.499 722.209 642.956 723.382 642.877 723.529C642.67 723.908 642.462 724.281 642.218 724.642C642.083 724.849 641.944 725.056 641.804 725.253C642.04 724.956 642.066 724.921 641.882 725.147C641.32 725.8 640.713 726.412 640.065 726.979C639.839 727.166 639.876 727.135 640.181 726.89C639.974 727.031 639.781 727.166 639.574 727.305C639.213 727.528 638.834 727.709 638.461 727.912C638.192 728.038 638.243 728.015 638.62 727.845C638.393 727.928 638.165 728.003 637.932 728.071C637.465 728.2 636.989 728.297 636.509 728.363C635.449 728.656 634.549 729.358 634.005 730.313C633.461 731.269 633.318 732.401 633.608 733.461C633.927 734.504 634.633 735.385 635.581 735.924C636.528 736.463 637.646 736.62 638.705 736.362C646.81 735.183 651.852 726.882 652.43 719.297C652.798 715.435 651.815 711.565 649.649 708.346C647.482 705.127 644.267 702.76 640.55 701.648C638.508 701.055 636.361 700.914 634.259 701.237C632.157 701.559 630.15 702.335 628.379 703.513C627.449 704.085 626.776 704.993 626.499 706.049C626.222 707.106 626.363 708.228 626.893 709.182C627.456 710.122 628.365 710.805 629.425 711.083C630.485 711.361 631.611 711.213 632.563 710.67L632.555 710.656Z" fill="black"/>
<path d="M638.312 734.765C640.266 739.352 642.677 743.732 645.509 747.837C648.348 752.234 651.61 756.344 655.248 760.107C655.631 760.502 656.088 760.818 656.594 761.035C657.099 761.253 657.643 761.367 658.194 761.372C658.744 761.377 659.29 761.272 659.799 761.063C660.308 760.855 660.771 760.547 661.16 760.158C661.549 759.769 661.857 759.306 662.066 758.797C662.274 758.287 662.379 757.742 662.374 757.191C662.369 756.641 662.255 756.097 662.038 755.592C661.82 755.086 661.505 754.629 661.109 754.246C659.565 752.683 658.112 751.033 656.757 749.304C656.693 749.221 655.982 748.311 656.55 749.049C656.37 748.817 656.193 748.583 656.017 748.348C655.622 747.826 655.233 747.3 654.851 746.769C654.109 745.743 653.385 744.707 652.681 743.661C651.319 741.628 650.022 739.554 648.814 737.425C648.273 736.47 647.751 735.507 647.258 734.524C647.042 734.099 646.835 733.67 646.636 733.239C646.522 732.995 646.414 732.75 646.3 732.506C645.96 731.772 646.642 733.335 646.323 732.566C646.008 731.521 645.303 730.636 644.354 730.096C643.405 729.556 642.285 729.402 641.225 729.665C640.17 729.964 639.274 730.667 638.732 731.62C638.189 732.574 638.043 733.702 638.324 734.763L638.312 734.765Z" fill="black"/>
<path d="M611.752 707.182C611.135 703.237 611.865 699.2 613.824 695.721C615.513 692.229 617.739 689.023 620.42 686.219C626.383 680.3 633.501 675.672 641.329 672.621C642.371 672.299 643.251 671.593 643.789 670.645C644.328 669.698 644.486 668.581 644.23 667.521C643.934 666.463 643.232 665.566 642.278 665.022C641.323 664.479 640.193 664.334 639.133 664.62C629.735 668.582 620.604 673.611 613.702 681.285C607.143 688.575 601.284 699.299 603.755 709.379C605.027 714.56 613.022 712.363 611.749 707.176L611.752 707.182Z" fill="black"/>
</g>
<g opacity="0.6">
<path d="M695.575 712.523C695.579 712.962 695.49 713.397 695.314 713.799C695.137 714.201 694.877 714.562 694.552 714.856C689.48 719.678 683.751 723.756 677.534 726.969C667.506 731.587 656.581 733.929 645.542 733.828C637.686 733.683 629.89 732.431 622.384 730.108C615.389 727.487 608.891 723.693 603.17 718.889C602.373 718.249 601.73 717.437 601.289 716.515C600.848 715.593 600.62 714.583 600.621 713.561V705.962C600.621 705.407 600.768 704.861 601.048 704.382C601.327 703.902 601.729 703.505 602.212 703.231C602.695 702.957 603.242 702.816 603.798 702.823C604.353 702.829 604.896 702.983 605.373 703.268C610.481 706.329 616.149 710.492 622.399 712.823C630.171 715.683 638.378 717.181 646.659 717.25C655.357 716.932 663.882 714.73 671.645 710.795C677.001 708.37 682.108 704.248 687.125 700.79C687.958 700.255 688.921 699.955 689.91 699.923C690.9 699.891 691.88 700.127 692.746 700.607C693.613 701.087 694.333 701.792 694.831 702.648C695.329 703.504 695.586 704.479 695.575 705.469V712.523Z" fill="#CFCFCF"/>
<path d="M691.431 712.523C691.497 711.874 692.075 711.779 691.087 712.4C690.793 712.623 690.516 712.866 690.258 713.13C689.585 713.72 688.907 714.305 688.223 714.885C686.799 716.087 685.349 717.254 683.838 718.344C680.556 720.754 677.006 722.774 673.259 724.366C666.243 727.263 658.811 729.024 651.241 729.584C644.577 729.99 637.889 729.522 631.347 728.193C623.222 726.536 615.566 723.095 608.933 718.118C607.014 716.721 604.875 715.583 604.772 713.037C604.689 710.964 604.963 708.853 604.772 706.793C604.672 705.728 604.772 706.012 604.127 706.896C603.792 707.352 602.353 705.976 603.989 707.261C604.331 707.5 604.686 707.721 605.052 707.922C606.026 708.529 606.993 709.149 607.953 709.764C611.498 712.117 615.229 714.177 619.108 715.923C633.657 722.301 650.065 723.014 665.113 717.923C669.334 716.486 673.416 714.669 677.308 712.494C679.449 711.25 681.494 709.839 683.525 708.405C684.545 707.682 685.556 706.954 686.573 706.223C687.456 705.418 688.442 704.733 689.504 704.186C692.585 703.204 691.431 710.888 691.431 712.523C691.431 717.857 699.72 717.865 699.72 712.523C699.72 707.135 700.578 701.055 695.536 697.495C693.873 696.346 691.891 695.751 689.87 695.792C687.85 695.833 685.894 696.509 684.279 697.725C680.178 700.508 676.318 703.639 671.947 706.014C663.919 710.557 654.871 712.992 645.648 713.093C636.736 713.076 627.941 711.06 619.912 707.193C615.707 705.033 611.923 702.209 607.816 699.896C606.879 699.3 605.821 698.923 604.718 698.791C603.616 698.659 602.498 698.776 601.447 699.134C600.396 699.492 599.439 700.082 598.647 700.859C597.854 701.637 597.246 702.583 596.868 703.626C596.372 705.978 596.24 708.391 596.476 710.782C596.167 713.83 596.801 716.9 598.292 719.577C600.571 723.011 604.95 725.557 608.355 727.752C612.394 730.378 616.734 732.51 621.282 734.101C629.78 736.84 638.672 738.162 647.6 738.012C657.45 737.881 667.181 735.847 676.26 732.023C681.196 729.954 685.84 727.246 690.071 723.968C694.009 720.949 699.189 717.838 699.72 712.523C699.712 711.426 699.273 710.376 698.498 709.6C697.722 708.825 696.672 708.386 695.575 708.378C694.484 708.402 693.443 708.846 692.671 709.618C691.899 710.391 691.455 711.431 691.431 712.523Z" fill="#F0A6CA"/>
<path d="M638.602 661.188C633.751 658.368 628.995 655.091 623.155 657.188C620.62 658.284 618.187 659.602 615.884 661.126L608.119 665.614L592.438 674.681L585.006 678.968C582.01 680.452 579.144 682.185 576.438 684.149C572.593 687.365 572.62 691.777 572.62 696.361C572.62 700.945 572.62 705.479 572.62 710.038C572.62 714.129 571.866 719.195 573.578 723.008C575.314 726.873 579.129 728.581 582.601 730.595C589.152 734.397 595.702 738.196 602.252 741.993C606.882 744.662 611.061 737.502 606.436 734.835C601.773 732.145 597.116 729.444 592.465 726.732L583.784 721.693C582.634 721.023 581.26 720.524 580.939 719.096C580.764 717.494 580.754 715.879 580.91 714.276C580.91 710.33 580.91 706.385 580.91 702.441V697.028C580.774 695.373 580.78 693.709 580.928 692.055C581.274 690.175 583.264 689.568 584.77 688.693L592.264 684.36L606.024 676.407L620.865 667.826C622.73 666.746 625.145 664.672 627.416 664.788C629.743 664.908 632.445 667.216 634.412 668.358C639.031 671.052 643.209 663.886 638.596 661.2L638.602 661.188Z" fill="#F0A6CA"/>
</g>
</g>
<g opacity="0.12">
<path fill-rule="evenodd" clip-rule="evenodd" d="M263.876 454.063C268.601 454.063 273.132 455.94 276.472 459.281C279.813 462.621 281.689 467.152 281.689 471.876C281.689 476.601 279.813 481.131 276.472 484.472C273.132 487.813 268.601 489.689 263.876 489.689C259.152 489.689 254.621 487.813 251.281 484.472C247.94 481.131 246.063 476.601 246.063 471.876C246.063 467.152 247.94 462.621 251.281 459.281C254.621 455.94 259.152 454.063 263.876 454.063ZM271.002 471.876C271.002 469.987 270.251 468.174 268.915 466.838C267.578 465.502 265.766 464.751 263.876 464.751C261.987 464.751 260.174 465.502 258.838 466.838C257.502 468.174 256.751 469.987 256.751 471.876C256.751 473.766 257.502 475.578 258.838 476.915C260.174 478.251 261.987 479.001 263.876 479.001C265.766 479.001 267.578 478.251 268.915 476.915C270.251 475.578 271.002 473.766 271.002 471.876Z" fill="black"/>
<path fill-rule="evenodd" clip-rule="evenodd" d="M263.877 422C291.394 422 313.753 444.188 313.753 471.62C313.756 478.2 312.443 484.715 309.892 490.78C307.341 496.846 303.603 502.34 298.897 506.94L267.403 534.671C266.428 535.528 265.175 536 263.877 536C262.578 536 261.325 535.528 260.35 534.671L228.856 506.94C224.15 502.34 220.412 496.846 217.861 490.78C215.31 484.715 213.997 478.2 214 471.62C214 444.188 236.359 422 263.877 422ZM303.065 471.62C303.065 450.145 285.551 432.688 263.877 432.688C242.202 432.688 224.688 450.145 224.688 471.62C224.688 482.308 229.013 491.984 236.045 499.031L263.877 523.541L291.708 499.031C295.312 495.434 298.171 491.162 300.12 486.458C302.069 481.754 303.07 476.712 303.065 471.62Z" fill="black"/>
</g>
<g opacity="0.12">
<path d="M114.929 197.998C114.929 209.607 117.216 221.101 121.658 231.826C126.1 242.55 132.611 252.295 140.819 260.503C149.028 268.711 158.772 275.222 169.497 279.665C180.221 284.107 191.716 286.393 203.324 286.393C214.932 286.393 226.427 284.107 237.151 279.665C247.876 275.222 257.621 268.711 265.829 260.503C274.037 252.295 280.548 242.55 284.99 231.826C289.433 221.101 291.719 209.607 291.719 197.998C291.719 186.39 289.433 174.896 284.99 164.171C280.548 153.447 274.037 143.702 265.829 135.494C257.621 127.286 247.876 120.774 237.151 116.332C226.427 111.89 214.932 109.604 203.324 109.604C191.716 109.604 180.221 111.89 169.497 116.332C158.772 120.774 149.028 127.286 140.819 135.494C132.611 143.702 126.1 153.447 121.658 164.171C117.216 174.896 114.929 186.39 114.929 197.998Z" fill="#5B5B5B"/>
<path d="M110.607 306.062C110.607 310.779 114.432 314.603 119.149 314.603C114.431 314.603 110.607 318.428 110.607 323.145C110.607 318.427 106.783 314.603 102.066 314.603C106.783 314.603 110.607 310.779 110.607 306.062Z" fill="#A3A3A3"/>
<path d="M114.941 331.328H106.271V323.144C106.271 320.824 104.386 318.939 102.066 318.939H93.8823V310.269H102.066C104.386 310.269 106.271 308.382 106.271 306.062V297.878H114.941V306.062C114.941 308.382 116.829 310.269 119.149 310.269V318.939C116.829 318.939 114.941 320.824 114.941 323.144V331.328ZM127.333 318.939H119.148V310.269H127.333V318.939Z" fill="#A3A3A3"/>
<path d="M348.992 228.305C348.992 231.463 351.552 234.023 354.71 234.023C351.552 234.023 348.992 236.583 348.992 239.742C348.992 236.583 346.432 234.023 343.273 234.023C346.432 234.023 348.992 231.463 348.992 228.305Z" fill="#A3A3A3"/>
<path d="M351.894 245.221H346.089V239.742C346.089 238.189 344.827 236.925 343.274 236.925H337.795V231.121H343.274C344.021 231.12 344.736 230.823 345.264 230.295C345.792 229.768 346.089 229.052 346.089 228.305V222.826H351.894V228.305C351.894 229.859 353.158 231.121 354.711 231.121V236.925C353.158 236.925 351.894 238.189 351.894 239.742V245.221ZM360.19 236.925H354.711V231.12H360.19V236.925Z" fill="#A3A3A3"/>
<path d="M312.07 246.344C312.07 251.061 315.894 254.885 320.611 254.885C315.893 254.885 312.07 258.71 312.07 263.427C312.07 258.709 308.245 254.885 303.528 254.885C308.245 254.886 312.07 251.061 312.07 246.344Z" fill="#A3A3A3"/>
<path d="M316.405 271.611H307.735V263.427C307.735 261.107 305.847 259.222 303.527 259.222H295.343V250.552H303.527C305.847 250.552 307.735 248.664 307.735 246.345V238.16H316.405V246.344C316.405 248.664 318.29 250.552 320.61 250.552V259.221C318.29 259.221 316.405 261.107 316.405 263.426V271.611ZM328.794 259.221H320.61V250.552H328.794V259.221Z" fill="#A3A3A3"/>
<path d="M280.132 304.437C280.132 307.658 282.743 310.269 285.964 310.269H291.553H285.965C282.743 310.269 280.132 312.881 280.132 316.102C280.132 312.881 277.521 310.269 274.299 310.269C277.52 310.27 280.132 307.659 280.132 304.437Z" fill="#A3A3A3"/>
<path d="M283.092 321.692H277.172V316.103C277.172 314.519 275.883 313.23 274.298 313.23H268.71V307.309H274.298C275.882 307.309 277.172 306.02 277.172 304.436V298.848H283.092V304.436C283.092 306.021 284.381 307.31 285.966 307.31V313.23C284.381 313.23 283.092 314.519 283.092 316.104L283.092 321.692ZM291.554 313.23H285.965V307.309H291.554V313.23Z" fill="#A3A3A3"/>
<path d="M58.4251 159.596C58.4251 164.314 62.2493 168.138 66.9665 168.138C62.2489 168.138 58.4251 171.962 58.4251 176.679C58.4251 171.962 54.6005 168.138 49.8833 168.138C54.6009 168.138 58.4251 164.314 58.4251 159.596Z" fill="#A3A3A3"/>
<path d="M62.7605 184.864H54.091V176.681C54.091 174.361 52.2027 172.473 49.8832 172.473H41.6992V163.803H49.8832C52.2031 163.803 54.091 161.915 54.091 159.595V151.411H62.7605V159.595C62.7605 161.915 64.6457 163.803 66.9652 163.803V172.473C64.6457 172.473 62.7605 174.361 62.7605 176.681V184.864ZM75.1496 172.473H66.9652V163.803H75.1496V172.473Z" fill="#A3A3A3"/>
<path d="M233.385 288.479C183.248 305.141 128.902 277.906 112.241 227.769C95.5797 177.632 122.815 123.286 172.952 106.625C223.089 89.9632 277.434 117.198 294.096 167.335C310.757 217.472 283.522 271.818 233.385 288.479ZM175.686 114.851C130.086 130.005 105.314 179.434 120.468 225.035C135.622 270.635 185.051 295.406 230.651 280.252C276.252 265.099 301.022 215.67 285.869 170.069C270.715 124.469 221.286 99.6976 175.686 114.851Z" fill="black"/>
<path d="M118.28 276.216C93.1492 284.568 73.2586 286.871 67.5633 277.172C59.4238 263.309 87.0043 237.127 111.578 217.604L116.97 224.395C77.6203 255.656 73.3602 269.925 75.0387 272.784C80.416 281.941 138.15 265.946 216.367 220.026C251.35 199.484 282.62 177.492 304.415 158.101C329.297 135.959 332.88 125.014 331.298 122.319C329.604 119.432 314.905 116.204 267.861 135.668L264.545 127.658C293.883 115.515 330.582 103.976 338.773 117.932C344.276 127.303 334.923 142.559 310.179 164.578C287.971 184.335 256.214 206.683 220.755 227.501C190.305 245.382 150.094 265.644 118.28 276.216Z" fill="black"/>
<path d="M78.7017 130.059C78.7017 131.924 79.069 133.771 79.7827 135.494C80.4963 137.217 81.5424 138.782 82.8611 140.101C84.1798 141.42 85.7453 142.466 87.4683 143.18C89.1912 143.893 91.0379 144.261 92.9028 144.261C94.7678 144.261 96.6144 143.893 98.3374 143.18C100.06 142.466 101.626 141.42 102.945 140.101C104.263 138.782 105.309 137.217 106.023 135.494C106.737 133.771 107.104 131.924 107.104 130.059C107.104 128.194 106.737 126.348 106.023 124.625C105.309 122.902 104.263 121.336 102.945 120.018C101.626 118.699 100.06 117.653 98.3374 116.939C96.6144 116.225 94.7678 115.858 92.9028 115.858C91.0379 115.858 89.1912 116.225 87.4683 116.939C85.7453 117.653 84.1798 118.699 82.8611 120.018C81.5424 121.336 80.4963 122.902 79.7827 124.625C79.069 126.348 78.7017 128.194 78.7017 130.059Z" fill="#5B5B5B"/>
<path d="M92.9044 148.595C82.6825 148.595 74.3657 140.281 74.3657 130.059C74.3657 119.837 82.6825 111.523 92.9044 111.523C103.126 111.523 111.44 119.837 111.44 130.059C111.44 140.281 103.126 148.595 92.9044 148.595ZM92.9044 120.193C87.463 120.193 83.0353 124.619 83.0353 130.06C83.0353 135.501 87.463 139.926 92.9044 139.926C98.3454 139.926 102.77 135.501 102.77 130.06C102.77 124.618 98.3454 120.193 92.9044 120.193Z" fill="black"/>
<path d="M251.162 119.685C255.19 111.784 256.183 102.341 253.166 93.2607C247.184 75.261 227.743 65.5177 209.743 71.4997C194.16 76.6782 184.788 91.9446 186.426 107.629C209.296 103.342 232.273 108.055 251.162 119.685Z" fill="#A3A3A3"/>
<path d="M252.893 125.838L248.889 123.374C230.386 111.983 208.487 107.906 187.225 111.891L182.606 112.757L182.116 108.081C180.244 90.1789 191.288 73.064 208.377 67.3851C228.616 60.6594 250.552 71.6531 257.279 91.8941C260.564 101.782 259.765 112.352 255.025 121.65L252.893 125.838ZM190.62 102.57C210.761 99.8828 231.18 103.69 249.078 113.465C251.101 107.372 251.112 100.828 249.052 94.6289C243.833 78.9242 226.813 70.3949 211.111 75.6129C199.33 79.5273 191.255 90.4425 190.62 102.57Z" fill="black"/>
<path d="M159.657 277.996C153.866 286.041 151.859 296.638 155.224 306.764C160.793 323.522 178.894 332.593 195.652 327.024C211.922 321.617 220.903 304.403 216.321 288.069C196.426 290.983 176.621 287.167 159.657 277.996Z" fill="#A3A3A3"/>
<path d="M197.02 331.138C178.019 337.453 157.424 327.131 151.11 308.13C147.454 297.129 149.335 284.917 156.137 275.463L158.363 272.371L161.716 274.183C178.384 283.192 197.048 286.512 215.693 283.781L219.464 283.227L220.494 286.899C225.736 305.59 215.425 325.022 197.02 331.138ZM161.215 283.672C157.672 290.319 156.946 298.2 159.337 305.396C164.143 319.861 179.822 327.718 194.286 322.911C207.104 318.652 214.762 305.9 212.909 292.863C195.097 294.717 177.379 291.568 161.215 283.672ZM254.506 155.741C254.437 155.621 247.049 142.96 233.9 136.37C220.677 129.744 206.986 130.767 206.849 130.778L206.127 122.215C206.78 122.159 222.29 120.939 237.75 128.687C253.289 136.475 261.625 150.876 261.972 151.485L254.506 155.741ZM265.411 157.044L270.046 166.532L262.325 170.304L257.69 160.816L265.411 157.044Z" fill="black"/>
</g>
</g>
<defs>
<clipPath id="clip0_33_976">
<rect width="800" height="1133" fill="white"/>
</clipPath>
<clipPath id="clip1_33_976">
<rect width="800" height="800" fill="white" transform="translate(0 333)"/>
</clipPath>
</defs>
</svg>
