<svg width="713" height="1020" viewBox="0 0 713 1020" fill="none" xmlns="http://www.w3.org/2000/svg">
<path fill-rule="evenodd" clip-rule="evenodd" d="M538.983 546.501C536.358 549.277 532.282 551.819 528.183 553.239C511.096 559.153 508.957 560.187 507.24 563.35C504.573 568.26 505.071 564.712 507.8 559.36C511.543 552.019 510.646 550.371 505.956 555.966C503.647 558.719 498.122 563.255 493.678 566.046C489.235 568.836 484.01 572.442 482.066 574.059C479.449 576.237 477.582 576.844 474.864 576.402C471.274 575.82 471.122 575.999 467.864 584.592C466.032 589.423 463.581 594.552 462.417 595.99C460.381 598.504 460.147 598.529 456.151 596.656C453.868 595.585 449.904 593.428 447.342 591.859C440.964 587.958 430.639 586.086 423.974 587.623C411.858 590.417 406.15 596.313 396.153 616.36C387.222 634.27 383 645.096 383 650.087C383 661.823 394.113 689.886 402.763 699.99C405.078 702.696 409.689 706.081 413.247 707.688C419.235 710.393 420.92 710.557 442.598 710.559C464.998 710.56 465.698 710.485 469.497 707.677C472.134 705.729 473.168 705.391 472.689 706.638C471.717 709.171 462.746 764.43 461.12 777.895C459.506 791.272 459.448 794.814 460.872 793.3C462.607 791.454 465.8 775.419 465.805 768.523C465.807 765.023 467.732 751.63 470.082 738.76C476.2 705.238 477.734 679.534 474.913 657.784L472.789 641.411L476.634 632.662C479.416 626.329 481.518 623.299 484.239 621.695C486.308 620.475 491.624 616.075 496.052 611.919C501.891 606.438 505.026 604.349 507.452 604.32C509.294 604.299 513.62 603.307 517.066 602.116L523.333 599.951L515.016 608.707C506.37 617.809 502.762 623.615 499.908 633.017C497.722 640.221 497.77 644.478 500.13 652.422C502.592 660.712 507.754 665.662 516.957 668.556C520.821 669.772 523.31 670.99 522.49 671.263C521.671 671.536 521 672.645 521 673.727C521 675.295 520.641 675.181 519.228 673.164C518.253 671.772 515.959 670.269 514.128 669.821C504.651 667.506 499.324 660.352 497.079 646.926L496.082 640.96L495.788 646.96C495.266 657.619 495.787 662.029 498.099 666.539C502.236 674.604 508.621 678.76 516.878 678.76C521.58 678.76 522.416 680.759 518.161 681.827C514.221 682.816 505.549 680.305 500.989 676.855C489.058 667.831 489.732 640.481 502.402 619.439C504.633 615.736 505.814 613.092 505.028 613.564C504.192 614.065 504.283 613.579 505.246 612.39C506.647 610.663 506.64 610.36 505.197 610.36C504.264 610.36 501.092 612.833 498.15 615.856C495.207 618.879 490.627 622.638 487.971 624.21C483.993 626.566 482.467 628.641 479.308 635.987L475.474 644.903L477.216 655.531C481.142 679.487 479.053 710.007 471.024 745.96C467.751 760.612 467.661 771.593 470.714 783.715C471.786 787.972 471.794 796.127 470.748 817.966C469.993 833.731 469.063 847.441 468.684 848.431C468.303 849.423 464.57 851.373 460.387 852.765C456.204 854.157 452.214 855.979 451.519 856.816C449.901 858.765 432.44 886.365 424.689 899.221C419.217 908.298 418.254 909.268 412.573 911.403C409.178 912.678 398.57 916.668 389 920.268C368.529 927.969 358.272 932.97 354.375 937.15C352.309 939.367 348.529 950.397 340.275 978.295C334.074 999.259 329 1017.12 329 1017.99C329 1018.85 329.81 1019.56 330.8 1019.56C331.79 1019.56 332.6 1018.57 332.6 1017.37C332.6 1016.16 334.267 1009.55 336.304 1002.67C356.09 935.861 355.72 936.76 363.393 936.76C367.897 936.76 379.222 943.117 391.942 952.788C396.408 956.183 403.755 961.66 408.27 964.96C431.403 981.869 444.336 996.25 451.682 1013.23C453.476 1017.38 455.119 1019.53 456.516 1019.54C458.323 1019.56 458.014 1018.38 454.394 1011.46C444.424 992.394 440.473 987.295 426.8 975.841C419.54 969.761 411.71 963.511 409.4 961.954C407.09 960.397 402.906 957.051 400.102 954.519C394.171 949.162 379.094 939.123 372.222 935.955C369.603 934.747 367.448 933.442 367.431 933.053C367.386 932.025 371.684 930.201 393.8 921.863C421.144 911.554 422.986 911.075 427.078 913.205C431.061 915.276 448.502 932.232 461.182 946.36C472.251 958.691 510.094 1005.9 515.284 1013.86C517.485 1017.23 519.902 1019.56 521.202 1019.56C522.411 1019.56 523.4 1019.2 523.4 1018.77C523.4 1016.68 482.535 964.852 466.308 946.36C454.952 933.419 437.042 915.615 430.07 910.336C426.44 907.588 426.228 907.059 427.296 903.426C428.462 899.457 449.809 865.115 454.016 860.437C456.085 858.137 463.369 855.16 466.924 855.16C467.72 855.16 466.442 856.979 464.085 859.201C459.18 863.827 458.572 867.953 461.9 874.036C463.056 876.148 473.643 889.457 485.43 903.613C514.554 938.593 513.398 936.838 511.633 943.435C510.844 946.383 510.145 950.812 510.078 953.277L509.954 957.76L508.897 953.56C508.315 951.25 508.161 946.536 508.555 943.084L509.27 936.809L496.863 921.484C490.04 913.056 479.193 899.817 472.761 892.063C466.328 884.31 460.24 876.372 459.232 874.422C456.12 868.403 457.155 861.033 461.404 858.978C462.832 858.287 463.46 857.688 462.8 857.645C459.784 857.453 453.765 862.711 450.318 868.551C448.237 872.076 442.5 881.17 437.568 888.76C432.636 896.35 428.6 903.297 428.6 904.197C428.6 905.097 430.894 907.794 433.7 910.189C461.191 933.669 513.372 995.014 522.904 1015.06C524.918 1019.29 525.369 1019.56 530.522 1019.55C535.903 1019.54 536.16 1019.36 545 1009.2C549.95 1003.51 555.08 997.765 556.4 996.431C558.39 994.421 558.448 994.129 556.746 994.728C554.624 995.473 541.183 986.302 539.197 982.755C538.64 981.759 537.78 981.059 537.284 981.198C535.149 981.799 529.227 975.869 526.741 970.639C524.466 965.853 524.038 962.932 524.024 952.059C524.013 943.983 523.556 939.304 522.804 939.55C522.141 939.765 520.778 945.84 519.772 953.051C518.558 961.77 517.639 965.387 517.03 963.851C516.528 962.581 516.466 959.201 516.896 956.338C517.326 953.475 517.299 947.604 516.837 943.293C516.039 935.844 515.545 934.872 506.922 923.807C501.931 917.401 491.264 904.33 483.219 894.76C475.173 885.19 467.97 876.193 467.211 874.768C466.135 872.747 466.23 871.043 467.641 867.043C471.8 855.255 472.946 846.294 473.752 819.232C474.206 804 474.801 791.761 475.075 792.035C475.348 792.309 476.059 796.499 476.653 801.346C477.247 806.194 478.053 812.32 478.444 814.96C478.922 818.187 478.779 819.215 478.008 818.099C477.237 816.985 476.626 821.523 476.15 831.899C475.76 840.402 474.543 851.95 473.448 857.56C472.352 863.17 471.231 869.11 470.956 870.76C470.563 873.121 472.52 876.231 480.152 885.377C491.994 899.565 495.488 901.919 504.942 902.08C517.299 902.289 519.165 904.104 507.2 904.277C498.498 904.403 496.857 904.698 498.754 905.799C500.049 906.55 503.019 907.287 505.354 907.437C519.325 908.334 519.405 908.356 511.494 909.067C507.255 909.448 503.595 910.345 503.36 911.061C502.843 912.636 516.882 931.691 522.777 937.416C526.599 941.129 527 942.144 527 948.124C527 955.537 533.128 976.377 536.013 978.771C536.996 979.587 537.8 979.939 537.8 979.555C537.8 979.17 541.42 981.597 545.845 984.946C550.27 988.294 555.13 991.6 556.645 992.29C558.16 992.98 559.389 994.133 559.377 994.853C559.364 995.572 554.656 1001.29 548.916 1007.56C539.647 1017.68 538.782 1019 541.195 1019.35C543.039 1019.62 544.76 1018.66 546.556 1016.37C548.01 1014.51 552.402 1009.58 556.314 1005.42L563.428 997.841L569.534 998.603C576.488 999.472 577.657 998.657 582.292 989.693C584.208 985.989 585.178 981.628 585.562 974.993C585.862 969.804 586.579 965.56 587.154 965.56C587.73 965.56 588.2 969.707 588.2 974.776C588.2 983.555 587.964 984.355 583.226 991.627C577.389 1000.59 575.469 1001.85 569.254 1000.86C564.717 1000.14 564.476 1000.29 556.615 1009.08C552.206 1014 548.6 1018.38 548.6 1018.8C548.6 1019.22 556.323 1019.56 565.764 1019.56H582.928L586.834 1010.01C591.234 999.245 597.469 975.081 598.574 964.506C599.523 955.421 596.937 947.507 589.562 936.934L584 928.96L584.415 903.76C584.898 874.566 584.721 874.02 573.47 869.695C568.956 867.959 568.04 867.275 570.2 867.249C575.306 867.187 583.088 871.475 585.168 875.496C586.828 878.71 586.984 882.4 586.294 902.291L585.495 925.36L589.975 931.96C592.438 935.59 595.789 941.19 597.421 944.406C599.181 947.874 600.828 949.812 601.47 949.17C602.803 947.837 607.4 921.435 607.4 915.112C607.4 910.287 609.21 907.409 609.39 911.947C609.446 913.385 608.192 924.01 606.603 935.56C602.163 967.824 596.554 990.9 588.267 1011C585.092 1018.7 584.952 1019.56 586.879 1019.56C590.214 1019.56 597.039 1000.79 603.024 975.16C607.974 953.961 612.896 920.938 611.89 915.676C611.22 912.165 611.406 912.132 615.548 915.046C617.337 916.303 624.079 920.393 630.53 924.133C636.981 927.874 643.018 932.11 643.946 933.547C645.596 936.103 649.597 953.674 658.546 997.66C661.68 1013.06 663.483 1019.56 664.623 1019.56C665.692 1019.56 666.031 1018.64 665.614 1016.86C665.268 1015.37 664.22 1010.11 663.286 1005.16C660.15 988.528 650.508 943.425 648.637 936.64L646.785 929.92L633.552 922.24C613.969 910.875 612.951 909.763 600.13 885.757C593.942 874.17 587.712 863.592 586.284 862.251C584.546 860.619 580.478 859.299 573.973 858.257C562.988 856.498 560.564 855.072 560.841 850.533C561.236 844.062 560.586 844.157 598.303 845.065C628.762 845.799 634.497 845.643 643.4 843.845C656.311 841.237 662.48 837.901 665.638 831.82C667.728 827.794 668.926 826.917 674.038 825.671C677.317 824.872 681.62 823.629 683.6 822.909C685.58 822.189 691.492 820.793 696.738 819.808C707.99 817.696 712.5 814.546 709.116 811.162C707.239 809.284 706.264 809.29 694.154 811.248C687.03 812.4 678.888 814.163 676.062 815.165C670.438 817.159 667.4 816.666 667.4 813.76C667.4 812.728 668.539 808.527 669.931 804.421C675.02 789.414 671.154 766.879 659.334 742.661C655.149 734.086 654.769 732.433 654.393 721.17L653.988 708.97L660.55 704.771C666.64 700.876 678.925 689.886 694.992 673.96C699.328 669.661 703.316 664.012 706.425 657.76L711.2 648.16V633.16C711.2 620.23 710.84 617.411 708.594 612.73C704.565 604.339 699.913 601.165 690.736 600.547C686.814 600.283 686.622 600.111 688.611 598.642C689.902 597.689 692.646 597.234 695.3 597.535C697.776 597.816 699.8 597.6 699.8 597.057C699.8 595.953 694.638 594.923 686.8 594.465C681.736 594.168 681.546 594.005 679.404 588.16C678.195 584.86 676.49 580.377 675.616 578.197C674.236 574.757 674.294 573.771 676.058 570.697C678.301 566.789 677.906 566.55 672.379 568.477C670.245 569.221 668.577 570.658 668.547 571.777C668.518 572.868 667.786 571.775 666.92 569.35C666.054 566.925 663.624 562.768 661.521 560.112C659.418 557.457 656.798 552.691 655.7 549.522L653.703 543.76L652.82 548.56C651.522 555.627 651.638 564.729 653.094 569.973C653.798 572.509 654.163 574.798 653.902 575.057C653.642 575.317 651.433 571.937 648.992 567.546L644.554 559.563L646.977 556.984C650.456 553.282 649.982 552.639 645.238 554.621C638.386 557.484 636.321 556.438 642.8 553.386C650.997 549.525 646.527 549.532 633.175 553.401C627.404 555.073 622.436 556.197 622.137 555.897C621.837 555.597 623.124 554.412 624.996 553.264C633.194 548.235 637.4 545.16 637.4 544.197C637.4 542.515 636.128 542.899 623.566 548.381C608.352 555.021 602.827 556.339 589.768 556.447C583.956 556.495 576.442 556.929 573.073 557.41C569.029 557.988 566.952 557.856 566.962 557.022C567.031 551.643 566.797 551.446 562.483 553.248C560.218 554.194 553.874 555.858 548.383 556.947C542.893 558.034 536.78 560.045 534.8 561.414C531.261 563.861 531.271 563.825 535.401 559.231C537.712 556.662 540.208 553.462 540.949 552.12C542.306 549.661 544.329 541.925 543.595 542.001C543.378 542.023 541.303 544.048 538.983 546.501ZM621.14 553.865C620.514 554.472 616.798 557.111 612.885 559.727C606.766 563.819 605.312 564.325 602.5 563.345C600.367 562.601 597.585 562.648 594.496 563.481C591.424 564.307 587.721 564.373 583.953 563.67C574.514 561.906 570.427 563.196 562.4 570.474C553.779 578.291 551.695 579.202 542.822 579.022C536.811 578.901 536.499 578.783 540.2 578.033C546.614 576.732 553.612 572.686 560.787 566.129L567.29 560.185L585.846 559.725C602.234 559.319 605.38 558.899 612.8 556.131C622.755 552.415 622.588 552.461 621.14 553.865ZM630.2 558.796C628.93 559.641 629.99 559.794 633.8 559.314L639.2 558.634L635.889 560.541C634.068 561.589 629.748 562.608 626.289 562.805C622.83 563.001 617.726 564.331 614.948 565.761C609.398 568.615 607.4 568.986 607.4 567.16C607.4 566.5 607.992 565.96 608.715 565.96C609.438 565.96 611.647 564.809 613.622 563.401C617.424 560.695 625.584 557.763 629.6 557.658C631.594 557.607 631.695 557.8 630.2 558.796ZM644.707 566.86C646.809 569.995 652.1 576.267 656.464 580.797C664.65 589.293 663.988 589.452 651.697 581.952C645.27 578.029 644.751 577.915 639.097 579.167C635.853 579.885 628.34 583.239 622.4 586.62C609.703 593.849 603.699 594.861 591.822 591.772C572.701 586.801 556.621 585.251 547.1 587.463C541.652 588.727 541.406 588.239 546.234 585.742C548.233 584.709 551.292 582.265 553.032 580.312C556.582 576.327 558.2 575.825 558.2 578.706C558.2 580.314 558.518 580.39 560.028 579.137C561.555 577.869 561.732 577.943 561.099 579.591C560.665 580.722 560.938 581.56 561.742 581.56C562.512 581.56 562.85 582.031 562.494 582.607C562.138 583.183 565.212 584.035 569.323 584.5C573.435 584.964 582.2 586.653 588.8 588.251C595.4 589.849 602.42 591.156 604.4 591.155C606.486 591.155 612.442 588.663 618.564 585.229C624.373 581.97 630.938 578.706 633.153 577.975C635.862 577.081 637.806 575.328 639.091 572.622C641.904 566.693 641.554 565.96 635.919 565.96H630.837L635.019 563.628C637.318 562.347 639.579 561.267 640.042 561.228C640.506 561.191 642.604 563.724 644.707 566.86ZM643.414 584.929C645.649 586.739 646.262 588.885 647.103 597.829C648.373 611.317 647.329 634.197 645.068 642.438C643.924 646.608 641.752 650.392 638.596 653.707C633.968 658.573 633.696 658.681 627.792 657.983C620.241 657.088 607.705 651.571 606.004 648.395C604.376 645.352 605.73 632.733 608.259 627.393C610.648 622.347 616.579 617.813 623.524 615.723C628.256 614.298 629.192 614.322 630.778 615.91C631.78 616.912 632.6 618.947 632.6 620.431C632.6 624.553 636.374 634.776 638.505 636.429C640.148 637.702 640 637.903 637.4 637.945C635.75 637.973 628.368 638.315 620.994 638.707C608.673 639.361 607.623 639.603 608.026 641.694C608.266 642.945 608.756 644.441 609.112 645.018C610.524 647.302 618.254 649.96 623.481 649.96C626.517 649.96 629 650.5 629 651.16C629 651.82 628.37 652.36 627.6 652.36C626.83 652.36 626.502 652.661 626.87 653.031C628.075 654.234 635.527 650.335 638.766 646.807C643.485 641.667 643.992 638.662 640.852 634.417C638.426 631.135 633.44 615.215 634.49 614.098C635.548 612.971 642.518 616.986 643.434 619.251C644.358 621.537 644.455 621.468 644.524 618.487C644.748 608.844 620.805 608.613 612.8 618.181L610.4 621.051L610.764 610.005C610.964 603.93 611.313 598.384 611.541 597.679C611.926 596.491 630.949 585.078 635 583.605C638.36 582.382 640.728 582.755 643.414 584.929ZM440.022 592.266C443.63 593.535 448.071 595.779 449.892 597.253C452.181 599.11 452.461 599.643 450.8 598.986C441.093 595.146 438.295 594.565 432.129 595.105C421.197 596.064 413.802 600.36 406.94 609.738C405.982 611.046 407.9 610.068 411.2 607.565C420.439 600.558 426.946 597.945 435.205 597.927C439.167 597.917 443.437 598.485 444.693 599.188C446.414 600.151 444.908 600.318 438.594 599.867C427.958 599.105 422.821 601.279 411.01 611.535C403.563 618.004 401.606 620.615 396.28 631.2C392.902 637.913 389.835 645.286 389.463 647.583C387.771 658.032 397.485 683.611 407.487 695.045C415.578 704.293 420.877 705.76 446.209 705.76C460.489 705.76 466.202 706.128 464.809 706.96C463.693 707.627 454.269 708.157 443.6 708.155C421.218 708.15 414.748 706.573 407.368 699.325C397.866 689.993 388.402 668.766 386.948 653.521C386.199 645.685 388.76 638.362 400.035 616.092C412.022 592.416 422.569 586.132 440.022 592.266ZM587.955 593.986C594.751 595.621 601.076 597.593 602.01 598.368C603.322 599.458 603.565 601.998 603.076 609.569C602.559 617.607 602.709 618.94 603.919 617.016C604.729 615.727 605.644 610.744 605.952 605.943C606.26 601.14 606.982 597.502 607.556 597.856C609.555 599.092 608.581 612.343 605.662 623.614C604.047 629.854 602.606 638.035 602.46 641.794C602.21 648.217 602.05 648.55 599.8 647.346C598.462 646.63 594.451 646.339 590.703 646.687C587.017 647.031 584.644 647.062 585.433 646.758C586.22 646.453 586.588 645.484 586.251 644.604C585.913 643.723 586.213 642.646 586.918 642.21C588.652 641.139 588.504 637.145 586.514 631.36C585.607 628.72 584.479 623.16 584.008 619.006L583.152 611.452L586.576 612.207C588.459 612.621 590.72 613.186 591.601 613.461C592.484 613.738 592.976 613.289 592.7 612.461C591.564 609.051 580.821 606.519 569.6 607.014C560.386 607.422 557.572 608.082 550.443 611.509C541.106 615.999 525.798 630.307 521.625 638.447L519.25 643.079L524.37 647.621C530.388 652.962 538.455 656.009 546.114 655.835L551.6 655.71L543.2 653.668C538.58 652.545 533.72 650.944 532.4 650.11C529.627 648.359 529.184 648.277 545.563 652.561C555.027 655.038 567.118 655.162 573.097 652.842C576.513 651.517 574.644 653.849 569.342 657.522C565.693 660.052 562.429 660.947 553.045 661.993C546.591 662.712 538.766 664.074 535.656 665.017C528.043 667.327 521.392 667.158 515.551 664.504C502.17 658.426 498.117 642.246 506.048 626.569C512.319 614.176 529.878 597.505 542 592.437C547.242 590.244 549.744 589.996 561.8 590.471C570.65 590.819 580.033 592.08 587.955 593.986ZM654.879 615.76C653.899 619.06 652.744 623.79 652.312 626.273C651.882 628.756 650.965 631.134 650.277 631.56C649.443 632.075 649.284 630.769 649.8 627.646C650.226 625.068 650.593 616.75 650.616 609.16L650.656 595.36L653.659 602.56C656.538 609.466 656.588 610.005 654.879 615.76ZM444.895 604.235C453.43 608.112 458.577 617.745 454.513 622.235C452.061 624.943 452.094 627.012 454.633 629.817C456.558 631.944 456.542 632.019 454.333 631.233C453.05 630.775 450.904 629.421 449.566 628.222C446.023 625.048 437.528 622.356 431.149 622.386C419.041 622.444 410.013 630.539 408.746 642.475C408.212 647.515 408.304 647.82 409.566 645.16C410.348 643.51 412.113 639.791 413.488 636.897C414.864 634.001 417.84 630.221 420.1 628.497C425.576 624.321 434.912 624.219 443.901 628.239L450.201 631.056L444.744 635.86C430.592 648.317 428.36 669.579 440.12 679.903C445.882 684.964 447.666 684.491 442.974 679.147C437.174 672.54 435.422 667.375 436.104 658.885C436.789 650.346 440.242 644.107 447.92 637.535C453.945 632.377 456.418 632.125 461.673 636.135C468.914 641.657 470.29 645.394 472.357 665.142C474.459 685.241 474.135 687.382 468.247 692.337C456.38 702.322 433.732 701.092 419.293 689.679C409.44 681.889 404.68 669.25 404.629 650.733C404.581 633.275 409.542 618.852 418.597 610.121C426.987 602.031 435.732 600.073 444.895 604.235ZM699.358 606.154C701.046 607.259 703.86 611.223 705.613 614.962C711.58 627.69 709.543 647.281 700.828 660.979C696.859 667.218 665.174 697.506 656.09 703.746L650.286 707.731L650.991 715.746C651.681 723.576 651.66 723.658 650.035 719.328C649.12 716.891 647.269 713.381 645.919 711.528C644.569 709.675 642.11 704.529 640.454 700.09C637.573 692.368 637.538 691.971 639.651 690.839C641.436 689.885 642.117 690.225 643.204 692.609C644.234 694.87 644.204 695.581 643.075 695.655C641.961 695.727 641.95 695.892 643.033 696.333C643.82 696.653 644.208 697.585 643.893 698.406C643.579 699.226 644.127 701.755 645.114 704.028L646.906 708.16L646.953 703.66C646.978 701.185 646.534 699.16 645.967 699.16C644.726 699.16 645.674 693.379 647.054 692.526C647.586 692.197 648.721 695.04 649.575 698.844C650.977 705.085 651.234 705.465 652.198 702.736C652.814 700.998 655.231 698.758 657.884 697.468C668.186 692.457 685.719 673.147 696.106 655.373C699.444 649.661 700.924 647.994 701.269 649.561C702.031 653.029 704.61 639.719 704.516 632.801C704.469 629.368 703.968 625.48 703.4 624.16L702.369 621.76L702.217 624.16C702.121 625.689 701.289 624.645 699.927 621.286C697.274 614.747 693.336 611.771 686.822 611.387C681.326 611.063 680.482 609.949 684.217 607.95C689.301 605.23 701.126 609.885 702.838 615.281C703.268 616.635 703.878 617.482 704.193 617.166C704.509 616.851 703.65 614.4 702.283 611.722C700.27 607.776 698.853 606.598 694.822 605.512C692.086 604.775 688.845 604.434 687.622 604.755C686.299 605.1 685.704 604.839 686.154 604.11C687.205 602.411 695.638 603.715 699.358 606.154ZM427.4 610.242C428.39 610.798 431.335 611.637 433.944 612.106C436.554 612.576 440.716 613.995 443.197 615.259C449.092 618.268 451.172 618.223 448.389 615.148C447.189 613.822 443.497 611.932 440.185 610.948C433.653 609.007 424.276 608.49 427.4 610.242ZM578.502 610.307C580.173 611.201 580.827 613.621 581.464 621.263C581.914 626.657 582.847 632.128 583.538 633.418C584.229 634.709 584.616 635.941 584.397 636.156C584.179 636.37 579.837 637.404 574.75 638.453C564.814 640.501 524.6 641.229 524.6 639.36C524.6 638.811 529.267 633.683 534.97 627.966C544.736 618.179 552.33 613.174 561.8 610.282C566.144 608.956 576.004 608.97 578.502 610.307ZM692.473 617.037C699.549 622.991 700.768 637.6 695.17 649.36C688.207 663.991 667.545 688.188 657.748 693.186C655.189 694.492 652.873 695.56 652.602 695.56C651.663 695.56 650.604 686.146 651.33 684.255C651.8 683.028 653.535 682.36 656.247 682.36C661.078 682.36 667.436 679.635 670.5 676.251C672.534 674.002 672.397 674.008 666.97 676.408C663.864 677.782 659.602 678.738 657.5 678.533C654.195 678.21 653.536 677.563 652.644 673.765C652.076 671.349 649.72 667.162 647.409 664.462L643.206 659.551L646.497 649.669C650.374 638.026 653.478 634.535 662.7 631.444C674.452 627.505 678.222 630.641 678.174 644.316C678.145 652.427 675.986 658.368 669.802 667.355C667.016 671.406 666.547 672.76 667.93 672.76C668.946 672.76 671.704 669.855 674.061 666.304C681.379 655.284 683.539 643.727 680.089 634.06C678.523 629.673 678.554 629.56 681.333 629.56C686.678 629.56 693.649 633.433 694.214 636.719C694.544 638.634 694.676 638.226 694.569 635.619C694.338 629.956 689.018 626.92 677.68 625.978L669.2 625.273L677.895 623.709C686.022 622.247 689.088 620.849 686.919 619.593C685.778 618.933 674.853 620.481 671.6 621.765C670.28 622.287 671.371 621.1 674.025 619.128C682.348 612.945 686.984 612.419 692.473 617.037ZM404.431 627.789C397.971 646.887 401.68 675.978 412.082 687.795C419.665 696.409 433.695 702.76 445.144 702.76C451.504 702.76 464.109 699.687 467.98 697.192L470.761 695.399L468.67 698.589C465.924 702.781 462.454 703.974 450.573 704.813C428.99 706.336 408.997 695.789 400.677 678.493C395.172 667.047 393.814 661.84 393.807 652.131C393.798 641.92 395.722 640.374 396.073 650.309C396.218 654.407 396.843 660.034 397.462 662.812C398.524 667.577 404.175 681.16 405.096 681.16C405.33 681.16 404.143 676.704 402.459 671.26C397.17 654.15 398.383 629.769 404.94 621.431C407.054 618.743 406.918 620.435 404.431 627.789ZM583.849 640.923C582.667 644.002 572.556 649.819 566.913 650.665C558.205 651.971 545.238 650.313 533.6 646.404L522.8 642.777L535.4 643.411C542.33 643.761 550.243 644.622 552.985 645.327C559.917 647.107 568.328 646.06 576.8 642.36C580.76 640.631 584.118 639.204 584.263 639.189C584.407 639.173 584.221 639.953 583.849 640.923ZM639.055 640.905C638.07 643.473 628.873 647.562 624.121 647.544C621.854 647.536 617.3 646.181 614 644.535C609.262 642.169 608.757 641.673 611.6 642.168C624.007 644.331 628.557 644.244 633.272 641.759C638.959 638.76 639.933 638.616 639.055 640.905ZM591.2 651.762C587.24 652.501 581.469 654.244 578.377 655.632C574.446 657.397 572.938 657.673 573.369 656.551C574.758 652.935 590.097 648.377 596 649.828C597.47 650.189 595.61 650.939 591.2 651.762ZM608.721 654.923C615.888 657.319 614.797 657.803 602.262 657.781C595.518 657.769 586.76 658.18 582.8 658.693C574.327 659.791 575.938 658.146 585.985 655.444C593.865 653.323 603.291 653.109 608.721 654.923ZM601.16 662.2C602.808 663.847 602.964 672.135 601.491 679.756C600.939 682.614 600.913 684.504 601.432 683.956C603.229 682.062 604.725 674.229 604.563 667.565C604.382 660.135 606.031 660.193 607.032 667.653C607.47 670.924 606.63 675.981 604.375 683.645C601.48 693.484 601.158 696.199 601.734 705.856C602.334 715.909 604.452 729.651 607.546 743.551C608.206 746.517 613.014 759.241 618.229 771.828C625.036 788.261 628.232 797.706 629.562 805.33C630.579 811.169 631.275 816.057 631.106 816.191C626.383 819.951 600.03 822.73 568.952 822.747C551.612 822.756 543.642 823.247 538.352 824.629C534.34 825.679 529.459 826.176 527.233 825.763C521.886 824.77 515.318 817.866 510.355 808.023L506.311 799.999L507.175 787.325C507.891 776.801 508.603 773.591 511.364 768.406C513.193 764.97 515.059 760.468 515.509 758.4C515.96 756.333 518.161 752.501 520.401 749.884C522.64 747.268 525.4 742.75 526.536 739.843C527.67 736.937 530.838 731.05 533.576 726.76C536.314 722.47 540.589 715.319 543.075 710.871C545.56 706.421 548.887 701.765 550.465 700.523C552.043 699.282 558.614 696.208 565.068 693.693C578.001 688.651 578.061 688.621 577.188 687.748C576.85 687.411 572.328 688.014 567.136 689.087C547.279 693.195 528.405 688.648 528.238 679.716C528.169 676.035 530.943 671.543 534.733 669.201C537.423 667.539 544.102 666.226 558.828 664.463C593.222 660.346 598.996 660.036 601.16 662.2ZM638.97 663.586C648.992 667.774 652.465 678.792 645.416 684.041C642.559 686.167 639.945 686.627 628.616 686.995L615.2 687.431L624.2 690.595L633.2 693.76L637.069 701.56C639.198 705.85 643.14 714.49 645.83 720.76C648.52 727.03 653.1 737.02 656.006 742.96C662.877 757.007 668.65 775.601 669.42 786.16C669.949 793.431 669.565 795.769 666.561 803.56L663.091 812.56L657.145 813.265C653.876 813.653 647.8 814.401 643.646 814.926C639.33 815.472 636.22 815.428 636.391 814.821C636.951 812.831 634.9 800.58 632.398 790.96C631.024 785.68 625.839 772.18 620.875 760.96C610.124 736.661 606.568 724.591 605.028 707.179C603.949 694.979 604.057 693.647 606.824 684.979C608.67 679.203 609.775 672.891 609.784 668.077L609.8 660.395L622.413 661.167C629.35 661.591 636.8 662.68 638.97 663.586ZM467.265 672.072C463.064 679.097 457.588 684.409 450.206 688.625C444.626 691.812 443.953 693.407 448.77 692.026C455.025 690.232 459.502 687.267 464.462 681.633C468.664 676.858 472.926 667.486 471.529 666.089C471.294 665.854 469.375 668.545 467.265 672.072ZM546.507 670.33C542.151 671.364 539.448 673.281 537.675 676.594C536.721 678.375 537.2 679.545 540.048 682.392C542.01 684.354 544.587 685.96 545.775 685.96C547.636 685.96 547.567 685.702 545.268 684.091C543.8 683.064 542.6 681.444 542.6 680.491C542.6 679.539 542.194 678.895 541.7 679.06C541.206 679.224 540.53 678.82 540.2 678.16C539.012 675.784 548.618 672.443 557.047 672.299C564.148 672.178 564.889 671.967 562.618 670.702C559.71 669.083 552.463 668.916 546.507 670.33ZM622.531 670.149C622.195 670.692 624.728 671.262 628.16 671.415C636.331 671.781 639.794 674.059 639.818 679.087C639.832 682.029 640.117 682.527 641 681.16C642.931 678.173 642.36 675.21 639.254 672.106C636.843 669.694 635.115 669.16 629.725 669.16C626.104 669.16 622.867 669.605 622.531 670.149ZM525.022 677.26C524.131 684.573 527.559 688.639 537.992 692.643C542.836 694.501 546.944 696.108 547.12 696.211C547.297 696.316 545.677 699.42 543.52 703.111C541.364 706.803 535.599 716.739 530.71 725.191C525.822 733.644 519.826 743.607 517.388 747.33C514.951 751.054 510.92 759.154 508.432 765.33C504.213 775.807 503.901 777.444 503.772 789.76L503.632 802.96L508.999 813.16C517.233 828.81 536.86 847.149 549.955 851.427C555.706 853.307 557.757 855.838 558.812 862.36C560.838 874.873 567.99 889.909 575.481 897.401C580.484 902.404 582.667 908.608 579.063 907.579C573.866 906.096 564.315 905.646 557.277 906.555C552.813 907.131 550.195 907.085 550.837 906.443C551.431 905.849 555.564 904.909 560.019 904.357C564.476 903.804 568.924 902.549 569.907 901.567C571.486 899.987 571.346 899.322 568.683 895.771C564.214 889.815 561.151 883.188 558.222 873.145C556.779 868.204 555.292 863.35 554.916 862.36C554.54 861.37 554.18 859.801 554.116 858.874C554.049 857.911 550.644 856.055 546.168 854.543C537.064 851.469 531.991 848.985 524.876 844.117C519.618 840.52 514.34 831.567 507.854 815.239C505.333 808.895 503.51 806.249 502.413 807.346C502.179 807.581 503.006 809.931 504.253 812.567C507.453 819.336 507.072 820.642 503.552 814.96C501.596 811.801 500.798 809.133 501.22 807.155C501.62 805.278 500.096 799.426 497.157 791.555C492.204 778.291 488.089 762.303 489.92 763.434C490.514 763.801 491 765.041 491 766.191C491 767.34 491.464 768.793 492.032 769.42C492.6 770.047 494.068 773.427 495.295 776.931C498.232 785.322 500.6 787.41 500.6 781.609C500.6 775.776 508.09 756.609 514.062 747.16C524.864 730.067 528.259 724.503 534.559 713.56C538.168 707.29 542.329 700.863 543.804 699.276C545.78 697.152 545.956 696.597 544.473 697.165C543.367 697.59 540.354 696.863 537.778 695.549C535.203 694.235 532.778 693.16 532.39 693.16C532.002 693.16 533.334 695.557 535.35 698.487C538.567 703.162 538.844 704.19 537.615 706.887C536.845 708.577 535.735 709.96 535.148 709.96C534.531 709.96 534.536 709.145 535.161 708.029C535.95 706.62 534.937 704.104 531.416 698.729C528.762 694.675 525.763 690.387 524.752 689.196C522.286 686.296 521.451 675.173 523.598 673.812C524.479 673.253 525.284 672.789 525.386 672.778C525.488 672.768 525.325 674.785 525.022 677.26ZM618.702 675.123C612.349 677.693 605.115 691.427 606.86 697.608C607.766 700.821 607.838 700.746 608.587 695.836C609.016 693.017 610.465 689.237 611.805 687.436C613.981 684.511 615.196 684.094 623.121 683.55C632.516 682.903 637.4 681.036 637.4 678.088C637.4 674.556 624.974 672.586 618.702 675.123ZM550.267 676.263C544.832 678.615 546.397 683.86 553.03 685.525C554.715 685.948 561.198 685.935 567.436 685.497L578.779 684.699L582.709 688.63C585.573 691.495 586.87 694.11 587.496 698.283C588.416 704.416 590.6 704.956 590.6 699.051C590.6 691.355 584.763 683.014 576.333 678.663C570.57 675.688 554.925 674.248 550.267 676.263ZM624.856 700.66C626.072 704.674 630.224 711.16 631.579 711.16C633.315 711.16 631.57 706.36 628.2 701.86C624.774 697.287 623.72 696.909 624.856 700.66ZM572.661 707.104C573.528 714.234 575.832 720.76 577.484 720.76C577.978 720.76 577.641 717.655 576.734 713.86C575.828 710.065 575.066 706.389 575.043 705.689C575.019 704.991 574.281 703.435 573.402 702.233C572.034 700.362 571.927 701.064 572.661 707.104ZM566.3 702.246C564.837 703.731 565.273 712.927 566.912 715.169C568.191 716.919 568.368 716.357 568.06 711.498C567.492 702.48 567.261 701.271 566.3 702.246ZM636.2 719.425C636.2 720.011 638.005 723.117 640.21 726.325C642.416 729.534 644.848 734.05 645.615 736.36C646.382 738.67 648.135 742.18 649.512 744.16C651.91 747.613 651.988 747.637 651.416 744.76C650.353 739.414 644.385 726.363 641.151 722.309C638.044 718.415 636.2 717.341 636.2 719.425ZM619.503 729.76C619.599 738.559 621.613 742.413 621.697 733.96C621.734 730.33 621.24 726.55 620.6 725.56C619.767 724.272 619.455 725.466 619.503 729.76ZM634.594 729.16C635.715 732.13 638.331 736.72 640.408 739.36C644.968 745.157 649.922 758.095 648.028 759.267C647.197 759.78 647.164 760.32 647.936 760.797C648.591 761.202 649.476 763.294 649.902 765.447C650.328 767.599 651.526 770.44 652.567 771.76C654.385 774.067 654.433 774.021 653.816 770.56C653.462 768.58 652.6 764.8 651.901 762.16C651.201 759.52 650.338 755.395 649.984 752.994C649.632 750.593 648.026 746.813 646.417 744.594C644.809 742.375 642.178 738.125 640.573 735.148C638.966 732.172 636.506 728.392 635.104 726.748L632.558 723.76L634.594 729.16ZM627.8 726.981C627.8 729.132 632.678 738.76 633.769 738.76C634.293 738.76 633.63 735.79 632.292 732.16C630.066 726.114 627.8 723.503 627.8 726.981ZM534.465 730.06C531.957 733.662 529.08 741.239 529.906 742.066C530.191 742.351 531.892 739.428 533.688 735.571C535.482 731.715 537.174 728.155 537.446 727.66C538.722 725.343 536.51 727.123 534.465 730.06ZM551.9 727.627C554.046 727.894 557.554 727.894 559.7 727.627C561.846 727.362 560.09 727.144 555.8 727.144C551.51 727.144 549.754 727.362 551.9 727.627ZM480.015 731.26C479.246 733.174 478.628 743.381 478.544 755.56C478.423 773.161 478.76 777.592 480.622 782.938C483.393 790.89 484.5 790.229 482.623 781.743C480.687 772.998 479.508 741.73 481.075 740.76C481.866 740.272 482.529 746.814 482.976 759.485C483.352 770.196 484.186 780.85 484.827 783.16C485.623 786.03 485.784 778.812 485.332 760.36C484.97 745.51 484.188 732.414 483.595 731.26C482.896 729.903 482.965 729.16 483.788 729.16C486.363 729.16 487.552 736.083 487.292 749.548C487.144 757.144 487.62 769.03 488.349 775.96C490.362 795.102 491.018 809.712 489.831 808.979C489.25 808.62 488.121 806.309 487.321 803.843C486.522 801.377 483.708 795.04 481.068 789.76C471.676 770.976 470.233 762.966 473.502 747.76C474.523 743.009 475.266 741.376 475.686 742.96C476.035 744.28 476.384 742.645 476.461 739.327C476.538 736.008 477.441 732.094 478.468 730.627C480.997 727.017 481.617 727.271 480.015 731.26ZM542.323 732.707C541.494 735.66 541.989 737.37 543.297 736.063C543.68 735.679 543.805 734.105 543.572 732.563L543.151 729.76L542.323 732.707ZM588.218 735.989C588.229 739.163 588.76 742.57 589.4 743.56C590.227 744.839 590.569 743.382 590.582 738.531C590.592 734.775 590.06 731.368 589.4 730.96C588.663 730.504 588.207 732.443 588.218 735.989ZM612.933 733.96C613.728 738.589 618.53 750.119 625.428 763.96C630.508 774.156 636.854 793.857 638.084 803.26C638.538 806.724 639.38 809.56 639.955 809.56C641.845 809.56 641.046 799.723 638.748 794.692C637.509 791.979 635.942 787.6 635.266 784.96C631.93 771.923 628.288 760.271 627.724 760.835C627.379 761.182 625.328 757.986 623.168 753.733C621.008 749.482 618.736 745.691 618.121 745.311C617.504 744.93 616.96 743.435 616.911 741.989C616.862 740.543 615.784 737.2 614.517 734.56L612.212 729.76L612.933 733.96ZM544.657 739.648C541.629 746.771 541.213 749.142 542.133 754.007C542.938 758.259 543.139 757.81 545.166 747.227C546.358 740.994 547.164 735.724 546.955 735.515C546.746 735.306 545.713 737.166 544.657 739.648ZM553.543 740.491C552.804 743.423 552.222 747.339 552.248 749.191L552.296 752.56L553.894 749.56C555.964 745.677 557.514 735.16 556.016 735.16C555.394 735.16 554.281 737.559 553.543 740.491ZM565.52 742.06C565.611 747.325 565.867 748.249 566.6 745.96C567.996 741.603 567.996 735.16 566.6 735.16C565.926 735.16 565.453 738.18 565.52 742.06ZM573.994 740.86C570.934 746.969 569.692 752.329 571.474 751.735C572.234 751.482 574.147 748.097 575.727 744.214C579.028 736.099 578.972 736.36 577.424 736.36C576.778 736.36 575.234 738.385 573.994 740.86ZM599.68 745.06C599.2 749.514 599.223 754.914 599.73 757.06L600.65 760.96L601.483 757.36C602.628 752.415 602.631 742.271 601.491 739.36C600.819 737.645 600.302 739.273 599.68 745.06ZM622.938 745.06C624.073 750.065 628.878 759.214 628.947 756.505C629.022 753.605 624.231 741.16 623.04 741.16C622.497 741.16 622.45 742.914 622.938 745.06ZM533.104 744.034C532.34 744.954 531.237 748.6 530.653 752.134C530.068 755.668 528.48 760.99 527.121 763.96C524.438 769.83 523.832 774.175 525.874 772.914C527.413 771.963 529.209 767.443 530.625 760.96C531.202 758.32 532.464 753.055 533.428 749.26C535.302 741.895 535.272 741.421 533.104 744.034ZM635 745.491C635 747.477 635.848 750.149 636.884 751.431C638.658 753.622 638.731 753.481 638.128 749.063C637.308 743.053 635 740.417 635 745.491ZM591.334 748.621C589.081 753.819 588.79 761.041 590.786 762.274C591.628 762.796 591.846 762.605 591.34 761.787C590.883 761.047 591.381 757.443 592.447 753.777C594.775 745.767 594.043 742.373 591.334 748.621ZM582.652 747.76C581.397 750.023 579.508 765.16 580.48 765.16C581.548 765.16 584.727 751.695 584.373 748.674C584.007 745.561 583.902 745.506 582.652 747.76ZM560.119 749.809C557.026 754.53 555.351 760.391 556.708 761.748C557.516 762.556 558.751 760.477 560.449 755.448C563.194 747.317 563.077 745.295 560.119 749.809ZM655.004 749.279C655.381 750.774 656.164 752.291 656.745 752.65C658.387 753.664 657.987 751.469 656.06 748.889C654.381 746.641 654.344 746.656 655.004 749.279ZM536.726 757.086C535.003 766.68 535.383 769.675 537.759 765.235C538.504 763.845 538.953 759.343 538.756 755.233L538.4 747.76L536.726 757.086ZM523.531 752.976C522.139 754.931 521 758.052 521 759.912C521 763.117 521.084 763.17 522.613 760.927C524.528 758.113 527.211 750.571 526.537 749.896C526.275 749.635 524.923 751.021 523.531 752.976ZM626.023 777.76C630.764 790.444 630.41 793.775 625.576 781.96C623.012 775.69 619.291 767.05 617.308 762.76C615.325 758.47 613.351 753.61 612.921 751.96C611.752 747.467 622.918 769.458 626.023 777.76ZM604.586 752.748C603.511 755.922 605.853 765.778 608.133 767.67C610.412 769.561 610.382 765.532 608.072 759.484C607.122 756.996 606.146 753.88 605.904 752.56C605.48 750.251 605.43 750.258 604.586 752.748ZM546.5 759.899C544.736 765.708 544.502 774.01 546.13 773.003C547.542 772.131 548.938 763.205 548.402 758.489C548.012 755.068 547.954 755.111 546.5 759.899ZM569.875 760.873C567.666 767.17 567.122 772.92 568.836 771.862C570.398 770.896 572.872 761.109 572.382 757.836C572.031 755.499 571.562 756.066 569.875 760.873ZM654.228 757.18C654.212 758.401 656.424 764.071 659.142 769.78C662.49 776.811 664.422 782.835 665.133 788.451C665.71 793.011 666.456 797.016 666.792 797.351C668.082 798.641 667.291 785.865 665.727 780.16C663.76 772.983 654.267 754.013 654.228 757.18ZM634.347 759.16C635.607 763.864 637.59 767.376 639.369 768.059C640.678 768.561 640.634 767.803 639.144 764.223C638.124 761.767 636.445 758.95 635.415 757.96C633.733 756.343 633.625 756.466 634.347 759.16ZM585.367 760.957C584.406 763.462 584.4 770.891 585.356 774.46C586.736 779.609 588.2 777.123 588.182 769.66C588.162 761.665 586.759 757.329 585.367 760.957ZM596.169 763.012C595.764 764.524 595.425 767.892 595.417 770.5C595.393 777.186 597.592 774.401 597.956 767.283C598.276 761.02 597.316 758.727 596.169 763.012ZM516.248 767.681C513.573 773.577 512.883 779.757 515.154 777.486C516.69 775.95 520.074 763.834 519.208 762.969C518.898 762.657 517.564 764.778 516.248 767.681ZM575.166 770.02C574.267 773.683 573.777 777.733 574.077 779.02C575.053 783.208 577.554 774.935 577.156 768.833L576.8 763.36L575.166 770.02ZM612.836 771.46C613.303 774.264 614.373 777.91 615.216 779.56C617.548 784.127 625.086 803.765 625.808 807.16C626.16 808.81 626.161 806.968 625.813 803.067C625.447 798.975 623.527 792.12 621.273 786.867C619.125 781.858 616.43 775.195 615.284 772.06C612.702 764.993 611.722 764.753 612.836 771.46ZM633.97 770.56C634.684 773.2 636.224 777.25 637.392 779.56C638.559 781.87 639.9 786.595 640.37 790.061C641.304 796.935 643.4 797.515 643.4 790.902C643.4 786.21 638.479 773.236 635.002 768.76L632.672 765.76L633.97 770.56ZM558.418 772.021C557.112 775.366 556.603 779.267 556.886 783.76C557.156 788.047 559.224 783.185 560.095 776.215C561.007 768.913 560.312 767.175 558.418 772.021ZM643.696 771.46C644.001 772.285 645.182 775.795 646.322 779.26C648.606 786.207 651.331 788.021 649.935 781.665C648.798 776.483 645.628 769.96 644.25 769.96C643.641 769.96 643.393 770.635 643.696 771.46ZM604.233 776.346C605.35 785.027 607.665 787.872 607.035 779.789C606.762 776.285 605.852 772.775 605.014 771.989C603.788 770.841 603.636 771.696 604.233 776.346ZM535.1 773.958C533.658 777.481 533.968 789.871 535.462 788.377C536.166 787.674 536.564 783.718 536.362 779.437C536.133 774.575 535.67 772.566 535.1 773.958ZM519.326 777.275C518.388 779.521 517.238 783.52 516.77 786.16C516.007 790.473 516.109 790.777 517.774 789.16C519.5 787.483 522.572 774.751 521.51 773.675C521.247 773.41 520.264 775.03 519.326 777.275ZM566.204 780.444C565.002 783.9 564.248 787.68 564.529 788.844C565.351 792.255 569.197 782.35 568.762 777.939C568.408 774.345 568.284 774.467 566.204 780.444ZM655.903 778.599C656.192 781.039 657.328 784.931 658.426 787.246C659.904 790.359 660.241 793.246 659.722 798.336C659.233 803.137 659.402 804.838 660.279 803.961C662.148 802.092 663.273 789.16 661.568 789.16C660.816 789.16 660.186 787.945 660.169 786.46C660.151 784.974 659.066 781.6 657.757 778.96L655.376 774.16L655.903 778.599ZM547.4 783.16C547.4 786.46 547.94 789.16 548.6 789.16C549.26 789.16 549.8 786.46 549.8 783.16C549.8 779.86 549.26 777.16 548.6 777.16C547.94 777.16 547.4 779.86 547.4 783.16ZM590.949 780.76C588.952 786.696 588.651 789.712 590.019 790.066C591.522 790.455 593.256 783.891 592.748 779.733C592.376 776.677 592.309 776.716 590.949 780.76ZM611.067 780.447C611.03 782.585 612.019 787.015 613.264 790.293C614.509 793.57 615.184 796.457 614.764 796.709C614.343 796.96 614.613 797.026 615.362 796.854C616.142 796.674 617.304 799.449 618.081 803.351C619.91 812.524 621.762 815.338 621.77 808.96C621.774 806.32 620.432 801.271 618.788 797.741C617.145 794.211 615.77 790.431 615.733 789.341C615.696 788.251 614.647 784.93 613.4 781.96C611.139 776.572 611.134 776.568 611.067 780.447ZM580.742 782.674C580.273 783.397 579.54 786.165 579.115 788.824C578.149 794.865 580.534 797.059 581.643 791.151C582.554 786.294 581.97 780.787 580.742 782.674ZM524.66 786.76C524.653 789.07 525.441 793.66 526.412 796.96L528.178 802.96L527.74 795.024C527.25 786.136 524.684 779.251 524.66 786.76ZM597.988 785.938C596.27 790.12 596.172 798.354 597.83 799.378C598.506 799.797 598.953 799.693 598.825 799.149C598.695 798.605 599.004 795.658 599.51 792.6C600.016 789.543 600.194 786.033 599.904 784.8C599.466 782.932 599.148 783.12 597.988 785.938ZM603.292 790.764C602.406 796.677 603.481 801.192 605.149 798.561C606.496 796.433 606.486 787.078 605.134 786.243C604.549 785.88 603.72 787.915 603.292 790.764ZM537.807 789.747C536.53 792.131 536.497 793.684 537.638 797.494C538.424 800.115 539.592 802.583 540.234 802.98C541.96 804.048 541.648 799.648 539.659 794.887C538.362 791.782 538.266 790.374 539.28 789.36C540.027 788.613 540.362 787.722 540.022 787.381C539.682 787.042 538.686 788.106 537.807 789.747ZM645.446 798.497C644.988 806.117 645.189 810.576 646.028 811.36C646.933 812.205 647.112 811.228 646.632 808.06C646.256 805.577 646.455 803.56 647.076 803.56C648.482 803.56 648.576 788.333 647.174 787.468C646.61 787.119 645.832 792.082 645.446 798.497ZM509.156 793.96C509.09 797.59 509.56 801.37 510.2 802.36C511.677 804.645 511.713 799.145 510.268 792.16L509.276 787.36L509.156 793.96ZM651.931 792.76C651.985 797.745 652.081 797.909 653.18 794.905C653.982 792.713 653.962 790.949 653.121 789.505C652.128 787.798 651.885 788.461 651.931 792.76ZM486.469 809.664C490.204 817.624 496.012 836.233 494.462 835.275C492.193 833.872 483.374 814.722 481.239 806.56C478.302 795.333 478.317 790.128 481.266 797.664C482.45 800.692 484.791 806.092 486.469 809.664ZM519.884 798.989C519.838 802.745 520.34 806.152 521 806.56C522.475 807.472 522.475 797.992 521 794.56C520.256 792.829 519.945 794.064 519.884 798.989ZM550.556 795.46C549.48 799.48 549.651 804.76 550.86 804.76C552.144 804.76 553.362 800.562 553.383 796.06C553.404 792.083 551.565 791.693 550.556 795.46ZM559.4 798.061C559.4 804.168 560.38 807.437 561.926 806.482C563.146 805.728 563.326 799.498 562.244 795.46C561.033 790.944 559.4 792.438 559.4 798.061ZM570.218 800.86C570.231 806.532 570.585 808.42 571.4 807.16C572.937 804.78 572.937 792.76 571.4 792.76C570.717 792.76 570.208 796.247 570.218 800.86ZM584.128 795.858C582.943 798.947 583.298 808.36 584.6 808.36C585.267 808.36 585.8 805.159 585.8 801.16C585.8 793.779 585.406 792.528 584.128 795.858ZM654.92 798.16C653.31 804.865 653.223 805.956 654.252 806.592C655.484 807.353 657.038 799.92 656.304 796.78C655.914 795.115 655.568 795.461 654.92 798.16ZM591.8 805.818C591.8 809.118 592.34 812.152 593 812.56C593.739 813.017 594.2 810.996 594.2 807.301C594.2 804.001 593.66 800.968 593 800.56C592.261 800.103 591.8 802.123 591.8 805.818ZM607.442 802.281C605.905 805.153 605.803 815.172 607.302 816.099C607.916 816.479 608.578 813.067 608.802 808.367C609.02 803.74 609.084 799.956 608.942 799.957C608.8 799.959 608.126 801.004 607.442 802.281ZM499.111 816.641C498.56 818.995 500.966 824.944 502.267 824.445C503.096 824.127 506.214 826.987 509.204 830.813C515.287 838.591 517.981 843.16 516.486 843.16C515.35 843.16 508.29 835.879 504.399 830.698C502.605 828.309 501.8 827.844 501.8 829.198C501.8 830.277 501.322 831.16 500.74 831.16C500.157 831.16 499.287 832.374 498.807 833.86C497.97 836.454 496.568 828.933 494.056 808.36L493.25 801.76L496.264 808.841C497.923 812.735 499.203 816.245 499.111 816.641ZM531.253 803.473C530.127 805.296 531.416 810.449 533.803 813.663C535.546 816.011 535.611 815.844 534.885 810.875C533.934 804.363 532.504 801.45 531.253 803.473ZM542.493 810.167C541.023 816.738 541.716 820.095 543.847 816.725C544.941 814.995 545.497 803.56 544.486 803.56C544.203 803.56 543.307 806.533 542.493 810.167ZM577.542 810.989C577.464 814.745 577.94 818.152 578.6 818.56C579.985 819.417 579.985 813.204 578.6 807.76C577.843 804.785 577.659 805.344 577.542 810.989ZM650.968 807.624C651.288 810.75 656.02 812.368 658.269 810.119C659.596 808.792 660.15 808.733 660.609 809.871C660.963 810.748 661.25 810.497 661.305 809.26C661.406 807.015 658.434 806.363 657.2 808.36C655.983 810.329 652.023 809.719 651.357 807.46C650.83 805.673 650.773 805.697 650.968 807.624ZM515.376 808.758C515.829 809.967 516.2 811.41 516.2 811.966C516.2 813.611 522.25 820.306 525.03 821.737C526.97 822.736 526.676 822.067 523.832 819.01C521.76 816.783 519.715 813.793 519.286 812.368C518.858 810.942 517.617 809.052 516.529 808.168C514.804 806.766 514.657 806.842 515.376 808.758ZM612.2 811.261C612.2 816.389 613.225 819.16 615.121 819.16C616.24 819.16 616.296 817.752 615.355 813.16C613.945 806.272 612.2 805.223 612.2 811.261ZM527.005 812.803C526.998 816.538 529.494 821.56 531.355 821.56C533.142 821.56 532.502 819.265 529.18 813.76C527.23 810.527 527.008 810.43 527.005 812.803ZM565.4 814.36C565.4 816.34 565.94 817.96 566.6 817.96C567.26 817.96 567.8 816.34 567.8 814.36C567.8 812.38 567.26 810.76 566.6 810.76C565.94 810.76 565.4 812.38 565.4 814.36ZM707 813.279C707 814.44 705.08 815.014 693.2 817.401C687.92 818.461 681.17 820.065 678.2 820.963C666.976 824.359 654.172 827.556 652.125 827.475C649.209 827.358 659.307 822.99 666.085 821.437C669.118 820.741 673.49 819.394 675.8 818.442C679.492 816.921 701.474 812.434 705.5 812.38C706.326 812.369 707 812.773 707 813.279ZM553.63 816.838C552.819 818.135 550.728 819.221 548.89 819.299C546.687 819.393 546.325 819.625 547.795 820.006C550.984 820.829 555.429 819.459 556.215 817.409C557.265 814.672 555.26 814.228 553.63 816.838ZM596.032 815.507C595.642 816.138 594.616 816.384 593.754 816.053C592.891 815.722 591.492 816.285 590.646 817.305C588.996 819.293 589.678 819.535 593.817 818.425C595.256 818.039 596.725 816.966 597.079 816.041C597.812 814.133 597.105 813.772 596.032 815.507ZM665.991 816.606C668.212 818.014 658.046 821.55 627.2 830.099C610.429 834.747 596.568 835.721 575.719 833.715C568.393 833.01 555.164 831.784 546.321 830.989C522.72 828.87 529.602 827.405 568.4 826.291C600.754 825.363 617.158 823.743 639.405 819.276C657.908 815.561 663.464 815.003 665.991 816.606ZM662.6 829.439C662.6 833.796 654.858 838.577 644.6 840.555C630.826 843.209 624.18 843.377 589.58 841.943C555.337 840.523 553.572 840.331 542.6 836.837C529.687 832.726 529.822 831.286 542.868 833.995C552.728 836.045 578.672 837.781 598.4 837.713C608.8 837.677 614.4 836.956 624.8 834.31C632.06 832.464 643.13 830.538 649.4 830.031C655.67 829.524 661.204 829.03 661.7 828.934C662.196 828.838 662.6 829.066 662.6 829.439ZM639.2 836.163C633.26 837.424 625.43 838.947 621.8 839.545C615.93 840.515 616.262 840.564 624.8 839.992C634.636 839.332 648.958 836.801 650.268 835.492C651.926 833.833 649.459 833.983 639.2 836.163ZM582.8 864.096C585.283 865.698 607.7 906.459 607.096 908.272C606.908 908.835 602.482 901.3 597.259 891.527C582.716 864.316 583.38 865.175 575.644 863.569C571.99 862.81 569 861.897 569 861.539C569 860.393 580.31 862.488 582.8 864.096ZM574.874 888.76C576.852 891.421 577.185 892.321 575.785 891.219C573.39 889.333 566.596 878.116 566.665 876.16C566.688 875.5 567.842 877.12 569.229 879.76C570.616 882.4 573.157 886.45 574.874 888.76ZM580.627 888.46C580.326 889.614 580.078 888.67 580.078 886.36C580.078 884.05 580.326 883.105 580.627 884.26C580.929 885.414 580.929 887.305 580.627 888.46ZM581.016 919.75L581.031 930.16L587.058 939.16C592.32 947.019 596.732 957.313 596.536 961.278C596.503 961.983 594.12 957.7 591.242 951.76C588.364 945.82 584.505 939.61 582.666 937.96L579.321 934.96L581.467 938.379C584.748 943.609 588.213 954.636 588.087 959.448C587.986 963.325 587.74 962.974 585.643 955.96C584.36 951.67 582.502 945.73 581.514 942.76C579.381 936.348 578.755 933.531 577.512 924.76C576.472 917.437 575.223 913.804 573.288 912.478C572.58 911.993 567.307 911.589 561.571 911.578C555.835 911.568 550.869 911.119 550.536 910.579C550.203 910.041 556.921 909.541 565.465 909.469L581 909.339L581.016 919.75ZM421.4 916.835C421.4 917.095 424.23 919.121 427.689 921.335C431.148 923.549 435.873 926.951 438.189 928.895C442.238 932.293 442.216 932.231 437.6 927.268C431.367 920.565 421.4 914.146 421.4 916.835ZM639.37 937.66C638.172 944.909 638.466 954.515 639.814 952.205C641.518 949.288 642.801 933.16 641.329 933.16C640.66 933.16 639.78 935.185 639.37 937.66ZM582.865 963.286C583.537 969.853 581.618 989.562 580.446 988.138C580.274 987.93 579.836 977.5 579.472 964.96C578.869 944.16 578.954 942.739 580.432 948.76C581.324 952.39 582.418 958.926 582.865 963.286ZM533.866 952.06C536.959 958.705 544.388 967.159 546.523 966.463C547.335 966.198 548.584 963.598 549.298 960.685L550.596 955.39L551.398 961.242C551.839 964.462 552.218 968.775 552.241 970.828C552.308 976.955 556.144 983.461 561.615 986.723C564.357 988.359 566.6 989.457 566.6 989.164C566.6 988.87 564.188 984.097 561.241 978.557C557.305 971.157 555.692 966.583 555.165 961.321C554.404 953.727 555.96 954.133 557.61 961.96C559.51 970.972 567.855 984.76 571.408 984.76C573.181 984.76 573.811 983.562 574.401 979.06C575.654 969.525 577.226 967.553 577.318 975.401C577.408 982.943 575.401 993.971 573.752 994.989C572.272 995.904 556.549 987.798 549.274 982.371C540.775 976.029 537.133 971.874 534.14 965.105C531.62 959.407 529.092 946.36 530.508 946.36C530.896 946.36 532.407 948.924 533.866 952.06ZM514.4 958.773C514.4 969.297 514.634 970.351 518.251 976.168C520.879 980.394 521.572 982.36 520.437 982.36C517.976 982.36 513.994 976.735 512.47 971.103C510.686 964.511 511.914 947.52 514.171 947.565C514.297 947.567 514.4 952.611 514.4 958.773ZM394.998 960.631C395.806 962.211 398.028 968.117 399.934 973.757C403.915 985.535 404.451 996.45 401.624 1008.16C399.615 1016.48 399.392 1019.56 400.8 1019.56C402.706 1019.56 406.184 996.202 405.468 988.199C404.601 978.532 399.64 963.635 396.177 960.307L393.528 957.76L394.998 960.631ZM595.314 966.364C596.127 970.893 592.964 985.528 591.728 982.948C591.416 982.294 591.344 976.697 591.568 970.509C591.994 958.821 593.631 957.007 595.314 966.364ZM536.107 964.66C538.874 969.557 543.262 974.201 548.845 978.142C555.044 982.517 554.965 982.389 545.628 972.894C536.085 963.189 534.5 961.818 536.107 964.66ZM528.447 979.645C529.962 981.269 533.818 983.931 537.019 985.559C543.639 988.929 543.733 990.317 537.219 988.518C527.66 985.878 520.93 977.71 521.056 968.898C521.11 965.087 521.186 965.149 523.404 970.827C524.664 974.053 526.933 978.022 528.447 979.645ZM648.532 970.96C648.688 973.063 648.248 974.459 647.472 974.317C646.677 974.172 646.333 975.378 646.616 977.317C646.878 979.101 647.043 984.714 646.984 989.793C646.882 998.64 647.019 999.115 650.239 1001.19C652.088 1002.38 654.553 1004.44 655.718 1005.76C657.813 1008.13 657.83 1008.13 657.249 1005.16C651.958 978.121 647.874 962.093 648.532 970.96ZM412.062 971.136C415.054 974.515 417.541 985.723 418.945 1002.16C419.622 1010.08 420.181 1017.24 420.188 1018.06C420.194 1018.89 420.819 1019.56 421.576 1019.56C423.213 1019.56 422.133 995.531 419.996 984.383C418.605 977.13 414.906 970.356 411.8 969.377C410.364 968.923 410.416 969.28 412.062 971.136ZM487.55 984.283C500.208 1001.62 510.406 1015.07 512.478 1017.16C517.442 1022.16 511.454 1013.11 498.356 995.821C482.179 974.467 474.048 965.785 487.55 984.283ZM633.835 984.16C633.814 990.1 632.988 999.55 632 1005.16C629.806 1017.61 629.77 1019.56 631.734 1019.56C635.371 1019.56 638.472 981.223 635.276 975.76C634.13 973.799 633.866 975.336 633.835 984.16ZM463.986 982.383C462.818 984.273 480.216 1019.56 482.316 1019.56C485.028 1019.56 482.722 1014.39 466.344 983.771C465.346 981.906 464.565 981.445 463.986 982.383ZM483.753 991.416C482.97 992.361 481.714 992.764 480.964 992.313C480.214 991.861 481.066 993.353 482.858 995.626C484.65 997.9 489.24 1004.19 493.058 1009.6C498.823 1017.77 500.56 1019.45 503.3 1019.5C507.159 1019.57 507.084 1019.81 504.861 1014.49C502.968 1009.96 496.296 1001.12 489.49 994.129C485.866 990.406 484.951 989.974 483.753 991.416ZM608.874 1004.07C596.978 1016.97 595.148 1019.56 597.918 1019.56C599.376 1019.56 610.294 1008.77 617.344 1000.36C621.751 995.104 621.853 995.056 621.168 998.56L620.463 1002.16L622.29 999.16L624.115 996.16L624.158 999.831C624.182 1001.96 622.435 1006.43 620 1010.48C615.645 1017.71 615.016 1019.56 616.918 1019.56C619.945 1019.56 627.733 1004.34 627.774 998.345C627.8 994.497 625.245 990.76 622.587 990.76C621.795 990.76 615.624 996.75 608.874 1004.07ZM339.45 1002.8C335.258 1016.56 335.214 1019.56 339.2 1019.56C341.503 1019.56 342.207 1018.93 342.229 1016.86C342.262 1013.83 343.207 1002.97 343.952 997.081C344.919 989.428 342.638 992.323 339.45 1002.8ZM371.332 998.86C369.424 1001.34 365.301 1007.01 362.17 1011.46L356.479 1019.56H360.739C364.317 1019.56 365 1019.14 365 1016.94C365 1013.89 373.946 999.667 376.477 998.697C381.231 996.873 382.958 1000.42 382.983 1012.06C382.993 1016.25 383.529 1019.56 384.2 1019.56C385.876 1019.56 385.724 1002.02 384.02 998.781C380.858 992.773 376.002 992.805 371.332 998.86ZM638.893 1002.03C638.072 1006.35 637.404 1011.13 637.408 1012.63C637.416 1015.19 637.566 1015.13 639.774 1011.78C643.099 1006.74 643.776 1002.46 641.956 998.004L640.386 994.156L638.893 1002.03ZM477.8 998.349C477.8 998.823 480.027 1003.79 482.749 1009.38C487.506 1019.16 487.856 1019.56 491.749 1019.56C493.977 1019.56 495.8 1019.2 495.8 1018.77C495.8 1018.34 493.675 1015.23 491.077 1011.87C485.988 1005.28 477.8 996.947 477.8 998.349ZM645.5 1013.72C643.026 1015.74 641 1017.88 641 1018.48C641 1020.73 646.699 1019.43 649.4 1016.56C653.244 1012.47 655.339 1012.74 651.727 1016.86C650.137 1018.67 649.611 1019.49 650.558 1018.66C652.616 1016.87 654.646 1016.67 653.6 1018.36C653.179 1019.04 654.188 1019.56 655.929 1019.56C659.62 1019.56 659.697 1018.92 656.613 1013.86C653.671 1009.03 651.27 1009 645.5 1013.72ZM626.878 1015.96C626.878 1018.27 627.126 1019.21 627.427 1018.06C627.729 1016.91 627.729 1015.01 627.427 1013.86C627.126 1012.71 626.878 1013.65 626.878 1015.96Z" fill="#F0A6CA" fill-opacity="0.54"/>
<path d="M712.529 265.626L513.138 128.981L512.31 130.176L494.877 155.153L694.487 291.92L712.529 265.626ZM663.919 335.988C640.937 320.238 645.873 301.517 656.962 282.667L600.029 244.63C587.099 261.253 572.181 273.114 551.81 259.157L528.788 292.724L561.723 315.308L568.876 303.808C567.436 301.334 566.606 298.456 566.606 295.386C566.606 286.128 574.122 278.613 583.38 278.613C592.635 278.613 600.126 286.128 600.126 295.386C600.126 304.644 592.634 312.134 583.378 312.134C583.226 312.134 583.065 312.114 582.915 312.11L575.175 324.537L595.658 338.551L614.017 309.107L627.861 317.724L620.585 329.396L633.232 337.281L621.44 356.227L640.924 369.58L663.921 335.986L663.919 335.988ZM515.459 97.4385C515.451 97.1963 515.441 96.9479 515.41 96.7041C515.329 96.058 515.188 95.4135 514.971 94.7276C514.104 91.9854 511.794 88.9463 508.769 86.8174C505.746 84.6893 502.139 83.5674 499.297 83.6924C496.455 83.8174 494.345 84.6745 492.168 87.794L450.396 147.633C448.605 150.198 448.56 152.107 449.493 154.761C450.424 157.414 452.821 160.482 455.913 162.671C459.007 164.859 462.679 166.071 465.435 166.039C468.193 166.007 469.956 165.343 471.857 162.621L513.626 102.759C515.017 100.77 515.517 99.1206 515.458 97.4385L515.459 97.4385ZM480.962 52.9541C480.642 33.9276 473.525 17.4041 459.673 7.91117C440.348 -5.33102 412.991 -1.3607 389.14 15.4307C385.452 13.9948 381.452 13.1846 377.275 13.1846C359.116 13.1846 344.218 28.0831 344.218 46.2417C344.218 52.9877 346.269 59.2823 349.784 64.5276C335.34 98.2838 339.851 133.332 362.895 149.121C384.208 163.727 415.17 157.624 440.483 136.329L474.881 87.037C478.871 76.087 480.897 65.1073 480.962 54.8104C480.965 54.1916 480.971 53.5682 480.962 52.9549L480.962 52.9541ZM395.708 46.2409C395.708 56.5088 387.544 64.6737 377.275 64.6737C367.007 64.6737 358.818 56.5096 358.818 46.2416C358.818 35.9745 367.007 27.7854 377.275 27.7854C387.543 27.7854 395.708 35.9745 395.708 46.2416L395.708 46.2409Z" fill="black" fill-opacity="0.12"/>
<g opacity="0.12" clip-path="url(#clip0_31_760)">
<path d="M410.776 291.744L384.733 261.041C376.455 266.334 365.336 264.83 358.805 257.129L136.581 445.616C143.113 453.317 142.783 464.532 136.211 471.835L162.252 502.538C170.531 497.245 181.649 498.749 188.181 506.45C194.713 514.151 194.383 525.366 187.811 532.67L213.852 563.372C222.13 558.08 233.249 559.584 239.781 567.285L462.005 378.797C455.473 371.096 455.803 359.881 462.375 352.577L436.334 321.875C428.055 327.168 416.937 325.663 410.405 317.963C403.873 310.262 404.204 299.047 410.776 291.744Z" fill="black"/>
<path d="M242.198 535.362L393.905 406.679L320.184 319.767L168.477 448.449L242.198 535.362Z" fill="#7A7473"/>
<path d="M257.831 400.031L282.507 415.269L304.624 396.509L297.758 424.686L322.434 439.924L293.514 442.1L286.647 470.277L275.64 443.445L246.721 445.622L268.838 426.863L257.831 400.031Z" fill="black"/>
<path opacity="0.1" d="M208.339 556.874L338.175 314.791L320.422 305.27L326.514 288.971L323.297 287.247L136.581 445.616C143.113 453.317 142.783 464.532 136.211 471.835L162.253 502.538C170.53 497.245 181.65 498.75 188.182 506.451C194.714 514.152 194.384 525.367 187.811 532.67L208.339 556.874Z" fill="#7A7473"/>
<path d="M229.409 261.369L193.93 242.341C188.167 250.298 177.269 252.972 168.371 248.199L30.6446 504.992C39.5428 509.765 43.345 520.322 39.9051 529.526L75.3834 548.554C81.1468 540.597 92.0444 537.923 100.943 542.695C109.841 547.468 113.643 558.025 110.203 567.229L145.681 586.257C151.445 578.301 162.342 575.626 171.241 580.399L308.965 323.607C300.067 318.835 296.265 308.277 299.705 299.073L264.227 280.045C258.464 288.002 247.566 290.676 238.668 285.903C229.77 281.129 225.969 270.573 229.409 261.369Z" fill="black"/>
<path d="M158.048 297.971C157.575 297.844 157.109 297.661 156.659 297.42L145.252 291.302C142.102 289.613 140.917 285.69 142.608 282.54C144.296 279.39 148.22 278.205 151.37 279.896L162.776 286.014C165.927 287.703 167.111 291.626 165.42 294.776C163.974 297.475 160.884 298.73 158.048 297.971Z" fill="#7A7473"/>
<path d="M252.275 348.506C251.803 348.38 251.337 348.196 250.886 347.955L227.329 335.321C224.179 333.632 222.995 329.709 224.685 326.559C226.374 323.409 230.295 322.224 233.447 323.915L257.004 336.549C260.154 338.238 261.338 342.161 259.648 345.311C258.202 348.011 255.112 349.266 252.275 348.506ZM205.162 323.238C204.689 323.112 204.224 322.929 203.773 322.688L180.216 310.053C177.066 308.364 175.881 304.441 177.572 301.291C179.261 298.141 183.182 296.956 186.334 298.647L209.891 311.282C213.041 312.97 214.225 316.894 212.535 320.043C211.088 322.743 207.999 323.998 205.162 323.238Z" fill="#7A7473"/>
<path d="M287.239 367.259C286.766 367.133 286.3 366.949 285.849 366.708L274.443 360.59C271.293 358.901 270.108 354.978 271.799 351.828C273.487 348.679 277.411 347.494 280.561 349.184L291.967 355.302C295.118 356.991 296.302 360.914 294.611 364.064C293.164 366.764 290.075 368.019 287.239 367.259Z" fill="#7A7473"/>
<path d="M161.811 549.82L255.846 374.514L155.414 320.641L61.3787 495.947L161.811 549.82Z" fill="#7A7473"/>
<path d="M126.767 418.158L155.309 423.296L169.016 397.739L172.949 426.472L201.491 431.611L175.38 444.23L179.312 472.964L159.241 452.03L133.13 464.65L146.837 439.092L126.767 418.158Z" fill="black"/>
<path d="M333.132 300.701C331.904 300.372 330.761 299.68 329.877 298.637L321.505 288.765C319.192 286.039 319.528 281.955 322.254 279.643C324.98 277.331 329.065 277.667 331.376 280.392L339.749 290.264C342.061 292.99 341.726 297.074 339 299.386C337.316 300.814 335.114 301.232 333.132 300.701Z" fill="#7A7473"/>
<path d="M402.295 382.244C401.067 381.915 399.925 381.222 399.041 380.18L381.75 359.794C379.437 357.068 379.773 352.983 382.499 350.672C385.225 348.36 389.309 348.696 391.621 351.422L408.912 371.807C411.224 374.534 410.889 378.618 408.163 380.929C406.479 382.356 404.277 382.775 402.295 382.244ZM367.714 341.472C366.486 341.143 365.343 340.45 364.459 339.408L347.169 319.022C344.856 316.296 345.192 312.212 347.918 309.901C350.644 307.588 354.729 307.924 357.04 310.65L374.331 331.036C376.643 333.762 376.307 337.846 373.581 340.158C371.898 341.585 369.696 342.003 367.714 341.472Z" fill="#7A7473"/>
<path d="M427.959 412.5C426.731 412.171 425.588 411.478 424.704 410.436L416.331 400.565C414.018 397.839 414.354 393.754 417.08 391.443C419.806 389.13 423.891 389.466 426.202 392.192L434.575 402.063C436.888 404.789 436.552 408.874 433.826 411.185C432.143 412.613 429.941 413.031 427.959 412.5Z" fill="#7A7473"/>
</g>
<defs>
<clipPath id="clip0_31_760">
<rect width="383.999" height="383.999" fill="white" transform="translate(116.386 185) rotate(15)"/>
</clipPath>
</defs>
</svg>
