<svg width="871" height="960" viewBox="0 0 871 960" fill="none" xmlns="http://www.w3.org/2000/svg">
<g opacity="0.1">
<path d="M606.124 95.6695C687.334 73.9093 771.097 122.27 792.857 203.48C814.617 284.69 766.256 368.453 685.046 390.213C627.442 405.648 565.685 385.743 527.732 339.489C519.933 329.985 507.292 325.929 495.423 329.109L401.012 354.406C389.131 357.59 380.224 367.42 378.222 379.55C368.48 438.584 324.962 486.697 267.345 502.135C186.135 523.896 102.372 475.535 80.6122 394.325C58.852 313.115 107.213 229.352 188.422 207.592L606.124 95.6695ZM598.019 65.4214L180.318 177.344C82.2776 203.614 24.0944 304.39 50.3641 402.43C76.6338 500.47 177.41 558.653 275.45 532.384C347.404 513.104 397.726 453.649 409.114 384.642L503.524 359.345C547.89 413.412 621.197 439.741 693.151 420.461C791.191 394.191 849.374 293.415 823.105 195.375C796.835 97.3349 696.059 39.1517 598.019 65.4214Z" fill="black"/>
<path d="M250.27 438.409C296.41 426.046 323.792 378.619 311.429 332.478C299.066 286.337 251.639 258.955 205.498 271.319C159.357 283.682 131.975 331.109 144.339 377.25C156.702 423.39 204.129 450.772 250.27 438.409Z" stroke="black" stroke-width="18.789" stroke-miterlimit="10" stroke-linejoin="round"/>
<path d="M614.806 128.071C551.37 145.069 513.714 210.272 530.715 273.72C547.716 337.169 612.916 374.812 676.364 357.811C739.801 340.813 777.456 275.61 760.455 212.162C743.454 148.713 678.242 111.073 614.806 128.071ZM598.961 277.817C587.43 280.906 575.571 274.06 572.482 262.529C569.392 250.998 576.239 239.14 587.769 236.05C599.3 232.961 611.158 239.807 614.248 251.338C617.338 262.868 610.503 274.724 598.961 277.817ZM665.173 316.044C653.643 319.134 641.784 312.287 638.694 300.757C635.605 289.226 642.451 277.368 653.982 274.278C665.512 271.188 677.371 278.035 680.461 289.566C683.55 301.096 676.704 312.955 665.173 316.044ZM637.192 211.616C625.661 214.706 613.802 207.859 610.713 196.329C607.623 184.798 614.47 172.939 626 169.85C637.531 166.76 649.39 173.607 652.479 185.137C655.569 196.668 648.722 208.527 637.192 211.616ZM703.389 249.835C691.858 252.925 680 246.078 676.91 234.548C673.82 223.017 680.667 211.158 692.198 208.069C703.728 204.979 715.587 211.826 718.676 223.356C721.766 234.887 714.919 246.746 703.389 249.835Z" fill="black"/>
<path d="M237.295 337.766L229.748 309.599L203.637 316.595L211.185 344.762L181.167 352.806L188.163 378.916L218.181 370.872L226.02 400.128L252.13 393.132L244.291 363.876L273.015 356.18L266.018 330.07L237.295 337.766Z" fill="black"/>
<path d="M440.872 305.704C435.702 302.719 433.928 296.101 436.913 290.931L456.027 257.825C459.012 252.655 465.63 250.881 470.8 253.866C475.97 256.851 477.744 263.469 474.759 268.639L455.645 301.746C452.66 306.916 446.042 308.689 440.872 305.704Z" fill="black"/>
<path d="M379.117 322.251C373.947 319.266 372.174 312.648 375.159 307.478L394.273 274.372C397.258 269.202 403.876 267.429 409.046 270.413C414.216 273.398 415.989 280.017 413.004 285.187L393.89 318.293C390.893 323.466 384.287 325.236 379.117 322.251Z" fill="black"/>
<path d="M261.065 144.517L167.078 169.7C155.548 172.79 148.701 184.649 151.79 196.179L287.544 159.804C284.454 148.274 272.595 141.427 261.065 144.517Z" fill="black"/>
<path d="M605.663 52.1819L511.676 77.3655C500.145 80.4551 493.299 92.3139 496.388 103.844L632.141 67.4695C629.052 55.9389 617.193 49.0923 605.663 52.1819Z" fill="black"/>
</g>
<path d="M369.291 120C363.103 75.1436 321.379 98.3166 291.042 85.9209C258.638 72.6804 262.997 32.9486 272.433 7" stroke="black" stroke-opacity="0.12" stroke-width="12" stroke-linecap="round"/>
<g opacity="0.16" clip-path="url(#clip0_31_719)">
<path d="M194 810L296.751 707.248C270.455 680.952 234.127 664.688 194 664.688C113.746 664.688 48.6875 729.746 48.6875 810C48.6875 890.254 113.746 955.312 194 955.312C234.127 955.312 270.455 939.048 296.751 912.752L194 810Z" fill="#59595A"/>
<path d="M78.9436 810C78.9436 734.855 135.984 673.035 209.128 665.469C204.155 664.954 199.109 664.688 194 664.688C113.746 664.688 48.6875 729.746 48.6875 810C48.6875 890.254 113.746 955.312 194 955.312C199.109 955.312 204.155 955.046 209.128 954.531C135.983 946.965 78.9436 885.145 78.9436 810Z" fill="#3A3A3A"/>
<path d="M201.023 734.987C207.495 734.987 212.742 729.74 212.742 723.267C212.742 716.795 207.495 711.548 201.023 711.548C194.551 711.548 189.304 716.795 189.304 723.267C189.304 729.74 194.551 734.987 201.023 734.987Z" fill="#333334"/>
<path d="M245.557 820.539C251.382 820.539 256.104 815.817 256.104 809.991C256.104 804.166 251.382 799.444 245.557 799.444C239.732 799.444 235.009 804.166 235.009 809.991C235.009 815.817 239.732 820.539 245.557 820.539Z" fill="#3A3A3A"/>
<path d="M287.746 820.539C293.572 820.539 298.294 815.817 298.294 809.991C298.294 804.166 293.572 799.444 287.746 799.444C281.921 799.444 277.199 804.166 277.199 809.991C277.199 815.817 281.921 820.539 287.746 820.539Z" fill="#3A3A3A"/>
<path d="M329.937 820.539C335.762 820.539 340.484 815.817 340.484 809.991C340.484 804.166 335.762 799.444 329.937 799.444C324.112 799.444 319.389 804.166 319.389 809.991C319.389 815.817 324.112 820.539 329.937 820.539Z" fill="#3A3A3A"/>
<path d="M200.629 810L300.066 710.563C300.946 709.684 301.439 708.492 301.439 707.248C301.439 706.005 300.945 704.813 300.066 703.934C271.735 675.603 234.066 660 194 660C153.934 660 116.265 675.603 87.9336 703.934C59.6023 732.264 44 769.934 44 810C44 850.066 59.6029 887.735 87.9336 916.066C116.264 944.398 153.934 960 194 960C234.066 960 271.735 944.397 300.066 916.066C301.897 914.236 301.897 911.268 300.066 909.437L200.629 810ZM194 950.624C116.459 950.624 53.3756 887.541 53.3756 810C53.3756 732.459 116.459 669.376 194 669.376C229.996 669.376 263.926 682.807 290.068 707.302L190.685 806.685C188.855 808.516 188.855 811.484 190.685 813.315L290.068 912.698C263.926 937.193 229.996 950.624 194 950.624ZM184.624 723.281C184.624 714.234 191.984 706.875 201.031 706.875C203.62 706.875 205.719 708.973 205.719 711.562C205.719 714.151 203.62 716.25 201.031 716.25C197.155 716.25 194 719.404 194 723.281C194 727.158 197.154 730.312 201.031 730.312C204.908 730.312 208.062 727.158 208.062 723.281C208.062 720.693 210.161 718.594 212.75 718.594C215.339 718.594 217.438 720.693 217.438 723.281C217.438 732.328 210.078 739.688 201.031 739.688C191.984 739.688 184.624 732.328 184.624 723.281ZM240.875 810C240.875 812.585 242.977 814.687 245.562 814.687C248.146 814.687 250.249 812.585 250.249 810C250.249 807.411 252.348 805.312 254.936 805.312C257.525 805.312 259.624 807.411 259.624 810C259.624 817.754 253.315 824.062 245.561 824.062C237.807 824.062 231.499 817.754 231.499 810C231.499 802.246 237.808 795.938 245.561 795.938C248.15 795.938 250.249 798.036 250.249 800.625C250.249 803.214 248.15 805.312 245.561 805.312C242.978 805.313 240.875 807.415 240.875 810ZM301.812 810C301.812 817.754 295.504 824.062 287.75 824.062C279.996 824.062 273.688 817.754 273.688 810C273.688 802.246 279.996 795.938 287.75 795.938C290.339 795.938 292.438 798.036 292.438 800.625C292.438 803.214 290.339 805.312 287.75 805.312C285.165 805.312 283.063 807.415 283.063 809.999C283.063 812.584 285.165 814.686 287.75 814.686C290.335 814.686 292.437 812.584 292.437 809.999C292.437 807.411 294.536 805.312 297.124 805.312C299.714 805.312 301.812 807.411 301.812 810ZM344 810C344 817.754 337.691 824.062 329.938 824.062C322.183 824.062 315.875 817.754 315.875 810C315.875 802.246 322.184 795.938 329.938 795.938C332.526 795.938 334.625 798.036 334.625 800.625C334.625 803.214 332.526 805.312 329.938 805.312C327.353 805.312 325.251 807.415 325.251 809.999C325.251 812.584 327.353 814.686 329.938 814.686C332.522 814.686 334.624 812.584 334.624 809.999C334.624 807.411 336.723 805.312 339.312 805.312C341.901 805.312 344 807.411 344 810Z" fill="#59595A"/>
<path d="M200.629 810L300.066 710.563C300.946 709.684 301.439 708.492 301.439 707.248C301.439 706.005 300.945 704.813 300.066 703.934C271.735 675.603 234.066 660 194 660C153.934 660 116.265 675.603 87.9336 703.934C59.6023 732.264 44 769.934 44 810C44 850.066 59.6029 887.735 87.9336 916.066C116.264 944.398 153.934 960 194 960C234.066 960 271.735 944.397 300.066 916.066C301.897 914.236 301.897 911.268 300.066 909.437L200.629 810ZM194 950.624C116.459 950.624 53.3756 887.541 53.3756 810C53.3756 732.459 116.459 669.376 194 669.376C229.996 669.376 263.926 682.807 290.068 707.302L190.685 806.685C188.855 808.516 188.855 811.484 190.685 813.315L290.068 912.698C263.926 937.193 229.996 950.624 194 950.624ZM184.624 723.281C184.624 714.234 191.984 706.875 201.031 706.875C203.62 706.875 205.719 708.973 205.719 711.562C205.719 714.151 203.62 716.25 201.031 716.25C197.155 716.25 194 719.404 194 723.281C194 727.158 197.154 730.312 201.031 730.312C204.908 730.312 208.062 727.158 208.062 723.281C208.062 720.693 210.161 718.594 212.75 718.594C215.339 718.594 217.438 720.693 217.438 723.281C217.438 732.328 210.078 739.688 201.031 739.688C191.984 739.688 184.624 732.328 184.624 723.281ZM240.875 810C240.875 812.585 242.977 814.687 245.562 814.687C248.146 814.687 250.249 812.585 250.249 810C250.249 807.411 252.348 805.312 254.936 805.312C257.525 805.312 259.624 807.411 259.624 810C259.624 817.754 253.315 824.062 245.561 824.062C237.807 824.062 231.499 817.754 231.499 810C231.499 802.246 237.808 795.938 245.561 795.938C248.15 795.938 250.249 798.036 250.249 800.625C250.249 803.214 248.15 805.312 245.561 805.312C242.978 805.313 240.875 807.415 240.875 810ZM301.812 810C301.812 817.754 295.504 824.062 287.75 824.062C279.996 824.062 273.688 817.754 273.688 810C273.688 802.246 279.996 795.938 287.75 795.938C290.339 795.938 292.438 798.036 292.438 800.625C292.438 803.214 290.339 805.312 287.75 805.312C285.165 805.312 283.063 807.415 283.063 809.999C283.063 812.584 285.165 814.686 287.75 814.686C290.335 814.686 292.437 812.584 292.437 809.999C292.437 807.411 294.536 805.312 297.124 805.312C299.714 805.312 301.812 807.411 301.812 810ZM344 810C344 817.754 337.691 824.062 329.938 824.062C322.183 824.062 315.875 817.754 315.875 810C315.875 802.246 322.184 795.938 329.938 795.938C332.526 795.938 334.625 798.036 334.625 800.625C334.625 803.214 332.526 805.312 329.938 805.312C327.353 805.312 325.251 807.415 325.251 809.999C325.251 812.584 327.353 814.686 329.938 814.686C332.522 814.686 334.624 812.584 334.624 809.999C334.624 807.411 336.723 805.312 339.312 805.312C341.901 805.312 344 807.411 344 810Z" fill="#3A3A3A"/>
</g>
<g opacity="0.54" clip-path="url(#clip1_31_719)">
<path d="M767.876 825.314L737.379 797.189L706.883 825.314L676.408 797.189L645.959 825.314L615.494 797.189L585.036 825.314L554.579 797.189L524.124 825.314V656.562C524.124 589.252 578.689 534.686 645.999 534.686C713.31 534.686 767.876 589.252 767.876 656.563V825.314Z" fill="#F0A6CA"/>
<path d="M664.745 536.122C658.634 535.179 652.374 534.687 645.999 534.687C578.69 534.686 524.124 589.252 524.124 656.563V825.314L554.581 797.189L561.615 803.684V656.563C561.615 595.627 606.335 545.139 664.745 536.122Z" fill="#F596CF"/>
<path d="M594.42 684.722C607.362 684.722 617.853 674.231 617.853 661.29C617.853 648.349 607.362 637.858 594.42 637.858C581.479 637.858 570.988 648.349 570.988 661.29C570.988 674.231 581.479 684.722 594.42 684.722Z" fill="white"/>
<path d="M696.937 684.722C709.878 684.722 720.369 674.231 720.369 661.29C720.369 648.349 709.878 637.858 696.937 637.858C683.996 637.858 673.505 648.349 673.505 661.29C673.505 674.231 683.996 684.722 696.937 684.722Z" fill="white"/>
<path d="M599.107 673.592C605.901 673.592 611.409 668.084 611.409 661.29C611.409 654.496 605.901 648.988 599.107 648.988C592.313 648.988 586.806 654.496 586.806 661.29C586.806 668.084 592.313 673.592 599.107 673.592Z" fill="#A6BCD9"/>
<path d="M701.623 673.592C708.417 673.592 713.925 668.084 713.925 661.29C713.925 654.496 708.417 648.988 701.623 648.988C694.829 648.988 689.321 654.496 689.321 661.29C689.321 668.084 694.829 673.592 701.623 673.592Z" fill="#A6BCD9"/>
<path d="M771.692 828.028C771.737 827.964 771.782 827.898 771.824 827.831C771.865 827.767 771.905 827.702 771.942 827.636C771.98 827.571 772.016 827.504 772.05 827.437C772.085 827.367 772.119 827.298 772.15 827.227C772.181 827.159 772.21 827.089 772.237 827.019C772.265 826.947 772.292 826.875 772.316 826.803C772.34 826.731 772.362 826.658 772.383 826.585C772.404 826.51 772.424 826.436 772.441 826.361C772.457 826.288 772.472 826.215 772.485 826.141C772.499 826.061 772.511 825.982 772.521 825.902C772.53 825.832 772.538 825.761 772.544 825.689C772.551 825.604 772.554 825.518 772.557 825.432C772.558 825.392 772.562 825.353 772.562 825.313V656.562C772.562 622.756 759.398 590.974 735.494 567.069C711.588 543.165 679.807 530 646 530C612.194 530 580.411 543.165 556.506 567.069C532.602 590.974 519.438 622.756 519.438 656.562V825.314C519.438 825.355 519.443 825.394 519.444 825.434C519.446 825.52 519.45 825.605 519.457 825.691C519.463 825.762 519.47 825.834 519.479 825.905C519.489 825.985 519.501 826.064 519.515 826.144C519.529 826.218 519.544 826.291 519.56 826.364C519.577 826.439 519.596 826.513 519.617 826.587C519.638 826.661 519.66 826.733 519.684 826.805C519.709 826.878 519.735 826.95 519.763 827.021C519.791 827.091 519.82 827.161 519.851 827.23C519.882 827.3 519.916 827.369 519.951 827.438C519.985 827.506 520.021 827.572 520.059 827.639C520.097 827.704 520.136 827.768 520.177 827.833C520.22 827.9 520.265 827.966 520.311 828.031C520.353 828.09 520.396 828.147 520.441 828.204C520.493 828.271 520.548 828.337 520.605 828.402C520.632 828.432 520.655 828.464 520.683 828.494C520.702 828.515 520.723 828.532 520.743 828.553C520.809 828.621 520.877 828.686 520.946 828.751C520.996 828.797 521.045 828.843 521.096 828.887C521.163 828.944 521.233 828.997 521.304 829.05C521.361 829.093 521.416 829.138 521.474 829.178C521.545 829.227 521.62 829.27 521.693 829.315C521.753 829.351 521.811 829.391 521.873 829.424C521.959 829.471 522.048 829.512 522.138 829.554C522.189 829.578 522.238 829.605 522.29 829.627C522.716 829.809 523.174 829.93 523.653 829.978C523.755 829.988 523.857 829.989 523.959 829.993C524.015 829.995 524.069 830.001 524.126 830.001H524.127C524.278 830.001 524.429 829.993 524.579 829.978C524.635 829.973 524.69 829.963 524.746 829.955C524.838 829.943 524.931 829.931 525.023 829.913C525.088 829.9 525.152 829.884 525.217 829.868C525.297 829.849 525.377 829.83 525.456 829.807C525.522 829.787 525.587 829.764 525.652 829.742C525.728 829.715 525.804 829.689 525.879 829.658C525.943 829.633 526.005 829.604 526.067 829.576C526.14 829.543 526.213 829.509 526.285 829.471C526.346 829.44 526.406 829.405 526.466 829.371C526.534 829.331 526.602 829.291 526.669 829.248C526.73 829.208 526.789 829.167 526.848 829.125C526.909 829.081 526.97 829.036 527.03 828.989C527.09 828.941 527.149 828.891 527.207 828.84C527.239 828.812 527.274 828.786 527.305 828.757L554.583 803.568L581.86 828.757C583.655 830.415 586.423 830.415 588.219 828.757L615.497 803.568L642.783 828.757C644.579 830.415 647.347 830.415 649.141 828.757L676.412 803.568L703.707 828.758C705.501 830.414 708.267 830.415 710.063 828.76L737.381 803.565L764.7 828.76C764.731 828.788 764.763 828.811 764.794 828.837C764.857 828.893 764.922 828.947 764.988 828.999C765.045 829.044 765.104 829.088 765.163 829.13C765.228 829.176 765.293 829.221 765.36 829.263C765.424 829.304 765.489 829.344 765.555 829.382C765.62 829.419 765.688 829.455 765.756 829.49C765.824 829.525 765.893 829.558 765.963 829.59C766.032 829.621 766.102 829.65 766.174 829.677C766.244 829.705 766.315 829.731 766.387 829.755C766.46 829.78 766.534 829.802 766.609 829.823C766.681 829.844 766.754 829.862 766.828 829.879C766.902 829.896 766.977 829.912 767.053 829.924C767.13 829.938 767.208 829.95 767.285 829.96C767.358 829.969 767.431 829.977 767.505 829.982C767.588 829.989 767.671 829.993 767.754 829.995C767.795 829.996 767.836 830.001 767.878 830.001C767.909 830.001 767.939 829.997 767.971 829.996C768.052 829.995 768.133 829.99 768.214 829.984C768.29 829.979 768.366 829.973 768.441 829.964C768.514 829.955 768.585 829.943 768.657 829.931C768.739 829.918 768.819 829.904 768.9 829.886C768.965 829.872 769.03 829.854 769.095 829.836C769.177 829.814 769.259 829.792 769.34 829.766C769.405 829.745 769.469 829.719 769.533 829.695C769.61 829.666 769.686 829.637 769.761 829.604C769.829 829.575 769.895 829.541 769.961 829.508C770.029 829.474 770.098 829.44 770.165 829.404C770.233 829.365 770.298 829.324 770.365 829.282C770.428 829.243 770.491 829.204 770.551 829.162C770.614 829.118 770.676 829.07 770.737 829.023C770.798 828.975 770.859 828.928 770.918 828.879C770.973 828.831 771.027 828.781 771.08 828.731C771.141 828.673 771.201 828.615 771.259 828.555C771.28 828.533 771.303 828.514 771.324 828.492C771.352 828.462 771.375 828.429 771.402 828.398C771.458 828.335 771.512 828.27 771.564 828.204C771.606 828.145 771.65 828.087 771.692 828.028ZM734.202 793.743L706.885 818.937L679.587 793.744C677.792 792.087 675.023 792.088 673.229 793.746L645.959 818.935L618.674 793.745C616.879 792.087 614.111 792.087 612.316 793.745L585.038 818.935L557.761 793.745C555.966 792.087 553.198 792.087 551.403 793.745L528.812 814.607V656.562C528.812 591.944 581.383 539.373 646.002 539.373C710.621 539.373 763.191 591.944 763.191 656.562V814.616L740.559 793.743C738.762 792.089 735.997 792.089 734.202 793.743ZM620.207 649.971C621.769 653.536 622.561 657.33 622.561 661.25C622.561 676.758 609.945 689.374 594.437 689.374C578.929 689.374 566.313 676.758 566.313 661.25C566.313 645.742 578.929 633.126 594.437 633.126C598.343 633.126 602.126 633.913 605.681 635.464C608.053 636.5 609.136 639.262 608.101 641.635C607.065 644.007 604.303 645.089 601.93 644.055C599.565 643.022 597.044 642.499 594.436 642.499C584.097 642.499 575.685 650.911 575.685 661.25C575.685 671.59 584.096 680.002 594.436 680.002C604.776 680.002 613.188 671.59 613.188 661.25C613.188 658.635 612.661 656.105 611.621 653.733C610.583 651.363 611.662 648.599 614.033 647.56C616.403 646.52 619.168 647.6 620.207 649.971ZM723.332 649.971C724.895 653.536 725.687 657.33 725.687 661.25C725.687 676.758 713.07 689.374 697.563 689.374C682.055 689.374 669.438 676.758 669.438 661.25C669.438 645.742 682.055 633.126 697.563 633.126C701.469 633.126 705.252 633.913 708.806 635.464C711.178 636.5 712.262 639.262 711.226 641.635C710.19 644.007 707.428 645.089 705.056 644.055C702.691 643.022 700.17 642.499 697.562 642.499C687.223 642.499 678.81 650.911 678.81 661.25C678.81 671.59 687.222 680.002 697.562 680.002C707.902 680.002 716.313 671.59 716.313 661.25C716.313 658.635 715.787 656.105 714.747 653.733C713.708 651.363 714.788 648.599 717.159 647.56C719.53 646.52 722.294 647.6 723.332 649.971Z" fill="#F0A6CA"/>
</g>
<defs>
<clipPath id="clip0_31_719">
<rect width="300" height="300" fill="white" transform="translate(44 660)"/>
</clipPath>
<clipPath id="clip1_31_719">
<rect width="300" height="300" fill="white" transform="translate(496 530)"/>
</clipPath>
</defs>
</svg>
